<svg width="76" height="72" viewBox="0 0 76 72" fill="none" xmlns="http://www.w3.org/2000/svg">
<path fill-rule="evenodd" clip-rule="evenodd" d="M11.658 46.5543C13.2999 44.9124 15.5268 43.99 17.8487 43.99C20.1707 43.99 22.3976 44.9124 24.0395 46.5543C25.6813 48.1962 26.6037 50.423 26.6037 52.745C26.6037 55.067 25.6813 57.2938 24.0395 58.9357C22.3976 60.5776 20.1707 61.5 17.8487 61.5C15.5268 61.5 13.2999 60.5776 11.658 58.9357C10.0161 57.2938 9.09375 55.067 9.09375 52.745C9.09375 50.423 10.0161 48.1962 11.658 46.5543ZM12.0674 50.3513C11.753 51.1102 11.5912 51.9236 11.5912 52.745C11.5912 54.4039 12.2503 55.9949 13.4233 57.168C14.5963 58.341 16.1873 59 17.8462 59C19.5052 59 21.0962 58.341 22.2692 57.168C23.4422 55.9949 24.1012 54.4039 24.1012 52.745C24.1012 51.9236 23.9395 51.1102 23.6251 50.3513C23.3108 49.5924 22.85 48.9029 22.2692 48.322C21.6884 47.7412 20.9988 47.2805 20.2399 46.9661C19.481 46.6518 18.6677 46.49 17.8462 46.49C17.0248 46.49 16.2115 46.6518 15.4526 46.9661C14.6937 47.2805 14.0041 47.7412 13.4233 48.322C12.8425 48.9029 12.3817 49.5924 12.0674 50.3513Z" fill="#FF0084"/>
<path d="M60.4987 47.75C60.4987 50.0706 59.5769 52.2962 57.9359 53.9372C56.295 55.5781 54.0694 56.5 51.7487 56.5C49.4281 56.5 47.2025 55.5781 45.5616 53.9372C43.9206 52.2962 42.9987 50.0706 42.9987 47.75C42.9987 45.4294 43.9206 43.2038 45.5616 41.5628C47.2025 39.9219 49.4281 39 51.7487 39C54.0694 39 56.295 39.9219 57.9359 41.5628C59.5769 43.2038 60.4987 45.4294 60.4987 47.75Z" fill="#FF0084"/>
<path d="M68.1689 30.8519C63.6684 26.5667 57.7293 24.1174 51.5164 23.9844C47.3271 23.9247 43.203 25.0261 39.6013 27.1667C35.9997 29.3073 33.0611 32.4035 31.1114 36.1119C29.7214 33.3444 27.8089 29.5144 26.2664 26.4219H31.5614C33.126 26.3203 34.6111 25.6964 35.7788 24.6502C36.9465 23.6039 37.7292 22.196 38.0014 20.6519C38.9808 19.8325 39.7601 18.8003 40.28 17.634C40.7999 16.4677 41.0467 15.1981 41.0014 13.9219C41.0014 4.76694 30.7514 0.171938 25.0664 0.171938C17.2839 0.0469382 14.9989 5.75694 12.9614 10.8419L12.9364 10.9069C11.6864 14.1419 0.656416 42.7669 0.656416 51.4594C0.63496 56.7692 2.69988 61.8749 6.40642 65.6769C8.28189 67.5562 10.5196 69.0349 12.9837 70.0233C15.4479 71.0117 18.0871 71.4893 20.7414 71.4269H49.2839C67.2839 71.4269 75.5014 58.2094 75.5014 45.9269C75.3683 43.0477 74.6494 40.2258 73.3887 37.6338C72.128 35.0418 70.3518 32.7342 68.1689 30.8519ZM17.5889 12.7494C19.7714 7.28694 20.9814 5.17694 24.8564 5.17694H25.0314C28.7589 5.17694 36.0089 8.26444 36.0089 13.9269C36.0189 14.4969 35.9164 15.0619 35.7064 15.5919C35.6837 15.5598 35.6628 15.5265 35.6439 15.4919C35.6189 15.4519 35.5939 15.4094 35.5639 15.3769C35.2855 15.0456 34.9624 14.7545 34.6039 14.5119C34.228 14.2493 33.7846 14.1 33.3264 14.0819H31.9839C30.6964 12.4519 26.7339 9.54944 23.6264 10.0994L26.8764 14.2194H31.5014L32.1714 15.8169C33.0014 17.7944 32.7139 18.7744 32.4439 19.2044C32.3324 19.385 32.1808 19.5376 32.0009 19.6503C31.821 19.763 31.6176 19.8329 31.4064 19.8544H15.6989L17.2439 21.8544C17.9364 22.7044 18.7839 23.4144 19.7439 23.9469C19.745 24.322 19.8304 24.6919 19.9939 25.0294L20.8789 26.8019C21.7189 28.4869 23.0389 31.1344 24.3539 33.7619C22.3455 33.1644 20.2642 32.8472 18.1689 32.8194C15.2079 32.8266 12.2955 33.5734 9.69642 34.9919C12.1199 27.5058 14.7517 20.0888 17.5889 12.7494ZM42.0364 66.4219H20.7364C18.7467 66.479 16.7661 66.1317 14.9145 65.4012C13.0629 64.6707 11.3787 63.5721 9.96391 62.1719C7.1831 59.3176 5.63599 55.4844 5.65642 51.4994C5.84295 48.905 6.31325 46.3389 7.05892 43.8469C8.3003 42.0369 9.9536 40.5474 11.8829 39.5008C13.8121 38.4542 15.9622 37.8806 18.1564 37.8269C20.1939 37.8642 22.2111 38.2384 24.1264 38.9344C25.4514 39.3969 26.7139 40.0344 27.8764 40.8244C28.1964 41.4594 28.4339 41.9219 28.5264 42.0969C28.7699 42.63 29.1552 43.0858 29.6401 43.4147C30.1251 43.7436 30.6912 43.9329 31.2764 43.9619C30.4783 48.362 31.0889 52.9017 33.0214 56.9344C34.9538 60.9672 38.107 64.2873 42.0364 66.4219ZM50.2964 66.4044C45.5228 65.9234 41.1152 63.6308 37.9808 59.9984C34.8464 56.366 33.2236 51.6703 33.4466 46.8777C33.6695 42.085 35.7212 37.5602 39.1793 34.2345C42.6374 30.9088 47.2388 29.0352 52.0364 28.9994C56.7939 29.2494 61.3114 31.2019 64.7589 34.5094C66.4288 35.9326 67.7971 37.6755 68.7833 39.6354C69.7696 41.5954 70.3537 43.7328 70.5014 45.9219C70.5014 55.8894 64.2414 65.9419 50.2964 66.4044Z" fill="#290D43"/>
</svg>
