<svg width="48" height="48" viewBox="0 0 48 48" fill="none" xmlns="http://www.w3.org/2000/svg">
<rect width="48" height="48" rx="24" fill="#730C99"/>
<path d="M24.0013 10.666C18.8466 10.666 14.668 14.8447 14.668 19.9993C14.668 21.3807 14.9689 22.6955 15.5102 23.8785C15.8472 24.6153 16.2292 25.3396 16.5943 26.0293L16.6342 26.1045C16.9908 26.7779 17.3303 27.4191 17.6329 28.064C18.2614 29.4041 18.668 30.6366 18.668 31.8801C18.668 32.6824 19.3183 33.3327 20.1205 33.3327H27.8821C28.6843 33.3327 29.3346 32.6824 29.3346 31.8801C29.3346 30.6366 29.7412 29.4041 30.3698 28.064C30.6723 27.4191 31.0118 26.7779 31.3684 26.1046L31.4083 26.0293C31.7734 25.3396 32.1554 24.6153 32.4925 23.8785C33.0337 22.6955 33.3346 21.3807 33.3346 19.9993C33.3346 14.8447 29.156 10.666 24.0013 10.666Z" fill="white"/>
<path d="M20.0013 34.666C19.2649 34.666 18.668 35.263 18.668 35.9993C18.668 36.7357 19.2649 37.3327 20.0013 37.3327H28.0013C28.7377 37.3327 29.3346 36.7357 29.3346 35.9993C29.3346 35.263 28.7377 34.666 28.0013 34.666H20.0013Z" fill="white"/>
</svg>
