<svg width="16" height="17" viewBox="0 0 16 17" fill="none" xmlns="http://www.w3.org/2000/svg">
<path fill-rule="evenodd" clip-rule="evenodd" d="M7.99997 0.876953C12.4183 0.876953 16 3.74504 16 7.28301C16 8.51881 15.5627 9.67264 14.8056 10.6512C14.7682 10.7069 14.7192 10.7685 14.6575 10.8365L14.6529 10.8415C14.3943 11.1509 14.103 11.4414 13.7829 11.7095C11.5706 13.7544 7.92915 16.1889 7.44854 15.8133C7.03074 15.4868 8.13666 13.8899 6.86075 13.6241C6.77174 13.6139 6.68296 13.603 6.59493 13.5905L6.59326 13.5904V13.5903C2.84581 13.0579 2.79068e-09 10.4366 2.79068e-09 7.28301C-0.000115444 3.74504 3.58167 0.876953 7.99997 0.876953Z" fill="#272D37"/>
<path fill-rule="evenodd" clip-rule="evenodd" d="M3.35863 9.32553H4.97211C5.20161 9.32553 5.38933 9.13775 5.38933 8.90825V8.87344C5.38933 8.64393 5.20161 8.45622 4.97211 8.45622H3.81066V5.81371C3.81066 5.5842 3.62294 5.39648 3.39344 5.39648H3.35863C3.12912 5.39648 2.94141 5.5842 2.94141 5.81371V8.90819C2.94141 9.13775 3.12912 9.32553 3.35863 9.32553ZM13.3566 7.38586V7.35105C13.3566 7.12154 13.1688 6.93383 12.9393 6.93383H11.7779V6.27318H12.9393C13.1688 6.27318 13.3566 6.08547 13.3566 5.85596V5.82115C13.3566 5.59165 13.1688 5.40393 12.9393 5.40393H11.3258C11.0963 5.40393 10.9086 5.59165 10.9086 5.82115V8.91564C10.9086 9.14514 11.0963 9.33292 11.3258 9.33292H12.9393C13.1688 9.33292 13.3566 9.14514 13.3566 8.91564V8.88083C13.3566 8.65132 13.1688 8.46361 12.9393 8.46361H11.7779V7.80296H12.9393C13.1688 7.80308 13.3566 7.61531 13.3566 7.38586ZM10.2537 9.20113L10.2538 9.20096C10.331 9.12312 10.3743 9.01794 10.3744 8.9083V5.81382C10.3744 5.58432 10.1867 5.3966 9.95714 5.3966H9.92233C9.69282 5.3966 9.50511 5.58432 9.50511 5.81382V7.63031L7.99703 5.60758C7.92499 5.4818 7.78934 5.3966 7.63476 5.3966H7.59996C7.37045 5.3966 7.18267 5.58432 7.18267 5.81382V8.9083C7.18267 9.13781 7.37039 9.32559 7.59996 9.32559H7.63476C7.86427 9.32559 8.05198 9.13781 8.05198 8.9083V7.05782L9.57091 9.13244C9.58026 9.14699 9.59048 9.16096 9.60151 9.17424L9.60156 9.17435C9.6433 9.23127 9.70039 9.27029 9.764 9.29413C9.81289 9.31433 9.86634 9.32553 9.92227 9.32553H9.95708C10.0251 9.32557 10.092 9.30883 10.152 9.27681C10.1937 9.25695 10.2289 9.23132 10.2537 9.20113ZM6.14331 9.32553H6.17812C6.40762 9.32553 6.59534 9.13775 6.59534 8.90825V5.81377C6.59534 5.58426 6.40762 5.39654 6.17812 5.39654H6.14331C5.9138 5.39654 5.72603 5.58426 5.72603 5.81377V8.90825C5.72603 9.13775 5.9138 9.32553 6.14331 9.32553Z" fill="white"/>
</svg>
