<svg width="16" height="17" viewBox="0 0 16 17" fill="none" xmlns="http://www.w3.org/2000/svg">
<path d="M1.09091 14.3661H3.63636V8.1843L0 5.45703V13.2752C0 13.8788 0.489091 14.3661 1.09091 14.3661Z" fill="#272D37"/>
<path d="M12.3633 14.3661H14.9087C15.5124 14.3661 15.9996 13.877 15.9996 13.2752V5.45703L12.3633 8.1843" fill="#272D37"/>
<path d="M12.3633 3.45729V8.18456L15.9996 5.45728V4.00274C15.9996 2.65365 14.4596 1.88456 13.3815 2.69365" fill="#272D37"/>
<path d="M3.63672 8.1843V3.45703L8.00036 6.72976L12.364 3.45703V8.1843L8.00036 11.457" fill="#272D37"/>
<path d="M0 4.00274V5.45728L3.63636 8.18456V3.45729L2.61818 2.69365C1.53818 1.88456 0 2.65365 0 4.00274" fill="#272D37"/>
</svg>
