<svg width="48" height="48" viewBox="0 0 48 48" fill="none" xmlns="http://www.w3.org/2000/svg">
<rect width="48" height="48" rx="24" fill="#730C99"/>
<path d="M10.0746 19.3791C9.59284 20.8317 9.33203 22.3851 9.33203 23.9995C9.33203 29.5386 12.4027 34.3606 16.9346 36.856L22.2434 24.6884L10.0746 19.3791Z" fill="white"/>
<path d="M11.1422 16.9354L22.6654 21.9631V9.39258C17.6923 9.84072 13.4351 12.7712 11.1422 16.9354Z" fill="white"/>
<path d="M23.9987 38.6661C22.3844 38.6661 20.831 38.4053 19.3783 37.9235L25.2094 24.5588C25.2503 24.4703 25.2819 24.3766 25.3027 24.2789C25.3249 24.176 25.3344 24.0722 25.332 23.9697V9.39258C32.8074 10.0662 38.6654 16.3487 38.6654 23.9995C38.6654 32.0996 32.0989 38.6661 23.9987 38.6661Z" fill="white"/>
</svg>
