<svg width="22" height="24" viewBox="0 0 22 24" fill="none" xmlns="http://www.w3.org/2000/svg">
<path d="M16.101 8.66444C17.6444 9.77162 19.535 10.4231 21.5771 10.4231V6.47959C21.1906 6.47967 20.8052 6.43923 20.4271 6.35884V9.46291C18.3852 9.46291 16.4948 8.81147 14.951 7.70438V15.7519C14.951 19.7776 11.6991 23.0409 7.68789 23.0409C6.19122 23.0409 4.80012 22.5868 3.64453 21.808C4.96344 23.1614 6.80277 24.001 8.83765 24.001C12.8491 24.001 16.1012 20.7377 16.1012 16.7118V8.66444H16.101ZM17.5197 4.68597C16.7309 3.8212 16.2131 2.70365 16.101 1.46815V0.960938H15.0112C15.2855 2.53126 16.2212 3.87285 17.5197 4.68597ZM6.18162 18.7188C5.74094 18.1389 5.5028 17.4296 5.50387 16.7002C5.50387 14.859 6.99128 13.3661 8.82633 13.3661C9.16833 13.366 9.50827 13.4186 9.83418 13.5223V9.49075C9.45331 9.43836 9.0689 9.41612 8.68466 9.42428V12.5623C8.35851 12.4585 8.0184 12.4058 7.67633 12.4061C5.84127 12.4061 4.35394 13.8988 4.35394 15.7403C4.35394 17.0424 5.0974 18.1696 6.18162 18.7188Z" fill="#272D37"/>
<path d="M14.9508 7.7043C16.4945 8.81139 18.385 9.46283 20.4268 9.46283V6.35876C19.2871 6.11511 18.2781 5.51738 17.5194 4.68597C16.2209 3.87276 15.2853 2.53118 15.011 0.960938H12.1484V16.7116C12.1419 18.5478 10.6571 20.0346 8.82594 20.0346C7.74689 20.0346 6.78826 19.5184 6.18114 18.7188C5.097 18.1696 4.35355 17.0423 4.35355 15.7404C4.35355 13.8991 5.84087 12.4062 7.67593 12.4062C8.02752 12.4062 8.36639 12.4611 8.68427 12.5624V9.42436C4.74353 9.50607 1.57422 12.7375 1.57422 16.7117C1.57422 18.6956 2.36345 20.494 3.64438 21.8081C4.79997 22.5868 6.19107 23.041 7.68774 23.041C11.699 23.041 14.9509 19.7775 14.9509 15.7519V7.7043H14.9508Z" fill="#272D37"/>
<path d="M20.5025 6.3578V5.51848C19.4748 5.52005 18.4672 5.23119 17.5952 4.68493C18.3671 5.53306 19.3835 6.11787 20.5025 6.3578ZM15.0867 0.959983C15.0605 0.809911 15.0404 0.658851 15.0265 0.507214V0H11.074V15.7508C11.0677 17.5868 9.58292 19.0736 7.75164 19.0736C7.214 19.0736 6.70638 18.9455 6.25685 18.7179C6.86397 19.5174 7.82259 20.0336 8.90164 20.0336C10.7326 20.0336 12.2177 18.5469 12.2241 16.7107V0.959983H15.0867ZM8.76014 9.42341V8.52989C8.42988 8.48459 8.09691 8.46186 7.76353 8.46202C3.75192 8.46194 0.5 11.7254 0.5 15.7508C0.5 18.2745 1.77806 20.4987 3.72017 21.807C2.43924 20.493 1.65001 18.6944 1.65001 16.7106C1.65001 12.7365 4.81924 9.50511 8.76014 9.42341Z" fill="#272D37"/>
</svg>
