<?xml version="1.0" encoding="UTF-8"?>
<!DOCTYPE svg PUBLIC "-//W3C//DTD SVG 1.1//EN" "http://www.w3.org/Graphics/SVG/1.1/DTD/svg11.dtd">
<!-- Creator: CorelDRAW -->
<svg xmlns="http://www.w3.org/2000/svg" xml:space="preserve" width="2.59739in" height="0.525031in" version="1.1" style="shape-rendering:geometricPrecision; text-rendering:geometricPrecision; image-rendering:optimizeQuality; fill-rule:evenodd; clip-rule:evenodd"
viewBox="0 0 2597.39 525.03"
 xmlns:xlink="http://www.w3.org/1999/xlink"
 xmlns:xodm="http://www.corel.com/coreldraw/odm/2003">
 <defs>
  <style type="text/css">
   <![CDATA[
    .fil1 {fill:#FF0084}
    .fil2 {fill:#EBEBEB;fill-rule:nonzero}
    .fil0 {fill:#F7F7F7;fill-rule:nonzero}
   ]]>
  </style>
 </defs>
 <g id="Layer_x0020_1">
  <metadata id="CorelCorpID_0Corel-Layer"/>
  <g id="_2967654205664">
   <path class="fil0" d="M2563.11 88.67c-5.61,0 -10.56,-0.98 -14.85,-2.94 -4.29,-1.96 -7.88,-4.57 -10.76,-7.82 -2.89,-3.25 -5.05,-6.83 -6.49,-10.76 -1.44,-3.93 -2.17,-7.86 -2.17,-11.79l0 -1.92c0,-4.09 0.74,-8.08 2.22,-11.97 1.48,-3.89 3.69,-7.44 6.61,-10.65 2.93,-3.2 6.52,-5.75 10.76,-7.64 4.25,-1.88 9.14,-2.82 14.67,-2.82 5.53,0 10.43,0.94 14.67,2.82 4.25,1.89 7.84,4.43 10.76,7.64 2.93,3.21 5.13,6.76 6.61,10.65 1.48,3.89 2.23,7.88 2.23,11.97l0 1.92c0,3.93 -0.72,7.86 -2.17,11.79 -1.44,3.93 -3.61,7.52 -6.5,10.76 -2.89,3.25 -6.48,5.85 -10.76,7.82 -4.29,1.96 -9.24,2.94 -14.85,2.94zm0 -6.25c5.53,0 10.36,-1.26 14.49,-3.79 4.13,-2.53 7.34,-5.89 9.62,-10.11 2.29,-4.21 3.43,-8.88 3.43,-14.01 0,-5.29 -1.14,-10.04 -3.43,-14.25 -2.28,-4.21 -5.49,-7.54 -9.62,-9.98 -4.13,-2.44 -8.96,-3.67 -14.49,-3.67 -5.53,0 -10.36,1.22 -14.49,3.67 -4.13,2.44 -7.34,5.77 -9.62,9.98 -2.28,4.21 -3.43,8.96 -3.43,14.25 0,5.13 1.15,9.8 3.43,14.01 2.28,4.21 5.49,7.58 9.62,10.11 4.13,2.52 8.96,3.79 14.49,3.79zm-14.55 -9.74l0 -37.89 14.67 0c5.29,0 9.34,1.17 12.15,3.49 2.81,2.33 4.21,5.65 4.21,9.98 0,5.45 -2.12,9.3 -6.37,11.55l8.3 12.87 -10.94 0 -6.61 -10.94 -0.72 0 -4.69 0 0 10.94 -9.98 0zm15.15 -29.46l-5.17 0 0 10.22 5.17 0c3.93,0 5.89,-1.72 5.89,-5.17 0,-3.37 -1.96,-5.05 -5.89,-5.05z"/>
   <g>
    <path class="fil1" d="M551 92.31c22.41,81.94 44.83,163.9 67.24,245.85l62.89 0c-25.3,-92.5 -50.47,-185.06 -75.9,-277.52 -6.47,-23.53 -27.52,-40.08 -51.74,-41l-4.98 0c-24.22,0.93 -45.26,17.48 -51.74,41 -25.43,92.46 -50.6,185.02 -75.9,277.52l62.89 0c22.41,-81.95 44.83,-163.9 67.24,-245.85zm422.02 172.6l52.87 -193.38c10.96,-31.06 37.85,-51.9 71.26,-51.9 45.97,0 81.52,41.35 73.8,87.32 -3.56,14.02 -7.36,27.91 -11.18,41.87 -10.28,37.57 -20.58,75.11 -30.96,112.64 -1.04,8.49 5.35,15.98 13.99,15.98 6.2,0 11.36,-3.87 13.41,-9.65 22.62,-82.72 45.25,-165.44 67.87,-248.17l62.94 0c-24.25,88.67 -48.63,178 -72.93,266.54 -9.61,32.66 -43.35,54.25 -76.82,51.8 -44.13,-3.25 -75.54,-43.82 -68.27,-87.12 13.7,-49.93 27.05,-99.93 40.7,-149.86 0.9,-1.72 1.41,-4.59 1.59,-6.5 0,-7.81 -6.33,-14.14 -14.13,-14.14 -6.05,0 -11.21,3.8 -13.23,9.14l-0.18 0.51 -14.74 53.87 -4.87 17.8 -37 135.28c-6.67,23.73 -27.26,40.29 -51.8,41.22l-4.98 0c-24.34,-0.93 -45.28,-17.53 -51.78,-41.16l-55.67 -203.55 -55.65 203.49c-6.47,23.54 -27.36,40.29 -51.8,41.22l-4.98 0c-24.34,-0.93 -45.28,-17.53 -51.78,-41.16l-75.86 -277.37 62.89 0 67.21 245.74 55.7 -204.57c6.47,-23.55 27.34,-40.23 51.78,-41.16l4.98 0c24.22,0.93 45.26,17.48 51.74,41l55.87 204.27zm-622.86 0c22.26,-81.78 44.72,-163.52 67.08,-245.28l62.89 0 -75.84 277.31c-6.67,23.73 -27.26,40.29 -51.8,41.22l-4.98 0c-24.34,-0.93 -45.28,-17.53 -51.78,-41.16l-55.67 -203.55 -55.65 203.49c-6.47,23.54 -27.35,40.29 -51.8,41.22l-4.98 0c-24.35,-0.93 -45.28,-17.53 -51.78,-41.16l-75.86 -277.37 62.89 0 67.21 245.74 55.7 -204.57c6.47,-23.55 27.35,-40.23 51.78,-41.16l4.98 0c24.22,0.93 45.26,17.48 51.74,41l55.87 204.27z"/>
    <path class="fil2" d="M1216.94 338.16l105.98 -321.01 116.53 0 109.94 321.01 -74.76 0 -25.94 -79.59 -134.12 0 -25.5 79.59 -72.12 0zm116.53 -139.4l95.43 0 -40.02 -122.69 -16.27 0 -39.14 122.69z"/>
    <path class="fil2" d="M1585.89 338.16l0 -184.69 -28.58 0 0 -51.45 28.58 0 0 -7.04c0,-54.82 31.22,-82.23 93.67,-82.23l30.78 0 0 52.77 -33.86 0c-16.71,0 -25.07,8.35 -25.07,25.06l0 11.43 62.44 0 0 51.45 -62.44 0 0 184.69 -65.52 0z"/>
    <path class="fil2" d="M1747.27 338.16l0 -240.98 55.85 0 0 81.79c2.64,-27.26 11.07,-48.22 25.28,-62.88 14.22,-14.66 33.64,-21.99 58.27,-21.99l9.23 0 0 60.69 -17.59 0c-19.64,0 -34.67,5.28 -45.07,15.83 -10.41,10.55 -15.61,25.5 -15.61,44.85l0 122.69 -70.36 0z"/>
    <path class="fil2" d="M1969.34 73.44c-13.19,0 -22.94,-3.44 -29.24,-10.33 -6.3,-6.89 -9.45,-15.61 -9.45,-26.16 0,-10.85 3.15,-19.72 9.45,-26.61 6.3,-6.89 16.05,-10.33 29.24,-10.33 13.19,0 22.94,3.44 29.24,10.33 6.3,6.89 9.46,15.76 9.46,26.61 0,10.55 -3.15,19.28 -9.46,26.16 -6.3,6.89 -16.05,10.33 -29.24,10.33zm-27.26 264.72l0 -189.09 -32.1 0 0 -51.89 102.46 0 0 240.98 -70.36 0z"/>
    <path class="fil2" d="M2181.73 338.16c-20.81,0 -38.92,-3.44 -54.31,-10.33 -15.39,-6.89 -28.22,-16.2 -38.48,-27.92 -10.26,-11.73 -17.88,-24.99 -22.87,-39.8 -4.98,-14.81 -7.48,-30.13 -7.48,-45.96l0 -8.35c0,-21.98 4.62,-42.51 13.85,-61.56 9.24,-19.06 23.02,-34.44 41.34,-46.17 18.32,-11.72 40.82,-17.59 67.5,-17.59 21.69,0 40.89,4.18 57.61,12.53 16.71,8.35 30.05,20.01 40.02,34.96 9.96,14.95 15.54,32.1 16.71,51.45l-69.04 0c-1.17,-10.85 -5.57,-20.01 -13.19,-27.48 -7.62,-7.48 -18.32,-11.21 -32.1,-11.21 -17.89,0 -31.07,6.37 -39.58,19.13 -8.5,12.75 -12.75,29.54 -12.75,50.35 0,19.64 4.03,35.84 12.09,48.59 8.06,12.76 21.62,19.13 40.67,19.13 14.07,0 25.07,-3.67 32.98,-10.99 7.92,-7.33 12.61,-17 14.07,-29.02l68.6 0c-1.17,19.93 -6.81,37.45 -16.93,52.55 -10.11,15.1 -23.75,26.83 -40.9,35.18 -17.15,8.35 -36.43,12.53 -57.83,12.53z"/>
    <path class="fil2" d="M2410.4 338.17c-26.09,0 -47.13,-6.74 -63.1,-20.23 -15.98,-13.48 -23.96,-32.54 -23.96,-57.17 0,-17.59 4.54,-32.03 13.63,-43.31 9.09,-11.29 21.84,-19.64 38.26,-25.07 16.42,-5.42 35.33,-8.13 56.73,-8.13l43.54 0 0 -0.88c0,-24.62 -12.31,-36.94 -36.94,-36.94 -6.45,0 -14.95,0.22 -25.5,0.66 -10.56,0.44 -21.47,0.88 -32.76,1.32 -11.29,0.44 -21.33,0.95 -30.12,1.54l0 -59.37c10.26,-0.88 22.87,-1.69 37.82,-2.42 14.95,-0.73 28.73,-1.1 41.33,-1.1 36.94,0 65.15,7.84 84.65,23.53 19.5,15.69 29.24,40.24 29.24,73.66l0 147.75 -55.85 0 0 -45.29c-5.28,16.71 -14.36,29.46 -27.26,38.26 -12.9,8.8 -29.46,13.19 -49.69,13.19zm21.11 -48.81c11.43,0 21.4,-3.22 29.9,-9.68 8.5,-6.45 13.19,-18.76 14.07,-36.94l0 -19.35 -43.98 0c-12.31,0 -21.77,3.07 -28.36,9.23 -6.59,6.16 -9.89,14.22 -9.89,24.19 0,9.68 3.3,17.52 9.89,23.53 6.59,6.01 16.05,9.02 28.36,9.02z"/>
   </g>
   <polygon class="fil2" points="263.26,497.59 237.74,397.42 257.91,397.42 277.81,481.39 281.65,481.39 297.29,401.26 318.43,401.26 336.4,481.39 340.11,481.39 357.81,397.42 376.88,397.42 354.1,497.59 323.09,497.59 307.72,430.76 293.72,497.59 "/>
   <path id="_1" class="fil2" d="M490.77 500.19c-8.78,0 -16.19,-1.81 -22.23,-5.42 -6.04,-3.61 -10.63,-8.35 -13.79,-14.2 -3.15,-5.85 -4.73,-12.07 -4.73,-18.66l0 -2.88c0,-6.86 1.62,-13.22 4.87,-19.07 3.25,-5.85 7.91,-10.56 14,-14.13 6.08,-3.57 13.38,-5.35 21.89,-5.35 8.42,0 15.67,1.78 21.75,5.35 6.08,3.57 10.75,8.28 14,14.13 3.25,5.85 4.87,12.21 4.87,19.07l0 2.88c0,6.59 -1.58,12.81 -4.73,18.66 -3.16,5.85 -7.76,10.59 -13.79,14.2 -6.04,3.61 -13.4,5.42 -22.09,5.42zm0 -16.33c6.95,0 12.28,-2.22 15.99,-6.66 3.7,-4.44 5.56,-10.04 5.56,-16.81 0,-6.77 -1.92,-12.4 -5.76,-16.88 -3.84,-4.48 -9.1,-6.72 -15.78,-6.72 -6.77,0 -12.07,2.24 -15.92,6.72 -3.84,4.48 -5.76,10.11 -5.76,16.88 0,6.77 1.85,12.37 5.56,16.81 3.7,4.44 9.08,6.66 16.12,6.66z"/>
   <polygon id="_2" class="fil2" points="626.06,497.59 605.76,423.07 624.28,423.07 639.51,481.94 642.39,481.94 653.51,425.55 675.46,425.55 688.22,481.94 691.11,481.94 704.69,423.07 721.98,423.07 704.01,497.59 676.7,497.59 664.35,444.07 653.37,497.59 "/>
   <polygon id="_3" class="fil2" points="928.63,497.59 928.63,397.42 989.28,397.42 989.28,413.88 947.7,413.88 947.7,438.44 986.81,438.44 986.81,454.91 947.7,454.91 947.7,481.12 990.38,481.12 990.38,497.59 "/>
   <polygon id="_4" class="fil2" points="1067.77,497.59 1090.82,459.85 1068.72,423.07 1089.44,423.07 1104.41,449.28 1106.46,449.28 1120.59,423.07 1140.08,423.07 1119.36,459.03 1144.47,497.59 1123.75,497.59 1106.05,469.46 1103.99,469.46 1087.25,497.59 "/>
   <path id="_5" class="fil2" d="M1224.19 525.03l0 -101.96 15.09 0 0 18.66c2.29,-6.95 6.04,-12.19 11.25,-15.71 5.22,-3.52 11.21,-5.28 17.98,-5.28 7.04,0 13.15,1.69 18.32,5.07 5.17,3.39 9.22,7.94 12.15,13.65 2.93,5.72 4.39,12.15 4.39,19.28l0 2.88c0,7.14 -1.42,13.61 -4.25,19.42 -2.84,5.81 -6.86,10.43 -12.07,13.86 -5.22,3.43 -11.39,5.15 -18.53,5.15 -5.21,0 -10.02,-0.98 -14.41,-2.95 -4.39,-1.97 -8.01,-5.1 -10.84,-9.4l0 37.32 -19.07 0zm39.52 -41.03c6.13,0 11.09,-2.22 14.89,-6.65 3.8,-4.44 5.7,-10.13 5.7,-17.08 0,-7.04 -1.9,-12.72 -5.7,-17.02 -3.8,-4.3 -8.76,-6.45 -14.89,-6.45 -3.75,0 -7.22,0.85 -10.43,2.54 -3.2,1.69 -5.76,4.12 -7.69,7.28 -1.92,3.15 -2.88,6.97 -2.88,11.46l0 5.49c0,4.3 1,7.98 3.02,11.05 2.01,3.06 4.62,5.4 7.82,7 3.2,1.6 6.59,2.4 10.15,2.4z"/>
   <path id="_6" class="fil2" d="M1420.82 500.19c-6.41,0 -12.01,-1.1 -16.81,-3.29 -4.8,-2.2 -8.78,-5.15 -11.94,-8.85 -3.16,-3.7 -5.54,-7.85 -7.13,-12.42 -1.6,-4.57 -2.4,-9.24 -2.4,-14l0 -2.61c0,-4.94 0.8,-9.7 2.4,-14.27 1.6,-4.57 3.98,-8.69 7.13,-12.35 3.16,-3.66 7.07,-6.56 11.73,-8.71 4.67,-2.15 10.06,-3.22 16.19,-3.22 8.05,0 14.77,1.76 20.17,5.28 5.4,3.52 9.49,8.14 12.28,13.86 2.79,5.72 4.19,11.87 4.19,18.46l0 6.86 -55.99 0c0.64,5.85 2.59,10.57 5.83,14.13 3.25,3.57 8.03,5.35 14.34,5.35 4.57,0 8.35,-0.94 11.32,-2.81 2.98,-1.88 4.87,-4.19 5.7,-6.93l17.56 0c-1.65,7.69 -5.54,13.86 -11.66,18.53 -6.13,4.67 -13.77,7 -22.92,7zm-0.82 -63.94c-5.4,0 -9.7,1.51 -12.9,4.53 -3.2,3.02 -5.26,7.18 -6.18,12.49l37.46 0c-0.73,-5.31 -2.63,-9.47 -5.69,-12.49 -3.07,-3.02 -7.3,-4.53 -12.69,-4.53z"/>
   <path id="_7" class="fil2" d="M1539.92 497.59l0 -74.51 15.09 0 0 24.29c2.02,-16.83 10.89,-25.25 26.62,-25.25l2.74 0 0 16.61 -5.21 0c-6.5,0 -11.48,1.74 -14.96,5.21 -3.48,3.48 -5.22,8.42 -5.22,14.82l0 38.83 -19.07 0z"/>
   <path id="_8" class="fil2" d="M1675.08 414.16c-3.75,0 -6.52,-0.98 -8.3,-2.95 -1.79,-1.96 -2.68,-4.46 -2.68,-7.48 0,-3.02 0.89,-5.49 2.68,-7.41 1.78,-1.92 4.55,-2.88 8.3,-2.88 3.66,0 6.38,0.96 8.17,2.88 1.78,1.92 2.68,4.39 2.68,7.41 0,3.02 -0.89,5.51 -2.68,7.48 -1.78,1.97 -4.5,2.95 -8.17,2.95zm-7 83.43l0 -60.24 -10.43 0 0 -14.27 29.5 0 0 74.51 -19.07 0z"/>
   <path id="_9" class="fil2" d="M1809.83 500.19c-6.41,0 -12.01,-1.1 -16.81,-3.29 -4.8,-2.2 -8.78,-5.15 -11.94,-8.85 -3.16,-3.7 -5.54,-7.85 -7.13,-12.42 -1.6,-4.57 -2.4,-9.24 -2.4,-14l0 -2.61c0,-4.94 0.8,-9.7 2.4,-14.27 1.6,-4.57 3.98,-8.69 7.13,-12.35 3.16,-3.66 7.07,-6.56 11.73,-8.71 4.67,-2.15 10.06,-3.22 16.19,-3.22 8.05,0 14.77,1.76 20.17,5.28 5.4,3.52 9.49,8.14 12.28,13.86 2.79,5.72 4.19,11.87 4.19,18.46l0 6.86 -55.99 0c0.64,5.85 2.59,10.57 5.83,14.13 3.25,3.57 8.03,5.35 14.34,5.35 4.57,0 8.35,-0.94 11.32,-2.81 2.98,-1.88 4.87,-4.19 5.7,-6.93l17.56 0c-1.65,7.69 -5.54,13.86 -11.66,18.53 -6.13,4.67 -13.77,7 -22.92,7zm-0.82 -63.94c-5.4,0 -9.7,1.51 -12.9,4.53 -3.2,3.02 -5.26,7.18 -6.18,12.49l37.46 0c-0.73,-5.31 -2.63,-9.47 -5.69,-12.49 -3.07,-3.02 -7.3,-4.53 -12.69,-4.53z"/>
   <path id="_10" class="fil2" d="M1928.93 497.59l0 -74.51 15.09 0 0 18.39c3.2,-13.81 11.71,-20.72 25.52,-20.72l0.82 0c8.87,0 15.6,2.88 20.17,8.65 4.57,5.76 6.86,14.27 6.86,25.52l0 42.68 -19.07 0 0 -44.32c0,-4.57 -1.33,-8.28 -3.98,-11.11 -2.65,-2.83 -6.22,-4.25 -10.7,-4.25 -4.67,0 -8.44,1.46 -11.32,4.39 -2.88,2.93 -4.32,6.77 -4.32,11.53l0 43.77 -19.07 0z"/>
   <path id="_11" class="fil2" d="M2118.28 500.19c-6.49,0 -12.12,-1.1 -16.88,-3.29 -4.76,-2.2 -8.69,-5.12 -11.8,-8.78 -3.11,-3.66 -5.44,-7.78 -7,-12.35 -1.56,-4.57 -2.33,-9.24 -2.33,-14l0 -2.61c0,-4.94 0.8,-9.72 2.4,-14.34 1.6,-4.62 3.98,-8.76 7.13,-12.42 3.16,-3.66 7.09,-6.56 11.8,-8.71 4.71,-2.15 10.22,-3.22 16.53,-3.22 6.5,0 12.28,1.26 17.36,3.78 5.08,2.52 9.15,6.01 12.21,10.5 3.07,4.48 4.83,9.7 5.28,15.64l-18.52 0c-0.55,-3.84 -2.2,-7.04 -4.94,-9.61 -2.74,-2.56 -6.54,-3.84 -11.39,-3.84 -6.4,0 -11.14,2.19 -14.2,6.59 -3.06,4.39 -4.6,10.02 -4.6,16.88 0,6.68 1.49,12.23 4.46,16.67 2.97,4.44 7.8,6.66 14.48,6.66 4.94,0 8.85,-1.28 11.73,-3.84 2.88,-2.56 4.6,-5.9 5.15,-10.02l18.53 0c-0.37,6.04 -2.13,11.35 -5.28,15.92 -3.16,4.57 -7.34,8.12 -12.56,10.63 -5.22,2.52 -11.07,3.77 -17.57,3.77z"/>
   <path id="_12" class="fil2" d="M2269.63 500.19c-6.41,0 -12.01,-1.1 -16.81,-3.29 -4.8,-2.2 -8.78,-5.15 -11.94,-8.85 -3.16,-3.7 -5.54,-7.85 -7.13,-12.42 -1.6,-4.57 -2.4,-9.24 -2.4,-14l0 -2.61c0,-4.94 0.8,-9.7 2.4,-14.27 1.6,-4.57 3.98,-8.69 7.13,-12.35 3.16,-3.66 7.07,-6.56 11.73,-8.71 4.67,-2.15 10.06,-3.22 16.19,-3.22 8.05,0 14.77,1.76 20.17,5.28 5.4,3.52 9.49,8.14 12.28,13.86 2.79,5.72 4.19,11.87 4.19,18.46l0 6.86 -55.99 0c0.64,5.85 2.59,10.57 5.83,14.13 3.25,3.57 8.03,5.35 14.34,5.35 4.57,0 8.35,-0.94 11.32,-2.81 2.98,-1.88 4.87,-4.19 5.7,-6.93l17.56 0c-1.65,7.69 -5.54,13.86 -11.66,18.53 -6.13,4.67 -13.77,7 -22.92,7zm-0.82 -63.94c-5.4,0 -9.7,1.51 -12.9,4.53 -3.2,3.02 -5.26,7.18 -6.18,12.49l37.46 0c-0.73,-5.31 -2.63,-9.47 -5.69,-12.49 -3.07,-3.02 -7.3,-4.53 -12.69,-4.53z"/>
  </g>
 </g>
</svg>
