<svg width="448" height="160" viewBox="0 0 448 160" fill="none" xmlns="http://www.w3.org/2000/svg">
<mask id="path-1-outside-1_298_15908" maskUnits="userSpaceOnUse" x="-1" y="5" width="421" height="142" fill="black">
<rect fill="white" x="-1" y="5" width="421" height="142"/>
<path d="M10.452 44L1.092 6.04H9.88L17.212 38.28L15.392 37.084H20.124L18.096 38.28L23.764 7.444H30.836L23.4 44H10.452ZM33.072 44L25.064 7.444H32.5L39.052 38.28L37.076 37.084H41.6L39.884 38.28L46.28 6.04H54.6L46.28 44H33.072ZM70.6639 44.988C68.2373 44.988 66.0879 44.572 64.2159 43.74C62.3786 42.908 60.8359 41.7987 59.5879 40.412C58.3746 38.9907 57.4386 37.4133 56.7799 35.68C56.1559 33.912 55.8439 32.1093 55.8439 30.272V29.232C55.8439 27.3253 56.1559 25.5053 56.7799 23.772C57.4386 22.004 58.3746 20.4267 59.5879 19.04C60.8013 17.6533 62.3093 16.5613 64.1119 15.764C65.9493 14.932 68.0293 14.516 70.3519 14.516C73.4026 14.516 75.9679 15.2093 78.0479 16.596C80.1626 17.948 81.7746 19.7333 82.8839 21.952C83.9933 24.136 84.5479 26.528 84.5479 29.128V31.936H59.3279V27.204H79.5039L76.7999 29.388C76.7999 27.6893 76.5573 26.2333 76.0719 25.02C75.5866 23.8067 74.8586 22.888 73.8879 22.264C72.9519 21.6053 71.7733 21.276 70.3519 21.276C68.8959 21.276 67.6653 21.6053 66.6599 22.264C65.6546 22.9227 64.8919 23.8933 64.3719 25.176C63.8519 26.424 63.5919 27.9667 63.5919 29.804C63.5919 31.5027 63.8346 32.9933 64.3199 34.276C64.8053 35.524 65.5679 36.4947 66.6079 37.188C67.6479 37.8813 68.9999 38.228 70.6639 38.228C72.1893 38.228 73.4373 37.9333 74.4079 37.344C75.3786 36.7547 76.0373 36.0267 76.3839 35.16H84.0279C83.6119 37.0667 82.7973 38.7653 81.5839 40.256C80.3706 41.7467 78.8453 42.908 77.0079 43.74C75.1706 44.572 73.0559 44.988 70.6639 44.988ZM117.151 44V35.576H115.747V26.424C115.747 24.968 115.4 23.876 114.707 23.148C114.014 22.42 112.904 22.056 111.379 22.056C110.616 22.056 109.611 22.0733 108.363 22.108C107.115 22.1427 105.832 22.1947 104.515 22.264C103.198 22.3333 102.002 22.4027 100.927 22.472V15.452C101.724 15.3827 102.66 15.3133 103.735 15.244C104.81 15.1747 105.919 15.1227 107.063 15.088C108.207 15.0533 109.282 15.036 110.287 15.036C113.199 15.036 115.643 15.452 117.619 16.284C119.63 17.116 121.155 18.3813 122.195 20.08C123.235 21.744 123.755 23.8933 123.755 26.528V44H117.151ZM108.051 44.728C106.006 44.728 104.203 44.364 102.643 43.636C101.118 42.908 99.9218 41.868 99.0551 40.516C98.1885 39.1293 97.7551 37.4827 97.7551 35.576C97.7551 33.496 98.2925 31.7973 99.3671 30.48C100.442 29.128 101.95 28.14 103.891 27.516C105.832 26.8573 108.068 26.528 110.599 26.528H116.683V31.156H110.547C109.091 31.156 107.964 31.52 107.167 32.248C106.404 32.9413 106.023 33.8947 106.023 35.108C106.023 36.252 106.404 37.188 107.167 37.916C107.964 38.6093 109.091 38.956 110.547 38.956C111.483 38.956 112.315 38.8 113.043 38.488C113.806 38.1413 114.43 37.5693 114.915 36.772C115.4 35.9747 115.678 34.8653 115.747 33.444L117.723 35.524C117.55 37.5 117.064 39.164 116.267 40.516C115.504 41.868 114.43 42.908 113.043 43.636C111.691 44.364 110.027 44.728 108.051 44.728ZM130.294 44V15.504H136.898V27.724H136.742C136.742 23.7027 137.591 20.6 139.29 18.416C141.023 16.232 143.519 15.14 146.778 15.14H147.87V22.316H145.79C143.502 22.316 141.734 22.94 140.486 24.188C139.238 25.4013 138.614 27.1693 138.614 29.492V44H130.294ZM164.56 44.988C162.134 44.988 159.984 44.572 158.112 43.74C156.275 42.908 154.732 41.7987 153.484 40.412C152.271 38.9907 151.335 37.4133 150.676 35.68C150.052 33.912 149.74 32.1093 149.74 30.272V29.232C149.74 27.3253 150.052 25.5053 150.676 23.772C151.335 22.004 152.271 20.4267 153.484 19.04C154.698 17.6533 156.206 16.5613 158.008 15.764C159.846 14.932 161.926 14.516 164.248 14.516C167.299 14.516 169.864 15.2093 171.944 16.596C174.059 17.948 175.671 19.7333 176.78 21.952C177.89 24.136 178.444 26.528 178.444 29.128V31.936H153.224V27.204H173.4L170.696 29.388C170.696 27.6893 170.454 26.2333 169.968 25.02C169.483 23.8067 168.755 22.888 167.784 22.264C166.848 21.6053 165.67 21.276 164.248 21.276C162.792 21.276 161.562 21.6053 160.556 22.264C159.551 22.9227 158.788 23.8933 158.268 25.176C157.748 26.424 157.488 27.9667 157.488 29.804C157.488 31.5027 157.731 32.9933 158.216 34.276C158.702 35.524 159.464 36.4947 160.504 37.188C161.544 37.8813 162.896 38.228 164.56 38.228C166.086 38.228 167.334 37.9333 168.304 37.344C169.275 36.7547 169.934 36.0267 170.28 35.16H177.924C177.508 37.0667 176.694 38.7653 175.48 40.256C174.267 41.7467 172.742 42.908 170.904 43.74C169.067 44.572 166.952 44.988 164.56 44.988Z"/>
<path d="M22.2 144.5V131.7H39.3C42.3667 131.7 44.6667 130.9 46.2 129.3C47.7333 127.7 48.5 125.433 48.5 122.5C48.5 119.567 47.7333 117.333 46.2 115.8C44.6667 114.2 42.3667 113.4 39.3 113.4H22.2V103.5H38.5C43.5667 103.5 48.0667 104.133 52 105.4C55.9333 106.6 59.0333 108.567 61.3 111.3C63.5667 114.033 64.7 117.733 64.7 122.4V123.8C64.7 128.133 63.7 131.867 61.7 135C59.7 138.067 56.7667 140.433 52.9 142.1C49.0333 143.7 44.2333 144.5 38.5 144.5H22.2ZM8.2 144.5V70.4H24.2V144.5H8.2ZM22.2 110.8V101H36.6C39.7333 101 42 100.2 43.4 98.6C44.8 97 45.5 94.8667 45.5 92.2C45.5 89.4 44.8 87.2 43.4 85.6C42 84 39.7333 83.2 36.6 83.2H22.2V70.4H35.6C44 70.4 50.4333 72.1667 54.9 75.7C59.4333 79.2333 61.7 84.2667 61.7 90.8V92.3C61.7 96.8333 60.5333 100.467 58.2 103.2C55.9333 105.933 52.8333 107.9 48.9 109.1C45.0333 110.233 40.6 110.8 35.6 110.8H22.2ZM94.0383 145.7C87.7049 145.7 82.8383 143.667 79.4383 139.6C76.0383 135.467 74.3383 129.267 74.3383 121V89.2H90.3383V121.8C90.3383 124.733 91.1716 127.067 92.8383 128.8C94.5049 130.533 96.7383 131.4 99.5383 131.4C102.405 131.4 104.738 130.5 106.538 128.7C108.338 126.9 109.238 124.467 109.238 121.4V89.2H125.238V144H112.538V120.9H113.638C113.638 126.433 112.905 131.067 111.438 134.8C110.038 138.467 107.938 141.2 105.138 143C102.338 144.8 98.8716 145.7 94.7383 145.7H94.0383ZM141.591 144V89.2H157.591V144H141.591ZM134.291 101V89.2H157.591V101H134.291ZM147.791 83.8C144.791 83.8 142.558 83.0333 141.091 81.5C139.691 79.9 138.991 77.9 138.991 75.5C138.991 73.0333 139.691 71.0333 141.091 69.5C142.558 67.9 144.791 67.1 147.791 67.1C150.791 67.1 152.991 67.9 154.391 69.5C155.858 71.0333 156.591 73.0333 156.591 75.5C156.591 77.9 155.858 79.9 154.391 81.5C152.991 83.0333 150.791 83.8 147.791 83.8ZM172.09 144V71H188.19V144H172.09ZM165.59 82.8V71H188.19V82.8H165.59ZM224.533 145.8C220.666 145.8 217.133 145.1 213.933 143.7C210.799 142.3 208.066 140.367 205.733 137.9C203.399 135.367 201.599 132.4 200.333 129C199.133 125.6 198.533 121.933 198.533 118V115.7C198.533 111.767 199.099 108.1 200.233 104.7C201.433 101.3 203.133 98.3333 205.333 95.8C207.599 93.2 210.299 91.2 213.433 89.8C216.566 88.3333 220.066 87.6 223.933 87.6C228.333 87.6 232.133 88.5667 235.333 90.5C238.533 92.3667 241.033 95.1667 242.833 98.9C244.633 102.567 245.633 107.1 245.833 112.5L241.633 108.6V71H257.733V144H245.033V121.3H247.233C247.033 126.5 245.933 130.933 243.933 134.6C241.999 138.267 239.366 141.067 236.033 143C232.699 144.867 228.866 145.8 224.533 145.8ZM228.533 132.4C230.999 132.4 233.233 131.867 235.233 130.8C237.299 129.667 238.933 128.033 240.133 125.9C241.399 123.767 242.033 121.2 242.033 118.2V114.5C242.033 111.567 241.399 109.1 240.133 107.1C238.866 105.1 237.199 103.567 235.133 102.5C233.066 101.433 230.833 100.9 228.433 100.9C225.766 100.9 223.366 101.6 221.233 103C219.166 104.333 217.533 106.2 216.333 108.6C215.133 110.933 214.533 113.667 214.533 116.8C214.533 120 215.133 122.767 216.333 125.1C217.533 127.433 219.199 129.233 221.333 130.5C223.466 131.767 225.866 132.4 228.533 132.4ZM296.345 145.9C291.679 145.9 287.545 145.1 283.945 143.5C280.412 141.9 277.445 139.767 275.045 137.1C272.712 134.367 270.912 131.333 269.645 128C268.445 124.6 267.845 121.133 267.845 117.6V115.6C267.845 111.933 268.445 108.433 269.645 105.1C270.912 101.7 272.712 98.6667 275.045 96C277.379 93.3333 280.279 91.2333 283.745 89.7C287.279 88.1 291.279 87.3 295.745 87.3C301.612 87.3 306.545 88.6333 310.545 91.3C314.612 93.9 317.712 97.3333 319.845 101.6C321.979 105.8 323.045 110.4 323.045 115.4V120.8H274.545V111.7H313.345L308.145 115.9C308.145 112.633 307.679 109.833 306.745 107.5C305.812 105.167 304.412 103.4 302.545 102.2C300.745 100.933 298.479 100.3 295.745 100.3C292.945 100.3 290.579 100.933 288.645 102.2C286.712 103.467 285.245 105.333 284.245 107.8C283.245 110.2 282.745 113.167 282.745 116.7C282.745 119.967 283.212 122.833 284.145 125.3C285.079 127.7 286.545 129.567 288.545 130.9C290.545 132.233 293.145 132.9 296.345 132.9C299.279 132.9 301.679 132.333 303.545 131.2C305.412 130.067 306.679 128.667 307.345 127H322.045C321.245 130.667 319.679 133.933 317.345 136.8C315.012 139.667 312.079 141.9 308.545 143.5C305.012 145.1 300.945 145.9 296.345 145.9ZM332.648 144V89.2H345.348V112.7H345.048C345.048 104.967 346.681 99 349.948 94.8C353.281 90.6 358.081 88.5 364.348 88.5H366.448V102.3H362.448C358.048 102.3 354.648 103.5 352.248 105.9C349.848 108.233 348.648 111.633 348.648 116.1V144H332.648ZM394.538 145.7C386.738 145.7 380.638 144.1 376.238 140.9C371.838 137.7 369.504 133.2 369.238 127.4H383.438C383.704 129.133 384.738 130.7 386.538 132.1C388.404 133.433 391.171 134.1 394.838 134.1C397.638 134.1 399.938 133.633 401.738 132.7C403.604 131.7 404.538 130.3 404.538 128.5C404.538 126.9 403.838 125.633 402.438 124.7C401.038 123.7 398.538 123 394.938 122.6L390.638 122.2C384.038 121.533 379.071 119.7 375.738 116.7C372.471 113.7 370.838 109.867 370.838 105.2C370.838 101.333 371.804 98.1 373.738 95.5C375.671 92.9 378.338 90.9333 381.738 89.6C385.204 88.2667 389.138 87.6 393.538 87.6C400.604 87.6 406.304 89.1667 410.638 92.3C414.971 95.3667 417.238 99.8333 417.438 105.7H403.238C402.971 103.9 402.038 102.4 400.438 101.2C398.838 99.9333 396.471 99.3 393.338 99.3C390.871 99.3 388.904 99.7667 387.438 100.7C385.971 101.633 385.238 102.9 385.238 104.5C385.238 106.033 385.871 107.2 387.138 108C388.404 108.8 390.471 109.367 393.338 109.7L397.638 110.1C404.371 110.833 409.604 112.7 413.338 115.7C417.071 118.7 418.938 122.733 418.938 127.8C418.938 131.467 417.938 134.667 415.938 137.4C413.938 140.067 411.104 142.133 407.438 143.6C403.771 145 399.471 145.7 394.538 145.7Z"/>
</mask>
<path d="M10.452 44L1.092 6.04H9.88L17.212 38.28L15.392 37.084H20.124L18.096 38.28L23.764 7.444H30.836L23.4 44H10.452ZM33.072 44L25.064 7.444H32.5L39.052 38.28L37.076 37.084H41.6L39.884 38.28L46.28 6.04H54.6L46.28 44H33.072ZM70.6639 44.988C68.2373 44.988 66.0879 44.572 64.2159 43.74C62.3786 42.908 60.8359 41.7987 59.5879 40.412C58.3746 38.9907 57.4386 37.4133 56.7799 35.68C56.1559 33.912 55.8439 32.1093 55.8439 30.272V29.232C55.8439 27.3253 56.1559 25.5053 56.7799 23.772C57.4386 22.004 58.3746 20.4267 59.5879 19.04C60.8013 17.6533 62.3093 16.5613 64.1119 15.764C65.9493 14.932 68.0293 14.516 70.3519 14.516C73.4026 14.516 75.9679 15.2093 78.0479 16.596C80.1626 17.948 81.7746 19.7333 82.8839 21.952C83.9933 24.136 84.5479 26.528 84.5479 29.128V31.936H59.3279V27.204H79.5039L76.7999 29.388C76.7999 27.6893 76.5573 26.2333 76.0719 25.02C75.5866 23.8067 74.8586 22.888 73.8879 22.264C72.9519 21.6053 71.7733 21.276 70.3519 21.276C68.8959 21.276 67.6653 21.6053 66.6599 22.264C65.6546 22.9227 64.8919 23.8933 64.3719 25.176C63.8519 26.424 63.5919 27.9667 63.5919 29.804C63.5919 31.5027 63.8346 32.9933 64.3199 34.276C64.8053 35.524 65.5679 36.4947 66.6079 37.188C67.6479 37.8813 68.9999 38.228 70.6639 38.228C72.1893 38.228 73.4373 37.9333 74.4079 37.344C75.3786 36.7547 76.0373 36.0267 76.3839 35.16H84.0279C83.6119 37.0667 82.7973 38.7653 81.5839 40.256C80.3706 41.7467 78.8453 42.908 77.0079 43.74C75.1706 44.572 73.0559 44.988 70.6639 44.988ZM117.151 44V35.576H115.747V26.424C115.747 24.968 115.4 23.876 114.707 23.148C114.014 22.42 112.904 22.056 111.379 22.056C110.616 22.056 109.611 22.0733 108.363 22.108C107.115 22.1427 105.832 22.1947 104.515 22.264C103.198 22.3333 102.002 22.4027 100.927 22.472V15.452C101.724 15.3827 102.66 15.3133 103.735 15.244C104.81 15.1747 105.919 15.1227 107.063 15.088C108.207 15.0533 109.282 15.036 110.287 15.036C113.199 15.036 115.643 15.452 117.619 16.284C119.63 17.116 121.155 18.3813 122.195 20.08C123.235 21.744 123.755 23.8933 123.755 26.528V44H117.151ZM108.051 44.728C106.006 44.728 104.203 44.364 102.643 43.636C101.118 42.908 99.9218 41.868 99.0551 40.516C98.1885 39.1293 97.7551 37.4827 97.7551 35.576C97.7551 33.496 98.2925 31.7973 99.3671 30.48C100.442 29.128 101.95 28.14 103.891 27.516C105.832 26.8573 108.068 26.528 110.599 26.528H116.683V31.156H110.547C109.091 31.156 107.964 31.52 107.167 32.248C106.404 32.9413 106.023 33.8947 106.023 35.108C106.023 36.252 106.404 37.188 107.167 37.916C107.964 38.6093 109.091 38.956 110.547 38.956C111.483 38.956 112.315 38.8 113.043 38.488C113.806 38.1413 114.43 37.5693 114.915 36.772C115.4 35.9747 115.678 34.8653 115.747 33.444L117.723 35.524C117.55 37.5 117.064 39.164 116.267 40.516C115.504 41.868 114.43 42.908 113.043 43.636C111.691 44.364 110.027 44.728 108.051 44.728ZM130.294 44V15.504H136.898V27.724H136.742C136.742 23.7027 137.591 20.6 139.29 18.416C141.023 16.232 143.519 15.14 146.778 15.14H147.87V22.316H145.79C143.502 22.316 141.734 22.94 140.486 24.188C139.238 25.4013 138.614 27.1693 138.614 29.492V44H130.294ZM164.56 44.988C162.134 44.988 159.984 44.572 158.112 43.74C156.275 42.908 154.732 41.7987 153.484 40.412C152.271 38.9907 151.335 37.4133 150.676 35.68C150.052 33.912 149.74 32.1093 149.74 30.272V29.232C149.74 27.3253 150.052 25.5053 150.676 23.772C151.335 22.004 152.271 20.4267 153.484 19.04C154.698 17.6533 156.206 16.5613 158.008 15.764C159.846 14.932 161.926 14.516 164.248 14.516C167.299 14.516 169.864 15.2093 171.944 16.596C174.059 17.948 175.671 19.7333 176.78 21.952C177.89 24.136 178.444 26.528 178.444 29.128V31.936H153.224V27.204H173.4L170.696 29.388C170.696 27.6893 170.454 26.2333 169.968 25.02C169.483 23.8067 168.755 22.888 167.784 22.264C166.848 21.6053 165.67 21.276 164.248 21.276C162.792 21.276 161.562 21.6053 160.556 22.264C159.551 22.9227 158.788 23.8933 158.268 25.176C157.748 26.424 157.488 27.9667 157.488 29.804C157.488 31.5027 157.731 32.9933 158.216 34.276C158.702 35.524 159.464 36.4947 160.504 37.188C161.544 37.8813 162.896 38.228 164.56 38.228C166.086 38.228 167.334 37.9333 168.304 37.344C169.275 36.7547 169.934 36.0267 170.28 35.16H177.924C177.508 37.0667 176.694 38.7653 175.48 40.256C174.267 41.7467 172.742 42.908 170.904 43.74C169.067 44.572 166.952 44.988 164.56 44.988Z" fill="#F9F9F9"/>
<path d="M10.452 44L9.48108 44.2394L9.66862 45H10.452V44ZM1.092 6.04V5.04H-0.184526L0.12108 6.2794L1.092 6.04ZM9.88 6.04L10.8551 5.81824L10.6781 5.04H9.88V6.04ZM17.212 38.28L16.6628 39.1157L18.7377 40.4792L18.1871 38.0582L17.212 38.28ZM15.392 37.084V36.084H12.0494L14.8428 37.9197L15.392 37.084ZM20.124 37.084L20.632 37.9454L23.7882 36.084H20.124V37.084ZM18.096 38.28L17.1125 38.0992L16.7163 40.2546L18.604 39.1414L18.096 38.28ZM23.764 7.444V6.444H22.9311L22.7805 7.26322L23.764 7.444ZM30.836 7.444L31.8159 7.64333L32.0599 6.444H30.836V7.444ZM23.4 44V45H24.2171L24.3799 44.1993L23.4 44ZM33.072 44L32.0952 44.214L32.2673 45H33.072V44ZM25.064 7.444V6.444H23.8212L24.0872 7.65799L25.064 7.444ZM32.5 7.444L33.4782 7.23616L33.3098 6.444H32.5V7.444ZM39.052 38.28L38.5342 39.1355L40.5102 40.3315L40.0302 38.0722L39.052 38.28ZM37.076 37.084V36.084H33.4926L36.5582 37.9395L37.076 37.084ZM41.6 37.084L42.1718 37.9044L44.7837 36.084H41.6V37.084ZM39.884 38.28L38.9031 38.0854L38.4203 40.5191L40.4558 39.1004L39.884 38.28ZM46.28 6.04V5.04H45.4589L45.2991 5.8454L46.28 6.04ZM54.6 6.04L55.5768 6.2541L55.8429 5.04H54.6V6.04ZM46.28 44V45H47.0846L47.2568 44.2141L46.28 44ZM11.4229 43.7606L2.06292 5.80059L0.12108 6.2794L9.48108 44.2394L11.4229 43.7606ZM1.092 7.04H9.88V5.04H1.092V7.04ZM8.9049 6.26176L16.2369 38.5018L18.1871 38.0582L10.8551 5.81824L8.9049 6.26176ZM17.7612 37.4443L15.9412 36.2483L14.8428 37.9197L16.6628 39.1157L17.7612 37.4443ZM15.392 38.084H20.124V36.084H15.392V38.084ZM19.616 36.2226L17.588 37.4186L18.604 39.1414L20.632 37.9454L19.616 36.2226ZM19.0795 38.4608L24.7475 7.62478L22.7805 7.26322L17.1125 38.0992L19.0795 38.4608ZM23.764 8.444H30.836V6.444H23.764V8.444ZM29.8561 7.24467L22.4201 43.8007L24.3799 44.1993L31.8159 7.64333L29.8561 7.24467ZM23.4 43H10.452V45H23.4V43ZM34.0488 43.786L26.0408 7.23001L24.0872 7.65799L32.0952 44.214L34.0488 43.786ZM25.064 8.444H32.5V6.444H25.064V8.444ZM31.5218 7.65184L38.0738 38.4878L40.0302 38.0722L33.4782 7.23616L31.5218 7.65184ZM39.5698 37.4245L37.5938 36.2285L36.5582 37.9395L38.5342 39.1355L39.5698 37.4245ZM37.076 38.084H41.6V36.084H37.076V38.084ZM41.0282 36.2636L39.3122 37.4596L40.4558 39.1004L42.1718 37.9044L41.0282 36.2636ZM40.8649 38.4746L47.2609 6.23459L45.2991 5.8454L38.9031 38.0854L40.8649 38.4746ZM46.28 7.04H54.6V5.04H46.28V7.04ZM53.6232 5.8259L45.3032 43.7859L47.2568 44.2141L55.5768 6.2541L53.6232 5.8259ZM46.28 43H33.072V45H46.28V43ZM64.2159 43.74L63.8034 44.651L63.8098 44.6538L64.2159 43.74ZM59.5879 40.412L58.8274 41.0613L58.8359 41.0712L58.8446 41.081L59.5879 40.412ZM56.7799 35.68L55.8369 36.0128L55.8409 36.0241L55.8452 36.0352L56.7799 35.68ZM56.7799 23.772L55.8428 23.4229L55.8391 23.4333L56.7799 23.772ZM59.5879 19.04L60.3405 19.6985L59.5879 19.04ZM64.1119 15.764L64.5165 16.6786L64.5244 16.675L64.1119 15.764ZM78.0479 16.596L77.4932 17.428L77.5012 17.4334L77.5093 17.4385L78.0479 16.596ZM82.8839 21.952L81.9895 22.3992L81.9924 22.4049L82.8839 21.952ZM84.5479 31.936V32.936H85.5479V31.936H84.5479ZM59.3279 31.936H58.3279V32.936H59.3279V31.936ZM59.3279 27.204V26.204H58.3279V27.204H59.3279ZM79.5039 27.204L80.1323 27.9819L82.3335 26.204H79.5039V27.204ZM76.7999 29.388H75.7999V31.4811L77.4283 30.1659L76.7999 29.388ZM73.8879 22.264L73.3124 23.0818L73.3296 23.0939L73.3472 23.1052L73.8879 22.264ZM66.6599 22.264L66.1119 21.4275L66.6599 22.264ZM64.3719 25.176L65.2951 25.5606L65.2987 25.5517L64.3719 25.176ZM64.3199 34.276L63.3846 34.6299L63.3879 34.6384L64.3199 34.276ZM66.6079 37.188L66.0532 38.0201L66.6079 37.188ZM74.4079 37.344L74.9269 38.1988L74.4079 37.344ZM76.3839 35.16V34.16H75.7069L75.4555 34.7886L76.3839 35.16ZM84.0279 35.16L85.005 35.3732L85.2696 34.16H84.0279V35.16ZM81.5839 40.256L82.3595 40.8873H82.3595L81.5839 40.256ZM77.0079 43.74L76.5954 42.829L77.0079 43.74ZM70.6639 43.988C68.3517 43.988 66.3448 43.5919 64.6221 42.8262L63.8098 44.6538C65.831 45.5521 68.1228 45.988 70.6639 45.988V43.988ZM64.6284 42.829C62.9066 42.0493 61.4796 41.019 60.3312 39.743L58.8446 41.081C60.1923 42.5784 61.8506 43.7667 63.8034 44.651L64.6284 42.829ZM60.3485 39.7627C59.2091 38.428 58.3323 36.95 57.7147 35.3248L55.8452 36.0352C56.5449 37.8767 57.5401 39.5533 58.8274 41.0613L60.3485 39.7627ZM57.7229 35.3472C57.1359 33.6839 56.8439 31.9936 56.8439 30.272H54.8439C54.8439 32.225 55.176 34.1401 55.8369 36.0128L57.7229 35.3472ZM56.8439 30.272V29.232H54.8439V30.272H56.8439ZM56.8439 29.232C56.8439 27.4367 57.1373 25.7316 57.7208 24.1107L55.8391 23.4333C55.1746 25.279 54.8439 27.214 54.8439 29.232H56.8439ZM57.717 24.1211C58.3345 22.4638 59.2088 20.9919 60.3405 19.6985L58.8354 18.3815C57.5404 19.8615 56.5428 21.5442 55.8429 23.4229L57.717 24.1211ZM60.3405 19.6985C61.4513 18.4291 62.8376 17.4211 64.5164 16.6785L63.7074 14.8495C61.7809 15.7016 60.1513 16.8776 58.8354 18.3815L60.3405 19.6985ZM64.5244 16.675C66.2139 15.9099 68.1501 15.516 70.3519 15.516V13.516C67.9085 13.516 65.6846 13.9541 63.6994 14.853L64.5244 16.675ZM70.3519 15.516C73.2491 15.516 75.6106 16.173 77.4932 17.428L78.6026 15.7639C76.3253 14.2457 73.5561 13.516 70.3519 13.516V15.516ZM77.5093 17.4385C79.4737 18.6945 80.9619 20.344 81.9895 22.3992L83.7784 21.5048C82.5873 19.1226 80.8515 17.2015 78.5866 15.7535L77.5093 17.4385ZM81.9924 22.4049C83.0261 24.44 83.5479 26.6755 83.5479 29.128H85.5479C85.5479 26.3805 84.9605 23.832 83.7755 21.4991L81.9924 22.4049ZM83.5479 29.128V31.936H85.5479V29.128H83.5479ZM84.5479 30.936H59.3279V32.936H84.5479V30.936ZM60.3279 31.936V27.204H58.3279V31.936H60.3279ZM59.3279 28.204H79.5039V26.204H59.3279V28.204ZM78.8756 26.4261L76.1716 28.6101L77.4283 30.1659L80.1323 27.9819L78.8756 26.4261ZM77.7999 29.388C77.7999 27.5984 77.5448 26.0096 77.0004 24.6486L75.1435 25.3914C75.5697 26.457 75.7999 27.7802 75.7999 29.388H77.7999ZM77.0004 24.6486C76.4485 23.2688 75.597 22.1739 74.4287 21.4228L73.3472 23.1052C74.1202 23.6021 74.7247 24.3445 75.1435 25.3914L77.0004 24.6486ZM74.4634 21.4462C73.322 20.643 71.929 20.276 70.3519 20.276V22.276C71.6176 22.276 72.5819 22.5677 73.3124 23.0818L74.4634 21.4462ZM70.3519 20.276C68.7428 20.276 67.3117 20.6415 66.1119 21.4275L67.208 23.1005C68.0188 22.5692 69.0491 22.276 70.3519 22.276V20.276ZM66.1119 21.4275C64.9116 22.2139 64.0297 23.3586 63.4452 24.8003L65.2987 25.5517C65.7542 24.4281 66.3976 23.6314 67.208 23.1005L66.1119 21.4275ZM63.4489 24.7914C62.8634 26.1965 62.5919 27.8792 62.5919 29.804H64.5919C64.5919 28.0542 64.8405 26.6515 65.295 25.5606L63.4489 24.7914ZM62.5919 29.804C62.5919 31.5957 62.8477 33.2108 63.3847 34.6299L65.2552 33.9221C64.8215 32.7759 64.5919 31.4096 64.5919 29.804H62.5919ZM63.3879 34.6384C63.9422 36.0636 64.8298 37.2044 66.0532 38.0201L67.1626 36.3559C66.3061 35.7849 65.6684 34.9844 65.2519 33.9136L63.3879 34.6384ZM66.0532 38.0201C67.3038 38.8538 68.8666 39.228 70.6639 39.228V37.228C69.1332 37.228 67.9921 36.9089 67.1626 36.3559L66.0532 38.0201ZM70.6639 39.228C72.3114 39.228 73.7549 38.9104 74.9269 38.1988L73.889 36.4892C73.1197 36.9563 72.0671 37.228 70.6639 37.228V39.228ZM74.9269 38.1988C76.0418 37.5219 76.8691 36.6398 77.3124 35.5314L75.4555 34.7886C75.2055 35.4135 74.7154 35.9874 73.889 36.4892L74.9269 38.1988ZM76.3839 36.16H84.0279V34.16H76.3839V36.16ZM83.0509 34.9468C82.6678 36.7027 81.9211 38.2576 80.8084 39.6247L82.3595 40.8873C83.6734 39.273 84.5561 37.4306 85.005 35.3732L83.0509 34.9468ZM80.8084 39.6247C79.6976 40.9894 78.2989 42.0577 76.5954 42.829L77.4204 44.651C79.3917 43.7583 81.0436 42.504 82.3595 40.8873L80.8084 39.6247ZM76.5954 42.829C74.9095 43.5925 72.9398 43.988 70.6639 43.988V45.988C73.1721 45.988 75.4317 45.5515 77.4204 44.651L76.5954 42.829ZM117.151 44H116.151V45H117.151V44ZM117.151 35.576H118.151V34.576H117.151V35.576ZM115.747 35.576H114.747V36.576H115.747V35.576ZM114.707 23.148L115.431 22.4583L114.707 23.148ZM108.363 22.108L108.335 21.1084H108.335L108.363 22.108ZM104.515 22.264L104.568 23.2626L104.515 22.264ZM100.927 22.472H99.9271V23.5386L100.992 23.4699L100.927 22.472ZM100.927 15.452L100.84 14.4558L99.9271 14.5352V15.452H100.927ZM103.735 15.244L103.671 14.2461L103.735 15.244ZM107.063 15.088L107.033 14.0885L107.063 15.088ZM117.619 16.284L117.231 17.2057L117.237 17.208L117.619 16.284ZM122.195 20.08L121.342 20.6022L121.347 20.61L122.195 20.08ZM123.755 44V45H124.755V44H123.755ZM102.643 43.636L102.212 44.5385L102.22 44.5422L102.643 43.636ZM99.0551 40.516L98.2071 41.046L98.2132 41.0557L99.0551 40.516ZM99.3671 30.48L100.142 31.1122L100.15 31.1022L99.3671 30.48ZM103.891 27.516L104.197 28.468L104.205 28.4656L104.212 28.463L103.891 27.516ZM116.683 26.528H117.683V25.528H116.683V26.528ZM116.683 31.156V32.156H117.683V31.156H116.683ZM107.167 32.248L107.84 32.9879L107.841 32.9865L107.167 32.248ZM107.167 37.916L106.477 38.6394L106.493 38.6554L106.511 38.6706L107.167 37.916ZM113.043 38.488L113.437 39.4071L113.447 39.4029L113.457 39.3984L113.043 38.488ZM114.915 36.772L115.769 37.2919L114.915 36.772ZM115.747 33.444L116.472 32.7552L114.862 31.0606L114.748 33.3953L115.747 33.444ZM117.723 35.524L118.719 35.6114L118.759 35.1622L118.448 34.8353L117.723 35.524ZM116.267 40.516L115.406 40.008L115.401 40.0163L115.396 40.0247L116.267 40.516ZM113.043 43.636L112.578 42.7506L112.569 42.7555L113.043 43.636ZM118.151 44V35.576H116.151V44H118.151ZM117.151 34.576H115.747V36.576H117.151V34.576ZM116.747 35.576V26.424H114.747V35.576H116.747ZM116.747 26.424C116.747 24.8257 116.367 23.4413 115.431 22.4583L113.983 23.8377C114.434 24.3107 114.747 25.1103 114.747 26.424H116.747ZM115.431 22.4583C114.47 21.4495 113.038 21.056 111.379 21.056V23.056C112.771 23.056 113.557 23.3905 113.983 23.8377L115.431 22.4583ZM111.379 21.056C110.603 21.056 109.588 21.0736 108.335 21.1084L108.391 23.1076C109.635 23.0731 110.63 23.056 111.379 23.056V21.056ZM108.335 21.1084C107.079 21.1433 105.788 21.1956 104.463 21.2654L104.568 23.2626C105.877 23.1937 107.152 23.142 108.391 23.1076L108.335 21.1084ZM104.463 21.2654C103.142 21.3349 101.942 21.4044 100.863 21.4741L100.992 23.4699C102.061 23.4009 103.253 23.3318 104.568 23.2626L104.463 21.2654ZM101.927 22.472V15.452H99.9271V22.472H101.927ZM101.014 16.4482C101.802 16.3797 102.73 16.3109 103.8 16.2419L103.671 14.2461C102.591 14.3157 101.647 14.3856 100.84 14.4558L101.014 16.4482ZM103.8 16.2419C104.862 16.1734 105.96 16.1219 107.093 16.0875L107.033 14.0885C105.878 14.1234 104.757 14.176 103.671 14.2461L103.8 16.2419ZM107.093 16.0875C108.229 16.0531 109.293 16.036 110.287 16.036V14.036C109.27 14.036 108.186 14.0535 107.033 14.0885L107.093 16.0875ZM110.287 16.036C113.111 16.036 115.413 16.4403 117.231 17.2056L118.007 15.3624C115.873 14.4637 113.288 14.036 110.287 14.036V16.036ZM117.237 17.208C119.071 17.9671 120.423 19.1006 121.342 20.6022L123.048 19.5578C121.887 17.662 120.188 16.2649 118.001 15.36L117.237 17.208ZM121.347 20.61C122.259 22.0694 122.755 24.0184 122.755 26.528H124.755C124.755 23.7683 124.211 21.4186 123.043 19.55L121.347 20.61ZM122.755 26.528V44H124.755V26.528H122.755ZM123.755 43H117.151V45H123.755V43ZM108.051 43.728C106.125 43.728 104.471 43.3855 103.066 42.7298L102.22 44.5422C103.935 45.3425 105.887 45.728 108.051 45.728V43.728ZM103.074 42.7335C101.707 42.0814 100.658 41.1631 99.897 39.9763L98.2132 41.0557C99.1859 42.5729 100.528 43.7346 102.212 44.5385L103.074 42.7335ZM99.9031 39.986C99.1513 38.7831 98.7551 37.3269 98.7551 35.576H96.7551C96.7551 37.6384 97.2256 39.4755 98.2071 41.046L99.9031 39.986ZM98.7551 35.576C98.7551 33.6732 99.2433 32.2137 100.142 31.1121L98.5923 29.8479C97.3416 31.381 96.7551 33.3188 96.7551 35.576H98.7551ZM100.15 31.1022C101.081 29.9311 102.409 29.0427 104.197 28.468L103.585 26.564C101.49 27.2373 99.8027 28.3249 98.5843 29.8578L100.15 31.1022ZM104.212 28.463C106.029 27.8465 108.153 27.528 110.599 27.528V25.528C107.984 25.528 105.636 25.8681 103.57 26.569L104.212 28.463ZM110.599 27.528H116.683V25.528H110.599V27.528ZM115.683 26.528V31.156H117.683V26.528H115.683ZM116.683 30.156H110.547V32.156H116.683V30.156ZM110.547 30.156C108.93 30.156 107.531 30.562 106.493 31.5095L107.841 32.9865C108.398 32.478 109.252 32.156 110.547 32.156V30.156ZM106.494 31.5081C105.486 32.4248 105.023 33.6675 105.023 35.108H107.023C107.023 34.1218 107.323 33.4579 107.84 32.9879L106.494 31.5081ZM105.023 35.108C105.023 36.4995 105.498 37.7055 106.477 38.6394L107.858 37.1926C107.311 36.6705 107.023 36.0045 107.023 35.108H105.023ZM106.511 38.6706C107.549 39.5732 108.941 39.956 110.547 39.956V37.956C109.241 37.956 108.38 37.6455 107.823 37.1614L106.511 38.6706ZM110.547 39.956C111.594 39.956 112.564 39.7813 113.437 39.4071L112.649 37.5689C112.066 37.8187 111.372 37.956 110.547 37.956V39.956ZM113.457 39.3984C114.423 38.9593 115.192 38.2403 115.769 37.2919L114.061 36.2521C113.668 36.8984 113.189 37.3233 112.629 37.5776L113.457 39.3984ZM115.769 37.2919C116.375 36.2965 116.672 35.0007 116.746 33.4927L114.748 33.3953C114.683 34.73 114.426 35.6528 114.061 36.2521L115.769 37.2919ZM115.022 34.1327L116.998 36.2127L118.448 34.8353L116.472 32.7552L115.022 34.1327ZM116.727 35.4366C116.563 37.3021 116.11 38.8137 115.406 40.008L117.128 41.024C118.019 39.5143 118.536 37.6979 118.719 35.6114L116.727 35.4366ZM115.396 40.0247C114.729 41.2074 113.796 42.1113 112.578 42.7506L113.508 44.5214C115.064 43.7047 116.28 42.5286 117.138 41.0073L115.396 40.0247ZM112.569 42.7555C111.399 43.3858 109.908 43.728 108.051 43.728V45.728C110.146 45.728 111.984 45.3422 113.517 44.5165L112.569 42.7555ZM130.294 44H129.294V45H130.294V44ZM130.294 15.504V14.504H129.294V15.504H130.294ZM136.898 15.504H137.898V14.504H136.898V15.504ZM136.898 27.724V28.724H137.898V27.724H136.898ZM136.742 27.724H135.742V28.724H136.742V27.724ZM139.29 18.416L138.507 17.7943L138.501 17.8021L139.29 18.416ZM147.87 15.14H148.87V14.14H147.87V15.14ZM147.87 22.316V23.316H148.87V22.316H147.87ZM140.486 24.188L141.183 24.9051L141.193 24.8951L140.486 24.188ZM138.614 44V45H139.614V44H138.614ZM131.294 44V15.504H129.294V44H131.294ZM130.294 16.504H136.898V14.504H130.294V16.504ZM135.898 15.504V27.724H137.898V15.504H135.898ZM136.898 26.724H136.742V28.724H136.898V26.724ZM137.742 27.724C137.742 23.8276 138.567 20.9745 140.079 19.0299L138.501 17.8021C136.616 20.2255 135.742 23.5777 135.742 27.724H137.742ZM140.073 19.0377C141.584 17.1345 143.767 16.14 146.778 16.14V14.14C143.272 14.14 140.463 15.3295 138.507 17.7943L140.073 19.0377ZM146.778 16.14H147.87V14.14H146.778V16.14ZM146.87 15.14V22.316H148.87V15.14H146.87ZM147.87 21.316H145.79V23.316H147.87V21.316ZM145.79 21.316C143.319 21.316 141.266 21.9944 139.779 23.4809L141.193 24.8951C142.203 23.8856 143.685 23.316 145.79 23.316V21.316ZM139.789 23.471C138.289 24.9292 137.614 26.9929 137.614 29.492H139.614C139.614 27.3457 140.187 25.8735 141.183 24.905L139.789 23.471ZM137.614 29.492V44H139.614V29.492H137.614ZM138.614 43H130.294V45H138.614V43ZM158.112 43.74L157.7 44.651L157.706 44.6538L158.112 43.74ZM153.484 40.412L152.724 41.0613L152.732 41.0712L152.741 41.081L153.484 40.412ZM150.676 35.68L149.734 36.0128L149.737 36.0241L149.742 36.0352L150.676 35.68ZM150.676 23.772L149.739 23.4229L149.736 23.4333L150.676 23.772ZM153.484 19.04L154.237 19.6985L153.484 19.04ZM158.008 15.764L158.413 16.6786L158.421 16.675L158.008 15.764ZM171.944 16.596L171.39 17.428L171.398 17.4334L171.406 17.4385L171.944 16.596ZM176.78 21.952L175.886 22.3992L175.889 22.4049L176.78 21.952ZM178.444 31.936V32.936H179.444V31.936H178.444ZM153.224 31.936H152.224V32.936H153.224V31.936ZM153.224 27.204V26.204H152.224V27.204H153.224ZM173.4 27.204L174.029 27.9819L176.23 26.204H173.4V27.204ZM170.697 29.388H169.697V31.4811L171.325 30.1659L170.697 29.388ZM167.785 22.264L167.209 23.0818L167.226 23.0939L167.244 23.1052L167.785 22.264ZM160.556 22.264L160.008 21.4275L160.556 22.264ZM158.268 25.176L159.192 25.5606L159.195 25.5517L158.268 25.176ZM158.216 34.276L157.281 34.6299L157.284 34.6384L158.216 34.276ZM160.505 37.188L159.95 38.0201L160.505 37.188ZM168.304 37.344L168.823 38.1988L168.304 37.344ZM170.28 35.16V34.16H169.603L169.352 34.7886L170.28 35.16ZM177.924 35.16L178.902 35.3732L179.166 34.16H177.924V35.16ZM175.48 40.256L176.256 40.8873L175.48 40.256ZM170.904 43.74L170.492 42.829L170.904 43.74ZM164.561 43.988C162.248 43.988 160.241 43.5919 158.519 42.8262L157.706 44.6538C159.728 45.5521 162.019 45.988 164.561 45.988V43.988ZM158.525 42.829C156.803 42.0493 155.376 41.019 154.228 39.743L152.741 41.081C154.089 42.5784 155.747 43.7667 157.7 44.651L158.525 42.829ZM154.245 39.7627C153.106 38.428 152.229 36.95 151.611 35.3248L149.742 36.0352C150.441 37.8767 151.437 39.5533 152.724 41.0613L154.245 39.7627ZM151.619 35.3472C151.032 33.6839 150.74 31.9936 150.74 30.272H148.74C148.74 32.225 149.073 34.1401 149.734 36.0128L151.619 35.3472ZM150.74 30.272V29.232H148.74V30.272H150.74ZM150.74 29.232C150.74 27.4367 151.034 25.7316 151.617 24.1107L149.736 23.4333C149.071 25.279 148.74 27.214 148.74 29.232H150.74ZM151.614 24.1211C152.231 22.4638 153.105 20.9919 154.237 19.6985L152.732 18.3815C151.437 19.8615 150.439 21.5442 149.739 23.4229L151.614 24.1211ZM154.237 19.6985C155.348 18.4291 156.734 17.4211 158.413 16.6785L157.604 14.8495C155.678 15.7016 154.048 16.8776 152.732 18.3815L154.237 19.6985ZM158.421 16.675C160.111 15.9099 162.047 15.516 164.248 15.516V13.516C161.805 13.516 159.581 13.9541 157.596 14.853L158.421 16.675ZM164.248 15.516C167.146 15.516 169.507 16.173 171.39 17.428L172.499 15.7639C170.222 14.2457 167.453 13.516 164.248 13.516V15.516ZM171.406 17.4385C173.37 18.6945 174.858 20.344 175.886 22.3992L177.675 21.5048C176.484 19.1226 174.748 17.2015 172.483 15.7535L171.406 17.4385ZM175.889 22.4049C176.923 24.44 177.444 26.6755 177.444 29.128H179.444C179.444 26.3805 178.857 23.832 177.672 21.4991L175.889 22.4049ZM177.444 29.128V31.936H179.444V29.128H177.444ZM178.444 30.936H153.224V32.936H178.444V30.936ZM154.224 31.936V27.204H152.224V31.936H154.224ZM153.224 28.204H173.4V26.204H153.224V28.204ZM172.772 26.4261L170.068 28.6101L171.325 30.1659L174.029 27.9819L172.772 26.4261ZM171.697 29.388C171.697 27.5984 171.441 26.0096 170.897 24.6486L169.04 25.3914C169.466 26.457 169.697 27.7802 169.697 29.388H171.697ZM170.897 24.6486C170.345 23.2688 169.494 22.1739 168.325 21.4228L167.244 23.1052C168.017 23.6021 168.621 24.3445 169.04 25.3914L170.897 24.6486ZM168.36 21.4462C167.219 20.643 165.826 20.276 164.248 20.276V22.276C165.514 22.276 166.478 22.5677 167.209 23.0818L168.36 21.4462ZM164.248 20.276C162.639 20.276 161.208 20.6415 160.008 21.4275L161.105 23.1005C161.915 22.5692 162.946 22.276 164.248 22.276V20.276ZM160.008 21.4275C158.808 22.2139 157.926 23.3586 157.342 24.8003L159.195 25.5517C159.651 24.4281 160.294 23.6314 161.105 23.1005L160.008 21.4275ZM157.345 24.7914C156.76 26.1965 156.488 27.8792 156.488 29.804H158.488C158.488 28.0542 158.737 26.6515 159.192 25.5606L157.345 24.7914ZM156.488 29.804C156.488 31.5957 156.744 33.2108 157.281 34.6299L159.152 33.9221C158.718 32.7759 158.488 31.4096 158.488 29.804H156.488ZM157.284 34.6384C157.839 36.0636 158.726 37.2044 159.95 38.0201L161.059 36.3559C160.203 35.7849 159.565 34.9844 159.148 33.9136L157.284 34.6384ZM159.95 38.0201C161.2 38.8538 162.763 39.228 164.561 39.228V37.228C163.03 37.228 161.889 36.9089 161.059 36.3559L159.95 38.0201ZM164.561 39.228C166.208 39.228 167.651 38.9104 168.823 38.1988L167.786 36.4892C167.016 36.9563 165.964 37.228 164.561 37.228V39.228ZM168.823 38.1988C169.938 37.5219 170.766 36.6398 171.209 35.5314L169.352 34.7886C169.102 35.4135 168.612 35.9874 167.786 36.4892L168.823 38.1988ZM170.28 36.16H177.924V34.16H170.28V36.16ZM176.947 34.9468C176.564 36.7027 175.818 38.2576 174.705 39.6247L176.256 40.8873C177.57 39.273 178.453 37.4306 178.902 35.3732L176.947 34.9468ZM174.705 39.6247C173.594 40.9894 172.195 42.0577 170.492 42.829L171.317 44.651C173.288 43.7583 174.94 42.504 176.256 40.8873L174.705 39.6247ZM170.492 42.829C168.806 43.5925 166.836 43.988 164.561 43.988V45.988C167.069 45.988 169.328 45.5515 171.317 44.651L170.492 42.829ZM22.2 144.5H21.2V145.5H22.2V144.5ZM22.2 131.7V130.7H21.2V131.7H22.2ZM46.2 129.3L46.922 129.992L46.2 129.3ZM46.2 115.8L45.478 116.492L45.4854 116.5L45.4929 116.507L46.2 115.8ZM22.2 113.4H21.2V114.4H22.2V113.4ZM22.2 103.5V102.5H21.2V103.5H22.2ZM52 105.4L51.6935 106.352L51.7008 106.354L51.7082 106.356L52 105.4ZM61.7 135L62.5377 135.546L62.5429 135.538L61.7 135ZM52.9 142.1L53.2824 143.024L53.2891 143.021L53.2958 143.018L52.9 142.1ZM8.2 144.5H7.2V145.5H8.2V144.5ZM8.2 70.4V69.4H7.2V70.4H8.2ZM24.2 70.4H25.2V69.4H24.2V70.4ZM24.2 144.5V145.5H25.2V144.5H24.2ZM22.2 110.8H21.2V111.8H22.2V110.8ZM22.2 101V100H21.2V101H22.2ZM43.4 98.6L42.6474 97.9415H42.6474L43.4 98.6ZM43.4 85.6L44.1526 84.9415H44.1526L43.4 85.6ZM22.2 83.2H21.2V84.2H22.2V83.2ZM22.2 70.4V69.4H21.2V70.4H22.2ZM54.9 75.7L54.2796 76.4843L54.2853 76.4887L54.9 75.7ZM58.2 103.2L57.4394 102.551L57.4348 102.556L57.4302 102.562L58.2 103.2ZM48.9 109.1L49.1813 110.06L49.1918 110.056L48.9 109.1ZM23.2 144.5V131.7H21.2V144.5H23.2ZM22.2 132.7H39.3V130.7H22.2V132.7ZM39.3 132.7C42.5319 132.7 45.1368 131.855 46.922 129.992L45.478 128.608C44.1965 129.945 42.2014 130.7 39.3 130.7V132.7ZM46.922 129.992C48.6854 128.152 49.5 125.605 49.5 122.5H47.5C47.5 125.261 46.7812 127.248 45.478 128.608L46.922 129.992ZM49.5 122.5C49.5 119.398 48.6865 116.872 46.9071 115.093L45.4929 116.507C46.7802 117.794 47.5 119.736 47.5 122.5H49.5ZM46.922 115.108C45.1368 113.245 42.5319 112.4 39.3 112.4V114.4C42.2014 114.4 44.1965 115.155 45.478 116.492L46.922 115.108ZM39.3 112.4H22.2V114.4H39.3V112.4ZM23.2 113.4V103.5H21.2V113.4H23.2ZM22.2 104.5H38.5V102.5H22.2V104.5ZM38.5 104.5C43.4852 104.5 47.8786 105.123 51.6935 106.352L52.3065 104.448C48.2547 103.143 43.6481 102.5 38.5 102.5V104.5ZM51.7082 106.356C55.4848 107.509 58.4072 109.378 60.5302 111.938L62.0698 110.662C59.6595 107.755 56.3818 105.691 52.2918 104.444L51.7082 106.356ZM60.5302 111.938C62.6069 114.442 63.7 117.892 63.7 122.4H65.7C65.7 117.574 64.5265 113.624 62.0698 110.662L60.5302 111.938ZM63.7 122.4V123.8H65.7V122.4H63.7ZM63.7 123.8C63.7 127.975 62.7384 131.514 60.8571 134.462L62.5429 135.538C64.6616 132.219 65.7 128.292 65.7 123.8H63.7ZM60.8624 134.454C58.9853 137.332 56.218 139.581 52.5042 141.182L53.2958 143.018C57.3153 141.286 60.4147 138.801 62.5376 135.546L60.8624 134.454ZM52.5177 141.176C48.8081 142.711 44.1476 143.5 38.5 143.5V145.5C44.3191 145.5 49.2585 144.689 53.2824 143.024L52.5177 141.176ZM38.5 143.5H22.2V145.5H38.5V143.5ZM9.2 144.5V70.4H7.2V144.5H9.2ZM8.2 71.4H24.2V69.4H8.2V71.4ZM23.2 70.4V144.5H25.2V70.4H23.2ZM24.2 143.5H8.2V145.5H24.2V143.5ZM23.2 110.8V101H21.2V110.8H23.2ZM22.2 102H36.6V100H22.2V102ZM36.6 102C39.8828 102 42.4872 101.162 44.1526 99.2585L42.6474 97.9415C41.5128 99.2382 39.5839 100 36.6 100V102ZM44.1526 99.2585C45.7496 97.4334 46.5 95.0452 46.5 92.2H44.5C44.5 94.6882 43.8504 96.5666 42.6474 97.9415L44.1526 99.2585ZM46.5 92.2C46.5 89.2359 45.7569 86.7751 44.1526 84.9415L42.6474 86.2585C43.8431 87.6249 44.5 89.5641 44.5 92.2H46.5ZM44.1526 84.9415C42.4872 83.0382 39.8828 82.2 36.6 82.2V84.2C39.5839 84.2 41.5128 84.9618 42.6474 86.2585L44.1526 84.9415ZM36.6 82.2H22.2V84.2H36.6V82.2ZM23.2 83.2V70.4H21.2V83.2H23.2ZM22.2 71.4H35.6V69.4H22.2V71.4ZM35.6 71.4C43.8778 71.4 50.0562 73.1434 54.2796 76.4843L55.5204 74.9157C50.8105 71.19 44.1222 69.4 35.6 69.4V71.4ZM54.2853 76.4887C58.5401 79.805 60.7 84.5271 60.7 90.8H62.7C62.7 84.0063 60.3266 78.6617 55.5147 74.9113L54.2853 76.4887ZM60.7 90.8V92.3H62.7V90.8H60.7ZM60.7 92.3C60.7 96.6593 59.5812 100.042 57.4394 102.551L58.9606 103.849C61.4855 100.892 62.7 97.0073 62.7 92.3H60.7ZM57.4302 102.562C55.3072 105.122 52.3848 106.991 48.6082 108.144L49.1918 110.056C53.2818 108.809 56.5595 106.745 58.9698 103.838L57.4302 102.562ZM48.6187 108.14C44.8623 109.241 40.5267 109.8 35.6 109.8V111.8C40.6733 111.8 45.2044 111.225 49.1813 110.06L48.6187 108.14ZM35.6 109.8H22.2V111.8H35.6V109.8ZM79.4383 139.6L78.666 140.235L78.6711 140.241L79.4383 139.6ZM74.3383 89.2V88.2H73.3383V89.2H74.3383ZM90.3383 89.2H91.3383V88.2H90.3383V89.2ZM92.8383 128.8L92.1174 129.493L92.8383 128.8ZM106.538 128.7L105.831 127.993L106.538 128.7ZM109.238 89.2V88.2H108.238V89.2H109.238ZM125.238 89.2H126.238V88.2H125.238V89.2ZM125.238 144V145H126.238V144H125.238ZM112.538 144H111.538V145H112.538V144ZM112.538 120.9V119.9H111.538V120.9H112.538ZM113.638 120.9H114.638V119.9H113.638V120.9ZM111.438 134.8L110.507 134.434L110.504 134.443L111.438 134.8ZM105.138 143L104.598 142.159L105.138 143ZM94.0383 144.7C87.9375 144.7 83.3781 142.753 80.2055 138.959L78.6711 140.241C82.2985 144.58 87.4724 146.7 94.0383 146.7V144.7ZM80.2106 138.965C77.0193 135.085 75.3383 129.155 75.3383 121H73.3383C73.3383 129.378 75.0573 135.848 78.666 140.235L80.2106 138.965ZM75.3383 121V89.2H73.3383V121H75.3383ZM74.3383 90.2H90.3383V88.2H74.3383V90.2ZM89.3383 89.2V121.8H91.3383V89.2H89.3383ZM89.3383 121.8C89.3383 124.932 90.2339 127.534 92.1174 129.493L93.5591 128.107C92.1093 126.599 91.3383 124.535 91.3383 121.8H89.3383ZM92.1174 129.493C94.0039 131.455 96.5149 132.4 99.5383 132.4V130.4C96.9617 130.4 95.006 129.612 93.5591 128.107L92.1174 129.493ZM99.5383 132.4C102.634 132.4 105.234 131.419 107.245 129.407L105.831 127.993C104.243 129.581 102.176 130.4 99.5383 130.4V132.4ZM107.245 129.407C109.27 127.382 110.238 124.674 110.238 121.4H108.238C108.238 124.259 107.406 126.418 105.831 127.993L107.245 129.407ZM110.238 121.4V89.2H108.238V121.4H110.238ZM109.238 90.2H125.238V88.2H109.238V90.2ZM124.238 89.2V144H126.238V89.2H124.238ZM125.238 143H112.538V145H125.238V143ZM113.538 144V120.9H111.538V144H113.538ZM112.538 121.9H113.638V119.9H112.538V121.9ZM112.638 120.9C112.638 126.352 111.915 130.853 110.508 134.434L112.369 135.166C113.895 131.281 114.638 126.514 114.638 120.9H112.638ZM110.504 134.443C109.166 137.947 107.187 140.494 104.598 142.159L105.679 143.841C108.689 141.906 110.91 138.986 112.372 135.157L110.504 134.443ZM104.598 142.159C101.994 143.833 98.7262 144.7 94.7383 144.7V146.7C99.017 146.7 102.683 145.767 105.679 143.841L104.598 142.159ZM94.7383 144.7H94.0383V146.7H94.7383V144.7ZM141.591 144H140.591V145H141.591V144ZM141.591 89.2V88.2H140.591V89.2H141.591ZM157.591 89.2H158.591V88.2H157.591V89.2ZM157.591 144V145H158.591V144H157.591ZM134.291 101H133.291V102H134.291V101ZM134.291 89.2V88.2H133.291V89.2H134.291ZM157.591 89.2H158.591V88.2H157.591V89.2ZM157.591 101V102H158.591V101H157.591ZM141.091 81.5L140.339 82.1585L140.353 82.1752L140.369 82.1912L141.091 81.5ZM141.091 69.5L140.354 68.8243L140.353 68.8257L141.091 69.5ZM154.391 69.5L153.639 70.1585L153.653 70.1752L153.669 70.1912L154.391 69.5ZM154.391 81.5L153.654 80.8243L153.653 80.8257L154.391 81.5ZM142.591 144V89.2H140.591V144H142.591ZM141.591 90.2H157.591V88.2H141.591V90.2ZM156.591 89.2V144H158.591V89.2H156.591ZM157.591 143H141.591V145H157.591V143ZM135.291 101V89.2H133.291V101H135.291ZM134.291 90.2H157.591V88.2H134.291V90.2ZM156.591 89.2V101H158.591V89.2H156.591ZM157.591 100H134.291V102H157.591V100ZM147.791 82.8C144.949 82.8 143.025 82.0749 141.814 80.8088L140.369 82.1912C142.091 83.9918 144.633 84.8 147.791 84.8V82.8ZM141.844 80.8415C140.624 79.4474 139.991 77.6911 139.991 75.5H137.991C137.991 78.1088 138.759 80.3526 140.339 82.1585L141.844 80.8415ZM139.991 75.5C139.991 73.2332 140.629 71.4897 141.83 70.1743L140.353 68.8257C138.754 70.577 137.991 72.8335 137.991 75.5H139.991ZM141.829 70.1757C143.042 68.8519 144.961 68.1 147.791 68.1V66.1C144.622 66.1 142.074 66.9481 140.354 68.8243L141.829 70.1757ZM147.791 68.1C150.626 68.1 152.497 68.8533 153.639 70.1585L155.144 68.8415C153.486 66.9467 150.957 66.1 147.791 66.1V68.1ZM153.669 70.1912C154.929 71.5083 155.591 73.2459 155.591 75.5H157.591C157.591 72.8207 156.788 70.5583 155.114 68.8088L153.669 70.1912ZM155.591 75.5C155.591 77.6784 154.933 79.4288 153.654 80.8243L155.129 82.1757C156.783 80.3712 157.591 78.1216 157.591 75.5H155.591ZM153.653 80.8257C152.514 82.0733 150.638 82.8 147.791 82.8V84.8C150.945 84.8 153.469 83.9934 155.13 82.1743L153.653 80.8257ZM172.09 144H171.09V145H172.09V144ZM172.09 71V70H171.09V71H172.09ZM188.19 71H189.19V70H188.19V71ZM188.19 144V145H189.19V144H188.19ZM165.59 82.8H164.59V83.8H165.59V82.8ZM165.59 71V70H164.59V71H165.59ZM188.19 71H189.19V70H188.19V71ZM188.19 82.8V83.8H189.19V82.8H188.19ZM173.09 144V71H171.09V144H173.09ZM172.09 72H188.19V70H172.09V72ZM187.19 71V144H189.19V71H187.19ZM188.19 143H172.09V145H188.19V143ZM166.59 82.8V71H164.59V82.8H166.59ZM165.59 72H188.19V70H165.59V72ZM187.19 71V82.8H189.19V71H187.19ZM188.19 81.8H165.59V83.8H188.19V81.8ZM213.933 143.7L213.525 144.613L213.532 144.616L213.933 143.7ZM205.733 137.9L204.997 138.578L205.006 138.587L205.733 137.9ZM200.333 129L199.39 129.333L199.393 129.341L199.396 129.349L200.333 129ZM200.233 104.7L199.29 104.367L199.287 104.375L199.284 104.384L200.233 104.7ZM205.333 95.8L204.579 95.1429L204.578 95.1443L205.333 95.8ZM213.433 89.8L213.841 90.713L213.849 90.7094L213.857 90.7057L213.433 89.8ZM235.333 90.5L234.816 91.3559L234.822 91.3599L234.829 91.3638L235.333 90.5ZM242.833 98.9L241.932 99.3343L241.935 99.3407L242.833 98.9ZM245.833 112.5L245.152 113.233L246.921 114.876L246.832 112.463L245.833 112.5ZM241.633 108.6H240.633V109.036L240.952 109.333L241.633 108.6ZM241.633 71V70H240.633V71H241.633ZM257.733 71H258.733V70H257.733V71ZM257.733 144V145H258.733V144H257.733ZM245.033 144H244.033V145H245.033V144ZM245.033 121.3V120.3H244.033V121.3H245.033ZM247.233 121.3L248.232 121.338L248.272 120.3H247.233V121.3ZM243.933 134.6L243.055 134.121L243.048 134.134L243.933 134.6ZM236.033 143L236.521 143.873L236.528 143.869L236.535 143.865L236.033 143ZM235.233 130.8L235.703 131.682L235.714 131.677L235.233 130.8ZM240.133 125.9L239.273 125.389L239.267 125.4L239.261 125.41L240.133 125.9ZM240.133 107.1L239.288 107.635L240.133 107.1ZM235.133 102.5L235.591 101.611L235.133 102.5ZM221.233 103L221.775 103.84L221.781 103.836L221.233 103ZM216.333 108.6L217.222 109.057L217.227 109.047L216.333 108.6ZM216.333 125.1L215.444 125.557L216.333 125.1ZM221.333 130.5L220.822 131.36L221.333 130.5ZM224.533 144.8C220.789 144.8 217.394 144.123 214.334 142.784L213.532 144.616C216.871 146.077 220.543 146.8 224.533 146.8V144.8ZM214.341 142.787C211.326 141.44 208.701 139.583 206.459 137.213L205.006 138.587C207.431 141.15 210.273 143.16 213.525 144.613L214.341 142.787ZM206.468 137.223C204.227 134.79 202.494 131.936 201.27 128.651L199.396 129.349C200.705 132.864 202.571 135.944 204.997 138.577L206.468 137.223ZM201.276 128.667C200.117 125.383 199.533 121.83 199.533 118H197.533C197.533 122.036 198.149 125.817 199.39 129.333L201.276 128.667ZM199.533 118V115.7H197.533V118H199.533ZM199.533 115.7C199.533 111.864 200.085 108.305 201.182 105.016L199.284 104.384C198.114 107.895 197.533 111.67 197.533 115.7H199.533ZM201.176 105.033C202.337 101.742 203.976 98.8873 206.088 96.4557L204.578 95.1443C202.289 97.7794 200.528 100.858 199.29 104.367L201.176 105.033ZM206.087 96.4571C208.258 93.9659 210.841 92.0535 213.841 90.713L213.025 88.887C209.758 90.3465 206.941 92.4341 204.579 95.1429L206.087 96.4571ZM213.857 90.7057C216.843 89.3081 220.195 88.6 223.933 88.6V86.6C219.937 86.6 216.29 87.3586 213.009 88.8943L213.857 90.7057ZM223.933 88.6C228.183 88.6 231.797 89.5324 234.816 91.3559L235.85 89.6441C232.468 87.6009 228.482 86.6 223.933 86.6V88.6ZM234.829 91.3638C237.837 93.1183 240.208 95.7583 241.932 99.3343L243.734 98.4657C241.858 94.575 239.229 91.615 235.837 89.6362L234.829 91.3638ZM241.935 99.3407C243.657 102.848 244.637 107.234 244.833 112.537L246.832 112.463C246.629 106.966 245.609 102.286 243.73 98.4593L241.935 99.3407ZM246.513 111.767L242.313 107.867L240.952 109.333L245.152 113.233L246.513 111.767ZM242.633 108.6V71H240.633V108.6H242.633ZM241.633 72H257.733V70H241.633V72ZM256.733 71V144H258.733V71H256.733ZM257.733 143H245.033V145H257.733V143ZM246.033 144V121.3H244.033V144H246.033ZM245.033 122.3H247.233V120.3H245.033V122.3ZM246.234 121.262C246.038 126.344 244.965 130.619 243.055 134.121L244.811 135.079C246.901 131.248 248.028 126.656 248.232 121.338L246.234 121.262ZM243.048 134.134C241.196 137.647 238.69 140.303 235.531 142.135L236.535 143.865C240.043 141.83 242.803 138.886 244.817 135.066L243.048 134.134ZM235.544 142.127C232.379 143.9 228.718 144.8 224.533 144.8V146.8C229.014 146.8 233.02 145.833 236.521 143.873L235.544 142.127ZM228.533 133.4C231.149 133.4 233.546 132.833 235.703 131.682L234.762 129.918C232.92 130.9 230.85 131.4 228.533 131.4V133.4ZM235.714 131.677C237.951 130.45 239.717 128.68 241.004 126.39L239.261 125.41C238.149 127.387 236.648 128.883 234.752 129.923L235.714 131.677ZM240.993 126.411C242.369 124.093 243.033 121.342 243.033 118.2H241.033C241.033 121.058 240.43 123.44 239.273 125.389L240.993 126.411ZM243.033 118.2V114.5H241.033V118.2H243.033ZM243.033 114.5C243.033 111.422 242.367 108.759 240.978 106.565L239.288 107.635C240.432 109.441 241.033 111.711 241.033 114.5H243.033ZM240.978 106.565C239.618 104.418 237.819 102.761 235.591 101.611L234.674 103.389C236.58 104.372 238.115 105.782 239.288 107.635L240.978 106.565ZM235.591 101.611C233.378 100.469 230.987 99.9 228.433 99.9V101.9C230.679 101.9 232.754 102.398 234.674 103.389L235.591 101.611ZM228.433 99.9C225.58 99.9 222.988 100.652 220.684 102.164L221.781 103.836C223.744 102.548 225.952 101.9 228.433 101.9V99.9ZM220.691 102.16C218.46 103.599 216.711 105.608 215.438 108.153L217.227 109.047C218.355 106.792 219.872 105.068 221.775 103.84L220.691 102.16ZM215.444 108.143C214.158 110.642 213.533 113.538 213.533 116.8H215.533C215.533 113.795 216.108 111.224 217.222 109.057L215.444 108.143ZM213.533 116.8C213.533 120.125 214.156 123.055 215.444 125.557L217.222 124.643C216.109 122.479 215.533 119.875 215.533 116.8H213.533ZM215.444 125.557C216.724 128.048 218.518 129.992 220.822 131.36L221.843 129.64C219.881 128.475 218.341 126.819 217.222 124.643L215.444 125.557ZM220.822 131.36C223.122 132.725 225.7 133.4 228.533 133.4V131.4C226.032 131.4 223.811 130.808 221.843 129.64L220.822 131.36ZM283.945 143.5L283.533 144.411L283.539 144.414L283.945 143.5ZM275.045 137.1L274.285 137.749L274.293 137.759L274.302 137.769L275.045 137.1ZM269.645 128L268.702 128.333L268.706 128.344L268.711 128.355L269.645 128ZM269.645 105.1L268.708 104.751L268.704 104.761L269.645 105.1ZM275.045 96L275.798 96.6585L275.045 96ZM283.745 89.7L284.15 90.6146L284.158 90.6109L283.745 89.7ZM310.545 91.3L309.991 92.132L309.999 92.1374L310.007 92.1425L310.545 91.3ZM319.845 101.6L318.951 102.047L318.954 102.053L319.845 101.6ZM323.045 120.8V121.8H324.045V120.8H323.045ZM274.545 120.8H273.545V121.8H274.545V120.8ZM274.545 111.7V110.7H273.545V111.7H274.545ZM313.345 111.7L313.974 112.478L316.175 110.7H313.345V111.7ZM308.145 115.9H307.145V117.993L308.774 116.678L308.145 115.9ZM302.545 102.2L301.97 103.018L301.987 103.03L302.005 103.041L302.545 102.2ZM288.645 102.2L288.097 101.364L288.645 102.2ZM284.245 107.8L285.168 108.185L285.172 108.176L284.245 107.8ZM284.145 125.3L283.21 125.654L283.213 125.662L284.145 125.3ZM288.545 130.9L287.991 131.732L288.545 130.9ZM303.545 131.2L304.064 132.055L303.545 131.2ZM307.345 127V126H306.668L306.417 126.629L307.345 127ZM322.045 127L323.022 127.213L323.287 126H322.045V127ZM317.345 136.8L318.121 137.431L317.345 136.8ZM308.545 143.5L308.133 142.589L308.545 143.5ZM296.345 144.9C291.793 144.9 287.802 144.12 284.351 142.586L283.539 144.414C287.288 146.08 291.564 146.9 296.345 146.9V144.9ZM284.358 142.589C280.94 141.041 278.089 138.987 275.789 136.431L274.302 137.769C276.802 140.546 279.884 142.759 283.533 144.411L284.358 142.589ZM275.806 136.451C273.546 133.804 271.806 130.87 270.58 127.645L268.711 128.355C270.018 131.797 271.878 134.929 274.285 137.749L275.806 136.451ZM270.588 127.667C269.425 124.372 268.845 121.018 268.845 117.6H266.845C266.845 121.249 267.465 124.828 268.702 128.333L270.588 127.667ZM268.845 117.6V115.6H266.845V117.6H268.845ZM268.845 115.6C268.845 112.045 269.427 108.66 270.586 105.439L268.704 104.761C267.464 108.207 266.845 111.822 266.845 115.6H268.845ZM270.582 105.449C271.808 102.16 273.546 99.2319 275.798 96.6585L274.293 95.3415C271.878 98.1015 270.016 101.24 268.708 104.751L270.582 105.449ZM275.798 96.6585C278.029 94.1091 280.807 92.0931 284.15 90.6145L283.341 88.7855C279.75 90.3736 276.729 92.5576 274.293 95.3415L275.798 96.6585ZM284.158 90.6109C287.543 89.0779 291.399 88.3 295.745 88.3V86.3C291.158 86.3 287.014 87.1221 283.333 88.789L284.158 90.6109ZM295.745 88.3C301.458 88.3 306.188 89.5969 309.991 92.132L311.1 90.4679C306.903 87.6697 301.766 86.3 295.745 86.3V88.3ZM310.007 92.1425C313.923 94.6465 316.899 97.944 318.951 102.047L320.74 101.153C318.525 96.7226 315.301 93.1535 311.084 90.4575L310.007 92.1425ZM318.954 102.053C321.011 106.104 322.045 110.547 322.045 115.4H324.045C324.045 110.253 322.946 105.496 320.737 101.147L318.954 102.053ZM322.045 115.4V120.8H324.045V115.4H322.045ZM323.045 119.8H274.545V121.8H323.045V119.8ZM275.545 120.8V111.7H273.545V120.8H275.545ZM274.545 112.7H313.345V110.7H274.545V112.7ZM312.717 110.922L307.517 115.122L308.774 116.678L313.974 112.478L312.717 110.922ZM309.145 115.9C309.145 112.542 308.666 109.61 307.674 107.129L305.817 107.871C306.691 110.057 307.145 112.724 307.145 115.9H309.145ZM307.674 107.129C306.674 104.629 305.15 102.686 303.086 101.359L302.005 103.041C303.674 104.114 304.95 105.705 305.817 107.871L307.674 107.129ZM303.121 101.382C301.115 99.971 298.634 99.3 295.745 99.3V101.3C298.323 101.3 300.375 101.896 301.97 103.018L303.121 101.382ZM295.745 99.3C292.792 99.3 290.225 99.9695 288.097 101.364L289.193 103.036C290.932 101.897 293.098 101.3 295.745 101.3V99.3ZM288.097 101.364C285.969 102.758 284.383 104.799 283.319 107.424L285.172 108.176C286.108 105.868 287.455 104.175 289.193 103.036L288.097 101.364ZM283.322 107.415C282.257 109.973 281.745 113.079 281.745 116.7H283.745C283.745 113.254 284.234 110.427 285.168 108.185L283.322 107.415ZM281.745 116.7C281.745 120.06 282.225 123.051 283.21 125.654L285.081 124.946C284.199 122.616 283.745 119.874 283.745 116.7H281.745ZM283.213 125.662C284.216 128.24 285.807 130.276 287.991 131.732L289.1 130.068C287.284 128.857 285.942 127.16 285.077 124.938L283.213 125.662ZM287.991 131.732C290.201 133.206 293.012 133.9 296.345 133.9V131.9C293.279 131.9 290.889 131.261 289.1 130.068L287.991 131.732ZM296.345 133.9C299.401 133.9 301.996 133.31 304.064 132.055L303.026 130.345C301.361 131.356 299.156 131.9 296.345 131.9V133.9ZM304.064 132.055C306.075 130.834 307.51 129.28 308.274 127.371L306.417 126.629C305.847 128.054 304.749 129.299 303.026 130.345L304.064 132.055ZM307.345 128H322.045V126H307.345V128ZM321.068 126.787C320.301 130.303 318.803 133.426 316.57 136.169L318.121 137.431C320.555 134.441 322.189 131.031 323.022 127.213L321.068 126.787ZM316.57 136.169C314.339 138.909 311.532 141.05 308.133 142.589L308.958 144.411C312.625 142.75 315.685 140.424 318.121 137.431L316.57 136.169ZM308.133 142.589C304.751 144.12 300.829 144.9 296.345 144.9V146.9C301.061 146.9 305.273 146.08 308.958 144.411L308.133 142.589ZM332.648 144H331.648V145H332.648V144ZM332.648 89.2V88.2H331.648V89.2H332.648ZM345.348 89.2H346.348V88.2H345.348V89.2ZM345.348 112.7V113.7H346.348V112.7H345.348ZM345.048 112.7H344.048V113.7H345.048V112.7ZM349.948 94.8L349.164 94.1783L349.158 94.1861L349.948 94.8ZM366.448 88.5H367.448V87.5H366.448V88.5ZM366.448 102.3V103.3H367.448V102.3H366.448ZM352.248 105.9L352.945 106.617L352.955 106.607L352.248 105.9ZM348.648 144V145H349.648V144H348.648ZM333.648 144V89.2H331.648V144H333.648ZM332.648 90.2H345.348V88.2H332.648V90.2ZM344.348 89.2V112.7H346.348V89.2H344.348ZM345.348 111.7H345.048V113.7H345.348V111.7ZM346.048 112.7C346.048 105.092 347.657 99.3745 350.737 95.4139L349.158 94.1861C345.705 98.6255 344.048 104.842 344.048 112.7H346.048ZM350.731 95.4217C353.841 91.5025 358.328 89.5 364.348 89.5V87.5C357.834 87.5 352.721 89.6975 349.164 94.1783L350.731 95.4217ZM364.348 89.5H366.448V87.5H364.348V89.5ZM365.448 88.5V102.3H367.448V88.5H365.448ZM366.448 101.3H362.448V103.3H366.448V101.3ZM362.448 101.3C357.864 101.3 354.179 102.554 351.541 105.193L352.955 106.607C355.116 104.446 358.231 103.3 362.448 103.3V101.3ZM351.551 105.183C348.899 107.761 347.648 111.457 347.648 116.1H349.648C349.648 111.81 350.797 108.705 352.945 106.617L351.551 105.183ZM347.648 116.1V144H349.648V116.1H347.648ZM348.648 143H332.648V145H348.648V143ZM376.237 140.9L376.826 140.091L376.237 140.9ZM369.237 127.4V126.4H368.19L368.239 127.446L369.237 127.4ZM383.438 127.4L384.426 127.248L384.295 126.4H383.438V127.4ZM386.538 132.1L385.924 132.889L385.94 132.902L385.956 132.914L386.538 132.1ZM401.737 132.7L402.198 133.588L402.21 133.581L401.737 132.7ZM402.438 124.7L401.856 125.514L401.869 125.523L401.883 125.532L402.438 124.7ZM394.938 122.6L395.048 121.606L395.039 121.605L395.03 121.604L394.938 122.6ZM390.638 122.2L390.537 123.195L390.545 123.196L390.638 122.2ZM375.737 116.7L375.061 117.437L375.069 117.443L375.737 116.7ZM373.737 95.5L374.54 96.0967L373.737 95.5ZM381.737 89.6L381.379 88.6666L381.372 88.669L381.737 89.6ZM410.638 92.3L410.052 93.1104L410.06 93.1163L410.638 92.3ZM417.438 105.7V106.7H418.472L418.437 105.666L417.438 105.7ZM403.237 105.7L402.248 105.847L402.375 106.7H403.237V105.7ZM400.438 101.2L399.817 101.984L399.827 101.992L399.837 102L400.438 101.2ZM387.138 108L387.672 107.155L387.138 108ZM393.337 109.7L393.222 110.693L393.233 110.695L393.245 110.696L393.337 109.7ZM397.638 110.1L397.746 109.106L397.738 109.105L397.73 109.104L397.638 110.1ZM413.337 115.7L413.964 114.92L413.337 115.7ZM415.938 137.4L416.738 138L416.745 137.991L415.938 137.4ZM407.438 143.6L407.794 144.534L407.802 144.531L407.809 144.528L407.438 143.6ZM394.538 144.7C386.861 144.7 380.995 143.124 376.826 140.091L375.649 141.709C380.28 145.077 386.615 146.7 394.538 146.7V144.7ZM376.826 140.091C372.69 137.083 370.49 132.874 370.236 127.354L368.239 127.446C368.518 133.526 370.985 138.317 375.649 141.709L376.826 140.091ZM369.237 128.4H383.438V126.4H369.237V128.4ZM382.449 127.552C382.765 129.607 383.984 131.381 385.924 132.889L387.151 131.311C385.491 130.019 384.643 128.66 384.426 127.248L382.449 127.552ZM385.956 132.914C388.067 134.421 391.077 135.1 394.837 135.1V133.1C391.264 133.1 388.742 132.445 387.119 131.286L385.956 132.914ZM394.837 135.1C397.74 135.1 400.212 134.617 402.198 133.588L401.277 131.812C399.663 132.649 397.535 133.1 394.837 133.1V135.1ZM402.21 133.581C404.332 132.444 405.538 130.741 405.538 128.5H403.538C403.538 129.859 402.876 130.956 401.265 131.819L402.21 133.581ZM405.538 128.5C405.538 126.546 404.653 124.975 402.992 123.868L401.883 125.532C403.022 126.291 403.538 127.254 403.538 128.5H405.538ZM403.019 123.886C401.395 122.726 398.669 122.008 395.048 121.606L394.827 123.594C398.406 123.992 400.68 124.674 401.856 125.514L403.019 123.886ZM395.03 121.604L390.73 121.204L390.545 123.196L394.845 123.596L395.03 121.604ZM390.738 121.205C384.253 120.55 379.522 118.761 376.406 115.957L375.069 117.443C378.619 120.639 383.822 122.517 390.537 123.195L390.738 121.205ZM376.414 115.963C373.365 113.164 371.837 109.603 371.837 105.2H369.837C369.837 110.13 371.576 114.236 375.061 117.437L376.414 115.963ZM371.837 105.2C371.837 101.506 372.758 98.4928 374.54 96.0967L372.935 94.9033C370.85 97.7072 369.837 101.161 369.837 105.2H371.837ZM374.54 96.0967C376.348 93.6653 378.854 91.8049 382.103 90.531L381.372 88.669C377.821 90.0617 374.994 92.1347 372.935 94.9033L374.54 96.0967ZM382.096 90.5333C385.43 89.2514 389.238 88.6 393.538 88.6V86.6C389.037 86.6 384.979 87.2819 381.379 88.6666L382.096 90.5333ZM393.538 88.6C400.461 88.6 405.936 90.1345 410.052 93.1104L411.223 91.4896C406.672 88.1988 400.747 86.6 393.538 86.6V88.6ZM410.06 93.1163C414.109 95.9816 416.247 100.142 416.438 105.734L418.437 105.666C418.228 99.5249 415.833 94.7518 411.215 91.4837L410.06 93.1163ZM417.438 104.7H403.237V106.7H417.438V104.7ZM404.227 105.553C403.917 103.466 402.825 101.741 401.038 100.4L399.837 102C401.25 103.059 402.024 104.334 402.248 105.847L404.227 105.553ZM401.058 100.416C399.209 98.952 396.582 98.3 393.337 98.3V100.3C396.36 100.3 398.466 100.915 399.817 101.984L401.058 100.416ZM393.337 98.3C390.757 98.3 388.582 98.7866 386.901 99.8563L387.974 101.544C389.227 100.747 390.985 100.3 393.337 100.3V98.3ZM386.901 99.8563C385.175 100.954 384.237 102.524 384.237 104.5H386.237C386.237 103.276 386.766 102.312 387.974 101.544L386.901 99.8563ZM384.237 104.5C384.237 106.367 385.039 107.857 386.604 108.845L387.672 107.155C386.703 106.543 386.237 105.7 386.237 104.5H384.237ZM386.604 108.845C388.067 109.77 390.32 110.356 393.222 110.693L393.453 108.707C390.622 108.378 388.742 107.83 387.672 107.155L386.604 108.845ZM393.245 110.696L397.545 111.096L397.73 109.104L393.43 108.704L393.245 110.696ZM397.529 111.094C404.148 111.815 409.176 113.639 412.711 116.48L413.964 114.92C410.032 111.761 404.594 109.852 397.746 109.106L397.529 111.094ZM412.711 116.48C416.193 119.277 417.938 123.016 417.938 127.8H419.938C419.938 122.451 417.949 118.123 413.964 114.92L412.711 116.48ZM417.938 127.8C417.938 131.273 416.995 134.262 415.13 136.809L416.745 137.991C418.88 135.071 419.938 131.66 419.938 127.8H417.938ZM415.138 136.8C413.266 139.295 410.594 141.26 407.066 142.672L407.809 144.528C411.614 143.006 414.609 140.839 416.738 138L415.138 136.8ZM407.081 142.666C403.553 144.013 399.379 144.7 394.538 144.7V146.7C399.563 146.7 403.989 145.987 407.794 144.534L407.081 142.666Z" fill="white" mask="url(#path-1-outside-1_298_15908)"/>
</svg>
