<svg width="590" height="160" viewBox="0 0 590 160" fill="none" xmlns="http://www.w3.org/2000/svg">
<mask id="path-1-outside-1_298_15882" maskUnits="userSpaceOnUse" x="-1" y="5" width="558" height="142" fill="black">
<rect fill="white" x="-1" y="5" width="558" height="142"/>
<path d="M10.452 44L1.092 6.04H9.88L17.212 38.28L15.392 37.084H20.124L18.096 38.28L23.764 7.444H30.836L23.4 44H10.452ZM33.072 44L25.064 7.444H32.5L39.052 38.28L37.076 37.084H41.6L39.884 38.28L46.28 6.04H54.6L46.28 44H33.072ZM70.6639 44.988C68.2373 44.988 66.0879 44.572 64.2159 43.74C62.3786 42.908 60.8359 41.7987 59.5879 40.412C58.3746 38.9907 57.4386 37.4133 56.7799 35.68C56.1559 33.912 55.8439 32.1093 55.8439 30.272V29.232C55.8439 27.3253 56.1559 25.5053 56.7799 23.772C57.4386 22.004 58.3746 20.4267 59.5879 19.04C60.8013 17.6533 62.3093 16.5613 64.1119 15.764C65.9493 14.932 68.0293 14.516 70.3519 14.516C73.4026 14.516 75.9679 15.2093 78.0479 16.596C80.1626 17.948 81.7746 19.7333 82.8839 21.952C83.9933 24.136 84.5479 26.528 84.5479 29.128V31.936H59.3279V27.204H79.5039L76.7999 29.388C76.7999 27.6893 76.5573 26.2333 76.0719 25.02C75.5866 23.8067 74.8586 22.888 73.8879 22.264C72.9519 21.6053 71.7733 21.276 70.3519 21.276C68.8959 21.276 67.6653 21.6053 66.6599 22.264C65.6546 22.9227 64.8919 23.8933 64.3719 25.176C63.8519 26.424 63.5919 27.9667 63.5919 29.804C63.5919 31.5027 63.8346 32.9933 64.3199 34.276C64.8053 35.524 65.5679 36.4947 66.6079 37.188C67.6479 37.8813 68.9999 38.228 70.6639 38.228C72.1893 38.228 73.4373 37.9333 74.4079 37.344C75.3786 36.7547 76.0373 36.0267 76.3839 35.16H84.0279C83.6119 37.0667 82.7973 38.7653 81.5839 40.256C80.3706 41.7467 78.8453 42.908 77.0079 43.74C75.1706 44.572 73.0559 44.988 70.6639 44.988ZM117.151 44V35.576H115.747V26.424C115.747 24.968 115.4 23.876 114.707 23.148C114.014 22.42 112.904 22.056 111.379 22.056C110.616 22.056 109.611 22.0733 108.363 22.108C107.115 22.1427 105.832 22.1947 104.515 22.264C103.198 22.3333 102.002 22.4027 100.927 22.472V15.452C101.724 15.3827 102.66 15.3133 103.735 15.244C104.81 15.1747 105.919 15.1227 107.063 15.088C108.207 15.0533 109.282 15.036 110.287 15.036C113.199 15.036 115.643 15.452 117.619 16.284C119.63 17.116 121.155 18.3813 122.195 20.08C123.235 21.744 123.755 23.8933 123.755 26.528V44H117.151ZM108.051 44.728C106.006 44.728 104.203 44.364 102.643 43.636C101.118 42.908 99.9218 41.868 99.0551 40.516C98.1885 39.1293 97.7551 37.4827 97.7551 35.576C97.7551 33.496 98.2925 31.7973 99.3671 30.48C100.442 29.128 101.95 28.14 103.891 27.516C105.832 26.8573 108.068 26.528 110.599 26.528H116.683V31.156H110.547C109.091 31.156 107.964 31.52 107.167 32.248C106.404 32.9413 106.023 33.8947 106.023 35.108C106.023 36.252 106.404 37.188 107.167 37.916C107.964 38.6093 109.091 38.956 110.547 38.956C111.483 38.956 112.315 38.8 113.043 38.488C113.806 38.1413 114.43 37.5693 114.915 36.772C115.4 35.9747 115.678 34.8653 115.747 33.444L117.723 35.524C117.55 37.5 117.064 39.164 116.267 40.516C115.504 41.868 114.43 42.908 113.043 43.636C111.691 44.364 110.027 44.728 108.051 44.728ZM130.294 44V15.504H136.898V27.724H136.742C136.742 23.7027 137.591 20.6 139.29 18.416C141.023 16.232 143.519 15.14 146.778 15.14H147.87V22.316H145.79C143.502 22.316 141.734 22.94 140.486 24.188C139.238 25.4013 138.614 27.1693 138.614 29.492V44H130.294ZM164.56 44.988C162.134 44.988 159.984 44.572 158.112 43.74C156.275 42.908 154.732 41.7987 153.484 40.412C152.271 38.9907 151.335 37.4133 150.676 35.68C150.052 33.912 149.74 32.1093 149.74 30.272V29.232C149.74 27.3253 150.052 25.5053 150.676 23.772C151.335 22.004 152.271 20.4267 153.484 19.04C154.698 17.6533 156.206 16.5613 158.008 15.764C159.846 14.932 161.926 14.516 164.248 14.516C167.299 14.516 169.864 15.2093 171.944 16.596C174.059 17.948 175.671 19.7333 176.78 21.952C177.89 24.136 178.444 26.528 178.444 29.128V31.936H153.224V27.204H173.4L170.696 29.388C170.696 27.6893 170.454 26.2333 169.968 25.02C169.483 23.8067 168.755 22.888 167.784 22.264C166.848 21.6053 165.67 21.276 164.248 21.276C162.792 21.276 161.562 21.6053 160.556 22.264C159.551 22.9227 158.788 23.8933 158.268 25.176C157.748 26.424 157.488 27.9667 157.488 29.804C157.488 31.5027 157.731 32.9933 158.216 34.276C158.702 35.524 159.464 36.4947 160.504 37.188C161.544 37.8813 162.896 38.228 164.56 38.228C166.086 38.228 167.334 37.9333 168.304 37.344C169.275 36.7547 169.934 36.0267 170.28 35.16H177.924C177.508 37.0667 176.694 38.7653 175.48 40.256C174.267 41.7467 172.742 42.908 170.904 43.74C169.067 44.572 166.952 44.988 164.56 44.988Z"/>
<path d="M41.7 145.9C35.1 145.9 29.4333 144.767 24.7 142.5C19.9667 140.167 16.1 137.133 13.1 133.4C10.1 129.6 7.86667 125.533 6.4 121.2C5 116.8 4.3 112.533 4.3 108.4V106.2C4.3 101.667 5.03333 97.2 6.5 92.8C7.96667 88.3333 10.2 84.3 13.2 80.7C16.2667 77.1 20.1 74.2333 24.7 72.1C29.3667 69.9 34.8667 68.8 41.2 68.8C47.8 68.8 53.6333 70.0333 58.7 72.5C63.7667 74.9667 67.8 78.4 70.8 82.8C73.8667 87.1333 75.6667 92.2333 76.2 98.1H59.7C59.2333 95.1667 58.1667 92.6667 56.5 90.6C54.8333 88.5333 52.6667 86.9333 50 85.8C47.4 84.6667 44.4667 84.1 41.2 84.1C37.9333 84.1 35.0333 84.6667 32.5 85.8C29.9667 86.9333 27.8333 88.5333 26.1 90.6C24.4333 92.6667 23.1333 95.1333 22.2 98C21.3333 100.8 20.9 103.933 20.9 107.4C20.9 110.8 21.3333 113.933 22.2 116.8C23.1333 119.6 24.4667 122.067 26.2 124.2C28 126.267 30.2 127.867 32.8 129C35.4 130.067 38.3667 130.6 41.7 130.6C46.7667 130.6 51.0333 129.367 54.5 126.9C58.0333 124.433 60.1667 121.033 60.9 116.7H77.3C76.7 122.033 74.9 126.933 71.9 131.4C68.9667 135.8 64.9333 139.333 59.8 142C54.7333 144.6 48.7 145.9 41.7 145.9ZM119.38 144V127.8H116.68V110.2C116.68 107.4 116.014 105.3 114.68 103.9C113.347 102.5 111.214 101.8 108.28 101.8C106.814 101.8 104.88 101.833 102.48 101.9C100.08 101.967 97.6138 102.067 95.0805 102.2C92.5471 102.333 90.2471 102.467 88.1805 102.6V89.1C89.7138 88.9667 91.5138 88.8333 93.5805 88.7C95.6471 88.5667 97.7805 88.4667 99.9805 88.4C102.18 88.3333 104.247 88.3 106.18 88.3C111.78 88.3 116.48 89.1 120.28 90.7C124.147 92.3 127.08 94.7333 129.08 98C131.08 101.2 132.08 105.333 132.08 110.4V144H119.38ZM101.88 145.4C97.9471 145.4 94.4805 144.7 91.4805 143.3C88.5471 141.9 86.2471 139.9 84.5805 137.3C82.9138 134.633 82.0805 131.467 82.0805 127.8C82.0805 123.8 83.1138 120.533 85.1805 118C87.2471 115.4 90.1471 113.5 93.8805 112.3C97.6138 111.033 101.914 110.4 106.78 110.4H118.48V119.3H106.68C103.88 119.3 101.714 120 100.18 121.4C98.7138 122.733 97.9805 124.567 97.9805 126.9C97.9805 129.1 98.7138 130.9 100.18 132.3C101.714 133.633 103.88 134.3 106.68 134.3C108.48 134.3 110.08 134 111.48 133.4C112.947 132.733 114.147 131.633 115.08 130.1C116.014 128.567 116.547 126.433 116.68 123.7L120.48 127.7C120.147 131.5 119.214 134.7 117.68 137.3C116.214 139.9 114.147 141.9 111.48 143.3C108.88 144.7 105.68 145.4 101.88 145.4ZM144.655 144V89.2H157.355V112.7H157.055C157.055 104.967 158.689 99 161.955 94.8C165.289 90.6 170.089 88.5 176.355 88.5H178.455V102.3H174.455C170.055 102.3 166.655 103.5 164.255 105.9C161.855 108.233 160.655 111.633 160.655 116.1V144H144.655ZM210.552 145.9C205.886 145.9 201.752 145.1 198.152 143.5C194.619 141.9 191.652 139.767 189.252 137.1C186.919 134.367 185.119 131.333 183.852 128C182.652 124.6 182.052 121.133 182.052 117.6V115.6C182.052 111.933 182.652 108.433 183.852 105.1C185.119 101.7 186.919 98.6667 189.252 96C191.586 93.3333 194.486 91.2333 197.952 89.7C201.486 88.1 205.486 87.3 209.952 87.3C215.819 87.3 220.752 88.6333 224.752 91.3C228.819 93.9 231.919 97.3333 234.052 101.6C236.186 105.8 237.252 110.4 237.252 115.4V120.8H188.752V111.7H227.552L222.352 115.9C222.352 112.633 221.886 109.833 220.952 107.5C220.019 105.167 218.619 103.4 216.752 102.2C214.952 100.933 212.686 100.3 209.952 100.3C207.152 100.3 204.786 100.933 202.852 102.2C200.919 103.467 199.452 105.333 198.452 107.8C197.452 110.2 196.952 113.167 196.952 116.7C196.952 119.967 197.419 122.833 198.352 125.3C199.286 127.7 200.752 129.567 202.752 130.9C204.752 132.233 207.352 132.9 210.552 132.9C213.486 132.9 215.886 132.333 217.752 131.2C219.619 130.067 220.886 128.667 221.552 127H236.252C235.452 130.667 233.886 133.933 231.552 136.8C229.219 139.667 226.286 141.9 222.752 143.5C219.219 145.1 215.152 145.9 210.552 145.9ZM271.755 144.7C266.221 144.7 261.755 144.033 258.355 142.7C254.955 141.3 252.455 139 250.855 135.8C249.321 132.533 248.555 128.133 248.555 122.6V74.4H263.455V123.2C263.455 125.8 264.121 127.8 265.455 129.2C266.855 130.533 268.821 131.2 271.355 131.2H279.455V144.7H271.755ZM240.255 100.9V89.2H279.455V100.9H240.255ZM322.119 144V127.8H319.419V110.2C319.419 107.4 318.752 105.3 317.419 103.9C316.085 102.5 313.952 101.8 311.019 101.8C309.552 101.8 307.619 101.833 305.219 101.9C302.819 101.967 300.352 102.067 297.819 102.2C295.285 102.333 292.985 102.467 290.919 102.6V89.1C292.452 88.9667 294.252 88.8333 296.319 88.7C298.385 88.5667 300.519 88.4667 302.719 88.4C304.919 88.3333 306.985 88.3 308.919 88.3C314.519 88.3 319.219 89.1 323.019 90.7C326.885 92.3 329.819 94.7333 331.819 98C333.819 101.2 334.819 105.333 334.819 110.4V144H322.119ZM304.619 145.4C300.685 145.4 297.219 144.7 294.219 143.3C291.285 141.9 288.985 139.9 287.319 137.3C285.652 134.633 284.819 131.467 284.819 127.8C284.819 123.8 285.852 120.533 287.919 118C289.985 115.4 292.885 113.5 296.619 112.3C300.352 111.033 304.652 110.4 309.519 110.4H321.219V119.3H309.419C306.619 119.3 304.452 120 302.919 121.4C301.452 122.733 300.719 124.567 300.719 126.9C300.719 129.1 301.452 130.9 302.919 132.3C304.452 133.633 306.619 134.3 309.419 134.3C311.219 134.3 312.819 134 314.219 133.4C315.685 132.733 316.885 131.633 317.819 130.1C318.752 128.567 319.285 126.433 319.419 123.7L323.219 127.7C322.885 131.5 321.952 134.7 320.419 137.3C318.952 139.9 316.885 141.9 314.219 143.3C311.619 144.7 308.419 145.4 304.619 145.4ZM385.994 144L368.694 118.4H360.994L383.294 89.2H400.094L379.094 116.4L379.294 108.6L403.994 144H385.994ZM347.394 144V71H363.394V144H347.394ZM433.31 145.9C428.643 145.9 424.51 145.1 420.91 143.5C417.377 141.9 414.41 139.767 412.01 137.1C409.677 134.367 407.877 131.333 406.61 128C405.41 124.6 404.81 121.133 404.81 117.6V115.6C404.81 111.933 405.41 108.433 406.61 105.1C407.877 101.7 409.677 98.6667 412.01 96C414.343 93.3333 417.243 91.2333 420.71 89.7C424.243 88.1 428.243 87.3 432.71 87.3C438.577 87.3 443.51 88.6333 447.51 91.3C451.577 93.9 454.677 97.3333 456.81 101.6C458.943 105.8 460.01 110.4 460.01 115.4V120.8H411.51V111.7H450.31L445.11 115.9C445.11 112.633 444.643 109.833 443.71 107.5C442.777 105.167 441.377 103.4 439.51 102.2C437.71 100.933 435.443 100.3 432.71 100.3C429.91 100.3 427.543 100.933 425.61 102.2C423.677 103.467 422.21 105.333 421.21 107.8C420.21 110.2 419.71 113.167 419.71 116.7C419.71 119.967 420.177 122.833 421.11 125.3C422.043 127.7 423.51 129.567 425.51 130.9C427.51 132.233 430.11 132.9 433.31 132.9C436.243 132.9 438.643 132.333 440.51 131.2C442.377 130.067 443.643 128.667 444.31 127H459.01C458.21 130.667 456.643 133.933 454.31 136.8C451.977 139.667 449.043 141.9 445.51 143.5C441.977 145.1 437.91 145.9 433.31 145.9ZM469.613 144V89.2H482.313V112.7H482.013C482.013 104.967 483.646 99 486.913 94.8C490.246 90.6 495.046 88.5 501.313 88.5H503.413V102.3H499.413C495.013 102.3 491.613 103.5 489.213 105.9C486.813 108.233 485.613 111.633 485.613 116.1V144H469.613ZM531.502 145.7C523.702 145.7 517.602 144.1 513.202 140.9C508.802 137.7 506.469 133.2 506.202 127.4H520.402C520.669 129.133 521.702 130.7 523.502 132.1C525.369 133.433 528.136 134.1 531.802 134.1C534.602 134.1 536.902 133.633 538.702 132.7C540.569 131.7 541.502 130.3 541.502 128.5C541.502 126.9 540.802 125.633 539.402 124.7C538.002 123.7 535.502 123 531.902 122.6L527.602 122.2C521.002 121.533 516.036 119.7 512.702 116.7C509.436 113.7 507.802 109.867 507.802 105.2C507.802 101.333 508.769 98.1 510.702 95.5C512.636 92.9 515.302 90.9333 518.702 89.6C522.169 88.2667 526.102 87.6 530.502 87.6C537.569 87.6 543.269 89.1667 547.602 92.3C551.936 95.3667 554.202 99.8333 554.402 105.7H540.202C539.936 103.9 539.002 102.4 537.402 101.2C535.802 99.9333 533.436 99.3 530.302 99.3C527.836 99.3 525.869 99.7667 524.402 100.7C522.936 101.633 522.202 102.9 522.202 104.5C522.202 106.033 522.836 107.2 524.102 108C525.369 108.8 527.436 109.367 530.302 109.7L534.602 110.1C541.336 110.833 546.569 112.7 550.302 115.7C554.036 118.7 555.902 122.733 555.902 127.8C555.902 131.467 554.902 134.667 552.902 137.4C550.902 140.067 548.069 142.133 544.402 143.6C540.736 145 536.436 145.7 531.502 145.7Z"/>
</mask>
<path d="M10.452 44L1.092 6.04H9.88L17.212 38.28L15.392 37.084H20.124L18.096 38.28L23.764 7.444H30.836L23.4 44H10.452ZM33.072 44L25.064 7.444H32.5L39.052 38.28L37.076 37.084H41.6L39.884 38.28L46.28 6.04H54.6L46.28 44H33.072ZM70.6639 44.988C68.2373 44.988 66.0879 44.572 64.2159 43.74C62.3786 42.908 60.8359 41.7987 59.5879 40.412C58.3746 38.9907 57.4386 37.4133 56.7799 35.68C56.1559 33.912 55.8439 32.1093 55.8439 30.272V29.232C55.8439 27.3253 56.1559 25.5053 56.7799 23.772C57.4386 22.004 58.3746 20.4267 59.5879 19.04C60.8013 17.6533 62.3093 16.5613 64.1119 15.764C65.9493 14.932 68.0293 14.516 70.3519 14.516C73.4026 14.516 75.9679 15.2093 78.0479 16.596C80.1626 17.948 81.7746 19.7333 82.8839 21.952C83.9933 24.136 84.5479 26.528 84.5479 29.128V31.936H59.3279V27.204H79.5039L76.7999 29.388C76.7999 27.6893 76.5573 26.2333 76.0719 25.02C75.5866 23.8067 74.8586 22.888 73.8879 22.264C72.9519 21.6053 71.7733 21.276 70.3519 21.276C68.8959 21.276 67.6653 21.6053 66.6599 22.264C65.6546 22.9227 64.8919 23.8933 64.3719 25.176C63.8519 26.424 63.5919 27.9667 63.5919 29.804C63.5919 31.5027 63.8346 32.9933 64.3199 34.276C64.8053 35.524 65.5679 36.4947 66.6079 37.188C67.6479 37.8813 68.9999 38.228 70.6639 38.228C72.1893 38.228 73.4373 37.9333 74.4079 37.344C75.3786 36.7547 76.0373 36.0267 76.3839 35.16H84.0279C83.6119 37.0667 82.7973 38.7653 81.5839 40.256C80.3706 41.7467 78.8453 42.908 77.0079 43.74C75.1706 44.572 73.0559 44.988 70.6639 44.988ZM117.151 44V35.576H115.747V26.424C115.747 24.968 115.4 23.876 114.707 23.148C114.014 22.42 112.904 22.056 111.379 22.056C110.616 22.056 109.611 22.0733 108.363 22.108C107.115 22.1427 105.832 22.1947 104.515 22.264C103.198 22.3333 102.002 22.4027 100.927 22.472V15.452C101.724 15.3827 102.66 15.3133 103.735 15.244C104.81 15.1747 105.919 15.1227 107.063 15.088C108.207 15.0533 109.282 15.036 110.287 15.036C113.199 15.036 115.643 15.452 117.619 16.284C119.63 17.116 121.155 18.3813 122.195 20.08C123.235 21.744 123.755 23.8933 123.755 26.528V44H117.151ZM108.051 44.728C106.006 44.728 104.203 44.364 102.643 43.636C101.118 42.908 99.9218 41.868 99.0551 40.516C98.1885 39.1293 97.7551 37.4827 97.7551 35.576C97.7551 33.496 98.2925 31.7973 99.3671 30.48C100.442 29.128 101.95 28.14 103.891 27.516C105.832 26.8573 108.068 26.528 110.599 26.528H116.683V31.156H110.547C109.091 31.156 107.964 31.52 107.167 32.248C106.404 32.9413 106.023 33.8947 106.023 35.108C106.023 36.252 106.404 37.188 107.167 37.916C107.964 38.6093 109.091 38.956 110.547 38.956C111.483 38.956 112.315 38.8 113.043 38.488C113.806 38.1413 114.43 37.5693 114.915 36.772C115.4 35.9747 115.678 34.8653 115.747 33.444L117.723 35.524C117.55 37.5 117.064 39.164 116.267 40.516C115.504 41.868 114.43 42.908 113.043 43.636C111.691 44.364 110.027 44.728 108.051 44.728ZM130.294 44V15.504H136.898V27.724H136.742C136.742 23.7027 137.591 20.6 139.29 18.416C141.023 16.232 143.519 15.14 146.778 15.14H147.87V22.316H145.79C143.502 22.316 141.734 22.94 140.486 24.188C139.238 25.4013 138.614 27.1693 138.614 29.492V44H130.294ZM164.56 44.988C162.134 44.988 159.984 44.572 158.112 43.74C156.275 42.908 154.732 41.7987 153.484 40.412C152.271 38.9907 151.335 37.4133 150.676 35.68C150.052 33.912 149.74 32.1093 149.74 30.272V29.232C149.74 27.3253 150.052 25.5053 150.676 23.772C151.335 22.004 152.271 20.4267 153.484 19.04C154.698 17.6533 156.206 16.5613 158.008 15.764C159.846 14.932 161.926 14.516 164.248 14.516C167.299 14.516 169.864 15.2093 171.944 16.596C174.059 17.948 175.671 19.7333 176.78 21.952C177.89 24.136 178.444 26.528 178.444 29.128V31.936H153.224V27.204H173.4L170.696 29.388C170.696 27.6893 170.454 26.2333 169.968 25.02C169.483 23.8067 168.755 22.888 167.784 22.264C166.848 21.6053 165.67 21.276 164.248 21.276C162.792 21.276 161.562 21.6053 160.556 22.264C159.551 22.9227 158.788 23.8933 158.268 25.176C157.748 26.424 157.488 27.9667 157.488 29.804C157.488 31.5027 157.731 32.9933 158.216 34.276C158.702 35.524 159.464 36.4947 160.504 37.188C161.544 37.8813 162.896 38.228 164.56 38.228C166.086 38.228 167.334 37.9333 168.304 37.344C169.275 36.7547 169.934 36.0267 170.28 35.16H177.924C177.508 37.0667 176.694 38.7653 175.48 40.256C174.267 41.7467 172.742 42.908 170.904 43.74C169.067 44.572 166.952 44.988 164.56 44.988Z" fill="#F9F9F9"/>
<path d="M10.452 44L9.48108 44.2394L9.66862 45H10.452V44ZM1.092 6.04V5.04H-0.184526L0.12108 6.2794L1.092 6.04ZM9.88 6.04L10.8551 5.81824L10.6781 5.04H9.88V6.04ZM17.212 38.28L16.6628 39.1157L18.7377 40.4792L18.1871 38.0582L17.212 38.28ZM15.392 37.084V36.084H12.0494L14.8428 37.9197L15.392 37.084ZM20.124 37.084L20.632 37.9454L23.7882 36.084H20.124V37.084ZM18.096 38.28L17.1125 38.0992L16.7163 40.2546L18.604 39.1414L18.096 38.28ZM23.764 7.444V6.444H22.9311L22.7805 7.26322L23.764 7.444ZM30.836 7.444L31.8159 7.64333L32.0599 6.444H30.836V7.444ZM23.4 44V45H24.2171L24.3799 44.1993L23.4 44ZM33.072 44L32.0952 44.214L32.2673 45H33.072V44ZM25.064 7.444V6.444H23.8212L24.0872 7.65799L25.064 7.444ZM32.5 7.444L33.4782 7.23616L33.3098 6.444H32.5V7.444ZM39.052 38.28L38.5342 39.1355L40.5102 40.3315L40.0302 38.0722L39.052 38.28ZM37.076 37.084V36.084H33.4926L36.5582 37.9395L37.076 37.084ZM41.6 37.084L42.1718 37.9044L44.7837 36.084H41.6V37.084ZM39.884 38.28L38.9031 38.0854L38.4203 40.5191L40.4558 39.1004L39.884 38.28ZM46.28 6.04V5.04H45.4589L45.2991 5.8454L46.28 6.04ZM54.6 6.04L55.5768 6.2541L55.8429 5.04H54.6V6.04ZM46.28 44V45H47.0846L47.2568 44.2141L46.28 44ZM11.4229 43.7606L2.06292 5.80059L0.12108 6.2794L9.48108 44.2394L11.4229 43.7606ZM1.092 7.04H9.88V5.04H1.092V7.04ZM8.9049 6.26176L16.2369 38.5018L18.1871 38.0582L10.8551 5.81824L8.9049 6.26176ZM17.7612 37.4443L15.9412 36.2483L14.8428 37.9197L16.6628 39.1157L17.7612 37.4443ZM15.392 38.084H20.124V36.084H15.392V38.084ZM19.616 36.2226L17.588 37.4186L18.604 39.1414L20.632 37.9454L19.616 36.2226ZM19.0795 38.4608L24.7475 7.62478L22.7805 7.26322L17.1125 38.0992L19.0795 38.4608ZM23.764 8.444H30.836V6.444H23.764V8.444ZM29.8561 7.24467L22.4201 43.8007L24.3799 44.1993L31.8159 7.64333L29.8561 7.24467ZM23.4 43H10.452V45H23.4V43ZM34.0488 43.786L26.0408 7.23001L24.0872 7.65799L32.0952 44.214L34.0488 43.786ZM25.064 8.444H32.5V6.444H25.064V8.444ZM31.5218 7.65184L38.0738 38.4878L40.0302 38.0722L33.4782 7.23616L31.5218 7.65184ZM39.5698 37.4245L37.5938 36.2285L36.5582 37.9395L38.5342 39.1355L39.5698 37.4245ZM37.076 38.084H41.6V36.084H37.076V38.084ZM41.0282 36.2636L39.3122 37.4596L40.4558 39.1004L42.1718 37.9044L41.0282 36.2636ZM40.8649 38.4746L47.2609 6.23459L45.2991 5.8454L38.9031 38.0854L40.8649 38.4746ZM46.28 7.04H54.6V5.04H46.28V7.04ZM53.6232 5.8259L45.3032 43.7859L47.2568 44.2141L55.5768 6.2541L53.6232 5.8259ZM46.28 43H33.072V45H46.28V43ZM64.2159 43.74L63.8034 44.651L63.8098 44.6538L64.2159 43.74ZM59.5879 40.412L58.8274 41.0613L58.8359 41.0712L58.8446 41.081L59.5879 40.412ZM56.7799 35.68L55.8369 36.0128L55.8409 36.0241L55.8452 36.0352L56.7799 35.68ZM56.7799 23.772L55.8428 23.4229L55.8391 23.4333L56.7799 23.772ZM59.5879 19.04L60.3405 19.6985L59.5879 19.04ZM64.1119 15.764L64.5165 16.6786L64.5244 16.675L64.1119 15.764ZM78.0479 16.596L77.4932 17.428L77.5012 17.4334L77.5093 17.4385L78.0479 16.596ZM82.8839 21.952L81.9895 22.3992L81.9924 22.4049L82.8839 21.952ZM84.5479 31.936V32.936H85.5479V31.936H84.5479ZM59.3279 31.936H58.3279V32.936H59.3279V31.936ZM59.3279 27.204V26.204H58.3279V27.204H59.3279ZM79.5039 27.204L80.1323 27.9819L82.3335 26.204H79.5039V27.204ZM76.7999 29.388H75.7999V31.4811L77.4283 30.1659L76.7999 29.388ZM73.8879 22.264L73.3124 23.0818L73.3296 23.0939L73.3472 23.1052L73.8879 22.264ZM66.6599 22.264L66.1119 21.4275L66.6599 22.264ZM64.3719 25.176L65.2951 25.5606L65.2987 25.5517L64.3719 25.176ZM64.3199 34.276L63.3846 34.6299L63.3879 34.6384L64.3199 34.276ZM66.6079 37.188L66.0532 38.0201L66.6079 37.188ZM74.4079 37.344L74.9269 38.1988L74.4079 37.344ZM76.3839 35.16V34.16H75.7069L75.4555 34.7886L76.3839 35.16ZM84.0279 35.16L85.005 35.3732L85.2696 34.16H84.0279V35.16ZM81.5839 40.256L82.3595 40.8873H82.3595L81.5839 40.256ZM77.0079 43.74L76.5954 42.829L77.0079 43.74ZM70.6639 43.988C68.3517 43.988 66.3448 43.5919 64.6221 42.8262L63.8098 44.6538C65.831 45.5521 68.1228 45.988 70.6639 45.988V43.988ZM64.6284 42.829C62.9066 42.0493 61.4796 41.019 60.3312 39.743L58.8446 41.081C60.1923 42.5784 61.8506 43.7667 63.8034 44.651L64.6284 42.829ZM60.3485 39.7627C59.2091 38.428 58.3323 36.95 57.7147 35.3248L55.8452 36.0352C56.5449 37.8767 57.5401 39.5533 58.8274 41.0613L60.3485 39.7627ZM57.7229 35.3472C57.1359 33.6839 56.8439 31.9936 56.8439 30.272H54.8439C54.8439 32.225 55.176 34.1401 55.8369 36.0128L57.7229 35.3472ZM56.8439 30.272V29.232H54.8439V30.272H56.8439ZM56.8439 29.232C56.8439 27.4367 57.1373 25.7316 57.7208 24.1107L55.8391 23.4333C55.1746 25.279 54.8439 27.214 54.8439 29.232H56.8439ZM57.717 24.1211C58.3345 22.4638 59.2088 20.9919 60.3405 19.6985L58.8354 18.3815C57.5404 19.8615 56.5428 21.5442 55.8429 23.4229L57.717 24.1211ZM60.3405 19.6985C61.4513 18.4291 62.8376 17.4211 64.5164 16.6785L63.7074 14.8495C61.7809 15.7016 60.1513 16.8776 58.8354 18.3815L60.3405 19.6985ZM64.5244 16.675C66.2139 15.9099 68.1501 15.516 70.3519 15.516V13.516C67.9085 13.516 65.6846 13.9541 63.6994 14.853L64.5244 16.675ZM70.3519 15.516C73.2491 15.516 75.6106 16.173 77.4932 17.428L78.6026 15.7639C76.3253 14.2457 73.5561 13.516 70.3519 13.516V15.516ZM77.5093 17.4385C79.4737 18.6945 80.9619 20.344 81.9895 22.3992L83.7784 21.5048C82.5873 19.1226 80.8515 17.2015 78.5866 15.7535L77.5093 17.4385ZM81.9924 22.4049C83.0261 24.44 83.5479 26.6755 83.5479 29.128H85.5479C85.5479 26.3805 84.9605 23.832 83.7755 21.4991L81.9924 22.4049ZM83.5479 29.128V31.936H85.5479V29.128H83.5479ZM84.5479 30.936H59.3279V32.936H84.5479V30.936ZM60.3279 31.936V27.204H58.3279V31.936H60.3279ZM59.3279 28.204H79.5039V26.204H59.3279V28.204ZM78.8756 26.4261L76.1716 28.6101L77.4283 30.1659L80.1323 27.9819L78.8756 26.4261ZM77.7999 29.388C77.7999 27.5984 77.5448 26.0096 77.0004 24.6486L75.1435 25.3914C75.5697 26.457 75.7999 27.7802 75.7999 29.388H77.7999ZM77.0004 24.6486C76.4485 23.2688 75.597 22.1739 74.4287 21.4228L73.3472 23.1052C74.1202 23.6021 74.7247 24.3445 75.1435 25.3914L77.0004 24.6486ZM74.4634 21.4462C73.322 20.643 71.929 20.276 70.3519 20.276V22.276C71.6176 22.276 72.5819 22.5677 73.3124 23.0818L74.4634 21.4462ZM70.3519 20.276C68.7428 20.276 67.3117 20.6415 66.1119 21.4275L67.208 23.1005C68.0188 22.5692 69.0491 22.276 70.3519 22.276V20.276ZM66.1119 21.4275C64.9116 22.2139 64.0297 23.3586 63.4452 24.8003L65.2987 25.5517C65.7542 24.4281 66.3976 23.6314 67.208 23.1005L66.1119 21.4275ZM63.4489 24.7914C62.8634 26.1965 62.5919 27.8792 62.5919 29.804H64.5919C64.5919 28.0542 64.8405 26.6515 65.295 25.5606L63.4489 24.7914ZM62.5919 29.804C62.5919 31.5957 62.8477 33.2108 63.3847 34.6299L65.2552 33.9221C64.8215 32.7759 64.5919 31.4096 64.5919 29.804H62.5919ZM63.3879 34.6384C63.9422 36.0636 64.8298 37.2044 66.0532 38.0201L67.1626 36.3559C66.3061 35.7849 65.6684 34.9844 65.2519 33.9136L63.3879 34.6384ZM66.0532 38.0201C67.3038 38.8538 68.8666 39.228 70.6639 39.228V37.228C69.1332 37.228 67.9921 36.9089 67.1626 36.3559L66.0532 38.0201ZM70.6639 39.228C72.3114 39.228 73.7549 38.9104 74.9269 38.1988L73.889 36.4892C73.1197 36.9563 72.0671 37.228 70.6639 37.228V39.228ZM74.9269 38.1988C76.0418 37.5219 76.8691 36.6398 77.3124 35.5314L75.4555 34.7886C75.2055 35.4135 74.7154 35.9874 73.889 36.4892L74.9269 38.1988ZM76.3839 36.16H84.0279V34.16H76.3839V36.16ZM83.0509 34.9468C82.6678 36.7027 81.9211 38.2576 80.8084 39.6247L82.3595 40.8873C83.6734 39.273 84.5561 37.4306 85.005 35.3732L83.0509 34.9468ZM80.8084 39.6247C79.6976 40.9894 78.2989 42.0577 76.5954 42.829L77.4204 44.651C79.3917 43.7583 81.0436 42.504 82.3595 40.8873L80.8084 39.6247ZM76.5954 42.829C74.9095 43.5925 72.9398 43.988 70.6639 43.988V45.988C73.1721 45.988 75.4317 45.5515 77.4204 44.651L76.5954 42.829ZM117.151 44H116.151V45H117.151V44ZM117.151 35.576H118.151V34.576H117.151V35.576ZM115.747 35.576H114.747V36.576H115.747V35.576ZM114.707 23.148L115.431 22.4583L114.707 23.148ZM108.363 22.108L108.335 21.1084H108.335L108.363 22.108ZM104.515 22.264L104.568 23.2626L104.515 22.264ZM100.927 22.472H99.9271V23.5386L100.992 23.4699L100.927 22.472ZM100.927 15.452L100.84 14.4558L99.9271 14.5352V15.452H100.927ZM103.735 15.244L103.671 14.2461L103.735 15.244ZM107.063 15.088L107.033 14.0885L107.063 15.088ZM117.619 16.284L117.231 17.2057L117.237 17.208L117.619 16.284ZM122.195 20.08L121.342 20.6022L121.347 20.61L122.195 20.08ZM123.755 44V45H124.755V44H123.755ZM102.643 43.636L102.212 44.5385L102.22 44.5422L102.643 43.636ZM99.0551 40.516L98.2071 41.046L98.2132 41.0557L99.0551 40.516ZM99.3671 30.48L100.142 31.1122L100.15 31.1022L99.3671 30.48ZM103.891 27.516L104.197 28.468L104.205 28.4656L104.212 28.463L103.891 27.516ZM116.683 26.528H117.683V25.528H116.683V26.528ZM116.683 31.156V32.156H117.683V31.156H116.683ZM107.167 32.248L107.84 32.9879L107.841 32.9865L107.167 32.248ZM107.167 37.916L106.477 38.6394L106.493 38.6554L106.511 38.6706L107.167 37.916ZM113.043 38.488L113.437 39.4071L113.447 39.4029L113.457 39.3984L113.043 38.488ZM114.915 36.772L115.769 37.2919L114.915 36.772ZM115.747 33.444L116.472 32.7552L114.862 31.0606L114.748 33.3953L115.747 33.444ZM117.723 35.524L118.719 35.6114L118.759 35.1622L118.448 34.8353L117.723 35.524ZM116.267 40.516L115.406 40.008L115.401 40.0163L115.396 40.0247L116.267 40.516ZM113.043 43.636L112.578 42.7506L112.569 42.7555L113.043 43.636ZM118.151 44V35.576H116.151V44H118.151ZM117.151 34.576H115.747V36.576H117.151V34.576ZM116.747 35.576V26.424H114.747V35.576H116.747ZM116.747 26.424C116.747 24.8257 116.367 23.4413 115.431 22.4583L113.983 23.8377C114.434 24.3107 114.747 25.1103 114.747 26.424H116.747ZM115.431 22.4583C114.47 21.4495 113.038 21.056 111.379 21.056V23.056C112.771 23.056 113.557 23.3905 113.983 23.8377L115.431 22.4583ZM111.379 21.056C110.603 21.056 109.588 21.0736 108.335 21.1084L108.391 23.1076C109.635 23.0731 110.63 23.056 111.379 23.056V21.056ZM108.335 21.1084C107.079 21.1433 105.788 21.1956 104.463 21.2654L104.568 23.2626C105.877 23.1937 107.152 23.142 108.391 23.1076L108.335 21.1084ZM104.463 21.2654C103.142 21.3349 101.942 21.4044 100.863 21.4741L100.992 23.4699C102.061 23.4009 103.253 23.3318 104.568 23.2626L104.463 21.2654ZM101.927 22.472V15.452H99.9271V22.472H101.927ZM101.014 16.4482C101.802 16.3797 102.73 16.3109 103.8 16.2419L103.671 14.2461C102.591 14.3157 101.647 14.3856 100.84 14.4558L101.014 16.4482ZM103.8 16.2419C104.862 16.1734 105.96 16.1219 107.093 16.0875L107.033 14.0885C105.878 14.1234 104.757 14.176 103.671 14.2461L103.8 16.2419ZM107.093 16.0875C108.229 16.0531 109.293 16.036 110.287 16.036V14.036C109.27 14.036 108.186 14.0535 107.033 14.0885L107.093 16.0875ZM110.287 16.036C113.111 16.036 115.413 16.4403 117.231 17.2056L118.007 15.3624C115.873 14.4637 113.288 14.036 110.287 14.036V16.036ZM117.237 17.208C119.071 17.9671 120.423 19.1006 121.342 20.6022L123.048 19.5578C121.887 17.662 120.188 16.2649 118.001 15.36L117.237 17.208ZM121.347 20.61C122.259 22.0694 122.755 24.0184 122.755 26.528H124.755C124.755 23.7683 124.211 21.4186 123.043 19.55L121.347 20.61ZM122.755 26.528V44H124.755V26.528H122.755ZM123.755 43H117.151V45H123.755V43ZM108.051 43.728C106.125 43.728 104.471 43.3855 103.066 42.7298L102.22 44.5422C103.935 45.3425 105.887 45.728 108.051 45.728V43.728ZM103.074 42.7335C101.707 42.0814 100.658 41.1631 99.897 39.9763L98.2132 41.0557C99.1859 42.5729 100.528 43.7346 102.212 44.5385L103.074 42.7335ZM99.9031 39.986C99.1513 38.7831 98.7551 37.3269 98.7551 35.576H96.7551C96.7551 37.6384 97.2256 39.4755 98.2071 41.046L99.9031 39.986ZM98.7551 35.576C98.7551 33.6732 99.2433 32.2137 100.142 31.1121L98.5923 29.8479C97.3416 31.381 96.7551 33.3188 96.7551 35.576H98.7551ZM100.15 31.1022C101.081 29.9311 102.409 29.0427 104.197 28.468L103.585 26.564C101.49 27.2373 99.8027 28.3249 98.5843 29.8578L100.15 31.1022ZM104.212 28.463C106.029 27.8465 108.153 27.528 110.599 27.528V25.528C107.984 25.528 105.636 25.8681 103.57 26.569L104.212 28.463ZM110.599 27.528H116.683V25.528H110.599V27.528ZM115.683 26.528V31.156H117.683V26.528H115.683ZM116.683 30.156H110.547V32.156H116.683V30.156ZM110.547 30.156C108.93 30.156 107.531 30.562 106.493 31.5095L107.841 32.9865C108.398 32.478 109.252 32.156 110.547 32.156V30.156ZM106.494 31.5081C105.486 32.4248 105.023 33.6675 105.023 35.108H107.023C107.023 34.1218 107.323 33.4579 107.84 32.9879L106.494 31.5081ZM105.023 35.108C105.023 36.4995 105.498 37.7055 106.477 38.6394L107.858 37.1926C107.311 36.6705 107.023 36.0045 107.023 35.108H105.023ZM106.511 38.6706C107.549 39.5732 108.941 39.956 110.547 39.956V37.956C109.241 37.956 108.38 37.6455 107.823 37.1614L106.511 38.6706ZM110.547 39.956C111.594 39.956 112.564 39.7813 113.437 39.4071L112.649 37.5689C112.066 37.8187 111.372 37.956 110.547 37.956V39.956ZM113.457 39.3984C114.423 38.9593 115.192 38.2403 115.769 37.2919L114.061 36.2521C113.668 36.8984 113.189 37.3233 112.629 37.5776L113.457 39.3984ZM115.769 37.2919C116.375 36.2965 116.672 35.0007 116.746 33.4927L114.748 33.3953C114.683 34.73 114.426 35.6528 114.061 36.2521L115.769 37.2919ZM115.022 34.1327L116.998 36.2127L118.448 34.8353L116.472 32.7552L115.022 34.1327ZM116.727 35.4366C116.563 37.3021 116.11 38.8137 115.406 40.008L117.128 41.024C118.019 39.5143 118.536 37.6979 118.719 35.6114L116.727 35.4366ZM115.396 40.0247C114.729 41.2074 113.796 42.1113 112.578 42.7506L113.508 44.5214C115.064 43.7047 116.28 42.5286 117.138 41.0073L115.396 40.0247ZM112.569 42.7555C111.399 43.3858 109.908 43.728 108.051 43.728V45.728C110.146 45.728 111.984 45.3422 113.517 44.5165L112.569 42.7555ZM130.294 44H129.294V45H130.294V44ZM130.294 15.504V14.504H129.294V15.504H130.294ZM136.898 15.504H137.898V14.504H136.898V15.504ZM136.898 27.724V28.724H137.898V27.724H136.898ZM136.742 27.724H135.742V28.724H136.742V27.724ZM139.29 18.416L138.507 17.7943L138.501 17.8021L139.29 18.416ZM147.87 15.14H148.87V14.14H147.87V15.14ZM147.87 22.316V23.316H148.87V22.316H147.87ZM140.486 24.188L141.183 24.9051L141.193 24.8951L140.486 24.188ZM138.614 44V45H139.614V44H138.614ZM131.294 44V15.504H129.294V44H131.294ZM130.294 16.504H136.898V14.504H130.294V16.504ZM135.898 15.504V27.724H137.898V15.504H135.898ZM136.898 26.724H136.742V28.724H136.898V26.724ZM137.742 27.724C137.742 23.8276 138.567 20.9745 140.079 19.0299L138.501 17.8021C136.616 20.2255 135.742 23.5777 135.742 27.724H137.742ZM140.073 19.0377C141.584 17.1345 143.767 16.14 146.778 16.14V14.14C143.272 14.14 140.463 15.3295 138.507 17.7943L140.073 19.0377ZM146.778 16.14H147.87V14.14H146.778V16.14ZM146.87 15.14V22.316H148.87V15.14H146.87ZM147.87 21.316H145.79V23.316H147.87V21.316ZM145.79 21.316C143.319 21.316 141.266 21.9944 139.779 23.4809L141.193 24.8951C142.203 23.8856 143.685 23.316 145.79 23.316V21.316ZM139.789 23.471C138.289 24.9292 137.614 26.9929 137.614 29.492H139.614C139.614 27.3457 140.187 25.8735 141.183 24.905L139.789 23.471ZM137.614 29.492V44H139.614V29.492H137.614ZM138.614 43H130.294V45H138.614V43ZM158.112 43.74L157.7 44.651L157.706 44.6538L158.112 43.74ZM153.484 40.412L152.724 41.0613L152.732 41.0712L152.741 41.081L153.484 40.412ZM150.676 35.68L149.734 36.0128L149.737 36.0241L149.742 36.0352L150.676 35.68ZM150.676 23.772L149.739 23.4229L149.736 23.4333L150.676 23.772ZM153.484 19.04L154.237 19.6985L153.484 19.04ZM158.008 15.764L158.413 16.6786L158.421 16.675L158.008 15.764ZM171.944 16.596L171.39 17.428L171.398 17.4334L171.406 17.4385L171.944 16.596ZM176.78 21.952L175.886 22.3992L175.889 22.4049L176.78 21.952ZM178.444 31.936V32.936H179.444V31.936H178.444ZM153.224 31.936H152.224V32.936H153.224V31.936ZM153.224 27.204V26.204H152.224V27.204H153.224ZM173.4 27.204L174.029 27.9819L176.23 26.204H173.4V27.204ZM170.697 29.388H169.697V31.4811L171.325 30.1659L170.697 29.388ZM167.785 22.264L167.209 23.0818L167.226 23.0939L167.244 23.1052L167.785 22.264ZM160.556 22.264L160.008 21.4275L160.556 22.264ZM158.268 25.176L159.192 25.5606L159.195 25.5517L158.268 25.176ZM158.216 34.276L157.281 34.6299L157.284 34.6384L158.216 34.276ZM160.505 37.188L159.95 38.0201L160.505 37.188ZM168.304 37.344L168.823 38.1988L168.304 37.344ZM170.28 35.16V34.16H169.603L169.352 34.7886L170.28 35.16ZM177.924 35.16L178.902 35.3732L179.166 34.16H177.924V35.16ZM175.48 40.256L176.256 40.8873L175.48 40.256ZM170.904 43.74L170.492 42.829L170.904 43.74ZM164.561 43.988C162.248 43.988 160.241 43.5919 158.519 42.8262L157.706 44.6538C159.728 45.5521 162.019 45.988 164.561 45.988V43.988ZM158.525 42.829C156.803 42.0493 155.376 41.019 154.228 39.743L152.741 41.081C154.089 42.5784 155.747 43.7667 157.7 44.651L158.525 42.829ZM154.245 39.7627C153.106 38.428 152.229 36.95 151.611 35.3248L149.742 36.0352C150.441 37.8767 151.437 39.5533 152.724 41.0613L154.245 39.7627ZM151.619 35.3472C151.032 33.6839 150.74 31.9936 150.74 30.272H148.74C148.74 32.225 149.073 34.1401 149.734 36.0128L151.619 35.3472ZM150.74 30.272V29.232H148.74V30.272H150.74ZM150.74 29.232C150.74 27.4367 151.034 25.7316 151.617 24.1107L149.736 23.4333C149.071 25.279 148.74 27.214 148.74 29.232H150.74ZM151.614 24.1211C152.231 22.4638 153.105 20.9919 154.237 19.6985L152.732 18.3815C151.437 19.8615 150.439 21.5442 149.739 23.4229L151.614 24.1211ZM154.237 19.6985C155.348 18.4291 156.734 17.4211 158.413 16.6785L157.604 14.8495C155.678 15.7016 154.048 16.8776 152.732 18.3815L154.237 19.6985ZM158.421 16.675C160.111 15.9099 162.047 15.516 164.248 15.516V13.516C161.805 13.516 159.581 13.9541 157.596 14.853L158.421 16.675ZM164.248 15.516C167.146 15.516 169.507 16.173 171.39 17.428L172.499 15.7639C170.222 14.2457 167.453 13.516 164.248 13.516V15.516ZM171.406 17.4385C173.37 18.6945 174.858 20.344 175.886 22.3992L177.675 21.5048C176.484 19.1226 174.748 17.2015 172.483 15.7535L171.406 17.4385ZM175.889 22.4049C176.923 24.44 177.444 26.6755 177.444 29.128H179.444C179.444 26.3805 178.857 23.832 177.672 21.4991L175.889 22.4049ZM177.444 29.128V31.936H179.444V29.128H177.444ZM178.444 30.936H153.224V32.936H178.444V30.936ZM154.224 31.936V27.204H152.224V31.936H154.224ZM153.224 28.204H173.4V26.204H153.224V28.204ZM172.772 26.4261L170.068 28.6101L171.325 30.1659L174.029 27.9819L172.772 26.4261ZM171.697 29.388C171.697 27.5984 171.441 26.0096 170.897 24.6486L169.04 25.3914C169.466 26.457 169.697 27.7802 169.697 29.388H171.697ZM170.897 24.6486C170.345 23.2688 169.494 22.1739 168.325 21.4228L167.244 23.1052C168.017 23.6021 168.621 24.3445 169.04 25.3914L170.897 24.6486ZM168.36 21.4462C167.219 20.643 165.826 20.276 164.248 20.276V22.276C165.514 22.276 166.478 22.5677 167.209 23.0818L168.36 21.4462ZM164.248 20.276C162.639 20.276 161.208 20.6415 160.008 21.4275L161.105 23.1005C161.915 22.5692 162.946 22.276 164.248 22.276V20.276ZM160.008 21.4275C158.808 22.2139 157.926 23.3586 157.342 24.8003L159.195 25.5517C159.651 24.4281 160.294 23.6314 161.105 23.1005L160.008 21.4275ZM157.345 24.7914C156.76 26.1965 156.488 27.8792 156.488 29.804H158.488C158.488 28.0542 158.737 26.6515 159.192 25.5606L157.345 24.7914ZM156.488 29.804C156.488 31.5957 156.744 33.2108 157.281 34.6299L159.152 33.9221C158.718 32.7759 158.488 31.4096 158.488 29.804H156.488ZM157.284 34.6384C157.839 36.0636 158.726 37.2044 159.95 38.0201L161.059 36.3559C160.203 35.7849 159.565 34.9844 159.148 33.9136L157.284 34.6384ZM159.95 38.0201C161.2 38.8538 162.763 39.228 164.561 39.228V37.228C163.03 37.228 161.889 36.9089 161.059 36.3559L159.95 38.0201ZM164.561 39.228C166.208 39.228 167.651 38.9104 168.823 38.1988L167.786 36.4892C167.016 36.9563 165.964 37.228 164.561 37.228V39.228ZM168.823 38.1988C169.938 37.5219 170.766 36.6398 171.209 35.5314L169.352 34.7886C169.102 35.4135 168.612 35.9874 167.786 36.4892L168.823 38.1988ZM170.28 36.16H177.924V34.16H170.28V36.16ZM176.947 34.9468C176.564 36.7027 175.818 38.2576 174.705 39.6247L176.256 40.8873C177.57 39.273 178.453 37.4306 178.902 35.3732L176.947 34.9468ZM174.705 39.6247C173.594 40.9894 172.195 42.0577 170.492 42.829L171.317 44.651C173.288 43.7583 174.94 42.504 176.256 40.8873L174.705 39.6247ZM170.492 42.829C168.806 43.5925 166.836 43.988 164.561 43.988V45.988C167.069 45.988 169.328 45.5515 171.317 44.651L170.492 42.829ZM24.7 142.5L24.2578 143.397L24.2681 143.402L24.7 142.5ZM13.1 133.4L12.3151 134.02L12.3205 134.026L13.1 133.4ZM6.4 121.2L5.44707 121.503L5.44985 121.512L5.45278 121.521L6.4 121.2ZM6.5 92.8L7.44869 93.1162L7.45009 93.112L6.5 92.8ZM13.2 80.7L12.4387 80.0515L12.4318 80.0598L13.2 80.7ZM24.7 72.1L25.1207 73.0072L25.1264 73.0045L24.7 72.1ZM58.7 72.5L58.2623 73.3991L58.7 72.5ZM70.8 82.8L69.9738 83.3633L69.9787 83.3705L69.9837 83.3777L70.8 82.8ZM76.2 98.1V99.1H77.295L77.1959 98.0095L76.2 98.1ZM59.7 98.1L58.7124 98.2571L58.8465 99.1H59.7V98.1ZM56.5 90.6L55.7216 91.2277L56.5 90.6ZM50 85.8L49.6004 86.7167L49.6089 86.7203L50 85.8ZM32.5 85.8L32.9084 86.7128L32.5 85.8ZM26.1 90.6L25.3338 89.9574L25.3276 89.9648L25.3216 89.9722L26.1 90.6ZM22.2 98L21.2491 97.6904L21.2469 97.6973L21.2447 97.7043L22.2 98ZM22.2 116.8L21.2428 117.089L21.2469 117.103L21.2513 117.116L22.2 116.8ZM26.2 124.2L25.4239 124.831L25.4347 124.844L25.4459 124.857L26.2 124.2ZM32.8 129L32.4004 129.917L32.4104 129.921L32.4204 129.925L32.8 129ZM54.5 126.9L53.9276 126.08L53.9202 126.085L54.5 126.9ZM60.9 116.7V115.7H60.055L59.914 116.533L60.9 116.7ZM77.3 116.7L78.2937 116.812L78.4188 115.7H77.3V116.7ZM71.9 131.4L71.0699 130.842L71.068 130.845L71.9 131.4ZM59.8 142L60.2566 142.89L60.261 142.887L59.8 142ZM41.7 144.9C35.2121 144.9 29.7003 143.786 25.1319 141.598L24.2681 143.402C29.1664 145.748 34.9879 146.9 41.7 146.9V144.9ZM25.1422 141.603C20.5262 139.328 16.7792 136.382 13.8795 132.774L12.3205 134.026C15.4208 137.885 19.4071 141.006 24.2578 143.397L25.1422 141.603ZM13.8849 132.78C10.9515 129.065 8.77516 125.098 7.34722 120.879L5.45278 121.521C6.95817 125.968 9.24848 130.135 12.3151 134.02L13.8849 132.78ZM7.35293 120.897C5.98051 116.583 5.3 112.419 5.3 108.4H3.3C3.3 112.647 4.01949 117.017 5.44707 121.503L7.35293 120.897ZM5.3 108.4V106.2H3.3V108.4H5.3ZM5.3 106.2C5.3 101.777 6.01521 97.4166 7.44868 93.1162L5.55132 92.4838C4.05146 96.9834 3.3 101.557 3.3 106.2H5.3ZM7.45009 93.112C8.87752 88.7648 11.0493 84.8429 13.9682 81.3402L12.4318 80.0598C9.35072 83.7571 7.05581 87.9019 5.54991 92.488L7.45009 93.112ZM13.9612 81.3485C16.9278 77.866 20.642 75.0843 25.1207 73.0072L24.2793 71.1928C19.5581 73.3824 15.6056 76.334 12.4388 80.0515L13.9612 81.3485ZM25.1264 73.0045C29.6329 70.88 34.9813 69.8 41.2 69.8V67.8C34.7521 67.8 29.1004 68.92 24.2736 71.1955L25.1264 73.0045ZM41.2 69.8C47.6742 69.8 53.3535 71.0093 58.2623 73.3991L59.1377 71.6009C53.9132 69.0574 47.9258 67.8 41.2 67.8V69.8ZM58.2623 73.3991C63.1819 75.7942 67.0776 79.1156 69.9738 83.3633L71.6262 82.2367C68.5224 77.6844 64.3515 74.1392 59.1377 71.6009L58.2623 73.3991ZM69.9837 83.3777C72.9378 87.5519 74.6849 92.4795 75.2041 98.1905L77.1959 98.0095C76.6484 91.9871 74.7955 86.7147 71.6163 82.2223L69.9837 83.3777ZM76.2 97.1H59.7V99.1H76.2V97.1ZM60.6876 97.9429C60.1968 94.858 59.0673 92.1904 57.2784 89.9722L55.7216 91.2277C57.2661 93.1429 58.2699 95.4753 58.7124 98.2571L60.6876 97.9429ZM57.2784 89.9722C55.4994 87.7663 53.1948 86.0712 50.3911 84.8797L49.6089 86.7203C52.1385 87.7954 54.1672 89.3004 55.7216 91.2277L57.2784 89.9722ZM50.3996 84.8833C47.6558 83.6873 44.5834 83.1 41.2 83.1V85.1C44.3499 85.1 47.1442 85.646 49.6004 86.7167L50.3996 84.8833ZM41.2 83.1C37.8172 83.1 34.7742 83.6871 32.0916 84.8872L32.9084 86.7128C35.2925 85.6462 38.0494 85.1 41.2 85.1V83.1ZM32.0916 84.8872C29.4242 86.0805 27.1673 87.7713 25.3338 89.9574L26.8662 91.2426C28.4994 89.2953 30.5091 87.7862 32.9084 86.7128L32.0916 84.8872ZM25.3216 89.9722C23.5689 92.1455 22.2151 94.7236 21.2491 97.6904L23.1509 98.3096C24.0516 95.5431 25.2977 93.1878 26.8784 91.2277L25.3216 89.9722ZM21.2447 97.7043C20.3436 100.616 19.9 103.851 19.9 107.4H21.9C21.9 104.016 22.3231 100.984 23.1553 98.2957L21.2447 97.7043ZM19.9 107.4C19.9 110.885 20.3442 114.117 21.2428 117.089L23.1572 116.511C22.3225 113.749 21.9 110.715 21.9 107.4H19.9ZM21.2513 117.116C22.2199 120.022 23.6091 122.597 25.4239 124.831L26.9761 123.569C25.3242 121.536 24.0467 119.178 23.1487 116.484L21.2513 117.116ZM25.4459 124.857C27.3468 127.039 29.6693 128.726 32.4004 129.917L33.1996 128.083C30.7307 127.007 28.6532 125.494 26.9541 123.543L25.4459 124.857ZM32.4204 129.925C35.1611 131.05 38.2603 131.6 41.7 131.6V129.6C38.4731 129.6 35.6389 129.084 33.1796 128.075L32.4204 129.925ZM41.7 131.6C46.9338 131.6 51.4134 130.324 55.0798 127.715L53.9202 126.085C50.6532 128.41 46.5995 129.6 41.7 129.6V131.6ZM55.0724 127.72C58.8305 125.096 61.1089 121.459 61.886 116.867L59.914 116.533C59.2244 120.608 57.2362 123.77 53.9276 126.08L55.0724 127.72ZM60.9 117.7H77.3V115.7H60.9V117.7ZM76.3063 116.588C75.7243 121.762 73.9806 126.509 71.0699 130.842L72.7301 131.958C75.8194 127.358 77.6757 122.305 78.2937 116.812L76.3063 116.588ZM71.068 130.845C68.2369 135.092 64.337 138.516 59.339 141.113L60.261 142.887C65.5297 140.15 69.6965 136.508 72.7321 131.955L71.068 130.845ZM59.3435 141.11C54.4468 143.623 48.577 144.9 41.7 144.9V146.9C48.823 146.9 55.0199 145.577 60.2566 142.89L59.3435 141.11ZM119.38 144H118.38V145H119.38V144ZM119.38 127.8H120.38V126.8H119.38V127.8ZM116.68 127.8H115.68V128.8H116.68V127.8ZM114.68 103.9L115.405 103.21L114.68 103.9ZM102.48 101.9L102.453 100.9L102.48 101.9ZM95.0805 102.2L95.133 103.199L95.0805 102.2ZM88.1805 102.6H87.1805V103.667L88.2449 103.598L88.1805 102.6ZM88.1805 89.1L88.0938 88.1038L87.1805 88.1832V89.1H88.1805ZM93.5805 88.7L93.5161 87.7021L93.5805 88.7ZM99.9805 88.4L99.9502 87.4005L99.9805 88.4ZM120.28 90.7L119.892 91.6217L119.898 91.624L120.28 90.7ZM129.08 98L128.228 98.5222L128.232 98.53L129.08 98ZM132.08 144V145H133.08V144H132.08ZM91.4805 143.3L91.0497 144.203L91.0576 144.206L91.4805 143.3ZM84.5805 137.3L83.7324 137.83L83.7386 137.84L84.5805 137.3ZM85.1805 118L85.9554 118.632L85.9633 118.622L85.1805 118ZM93.8805 112.3L94.1865 113.252L94.1941 113.25L94.2018 113.247L93.8805 112.3ZM118.48 110.4H119.48V109.4H118.48V110.4ZM118.48 119.3V120.3H119.48V119.3H118.48ZM100.18 121.4L100.853 122.14L100.855 122.138L100.18 121.4ZM100.18 132.3L99.49 133.023L99.5068 133.039L99.5243 133.055L100.18 132.3ZM111.48 133.4L111.874 134.319L111.884 134.315L111.894 134.31L111.48 133.4ZM115.08 130.1L115.935 130.62L115.08 130.1ZM116.68 123.7L117.405 123.011L115.796 121.317L115.682 123.651L116.68 123.7ZM120.48 127.7L121.477 127.787L121.516 127.338L121.205 127.011L120.48 127.7ZM117.68 137.3L116.819 136.792L116.814 136.8L116.809 136.809L117.68 137.3ZM111.48 143.3L111.016 142.415L111.006 142.42L111.48 143.3ZM120.38 144V127.8H118.38V144H120.38ZM119.38 126.8H116.68V128.8H119.38V126.8ZM117.68 127.8V110.2H115.68V127.8H117.68ZM117.68 110.2C117.68 107.258 116.981 104.865 115.405 103.21L113.956 104.59C115.047 105.735 115.68 107.542 115.68 110.2H117.68ZM115.405 103.21C113.804 101.529 111.347 100.8 108.28 100.8V102.8C111.08 102.8 112.891 103.471 113.956 104.59L115.405 103.21ZM108.28 100.8C106.801 100.8 104.857 100.834 102.453 100.9L102.508 102.9C104.904 102.833 106.827 102.8 108.28 102.8V100.8ZM102.453 100.9C100.044 100.967 97.569 101.068 95.0279 101.201L95.133 103.199C97.6586 103.066 100.117 102.966 102.508 102.9L102.453 100.9ZM95.0279 101.201C92.4915 101.335 90.1874 101.468 88.1161 101.602L88.2449 103.598C90.3068 103.465 92.6028 103.332 95.133 103.199L95.0279 101.201ZM89.1805 102.6V89.1H87.1805V102.6H89.1805ZM88.2671 90.0962C89.791 89.9637 91.5833 89.8309 93.6449 89.6979L93.5161 87.7021C91.4443 87.8357 89.6366 87.9696 88.0938 88.1038L88.2671 90.0962ZM93.6449 89.6979C95.6995 89.5654 97.8214 89.4659 100.011 89.3995L99.9502 87.4005C97.7395 87.4674 95.5948 87.568 93.5161 87.7021L93.6449 89.6979ZM100.011 89.3995C102.202 89.3331 104.258 89.3 106.18 89.3V87.3C104.236 87.3 102.159 87.3335 99.9502 87.4005L100.011 89.3995ZM106.18 89.3C111.692 89.3 116.251 90.0883 119.892 91.6216L120.669 89.7784C116.71 88.1117 111.869 87.3 106.18 87.3V89.3ZM119.898 91.624C123.588 93.1511 126.348 95.4526 128.228 98.5222L129.933 97.4778C127.813 94.014 124.706 91.4489 120.663 89.776L119.898 91.624ZM128.232 98.53C130.105 101.525 131.08 105.458 131.08 110.4H133.08C133.08 105.208 132.056 100.875 129.928 97.47L128.232 98.53ZM131.08 110.4V144H133.08V110.4H131.08ZM132.08 143H119.38V145H132.08V143ZM101.88 144.4C98.0661 144.4 94.7484 143.721 91.9034 142.394L91.0576 144.206C94.2126 145.679 97.8282 146.4 101.88 146.4V144.4ZM91.9112 142.398C89.1368 141.073 86.9831 139.195 85.4223 136.76L83.7386 137.84C85.5112 140.605 87.9575 142.727 91.0497 144.202L91.9112 142.398ZM85.4285 136.77C83.8767 134.287 83.0805 131.311 83.0805 127.8H81.0805C81.0805 131.622 81.9509 134.98 83.7325 137.83L85.4285 136.77ZM83.0805 127.8C83.0805 123.977 84.0647 120.95 85.9553 118.632L84.4056 117.368C82.1629 120.117 81.0805 123.623 81.0805 127.8H83.0805ZM85.9633 118.622C87.8862 116.203 90.6065 114.403 94.1865 113.252L93.5745 111.348C89.6878 112.597 86.608 114.597 84.3976 117.378L85.9633 118.622ZM94.2018 113.247C97.8106 112.023 101.998 111.4 106.78 111.4V109.4C101.829 109.4 97.417 110.044 93.5592 111.353L94.2018 113.247ZM106.78 111.4H118.48V109.4H106.78V111.4ZM117.48 110.4V119.3H119.48V110.4H117.48ZM118.48 118.3H106.68V120.3H118.48V118.3ZM106.68 118.3C103.719 118.3 101.28 119.042 99.5062 120.662L100.855 122.138C102.148 120.958 104.042 120.3 106.68 120.3V118.3ZM99.5078 120.66C97.7954 122.217 96.9805 124.34 96.9805 126.9H98.9805C98.9805 124.794 99.6322 123.25 100.853 122.14L99.5078 120.66ZM96.9805 126.9C96.9805 129.347 97.8077 131.418 99.49 133.023L100.871 131.577C99.6199 130.382 98.9805 128.853 98.9805 126.9H96.9805ZM99.5243 133.055C101.298 134.597 103.73 135.3 106.68 135.3V133.3C104.03 133.3 102.129 132.669 100.837 131.545L99.5243 133.055ZM106.68 135.3C108.592 135.3 110.329 134.981 111.874 134.319L111.087 132.481C109.832 133.019 108.369 133.3 106.68 133.3V135.3ZM111.894 134.31C113.564 133.551 114.909 132.304 115.935 130.62L114.226 129.58C113.385 130.962 112.33 131.915 111.067 132.49L111.894 134.31ZM115.935 130.62C116.989 128.889 117.542 126.569 117.679 123.749L115.682 123.651C115.553 126.298 115.039 128.245 114.226 129.58L115.935 130.62ZM115.955 124.389L119.755 128.389L121.205 127.011L117.405 123.011L115.955 124.389ZM119.484 127.613C119.161 131.302 118.259 134.35 116.819 136.792L118.542 137.808C120.168 135.05 121.134 131.698 121.477 127.787L119.484 127.613ZM116.809 136.809C115.438 139.239 113.513 141.103 111.016 142.415L111.945 144.185C114.781 142.697 116.989 140.561 118.551 137.791L116.809 136.809ZM111.006 142.42C108.588 143.722 105.561 144.4 101.88 144.4V146.4C105.8 146.4 109.173 145.678 111.955 144.18L111.006 142.42ZM144.655 144H143.655V145H144.655V144ZM144.655 89.2V88.2H143.655V89.2H144.655ZM157.355 89.2H158.355V88.2H157.355V89.2ZM157.355 112.7V113.7H158.355V112.7H157.355ZM157.055 112.7H156.055V113.7H157.055V112.7ZM161.955 94.8L161.172 94.1783L161.166 94.1861L161.955 94.8ZM178.455 88.5H179.455V87.5H178.455V88.5ZM178.455 102.3V103.3H179.455V102.3H178.455ZM164.255 105.9L164.953 106.617L164.963 106.607L164.255 105.9ZM160.655 144V145H161.655V144H160.655ZM145.655 144V89.2H143.655V144H145.655ZM144.655 90.2H157.355V88.2H144.655V90.2ZM156.355 89.2V112.7H158.355V89.2H156.355ZM157.355 111.7H157.055V113.7H157.355V111.7ZM158.055 112.7C158.055 105.092 159.664 99.3745 162.745 95.4139L161.166 94.1861C157.713 98.6255 156.055 104.842 156.055 112.7H158.055ZM162.739 95.4217C165.849 91.5025 170.336 89.5 176.355 89.5V87.5C169.841 87.5 164.728 89.6975 161.172 94.1783L162.739 95.4217ZM176.355 89.5H178.455V87.5H176.355V89.5ZM177.455 88.5V102.3H179.455V88.5H177.455ZM178.455 101.3H174.455V103.3H178.455V101.3ZM174.455 101.3C169.872 101.3 166.187 102.554 163.548 105.193L164.963 106.607C167.124 104.446 170.239 103.3 174.455 103.3V101.3ZM163.558 105.183C160.907 107.761 159.655 111.457 159.655 116.1H161.655C161.655 111.81 162.804 108.705 164.953 106.617L163.558 105.183ZM159.655 116.1V144H161.655V116.1H159.655ZM160.655 143H144.655V145H160.655V143ZM198.152 143.5L197.74 144.411L197.746 144.414L198.152 143.5ZM189.252 137.1L188.492 137.749L188.5 137.759L188.509 137.769L189.252 137.1ZM183.852 128L182.909 128.333L182.913 128.344L182.918 128.355L183.852 128ZM183.852 105.1L182.915 104.751L182.911 104.761L183.852 105.1ZM189.252 96L190.005 96.6585L189.252 96ZM197.952 89.7L198.357 90.6146L198.365 90.6109L197.952 89.7ZM224.752 91.3L224.198 92.132L224.206 92.1374L224.214 92.1425L224.752 91.3ZM234.052 101.6L233.158 102.047L233.161 102.053L234.052 101.6ZM237.252 120.8V121.8H238.252V120.8H237.252ZM188.752 120.8H187.752V121.8H188.752V120.8ZM188.752 111.7V110.7H187.752V111.7H188.752ZM227.552 111.7L228.181 112.478L230.382 110.7H227.552V111.7ZM222.352 115.9H221.352V117.993L222.981 116.678L222.352 115.9ZM216.752 102.2L216.177 103.018L216.194 103.03L216.212 103.041L216.752 102.2ZM202.852 102.2L202.304 101.364L202.852 102.2ZM198.452 107.8L199.375 108.185L199.379 108.176L198.452 107.8ZM198.352 125.3L197.417 125.654L197.42 125.662L198.352 125.3ZM202.752 130.9L202.198 131.732L202.752 130.9ZM217.752 131.2L218.271 132.055L217.752 131.2ZM221.552 127V126H220.875L220.624 126.629L221.552 127ZM236.252 127L237.229 127.213L237.494 126H236.252V127ZM231.552 136.8L232.328 137.431L231.552 136.8ZM222.752 143.5L222.34 142.589L222.752 143.5ZM210.552 144.9C206 144.9 202.009 144.12 198.558 142.586L197.746 144.414C201.495 146.08 205.771 146.9 210.552 146.9V144.9ZM198.565 142.589C195.147 141.041 192.296 138.987 189.996 136.431L188.509 137.769C191.009 140.546 194.091 142.759 197.74 144.411L198.565 142.589ZM190.013 136.451C187.753 133.804 186.013 130.87 184.787 127.645L182.918 128.355C184.225 131.797 186.085 134.929 188.492 137.749L190.013 136.451ZM184.795 127.667C183.632 124.372 183.052 121.018 183.052 117.6H181.052C181.052 121.249 181.672 124.828 182.909 128.333L184.795 127.667ZM183.052 117.6V115.6H181.052V117.6H183.052ZM183.052 115.6C183.052 112.045 183.634 108.66 184.793 105.439L182.911 104.761C181.671 108.207 181.052 111.822 181.052 115.6H183.052ZM184.789 105.449C186.015 102.16 187.753 99.2319 190.005 96.6585L188.5 95.3415C186.085 98.1015 184.223 101.24 182.915 104.751L184.789 105.449ZM190.005 96.6585C192.236 94.1091 195.014 92.0931 198.357 90.6145L197.548 88.7855C193.957 90.3736 190.936 92.5576 188.5 95.3415L190.005 96.6585ZM198.365 90.6109C201.75 89.0779 205.606 88.3 209.952 88.3V86.3C205.365 86.3 201.221 87.1221 197.54 88.789L198.365 90.6109ZM209.952 88.3C215.665 88.3 220.395 89.5969 224.198 92.132L225.307 90.4679C221.11 87.6697 215.973 86.3 209.952 86.3V88.3ZM224.214 92.1425C228.13 94.6465 231.106 97.944 233.158 102.047L234.947 101.153C232.732 96.7226 229.508 93.1535 225.291 90.4575L224.214 92.1425ZM233.161 102.053C235.218 106.104 236.252 110.547 236.252 115.4H238.252C238.252 110.253 237.153 105.496 234.944 101.147L233.161 102.053ZM236.252 115.4V120.8H238.252V115.4H236.252ZM237.252 119.8H188.752V121.8H237.252V119.8ZM189.752 120.8V111.7H187.752V120.8H189.752ZM188.752 112.7H227.552V110.7H188.752V112.7ZM226.924 110.922L221.724 115.122L222.981 116.678L228.181 112.478L226.924 110.922ZM223.352 115.9C223.352 112.542 222.873 109.61 221.881 107.129L220.024 107.871C220.898 110.057 221.352 112.724 221.352 115.9H223.352ZM221.881 107.129C220.881 104.629 219.357 102.686 217.293 101.359L216.212 103.041C217.881 104.114 219.157 105.705 220.024 107.871L221.881 107.129ZM217.328 101.382C215.322 99.971 212.841 99.3 209.952 99.3V101.3C212.53 101.3 214.582 101.896 216.177 103.018L217.328 101.382ZM209.952 99.3C206.999 99.3 204.432 99.9695 202.304 101.364L203.4 103.036C205.139 101.897 207.305 101.3 209.952 101.3V99.3ZM202.304 101.364C200.176 102.758 198.59 104.799 197.526 107.424L199.379 108.176C200.315 105.868 201.662 104.175 203.4 103.036L202.304 101.364ZM197.529 107.415C196.464 109.973 195.952 113.079 195.952 116.7H197.952C197.952 113.254 198.441 110.427 199.375 108.185L197.529 107.415ZM195.952 116.7C195.952 120.06 196.432 123.051 197.417 125.654L199.288 124.946C198.406 122.616 197.952 119.874 197.952 116.7H195.952ZM197.42 125.662C198.423 128.24 200.014 130.276 202.198 131.732L203.307 130.068C201.491 128.857 200.149 127.16 199.284 124.938L197.42 125.662ZM202.198 131.732C204.408 133.206 207.219 133.9 210.552 133.9V131.9C207.486 131.9 205.096 131.261 203.307 130.068L202.198 131.732ZM210.552 133.9C213.608 133.9 216.203 133.31 218.271 132.055L217.233 130.345C215.568 131.356 213.364 131.9 210.552 131.9V133.9ZM218.271 132.055C220.282 130.834 221.717 129.28 222.481 127.371L220.624 126.629C220.054 128.054 218.956 129.299 217.233 130.345L218.271 132.055ZM221.552 128H236.252V126H221.552V128ZM235.275 126.787C234.508 130.303 233.01 133.426 230.777 136.169L232.328 137.431C234.762 134.441 236.396 131.031 237.229 127.213L235.275 126.787ZM230.777 136.169C228.546 138.909 225.739 141.05 222.34 142.589L223.165 144.411C226.832 142.75 229.892 140.424 232.328 137.431L230.777 136.169ZM222.34 142.589C218.958 144.12 215.036 144.9 210.552 144.9V146.9C215.269 146.9 219.48 146.08 223.165 144.411L222.34 142.589ZM258.355 142.7L257.974 143.625L257.982 143.628L257.99 143.631L258.355 142.7ZM250.855 135.8L249.949 136.225L249.955 136.236L249.96 136.247L250.855 135.8ZM248.555 74.4V73.4H247.555V74.4H248.555ZM263.455 74.4H264.455V73.4H263.455V74.4ZM265.455 129.2L264.731 129.89L264.747 129.907L264.765 129.924L265.455 129.2ZM279.455 131.2H280.455V130.2H279.455V131.2ZM279.455 144.7V145.7H280.455V144.7H279.455ZM240.255 100.9H239.255V101.9H240.255V100.9ZM240.255 89.2V88.2H239.255V89.2H240.255ZM279.455 89.2H280.455V88.2H279.455V89.2ZM279.455 100.9V101.9H280.455V100.9H279.455ZM271.755 143.7C266.288 143.7 261.96 143.04 258.72 141.769L257.99 143.631C261.55 145.027 266.154 145.7 271.755 145.7V143.7ZM258.735 141.775C255.552 140.464 253.238 138.33 251.749 135.353L249.96 136.247C251.671 139.67 254.357 142.136 257.974 143.625L258.735 141.775ZM251.76 135.375C250.313 132.293 249.555 128.057 249.555 122.6H247.555C247.555 128.209 248.329 132.773 249.949 136.225L251.76 135.375ZM249.555 122.6V74.4H247.555V122.6H249.555ZM248.555 75.4H263.455V73.4H248.555V75.4ZM262.455 74.4V123.2H264.455V74.4H262.455ZM262.455 123.2C262.455 125.966 263.166 128.247 264.731 129.89L266.179 128.51C265.076 127.353 264.455 125.634 264.455 123.2H262.455ZM264.765 129.924C266.403 131.484 268.647 132.2 271.355 132.2V130.2C268.996 130.2 267.306 129.583 266.144 128.476L264.765 129.924ZM271.355 132.2H279.455V130.2H271.355V132.2ZM278.455 131.2V144.7H280.455V131.2H278.455ZM279.455 143.7H271.755V145.7H279.455V143.7ZM241.255 100.9V89.2H239.255V100.9H241.255ZM240.255 90.2H279.455V88.2H240.255V90.2ZM278.455 89.2V100.9H280.455V89.2H278.455ZM279.455 99.9H240.255V101.9H279.455V99.9ZM322.119 144H321.119V145H322.119V144ZM322.119 127.8H323.119V126.8H322.119V127.8ZM319.419 127.8H318.419V128.8H319.419V127.8ZM317.419 103.9L318.143 103.21L317.419 103.9ZM305.219 101.9L305.191 100.9L305.219 101.9ZM297.819 102.2L297.871 103.199L297.819 102.2ZM290.919 102.6H289.919V103.667L290.983 103.598L290.919 102.6ZM290.919 89.1L290.832 88.1038L289.919 88.1832V89.1H290.919ZM296.319 88.7L296.254 87.7021L296.319 88.7ZM302.719 88.4L302.688 87.4005H302.688L302.719 88.4ZM323.019 90.7L322.631 91.6217L322.636 91.624L323.019 90.7ZM331.819 98L330.966 98.5222L330.971 98.53L331.819 98ZM334.819 144V145H335.819V144H334.819ZM294.219 143.3L293.788 144.203L293.796 144.206L294.219 143.3ZM287.319 137.3L286.471 137.83L286.477 137.84L287.319 137.3ZM287.919 118L288.694 118.632L288.702 118.622L287.919 118ZM296.619 112.3L296.925 113.252L296.932 113.25L296.94 113.247L296.619 112.3ZM321.219 110.4H322.219V109.4H321.219V110.4ZM321.219 119.3V120.3H322.219V119.3H321.219ZM302.919 121.4L303.591 122.14L303.593 122.138L302.919 121.4ZM302.919 132.3L302.228 133.023L302.245 133.039L302.263 133.055L302.919 132.3ZM314.219 133.4L314.613 134.319L314.623 134.315L314.633 134.31L314.219 133.4ZM317.819 130.1L318.673 130.62L317.819 130.1ZM319.419 123.7L320.144 123.011L318.534 121.317L318.42 123.651L319.419 123.7ZM323.219 127.7L324.215 127.787L324.254 127.338L323.944 127.011L323.219 127.7ZM320.419 137.3L319.557 136.792L319.552 136.8L319.548 136.809L320.419 137.3ZM314.219 143.3L313.754 142.415L313.745 142.42L314.219 143.3ZM323.119 144V127.8H321.119V144H323.119ZM322.119 126.8H319.419V128.8H322.119V126.8ZM320.419 127.8V110.2H318.419V127.8H320.419ZM320.419 110.2C320.419 107.258 319.719 104.865 318.143 103.21L316.695 104.59C317.785 105.735 318.419 107.542 318.419 110.2H320.419ZM318.143 103.21C316.542 101.529 314.085 100.8 311.019 100.8V102.8C313.819 102.8 315.629 103.471 316.695 104.59L318.143 103.21ZM311.019 100.8C309.539 100.8 307.595 100.834 305.191 100.9L305.247 102.9C307.642 102.833 309.565 102.8 311.019 102.8V100.8ZM305.191 100.9C302.782 100.967 300.307 101.068 297.766 101.201L297.871 103.199C300.397 103.066 302.855 102.966 305.247 102.9L305.191 100.9ZM297.766 101.201C295.23 101.335 292.926 101.468 290.854 101.602L290.983 103.598C293.045 103.465 295.341 103.332 297.871 103.199L297.766 101.201ZM291.919 102.6V89.1H289.919V102.6H291.919ZM291.005 90.0962C292.529 89.9637 294.322 89.8309 296.383 89.6979L296.254 87.7021C294.183 87.8357 292.375 87.9696 290.832 88.1038L291.005 90.0962ZM296.383 89.6979C298.438 89.5654 300.56 89.4659 302.749 89.3995L302.688 87.4005C300.478 87.4674 298.333 87.568 296.254 87.7021L296.383 89.6979ZM302.749 89.3995C304.94 89.3331 306.997 89.3 308.919 89.3V87.3C306.974 87.3 304.897 87.3335 302.688 87.4005L302.749 89.3995ZM308.919 89.3C314.43 89.3 318.989 90.0883 322.631 91.6216L323.407 89.7784C319.448 88.1117 314.607 87.3 308.919 87.3V89.3ZM322.636 91.624C326.327 93.1511 329.087 95.4526 330.966 98.5222L332.672 97.4778C330.551 94.014 327.444 91.4489 323.401 89.776L322.636 91.624ZM330.971 98.53C332.843 101.525 333.819 105.458 333.819 110.4H335.819C335.819 105.208 334.795 100.875 332.667 97.47L330.971 98.53ZM333.819 110.4V144H335.819V110.4H333.819ZM334.819 143H322.119V145H334.819V143ZM304.619 144.4C300.804 144.4 297.487 143.721 294.642 142.394L293.796 144.206C296.951 145.679 300.566 146.4 304.619 146.4V144.4ZM294.649 142.398C291.875 141.073 289.721 139.195 288.161 136.76L286.477 137.84C288.249 140.605 290.696 142.727 293.788 144.202L294.649 142.398ZM288.167 136.77C286.615 134.287 285.819 131.311 285.819 127.8H283.819C283.819 131.622 284.689 134.98 286.471 137.83L288.167 136.77ZM285.819 127.8C285.819 123.977 286.803 120.95 288.694 118.632L287.144 117.368C284.901 120.117 283.819 123.623 283.819 127.8H285.819ZM288.702 118.622C290.625 116.203 293.345 114.403 296.925 113.252L296.313 111.348C292.426 112.597 289.346 114.597 287.136 117.378L288.702 118.622ZM296.94 113.247C300.549 112.023 304.737 111.4 309.519 111.4V109.4C304.567 109.4 300.155 110.044 296.297 111.353L296.94 113.247ZM309.519 111.4H321.219V109.4H309.519V111.4ZM320.219 110.4V119.3H322.219V110.4H320.219ZM321.219 118.3H309.419V120.3H321.219V118.3ZM309.419 118.3C306.458 118.3 304.018 119.042 302.244 120.662L303.593 122.138C304.886 120.958 306.78 120.3 309.419 120.3V118.3ZM302.246 120.66C300.534 122.217 299.719 124.34 299.719 126.9H301.719C301.719 124.794 302.37 123.25 303.591 122.14L302.246 120.66ZM299.719 126.9C299.719 129.347 300.546 131.418 302.228 133.023L303.609 131.577C302.358 130.382 301.719 128.853 301.719 126.9H299.719ZM302.263 133.055C304.037 134.597 306.469 135.3 309.419 135.3V133.3C306.769 133.3 304.868 132.669 303.575 131.545L302.263 133.055ZM309.419 135.3C311.33 135.3 313.068 134.981 314.613 134.319L313.825 132.481C312.57 133.019 311.108 133.3 309.419 133.3V135.3ZM314.633 134.31C316.302 133.551 317.648 132.304 318.673 130.62L316.965 129.58C316.123 130.962 315.068 131.915 313.805 132.49L314.633 134.31ZM318.673 130.62C319.727 128.889 320.28 126.569 320.418 123.749L318.42 123.651C318.291 126.298 317.777 128.245 316.965 129.58L318.673 130.62ZM318.694 124.389L322.494 128.389L323.944 127.011L320.144 123.011L318.694 124.389ZM322.223 127.613C321.899 131.302 320.998 134.35 319.557 136.792L321.28 137.808C322.906 135.05 323.872 131.698 324.215 127.787L322.223 127.613ZM319.548 136.809C318.177 139.239 316.252 141.103 313.754 142.415L314.684 144.185C317.519 142.697 319.728 140.561 321.29 137.791L319.548 136.809ZM313.745 142.42C311.326 143.722 308.299 144.4 304.619 144.4V146.4C308.538 146.4 311.911 145.678 314.693 144.18L313.745 142.42ZM385.994 144L385.165 144.56L385.463 145H385.994V144ZM368.694 118.4L369.522 117.84L369.225 117.4H368.694V118.4ZM360.994 118.4L360.199 117.793L358.972 119.4H360.994V118.4ZM383.294 89.2V88.2H382.799L382.499 88.593L383.294 89.2ZM400.094 89.2L400.885 89.8111L402.129 88.2H400.094V89.2ZM379.094 116.4L378.094 116.374L378.016 119.433L379.885 117.011L379.094 116.4ZM379.294 108.6L380.114 108.028L378.372 105.532L378.294 108.574L379.294 108.6ZM403.994 144V145H405.911L404.814 143.428L403.994 144ZM347.394 144H346.394V145H347.394V144ZM347.394 71V70H346.394V71H347.394ZM363.394 71H364.394V70H363.394V71ZM363.394 144V145H364.394V144H363.394ZM386.822 143.44L369.522 117.84L367.865 118.96L385.165 144.56L386.822 143.44ZM368.694 117.4H360.994V119.4H368.694V117.4ZM361.788 119.007L384.089 89.8069L382.499 88.593L360.199 117.793L361.788 119.007ZM383.294 90.2H400.094V88.2H383.294V90.2ZM399.302 88.5889L378.302 115.789L379.885 117.011L400.885 89.8111L399.302 88.5889ZM380.093 116.426L380.293 108.626L378.294 108.574L378.094 116.374L380.093 116.426ZM378.474 109.172L403.174 144.572L404.814 143.428L380.114 108.028L378.474 109.172ZM403.994 143H385.994V145H403.994V143ZM348.394 144V71H346.394V144H348.394ZM347.394 72H363.394V70H347.394V72ZM362.394 71V144H364.394V71H362.394ZM363.394 143H347.394V145H363.394V143ZM420.91 143.5L420.498 144.411L420.504 144.414L420.91 143.5ZM412.01 137.1L411.25 137.749L411.258 137.759L411.267 137.769L412.01 137.1ZM406.61 128L405.667 128.333L405.671 128.344L405.675 128.355L406.61 128ZM406.61 105.1L405.673 104.751L405.669 104.761L406.61 105.1ZM412.01 96L412.763 96.6585L412.01 96ZM420.71 89.7L421.115 90.6146L421.123 90.6109L420.71 89.7ZM447.51 91.3L446.955 92.132L446.963 92.1374L446.971 92.1425L447.51 91.3ZM456.81 101.6L455.916 102.047L455.919 102.053L456.81 101.6ZM460.01 120.8V121.8H461.01V120.8H460.01ZM411.51 120.8H410.51V121.8H411.51V120.8ZM411.51 111.7V110.7H410.51V111.7H411.51ZM450.31 111.7L450.939 112.478L453.14 110.7H450.31V111.7ZM445.11 115.9H444.11V117.993L445.738 116.678L445.11 115.9ZM439.51 102.2L438.935 103.018L438.952 103.03L438.969 103.041L439.51 102.2ZM425.61 102.2L425.062 101.364L425.61 102.2ZM421.21 107.8L422.133 108.185L422.137 108.176L421.21 107.8ZM421.11 125.3L420.175 125.654L420.178 125.662L421.11 125.3ZM425.51 130.9L424.955 131.732L425.51 130.9ZM440.51 131.2L441.029 132.055L440.51 131.2ZM444.31 127V126H443.633L443.382 126.629L444.31 127ZM459.01 127L459.987 127.213L460.252 126H459.01V127ZM454.31 136.8L455.086 137.431L454.31 136.8ZM445.51 143.5L445.098 142.589L445.51 143.5ZM433.31 144.9C428.758 144.9 424.767 144.12 421.316 142.586L420.504 144.414C424.253 146.08 428.529 146.9 433.31 146.9V144.9ZM421.323 142.589C417.905 141.041 415.054 138.987 412.753 136.431L411.267 137.769C413.767 140.546 416.849 142.759 420.498 144.411L421.323 142.589ZM412.771 136.451C410.511 133.804 408.771 130.87 407.545 127.645L405.675 128.355C406.983 131.797 408.842 134.929 411.25 137.749L412.771 136.451ZM407.553 127.667C406.39 124.372 405.81 121.018 405.81 117.6H403.81C403.81 121.249 404.43 124.828 405.667 128.333L407.553 127.667ZM405.81 117.6V115.6H403.81V117.6H405.81ZM405.81 115.6C405.81 112.045 406.392 108.66 407.551 105.439L405.669 104.761C404.429 108.207 403.81 111.822 403.81 115.6H405.81ZM407.547 105.449C408.773 102.16 410.511 99.2319 412.763 96.6585L411.258 95.3415C408.843 98.1015 406.981 101.24 405.673 104.751L407.547 105.449ZM412.763 96.6585C414.993 94.1091 417.772 92.0931 421.115 90.6145L420.306 88.7855C416.715 90.3736 413.693 92.5576 411.258 95.3415L412.763 96.6585ZM421.123 90.6109C424.508 89.0779 428.364 88.3 432.71 88.3V86.3C428.123 86.3 423.979 87.1221 420.298 88.789L421.123 90.6109ZM432.71 88.3C438.423 88.3 443.153 89.5969 446.955 92.132L448.065 90.4679C443.867 87.6697 438.73 86.3 432.71 86.3V88.3ZM446.971 92.1425C450.888 94.6465 453.864 97.944 455.916 102.047L457.705 101.153C455.49 96.7226 452.266 93.1535 448.049 90.4575L446.971 92.1425ZM455.919 102.053C457.976 106.104 459.01 110.547 459.01 115.4H461.01C461.01 110.253 459.911 105.496 457.702 101.147L455.919 102.053ZM459.01 115.4V120.8H461.01V115.4H459.01ZM460.01 119.8H411.51V121.8H460.01V119.8ZM412.51 120.8V111.7H410.51V120.8H412.51ZM411.51 112.7H450.31V110.7H411.51V112.7ZM449.682 110.922L444.482 115.122L445.738 116.678L450.939 112.478L449.682 110.922ZM446.11 115.9C446.11 112.542 445.631 109.61 444.639 107.129L442.782 107.871C443.656 110.057 444.11 112.724 444.11 115.9H446.11ZM444.639 107.129C443.639 104.629 442.115 102.686 440.051 101.359L438.969 103.041C440.638 104.114 441.915 105.705 442.782 107.871L444.639 107.129ZM440.086 101.382C438.08 99.971 435.599 99.3 432.71 99.3V101.3C435.288 101.3 437.34 101.896 438.935 103.018L440.086 101.382ZM432.71 99.3C429.757 99.3 427.19 99.9695 425.062 101.364L426.158 103.036C427.897 101.897 430.063 101.3 432.71 101.3V99.3ZM425.062 101.364C422.934 102.758 421.348 104.799 420.283 107.424L422.137 108.176C423.072 105.868 424.42 104.175 426.158 103.036L425.062 101.364ZM420.287 107.415C419.222 109.973 418.71 113.079 418.71 116.7H420.71C420.71 113.254 421.199 110.427 422.133 108.185L420.287 107.415ZM418.71 116.7C418.71 120.06 419.19 123.051 420.175 125.654L422.045 124.946C421.164 122.616 420.71 119.874 420.71 116.7H418.71ZM420.178 125.662C421.18 128.24 422.772 130.276 424.955 131.732L426.065 130.068C424.248 128.857 422.907 127.16 422.042 124.938L420.178 125.662ZM424.955 131.732C427.166 133.206 429.977 133.9 433.31 133.9V131.9C430.243 131.9 427.854 131.261 426.065 130.068L424.955 131.732ZM433.31 133.9C436.366 133.9 438.961 133.31 441.029 132.055L439.991 130.345C438.326 131.356 436.121 131.9 433.31 131.9V133.9ZM441.029 132.055C443.04 130.834 444.475 129.28 445.239 127.371L443.382 126.629C442.812 128.054 441.714 129.299 439.991 130.345L441.029 132.055ZM444.31 128H459.01V126H444.31V128ZM458.033 126.787C457.266 130.303 455.767 133.426 453.535 136.169L455.086 137.431C457.52 134.441 459.154 131.031 459.987 127.213L458.033 126.787ZM453.535 136.169C451.304 138.909 448.497 141.05 445.098 142.589L445.923 144.411C449.59 142.75 452.65 140.424 455.086 137.431L453.535 136.169ZM445.098 142.589C441.716 144.12 437.794 144.9 433.31 144.9V146.9C438.026 146.9 442.238 146.08 445.923 144.411L445.098 142.589ZM469.612 144H468.612V145H469.612V144ZM469.612 89.2V88.2H468.612V89.2H469.612ZM482.312 89.2H483.312V88.2H482.312V89.2ZM482.312 112.7V113.7H483.312V112.7H482.312ZM482.013 112.7H481.013V113.7H482.013V112.7ZM486.913 94.8L486.129 94.1783L486.123 94.1861L486.913 94.8ZM503.413 88.5H504.413V87.5H503.413V88.5ZM503.413 102.3V103.3H504.413V102.3H503.413ZM489.212 105.9L489.91 106.617L489.92 106.607L489.212 105.9ZM485.612 144V145H486.612V144H485.612ZM470.612 144V89.2H468.612V144H470.612ZM469.612 90.2H482.312V88.2H469.612V90.2ZM481.312 89.2V112.7H483.312V89.2H481.312ZM482.312 111.7H482.013V113.7H482.312V111.7ZM483.013 112.7C483.013 105.092 484.621 99.3745 487.702 95.4139L486.123 94.1861C482.67 98.6255 481.013 104.842 481.013 112.7H483.013ZM487.696 95.4217C490.806 91.5025 495.293 89.5 501.312 89.5V87.5C494.798 87.5 489.685 89.6975 486.129 94.1783L487.696 95.4217ZM501.312 89.5H503.413V87.5H501.312V89.5ZM502.413 88.5V102.3H504.413V88.5H502.413ZM503.413 101.3H499.413V103.3H503.413V101.3ZM499.413 101.3C494.829 101.3 491.144 102.554 488.505 105.193L489.92 106.607C492.081 104.446 495.196 103.3 499.413 103.3V101.3ZM488.515 105.183C485.864 107.761 484.612 111.457 484.612 116.1H486.612C486.612 111.81 487.761 108.705 489.91 106.617L488.515 105.183ZM484.612 116.1V144H486.612V116.1H484.612ZM485.612 143H469.612V145H485.612V143ZM513.202 140.9L513.791 140.091L513.202 140.9ZM506.202 127.4V126.4H505.155L505.203 127.446L506.202 127.4ZM520.402 127.4L521.391 127.248L521.26 126.4H520.402V127.4ZM523.502 132.1L522.888 132.889L522.904 132.902L522.921 132.914L523.502 132.1ZM538.702 132.7L539.163 133.588L539.175 133.581L538.702 132.7ZM539.402 124.7L538.821 125.514L538.834 125.523L538.848 125.532L539.402 124.7ZM531.902 122.6L532.013 121.606L532.004 121.605L531.995 121.604L531.902 122.6ZM527.602 122.2L527.502 123.195L527.51 123.196L527.602 122.2ZM512.702 116.7L512.026 117.437L512.033 117.443L512.702 116.7ZM510.702 95.5L511.505 96.0967L510.702 95.5ZM518.702 89.6L518.343 88.6666L518.337 88.669L518.702 89.6ZM547.602 92.3L547.016 93.1104L547.025 93.1163L547.602 92.3ZM554.402 105.7V106.7H555.437L555.402 105.666L554.402 105.7ZM540.202 105.7L539.213 105.847L539.34 106.7H540.202V105.7ZM537.402 101.2L536.782 101.984L536.792 101.992L536.802 102L537.402 101.2ZM524.102 108L524.636 107.155L524.102 108ZM530.302 109.7L530.187 110.693L530.198 110.695L530.21 110.696L530.302 109.7ZM534.602 110.1L534.711 109.106L534.703 109.105L534.695 109.104L534.602 110.1ZM550.302 115.7L550.929 114.92L550.302 115.7ZM552.902 137.4L553.702 138L553.709 137.991L552.902 137.4ZM544.402 143.6L544.759 144.534L544.766 144.531L544.774 144.528L544.402 143.6ZM531.502 144.7C523.825 144.7 517.96 143.124 513.791 140.091L512.614 141.709C517.245 145.077 523.579 146.7 531.502 146.7V144.7ZM513.791 140.091C509.655 137.083 507.455 132.874 507.201 127.354L505.203 127.446C505.483 133.526 507.95 138.317 512.614 141.709L513.791 140.091ZM506.202 128.4H520.402V126.4H506.202V128.4ZM519.414 127.552C519.73 129.607 520.949 131.381 522.888 132.889L524.116 131.311C522.455 130.019 521.608 128.66 521.391 127.248L519.414 127.552ZM522.921 132.914C525.032 134.421 528.042 135.1 531.802 135.1V133.1C528.229 133.1 525.706 132.445 524.084 131.286L522.921 132.914ZM531.802 135.1C534.705 135.1 537.177 134.617 539.163 133.588L538.242 131.812C536.628 132.649 534.5 133.1 531.802 133.1V135.1ZM539.175 133.581C541.297 132.444 542.502 130.741 542.502 128.5H540.502C540.502 129.859 539.841 130.956 538.23 131.819L539.175 133.581ZM542.502 128.5C542.502 126.546 541.618 124.975 539.957 123.868L538.848 125.532C539.987 126.291 540.502 127.254 540.502 128.5H542.502ZM539.984 123.886C538.359 122.726 535.634 122.008 532.013 121.606L531.792 123.594C535.371 123.992 537.645 124.674 538.821 125.514L539.984 123.886ZM531.995 121.604L527.695 121.204L527.51 123.196L531.81 123.596L531.995 121.604ZM527.703 121.205C521.218 120.55 516.487 118.761 513.371 115.957L512.033 117.443C515.584 120.639 520.787 122.517 527.502 123.195L527.703 121.205ZM513.379 115.963C510.33 113.164 508.802 109.603 508.802 105.2H506.802C506.802 110.13 508.541 114.236 512.026 117.437L513.379 115.963ZM508.802 105.2C508.802 101.506 509.723 98.4928 511.505 96.0967L509.9 94.9033C507.815 97.7072 506.802 101.161 506.802 105.2H508.802ZM511.505 96.0967C513.313 93.6653 515.819 91.8049 519.067 90.531L518.337 88.669C514.786 90.0617 511.959 92.1347 509.9 94.9033L511.505 96.0967ZM519.061 90.5333C522.394 89.2514 526.203 88.6 530.502 88.6V86.6C526.002 86.6 521.944 87.2819 518.343 88.6666L519.061 90.5333ZM530.502 88.6C537.426 88.6 542.901 90.1345 547.016 93.1104L548.188 91.4896C543.637 88.1988 537.712 86.6 530.502 86.6V88.6ZM547.025 93.1163C551.073 95.9816 553.212 100.142 553.403 105.734L555.402 105.666C555.192 99.5249 552.798 94.7518 548.18 91.4837L547.025 93.1163ZM554.402 104.7H540.202V106.7H554.402V104.7ZM541.192 105.553C540.882 103.466 539.79 101.741 538.002 100.4L536.802 102C538.215 103.059 538.989 104.334 539.213 105.847L541.192 105.553ZM538.023 100.416C536.174 98.952 533.547 98.3 530.302 98.3V100.3C533.325 100.3 535.431 100.915 536.782 101.984L538.023 100.416ZM530.302 98.3C527.721 98.3 525.547 98.7866 523.865 99.8563L524.939 101.544C526.192 100.747 527.95 100.3 530.302 100.3V98.3ZM523.865 99.8563C522.14 100.954 521.202 102.524 521.202 104.5H523.202C523.202 103.276 523.731 102.312 524.939 101.544L523.865 99.8563ZM521.202 104.5C521.202 106.367 522.003 107.857 523.568 108.845L524.636 107.155C523.668 106.543 523.202 105.7 523.202 104.5H521.202ZM523.568 108.845C525.032 109.77 527.284 110.356 530.187 110.693L530.418 108.707C527.587 108.378 525.706 107.83 524.636 107.155L523.568 108.845ZM530.21 110.696L534.51 111.096L534.695 109.104L530.395 108.704L530.21 110.696ZM534.494 111.094C541.113 111.815 546.141 113.639 549.676 116.48L550.929 114.92C546.997 111.761 541.559 109.852 534.711 109.106L534.494 111.094ZM549.676 116.48C553.158 119.277 554.902 123.016 554.902 127.8H556.902C556.902 122.451 554.914 118.123 550.929 114.92L549.676 116.48ZM554.902 127.8C554.902 131.273 553.959 134.262 552.095 136.809L553.709 137.991C555.845 135.071 556.902 131.66 556.902 127.8H554.902ZM552.102 136.8C550.231 139.295 547.559 141.26 544.031 142.672L544.774 144.528C548.579 143.006 551.573 140.839 553.702 138L552.102 136.8ZM544.046 142.666C540.518 144.013 536.344 144.7 531.502 144.7V146.7C536.528 146.7 540.953 145.987 544.759 144.534L544.046 142.666Z" fill="white" mask="url(#path-1-outside-1_298_15882)"/>
</svg>
