<svg width="253" height="135" viewBox="0 0 253 135" fill="none" xmlns="http://www.w3.org/2000/svg">
<rect x="0.25" y="0.25" width="252.5" height="134.5" rx="3.75" stroke="#CFCFD5" stroke-width="0.5"/>
<path d="M123 121.779V85.3982M123 121.779C123 121.943 123.381 122.05 123.705 121.976L131.841 120.133C140.439 118.185 150.561 118.185 159.159 120.133C163.221 121.053 168 119.715 168 117.657V85.3982C168 84.4543 167.019 83.5654 165.353 82.999C153.588 79.0003 137.412 79.0003 125.647 82.999C123.981 83.5654 123 84.4543 123 85.3982M123 121.779C123 121.943 122.619 122.05 122.295 121.976L114.159 120.133C105.561 118.185 95.4394 118.185 86.8406 120.133C82.7789 121.053 78 119.715 78 117.657V85.3982C78 84.4543 78.9807 83.5654 80.6471 82.999C92.4118 79.0003 108.588 79.0003 120.353 82.999C122.019 83.5654 123 84.4543 123 85.3982" stroke="#F37BB8" stroke-width="1.5" stroke-linecap="round"/>
<path d="M171.988 20.2864L175.061 23.2903L115.244 112.733C115.244 112.733 115.221 112.772 115.204 112.795C115.076 112.969 114.759 113.088 114.679 112.998C114.599 112.907 114.65 112.601 114.794 112.332C114.808 112.306 114.833 112.269 114.833 112.269L143.411 66.2776L171.988 20.2864Z" fill="#ED459A" stroke="#2A282E" stroke-width="0.74166"/>
<path d="M122.549 102.101L127.163 100.395C128.284 99.895 129.159 97.2214 130.232 96.6918C131.654 95.9898 133.257 97.4211 134.596 96.6718C135.694 96.0576 136.506 92.182 137.55 91.5387C138.889 90.7135 140.443 93.1117 141.695 92.243C142.799 91.477 140.813 89.3473 141.852 88.5512C143.066 87.6214 147.293 88.0199 148.42 87.0541C149.448 86.1738 145.879 84.4444 146.837 83.5386C154.684 87.1965 153.019 82.8096 153.792 82.0157C154.556 81.2315 153.719 77.2782 154.436 76.4809C155.269 75.5547 157.649 77.7826 158.421 76.8425C159.282 75.7935 156.452 74.2691 157.24 73.208C158.092 72.0606 162.556 71.3756 163.326 70.2207C164.081 69.0896 162.172 65.3798 162.851 64.2481C163.436 63.2735 166.619 64.8767 167.151 63.9063C168.141 62.1015 163.183 61.2015 164 59.4316C169.73 59.738 170.799 56.4457 171.227 55.4155C171.599 54.523 167.74 53.7652 168.072 52.8915C168.73 51.1544 173.52 49.332 174.032 47.6907C174.551 46.0293 171.887 42.1876 173.461 40.1624C175.035 38.1372 177.669 40.2897 177.31 37.4521C177.114 35.9025 174.56 36.3588 174.992 34.1604C175.366 32.2614 179.087 29.2371 178.824 27.3017C178.387 24.082 175.002 21.8953 174.163 20.7035C171.022 17.2581 165.666 17.5002 163.182 20.2678C162.232 20.9316 160.964 22.4146 160.964 22.4146C160.661 22.6861 160.247 23.8992 159.788 25.0049C159.352 26.0541 158.874 27.0067 158.412 26.9665C157.462 26.884 156.691 26.1495 156.084 26.7693C155.596 27.2674 155.24 31.4466 154.731 31.9881C154.03 32.7332 153.168 29.8596 152.434 30.6836C151.802 31.3938 152.997 32.9014 152.346 33.6677C151.667 34.4667 150.179 33.8145 149.485 34.6717C148.873 35.4267 148.546 38.2258 147.927 39.0239C147.271 39.87 145.285 39.4298 144.625 40.3222C144.118 41.0087 144.358 41.8498 143.851 42.5625C143.775 44.4125 142.026 43.9506 141.49 44.7365C140.948 45.5306 141.466 49.2236 140.93 50.0455C140.361 50.9178 138.738 48.9207 138.178 49.8227C137.586 50.7785 138.648 57.4325 138.07 58.42C137.579 59.2569 135.445 54.423 134.968 55.2814C134.466 56.1822 134.925 59.3684 134.441 60.2916C134.002 61.1287 132.617 59.7007 132.194 60.5553C131.701 61.55 130.805 62.2676 131.788 64.5845C132.286 67.3653 129.987 65.2583 129.619 66.1114C129.289 66.8769 130.494 70.0471 130.18 70.8234C129.903 71.5098 128.105 69.801 127.841 70.4953C127.507 71.3748 129.019 74.5208 128.708 75.4123C128.456 76.1366 126.377 74.6044 126.141 75.3362C125.884 76.1335 125.878 77.8418 127.403 80.0072C127.162 80.829 124.931 79.3887 124.714 80.2186C124.536 80.8963 125.362 82.6453 125.2 83.328C124.966 84.3201 123.752 84.2486 123.554 85.2503C123.397 86.0398 124.761 89.7816 124.628 90.5765C124.493 91.3856 122.86 89.2478 122.751 90.0619C122.661 90.7297 124.188 93.4387 124.116 94.1096C124.039 94.8226 122.364 93.4976 122.308 94.2136C122.243 95.0539 123.408 96.4444 122.378 97.1697C120.735 98.3265 122.549 102.101 122.549 102.101Z" fill="#810FAF"/>
<path d="M171.988 20.2864L175.061 23.2903L123.244 100.771C123.235 100.788 123.194 100.848 123.126 100.947L115.244 112.733C115.244 112.733 115.221 112.772 115.204 112.795C115.076 112.969 114.759 113.088 114.679 112.998C114.604 112.913 122.087 102.454 123.126 100.947L123.244 100.771L143.411 66.2776L171.988 20.2864Z" fill="#ED459A"/>
</svg>
