<svg width="448" height="160" viewBox="0 0 448 160" fill="none" xmlns="http://www.w3.org/2000/svg">
<mask id="path-1-outside-1_298_15922" maskUnits="userSpaceOnUse" x="-1" y="5" width="445" height="142" fill="black">
<rect fill="white" x="-1" y="5" width="445" height="142"/>
<path d="M10.452 44L1.092 6.04H9.88L17.212 38.28L15.392 37.084H20.124L18.096 38.28L23.764 7.444H30.836L23.4 44H10.452ZM33.072 44L25.064 7.444H32.5L39.052 38.28L37.076 37.084H41.6L39.884 38.28L46.28 6.04H54.6L46.28 44H33.072ZM70.6639 44.988C68.2373 44.988 66.0879 44.572 64.2159 43.74C62.3786 42.908 60.8359 41.7987 59.5879 40.412C58.3746 38.9907 57.4386 37.4133 56.7799 35.68C56.1559 33.912 55.8439 32.1093 55.8439 30.272V29.232C55.8439 27.3253 56.1559 25.5053 56.7799 23.772C57.4386 22.004 58.3746 20.4267 59.5879 19.04C60.8013 17.6533 62.3093 16.5613 64.1119 15.764C65.9493 14.932 68.0293 14.516 70.3519 14.516C73.4026 14.516 75.9679 15.2093 78.0479 16.596C80.1626 17.948 81.7746 19.7333 82.8839 21.952C83.9933 24.136 84.5479 26.528 84.5479 29.128V31.936H59.3279V27.204H79.5039L76.7999 29.388C76.7999 27.6893 76.5573 26.2333 76.0719 25.02C75.5866 23.8067 74.8586 22.888 73.8879 22.264C72.9519 21.6053 71.7733 21.276 70.3519 21.276C68.8959 21.276 67.6653 21.6053 66.6599 22.264C65.6546 22.9227 64.8919 23.8933 64.3719 25.176C63.8519 26.424 63.5919 27.9667 63.5919 29.804C63.5919 31.5027 63.8346 32.9933 64.3199 34.276C64.8053 35.524 65.5679 36.4947 66.6079 37.188C67.6479 37.8813 68.9999 38.228 70.6639 38.228C72.1893 38.228 73.4373 37.9333 74.4079 37.344C75.3786 36.7547 76.0373 36.0267 76.3839 35.16H84.0279C83.6119 37.0667 82.7973 38.7653 81.5839 40.256C80.3706 41.7467 78.8453 42.908 77.0079 43.74C75.1706 44.572 73.0559 44.988 70.6639 44.988ZM117.151 44V35.576H115.747V26.424C115.747 24.968 115.4 23.876 114.707 23.148C114.014 22.42 112.904 22.056 111.379 22.056C110.616 22.056 109.611 22.0733 108.363 22.108C107.115 22.1427 105.832 22.1947 104.515 22.264C103.198 22.3333 102.002 22.4027 100.927 22.472V15.452C101.724 15.3827 102.66 15.3133 103.735 15.244C104.81 15.1747 105.919 15.1227 107.063 15.088C108.207 15.0533 109.282 15.036 110.287 15.036C113.199 15.036 115.643 15.452 117.619 16.284C119.63 17.116 121.155 18.3813 122.195 20.08C123.235 21.744 123.755 23.8933 123.755 26.528V44H117.151ZM108.051 44.728C106.006 44.728 104.203 44.364 102.643 43.636C101.118 42.908 99.9218 41.868 99.0551 40.516C98.1885 39.1293 97.7551 37.4827 97.7551 35.576C97.7551 33.496 98.2925 31.7973 99.3671 30.48C100.442 29.128 101.95 28.14 103.891 27.516C105.832 26.8573 108.068 26.528 110.599 26.528H116.683V31.156H110.547C109.091 31.156 107.964 31.52 107.167 32.248C106.404 32.9413 106.023 33.8947 106.023 35.108C106.023 36.252 106.404 37.188 107.167 37.916C107.964 38.6093 109.091 38.956 110.547 38.956C111.483 38.956 112.315 38.8 113.043 38.488C113.806 38.1413 114.43 37.5693 114.915 36.772C115.4 35.9747 115.678 34.8653 115.747 33.444L117.723 35.524C117.55 37.5 117.064 39.164 116.267 40.516C115.504 41.868 114.43 42.908 113.043 43.636C111.691 44.364 110.027 44.728 108.051 44.728ZM130.294 44V15.504H136.898V27.724H136.742C136.742 23.7027 137.591 20.6 139.29 18.416C141.023 16.232 143.519 15.14 146.778 15.14H147.87V22.316H145.79C143.502 22.316 141.734 22.94 140.486 24.188C139.238 25.4013 138.614 27.1693 138.614 29.492V44H130.294ZM164.56 44.988C162.134 44.988 159.984 44.572 158.112 43.74C156.275 42.908 154.732 41.7987 153.484 40.412C152.271 38.9907 151.335 37.4133 150.676 35.68C150.052 33.912 149.74 32.1093 149.74 30.272V29.232C149.74 27.3253 150.052 25.5053 150.676 23.772C151.335 22.004 152.271 20.4267 153.484 19.04C154.698 17.6533 156.206 16.5613 158.008 15.764C159.846 14.932 161.926 14.516 164.248 14.516C167.299 14.516 169.864 15.2093 171.944 16.596C174.059 17.948 175.671 19.7333 176.78 21.952C177.89 24.136 178.444 26.528 178.444 29.128V31.936H153.224V27.204H173.4L170.696 29.388C170.696 27.6893 170.454 26.2333 169.968 25.02C169.483 23.8067 168.755 22.888 167.784 22.264C166.848 21.6053 165.67 21.276 164.248 21.276C162.792 21.276 161.562 21.6053 160.556 22.264C159.551 22.9227 158.788 23.8933 158.268 25.176C157.748 26.424 157.488 27.9667 157.488 29.804C157.488 31.5027 157.731 32.9933 158.216 34.276C158.702 35.524 159.464 36.4947 160.504 37.188C161.544 37.8813 162.896 38.228 164.56 38.228C166.086 38.228 167.334 37.9333 168.304 37.344C169.275 36.7547 169.934 36.0267 170.28 35.16H177.924C177.508 37.0667 176.694 38.7653 175.48 40.256C174.267 41.7467 172.742 42.908 170.904 43.74C169.067 44.572 166.952 44.988 164.56 44.988Z"/>
<path d="M41.7 145.9C35.1 145.9 29.4333 144.767 24.7 142.5C19.9667 140.167 16.1 137.133 13.1 133.4C10.1 129.6 7.86667 125.533 6.4 121.2C5 116.8 4.3 112.533 4.3 108.4V106.2C4.3 101.667 5.03333 97.2 6.5 92.8C7.96667 88.3333 10.2 84.3 13.2 80.7C16.2667 77.1 20.1 74.2333 24.7 72.1C29.3667 69.9 34.8667 68.8 41.2 68.8C47.8 68.8 53.6333 70.0333 58.7 72.5C63.7667 74.9667 67.8 78.4 70.8 82.8C73.8667 87.1333 75.6667 92.2333 76.2 98.1H59.7C59.2333 95.1667 58.1667 92.6667 56.5 90.6C54.8333 88.5333 52.6667 86.9333 50 85.8C47.4 84.6667 44.4667 84.1 41.2 84.1C37.9333 84.1 35.0333 84.6667 32.5 85.8C29.9667 86.9333 27.8333 88.5333 26.1 90.6C24.4333 92.6667 23.1333 95.1333 22.2 98C21.3333 100.8 20.9 103.933 20.9 107.4C20.9 110.8 21.3333 113.933 22.2 116.8C23.1333 119.6 24.4667 122.067 26.2 124.2C28 126.267 30.2 127.867 32.8 129C35.4 130.067 38.3667 130.6 41.7 130.6C46.7667 130.6 51.0333 129.367 54.5 126.9C58.0333 124.433 60.1667 121.033 60.9 116.7H77.3C76.7 122.033 74.9 126.933 71.9 131.4C68.9667 135.8 64.9333 139.333 59.8 142C54.7333 144.6 48.7 145.9 41.7 145.9ZM86.2805 144V89.2H98.9805V112.7H98.6805C98.6805 104.967 100.314 99 103.58 94.8C106.914 90.6 111.714 88.5 117.98 88.5H120.08V102.3H116.08C111.68 102.3 108.28 103.5 105.88 105.9C103.48 108.233 102.28 111.633 102.28 116.1V144H86.2805ZM152.177 145.9C147.511 145.9 143.377 145.1 139.777 143.5C136.244 141.9 133.277 139.767 130.877 137.1C128.544 134.367 126.744 131.333 125.477 128C124.277 124.6 123.677 121.133 123.677 117.6V115.6C123.677 111.933 124.277 108.433 125.477 105.1C126.744 101.7 128.544 98.6667 130.877 96C133.211 93.3333 136.111 91.2333 139.577 89.7C143.111 88.1 147.111 87.3 151.577 87.3C157.444 87.3 162.377 88.6333 166.377 91.3C170.444 93.9 173.544 97.3333 175.677 101.6C177.811 105.8 178.877 110.4 178.877 115.4V120.8H130.377V111.7H169.177L163.977 115.9C163.977 112.633 163.511 109.833 162.577 107.5C161.644 105.167 160.244 103.4 158.377 102.2C156.577 100.933 154.311 100.3 151.577 100.3C148.777 100.3 146.411 100.933 144.477 102.2C142.544 103.467 141.077 105.333 140.077 107.8C139.077 110.2 138.577 113.167 138.577 116.7C138.577 119.967 139.044 122.833 139.977 125.3C140.911 127.7 142.377 129.567 144.377 130.9C146.377 132.233 148.977 132.9 152.177 132.9C155.111 132.9 157.511 132.333 159.377 131.2C161.244 130.067 162.511 128.667 163.177 127H177.877C177.077 130.667 175.511 133.933 173.177 136.8C170.844 139.667 167.911 141.9 164.377 143.5C160.844 145.1 156.777 145.9 152.177 145.9ZM221.58 144V127.8H218.88V110.2C218.88 107.4 218.213 105.3 216.88 103.9C215.546 102.5 213.413 101.8 210.48 101.8C209.013 101.8 207.08 101.833 204.68 101.9C202.28 101.967 199.813 102.067 197.28 102.2C194.746 102.333 192.446 102.467 190.38 102.6V89.1C191.913 88.9667 193.713 88.8333 195.78 88.7C197.846 88.5667 199.98 88.4667 202.18 88.4C204.38 88.3333 206.446 88.3 208.38 88.3C213.98 88.3 218.68 89.1 222.48 90.7C226.346 92.3 229.28 94.7333 231.28 98C233.28 101.2 234.28 105.333 234.28 110.4V144H221.58ZM204.08 145.4C200.146 145.4 196.68 144.7 193.68 143.3C190.746 141.9 188.446 139.9 186.78 137.3C185.113 134.633 184.28 131.467 184.28 127.8C184.28 123.8 185.313 120.533 187.38 118C189.446 115.4 192.346 113.5 196.08 112.3C199.813 111.033 204.113 110.4 208.98 110.4H220.68V119.3H208.88C206.08 119.3 203.913 120 202.38 121.4C200.913 122.733 200.18 124.567 200.18 126.9C200.18 129.1 200.913 130.9 202.38 132.3C203.913 133.633 206.08 134.3 208.88 134.3C210.68 134.3 212.28 134 213.68 133.4C215.146 132.733 216.346 131.633 217.28 130.1C218.213 128.567 218.746 126.433 218.88 123.7L222.68 127.7C222.346 131.5 221.413 134.7 219.88 137.3C218.413 139.9 216.346 141.9 213.68 143.3C211.08 144.7 207.88 145.4 204.08 145.4ZM271.755 144.7C266.221 144.7 261.755 144.033 258.355 142.7C254.955 141.3 252.455 139 250.855 135.8C249.321 132.533 248.555 128.133 248.555 122.6V74.4H263.455V123.2C263.455 125.8 264.121 127.8 265.455 129.2C266.855 130.533 268.821 131.2 271.355 131.2H279.455V144.7H271.755ZM240.255 100.9V89.2H279.455V100.9H240.255ZM315.719 145.9C310.919 145.9 306.652 145.167 302.919 143.7C299.185 142.167 296.019 140.1 293.419 137.5C290.885 134.9 288.952 131.933 287.619 128.6C286.285 125.2 285.619 121.633 285.619 117.9V115.6C285.619 111.8 286.285 108.2 287.619 104.8C289.019 101.333 291.019 98.3 293.619 95.7C296.285 93.1 299.485 91.0667 303.219 89.6C306.952 88.0667 311.119 87.3 315.719 87.3C320.452 87.3 324.652 88.0667 328.319 89.6C332.052 91.0667 335.219 93.1 337.819 95.7C340.419 98.3 342.419 101.333 343.819 104.8C345.219 108.2 345.919 111.8 345.919 115.6V117.9C345.919 121.633 345.252 125.2 343.919 128.6C342.585 131.933 340.619 134.9 338.019 137.5C335.485 140.1 332.352 142.167 328.619 143.7C324.885 145.167 320.585 145.9 315.719 145.9ZM315.719 132.4C318.852 132.4 321.452 131.733 323.519 130.4C325.585 129.067 327.152 127.2 328.219 124.8C329.352 122.4 329.919 119.733 329.919 116.8C329.919 113.667 329.352 110.933 328.219 108.6C327.085 106.2 325.452 104.3 323.319 102.9C321.252 101.5 318.719 100.8 315.719 100.8C312.785 100.8 310.252 101.5 308.119 102.9C305.985 104.3 304.352 106.2 303.219 108.6C302.152 110.933 301.619 113.667 301.619 116.8C301.619 119.733 302.152 122.4 303.219 124.8C304.285 127.2 305.885 129.067 308.019 130.4C310.152 131.733 312.719 132.4 315.719 132.4ZM356.085 144V89.2H368.785V112.7H368.485C368.485 104.967 370.118 99 373.385 94.8C376.718 90.6 381.518 88.5 387.785 88.5H389.885V102.3H385.885C381.485 102.3 378.085 103.5 375.685 105.9C373.285 108.233 372.085 111.633 372.085 116.1V144H356.085ZM417.975 145.7C410.175 145.7 404.075 144.1 399.675 140.9C395.275 137.7 392.942 133.2 392.675 127.4H406.875C407.142 129.133 408.175 130.7 409.975 132.1C411.842 133.433 414.608 134.1 418.275 134.1C421.075 134.1 423.375 133.633 425.175 132.7C427.042 131.7 427.975 130.3 427.975 128.5C427.975 126.9 427.275 125.633 425.875 124.7C424.475 123.7 421.975 123 418.375 122.6L414.075 122.2C407.475 121.533 402.508 119.7 399.175 116.7C395.908 113.7 394.275 109.867 394.275 105.2C394.275 101.333 395.242 98.1 397.175 95.5C399.108 92.9 401.775 90.9333 405.175 89.6C408.642 88.2667 412.575 87.6 416.975 87.6C424.042 87.6 429.742 89.1667 434.075 92.3C438.408 95.3667 440.675 99.8333 440.875 105.7H426.675C426.408 103.9 425.475 102.4 423.875 101.2C422.275 99.9333 419.908 99.3 416.775 99.3C414.308 99.3 412.342 99.7667 410.875 100.7C409.408 101.633 408.675 102.9 408.675 104.5C408.675 106.033 409.308 107.2 410.575 108C411.842 108.8 413.908 109.367 416.775 109.7L421.075 110.1C427.808 110.833 433.042 112.7 436.775 115.7C440.508 118.7 442.375 122.733 442.375 127.8C442.375 131.467 441.375 134.667 439.375 137.4C437.375 140.067 434.542 142.133 430.875 143.6C427.208 145 422.908 145.7 417.975 145.7Z"/>
</mask>
<path d="M10.452 44L1.092 6.04H9.88L17.212 38.28L15.392 37.084H20.124L18.096 38.28L23.764 7.444H30.836L23.4 44H10.452ZM33.072 44L25.064 7.444H32.5L39.052 38.28L37.076 37.084H41.6L39.884 38.28L46.28 6.04H54.6L46.28 44H33.072ZM70.6639 44.988C68.2373 44.988 66.0879 44.572 64.2159 43.74C62.3786 42.908 60.8359 41.7987 59.5879 40.412C58.3746 38.9907 57.4386 37.4133 56.7799 35.68C56.1559 33.912 55.8439 32.1093 55.8439 30.272V29.232C55.8439 27.3253 56.1559 25.5053 56.7799 23.772C57.4386 22.004 58.3746 20.4267 59.5879 19.04C60.8013 17.6533 62.3093 16.5613 64.1119 15.764C65.9493 14.932 68.0293 14.516 70.3519 14.516C73.4026 14.516 75.9679 15.2093 78.0479 16.596C80.1626 17.948 81.7746 19.7333 82.8839 21.952C83.9933 24.136 84.5479 26.528 84.5479 29.128V31.936H59.3279V27.204H79.5039L76.7999 29.388C76.7999 27.6893 76.5573 26.2333 76.0719 25.02C75.5866 23.8067 74.8586 22.888 73.8879 22.264C72.9519 21.6053 71.7733 21.276 70.3519 21.276C68.8959 21.276 67.6653 21.6053 66.6599 22.264C65.6546 22.9227 64.8919 23.8933 64.3719 25.176C63.8519 26.424 63.5919 27.9667 63.5919 29.804C63.5919 31.5027 63.8346 32.9933 64.3199 34.276C64.8053 35.524 65.5679 36.4947 66.6079 37.188C67.6479 37.8813 68.9999 38.228 70.6639 38.228C72.1893 38.228 73.4373 37.9333 74.4079 37.344C75.3786 36.7547 76.0373 36.0267 76.3839 35.16H84.0279C83.6119 37.0667 82.7973 38.7653 81.5839 40.256C80.3706 41.7467 78.8453 42.908 77.0079 43.74C75.1706 44.572 73.0559 44.988 70.6639 44.988ZM117.151 44V35.576H115.747V26.424C115.747 24.968 115.4 23.876 114.707 23.148C114.014 22.42 112.904 22.056 111.379 22.056C110.616 22.056 109.611 22.0733 108.363 22.108C107.115 22.1427 105.832 22.1947 104.515 22.264C103.198 22.3333 102.002 22.4027 100.927 22.472V15.452C101.724 15.3827 102.66 15.3133 103.735 15.244C104.81 15.1747 105.919 15.1227 107.063 15.088C108.207 15.0533 109.282 15.036 110.287 15.036C113.199 15.036 115.643 15.452 117.619 16.284C119.63 17.116 121.155 18.3813 122.195 20.08C123.235 21.744 123.755 23.8933 123.755 26.528V44H117.151ZM108.051 44.728C106.006 44.728 104.203 44.364 102.643 43.636C101.118 42.908 99.9218 41.868 99.0551 40.516C98.1885 39.1293 97.7551 37.4827 97.7551 35.576C97.7551 33.496 98.2925 31.7973 99.3671 30.48C100.442 29.128 101.95 28.14 103.891 27.516C105.832 26.8573 108.068 26.528 110.599 26.528H116.683V31.156H110.547C109.091 31.156 107.964 31.52 107.167 32.248C106.404 32.9413 106.023 33.8947 106.023 35.108C106.023 36.252 106.404 37.188 107.167 37.916C107.964 38.6093 109.091 38.956 110.547 38.956C111.483 38.956 112.315 38.8 113.043 38.488C113.806 38.1413 114.43 37.5693 114.915 36.772C115.4 35.9747 115.678 34.8653 115.747 33.444L117.723 35.524C117.55 37.5 117.064 39.164 116.267 40.516C115.504 41.868 114.43 42.908 113.043 43.636C111.691 44.364 110.027 44.728 108.051 44.728ZM130.294 44V15.504H136.898V27.724H136.742C136.742 23.7027 137.591 20.6 139.29 18.416C141.023 16.232 143.519 15.14 146.778 15.14H147.87V22.316H145.79C143.502 22.316 141.734 22.94 140.486 24.188C139.238 25.4013 138.614 27.1693 138.614 29.492V44H130.294ZM164.56 44.988C162.134 44.988 159.984 44.572 158.112 43.74C156.275 42.908 154.732 41.7987 153.484 40.412C152.271 38.9907 151.335 37.4133 150.676 35.68C150.052 33.912 149.74 32.1093 149.74 30.272V29.232C149.74 27.3253 150.052 25.5053 150.676 23.772C151.335 22.004 152.271 20.4267 153.484 19.04C154.698 17.6533 156.206 16.5613 158.008 15.764C159.846 14.932 161.926 14.516 164.248 14.516C167.299 14.516 169.864 15.2093 171.944 16.596C174.059 17.948 175.671 19.7333 176.78 21.952C177.89 24.136 178.444 26.528 178.444 29.128V31.936H153.224V27.204H173.4L170.696 29.388C170.696 27.6893 170.454 26.2333 169.968 25.02C169.483 23.8067 168.755 22.888 167.784 22.264C166.848 21.6053 165.67 21.276 164.248 21.276C162.792 21.276 161.562 21.6053 160.556 22.264C159.551 22.9227 158.788 23.8933 158.268 25.176C157.748 26.424 157.488 27.9667 157.488 29.804C157.488 31.5027 157.731 32.9933 158.216 34.276C158.702 35.524 159.464 36.4947 160.504 37.188C161.544 37.8813 162.896 38.228 164.56 38.228C166.086 38.228 167.334 37.9333 168.304 37.344C169.275 36.7547 169.934 36.0267 170.28 35.16H177.924C177.508 37.0667 176.694 38.7653 175.48 40.256C174.267 41.7467 172.742 42.908 170.904 43.74C169.067 44.572 166.952 44.988 164.56 44.988Z" fill="#F9F9F9"/>
<path d="M10.452 44L9.48108 44.2394L9.66862 45H10.452V44ZM1.092 6.04V5.04H-0.184526L0.12108 6.2794L1.092 6.04ZM9.88 6.04L10.8551 5.81824L10.6781 5.04H9.88V6.04ZM17.212 38.28L16.6628 39.1157L18.7377 40.4792L18.1871 38.0582L17.212 38.28ZM15.392 37.084V36.084H12.0494L14.8428 37.9197L15.392 37.084ZM20.124 37.084L20.632 37.9454L23.7882 36.084H20.124V37.084ZM18.096 38.28L17.1125 38.0992L16.7163 40.2546L18.604 39.1414L18.096 38.28ZM23.764 7.444V6.444H22.9311L22.7805 7.26322L23.764 7.444ZM30.836 7.444L31.8159 7.64333L32.0599 6.444H30.836V7.444ZM23.4 44V45H24.2171L24.3799 44.1993L23.4 44ZM33.072 44L32.0952 44.214L32.2673 45H33.072V44ZM25.064 7.444V6.444H23.8212L24.0872 7.65799L25.064 7.444ZM32.5 7.444L33.4782 7.23616L33.3098 6.444H32.5V7.444ZM39.052 38.28L38.5342 39.1355L40.5102 40.3315L40.0302 38.0722L39.052 38.28ZM37.076 37.084V36.084H33.4926L36.5582 37.9395L37.076 37.084ZM41.6 37.084L42.1718 37.9044L44.7837 36.084H41.6V37.084ZM39.884 38.28L38.9031 38.0854L38.4203 40.5191L40.4558 39.1004L39.884 38.28ZM46.28 6.04V5.04H45.4589L45.2991 5.8454L46.28 6.04ZM54.6 6.04L55.5768 6.2541L55.8429 5.04H54.6V6.04ZM46.28 44V45H47.0846L47.2568 44.2141L46.28 44ZM11.4229 43.7606L2.06292 5.80059L0.12108 6.2794L9.48108 44.2394L11.4229 43.7606ZM1.092 7.04H9.88V5.04H1.092V7.04ZM8.9049 6.26176L16.2369 38.5018L18.1871 38.0582L10.8551 5.81824L8.9049 6.26176ZM17.7612 37.4443L15.9412 36.2483L14.8428 37.9197L16.6628 39.1157L17.7612 37.4443ZM15.392 38.084H20.124V36.084H15.392V38.084ZM19.616 36.2226L17.588 37.4186L18.604 39.1414L20.632 37.9454L19.616 36.2226ZM19.0795 38.4608L24.7475 7.62478L22.7805 7.26322L17.1125 38.0992L19.0795 38.4608ZM23.764 8.444H30.836V6.444H23.764V8.444ZM29.8561 7.24467L22.4201 43.8007L24.3799 44.1993L31.8159 7.64333L29.8561 7.24467ZM23.4 43H10.452V45H23.4V43ZM34.0488 43.786L26.0408 7.23001L24.0872 7.65799L32.0952 44.214L34.0488 43.786ZM25.064 8.444H32.5V6.444H25.064V8.444ZM31.5218 7.65184L38.0738 38.4878L40.0302 38.0722L33.4782 7.23616L31.5218 7.65184ZM39.5698 37.4245L37.5938 36.2285L36.5582 37.9395L38.5342 39.1355L39.5698 37.4245ZM37.076 38.084H41.6V36.084H37.076V38.084ZM41.0282 36.2636L39.3122 37.4596L40.4558 39.1004L42.1718 37.9044L41.0282 36.2636ZM40.8649 38.4746L47.2609 6.23459L45.2991 5.8454L38.9031 38.0854L40.8649 38.4746ZM46.28 7.04H54.6V5.04H46.28V7.04ZM53.6232 5.8259L45.3032 43.7859L47.2568 44.2141L55.5768 6.2541L53.6232 5.8259ZM46.28 43H33.072V45H46.28V43ZM64.2159 43.74L63.8034 44.651L63.8098 44.6538L64.2159 43.74ZM59.5879 40.412L58.8274 41.0613L58.8359 41.0712L58.8446 41.081L59.5879 40.412ZM56.7799 35.68L55.8369 36.0128L55.8409 36.0241L55.8452 36.0352L56.7799 35.68ZM56.7799 23.772L55.8428 23.4229L55.8391 23.4333L56.7799 23.772ZM59.5879 19.04L60.3405 19.6985L59.5879 19.04ZM64.1119 15.764L64.5165 16.6786L64.5244 16.675L64.1119 15.764ZM78.0479 16.596L77.4932 17.428L77.5012 17.4334L77.5093 17.4385L78.0479 16.596ZM82.8839 21.952L81.9895 22.3992L81.9924 22.4049L82.8839 21.952ZM84.5479 31.936V32.936H85.5479V31.936H84.5479ZM59.3279 31.936H58.3279V32.936H59.3279V31.936ZM59.3279 27.204V26.204H58.3279V27.204H59.3279ZM79.5039 27.204L80.1323 27.9819L82.3335 26.204H79.5039V27.204ZM76.7999 29.388H75.7999V31.4811L77.4283 30.1659L76.7999 29.388ZM73.8879 22.264L73.3124 23.0818L73.3296 23.0939L73.3472 23.1052L73.8879 22.264ZM66.6599 22.264L66.1119 21.4275L66.6599 22.264ZM64.3719 25.176L65.2951 25.5606L65.2987 25.5517L64.3719 25.176ZM64.3199 34.276L63.3846 34.6299L63.3879 34.6384L64.3199 34.276ZM66.6079 37.188L66.0532 38.0201L66.6079 37.188ZM74.4079 37.344L74.9269 38.1988L74.4079 37.344ZM76.3839 35.16V34.16H75.7069L75.4555 34.7886L76.3839 35.16ZM84.0279 35.16L85.005 35.3732L85.2696 34.16H84.0279V35.16ZM81.5839 40.256L82.3595 40.8873H82.3595L81.5839 40.256ZM77.0079 43.74L76.5954 42.829L77.0079 43.74ZM70.6639 43.988C68.3517 43.988 66.3448 43.5919 64.6221 42.8262L63.8098 44.6538C65.831 45.5521 68.1228 45.988 70.6639 45.988V43.988ZM64.6284 42.829C62.9066 42.0493 61.4796 41.019 60.3312 39.743L58.8446 41.081C60.1923 42.5784 61.8506 43.7667 63.8034 44.651L64.6284 42.829ZM60.3485 39.7627C59.2091 38.428 58.3323 36.95 57.7147 35.3248L55.8452 36.0352C56.5449 37.8767 57.5401 39.5533 58.8274 41.0613L60.3485 39.7627ZM57.7229 35.3472C57.1359 33.6839 56.8439 31.9936 56.8439 30.272H54.8439C54.8439 32.225 55.176 34.1401 55.8369 36.0128L57.7229 35.3472ZM56.8439 30.272V29.232H54.8439V30.272H56.8439ZM56.8439 29.232C56.8439 27.4367 57.1373 25.7316 57.7208 24.1107L55.8391 23.4333C55.1746 25.279 54.8439 27.214 54.8439 29.232H56.8439ZM57.717 24.1211C58.3345 22.4638 59.2088 20.9919 60.3405 19.6985L58.8354 18.3815C57.5404 19.8615 56.5428 21.5442 55.8429 23.4229L57.717 24.1211ZM60.3405 19.6985C61.4513 18.4291 62.8376 17.4211 64.5164 16.6785L63.7074 14.8495C61.7809 15.7016 60.1513 16.8776 58.8354 18.3815L60.3405 19.6985ZM64.5244 16.675C66.2139 15.9099 68.1501 15.516 70.3519 15.516V13.516C67.9085 13.516 65.6846 13.9541 63.6994 14.853L64.5244 16.675ZM70.3519 15.516C73.2491 15.516 75.6106 16.173 77.4932 17.428L78.6026 15.7639C76.3253 14.2457 73.5561 13.516 70.3519 13.516V15.516ZM77.5093 17.4385C79.4737 18.6945 80.9619 20.344 81.9895 22.3992L83.7784 21.5048C82.5873 19.1226 80.8515 17.2015 78.5866 15.7535L77.5093 17.4385ZM81.9924 22.4049C83.0261 24.44 83.5479 26.6755 83.5479 29.128H85.5479C85.5479 26.3805 84.9605 23.832 83.7755 21.4991L81.9924 22.4049ZM83.5479 29.128V31.936H85.5479V29.128H83.5479ZM84.5479 30.936H59.3279V32.936H84.5479V30.936ZM60.3279 31.936V27.204H58.3279V31.936H60.3279ZM59.3279 28.204H79.5039V26.204H59.3279V28.204ZM78.8756 26.4261L76.1716 28.6101L77.4283 30.1659L80.1323 27.9819L78.8756 26.4261ZM77.7999 29.388C77.7999 27.5984 77.5448 26.0096 77.0004 24.6486L75.1435 25.3914C75.5697 26.457 75.7999 27.7802 75.7999 29.388H77.7999ZM77.0004 24.6486C76.4485 23.2688 75.597 22.1739 74.4287 21.4228L73.3472 23.1052C74.1202 23.6021 74.7247 24.3445 75.1435 25.3914L77.0004 24.6486ZM74.4634 21.4462C73.322 20.643 71.929 20.276 70.3519 20.276V22.276C71.6176 22.276 72.5819 22.5677 73.3124 23.0818L74.4634 21.4462ZM70.3519 20.276C68.7428 20.276 67.3117 20.6415 66.1119 21.4275L67.208 23.1005C68.0188 22.5692 69.0491 22.276 70.3519 22.276V20.276ZM66.1119 21.4275C64.9116 22.2139 64.0297 23.3586 63.4452 24.8003L65.2987 25.5517C65.7542 24.4281 66.3976 23.6314 67.208 23.1005L66.1119 21.4275ZM63.4489 24.7914C62.8634 26.1965 62.5919 27.8792 62.5919 29.804H64.5919C64.5919 28.0542 64.8405 26.6515 65.295 25.5606L63.4489 24.7914ZM62.5919 29.804C62.5919 31.5957 62.8477 33.2108 63.3847 34.6299L65.2552 33.9221C64.8215 32.7759 64.5919 31.4096 64.5919 29.804H62.5919ZM63.3879 34.6384C63.9422 36.0636 64.8298 37.2044 66.0532 38.0201L67.1626 36.3559C66.3061 35.7849 65.6684 34.9844 65.2519 33.9136L63.3879 34.6384ZM66.0532 38.0201C67.3038 38.8538 68.8666 39.228 70.6639 39.228V37.228C69.1332 37.228 67.9921 36.9089 67.1626 36.3559L66.0532 38.0201ZM70.6639 39.228C72.3114 39.228 73.7549 38.9104 74.9269 38.1988L73.889 36.4892C73.1197 36.9563 72.0671 37.228 70.6639 37.228V39.228ZM74.9269 38.1988C76.0418 37.5219 76.8691 36.6398 77.3124 35.5314L75.4555 34.7886C75.2055 35.4135 74.7154 35.9874 73.889 36.4892L74.9269 38.1988ZM76.3839 36.16H84.0279V34.16H76.3839V36.16ZM83.0509 34.9468C82.6678 36.7027 81.9211 38.2576 80.8084 39.6247L82.3595 40.8873C83.6734 39.273 84.5561 37.4306 85.005 35.3732L83.0509 34.9468ZM80.8084 39.6247C79.6976 40.9894 78.2989 42.0577 76.5954 42.829L77.4204 44.651C79.3917 43.7583 81.0436 42.504 82.3595 40.8873L80.8084 39.6247ZM76.5954 42.829C74.9095 43.5925 72.9398 43.988 70.6639 43.988V45.988C73.1721 45.988 75.4317 45.5515 77.4204 44.651L76.5954 42.829ZM117.151 44H116.151V45H117.151V44ZM117.151 35.576H118.151V34.576H117.151V35.576ZM115.747 35.576H114.747V36.576H115.747V35.576ZM114.707 23.148L115.431 22.4583L114.707 23.148ZM108.363 22.108L108.335 21.1084H108.335L108.363 22.108ZM104.515 22.264L104.568 23.2626L104.515 22.264ZM100.927 22.472H99.9271V23.5386L100.992 23.4699L100.927 22.472ZM100.927 15.452L100.84 14.4558L99.9271 14.5352V15.452H100.927ZM103.735 15.244L103.671 14.2461L103.735 15.244ZM107.063 15.088L107.033 14.0885L107.063 15.088ZM117.619 16.284L117.231 17.2057L117.237 17.208L117.619 16.284ZM122.195 20.08L121.342 20.6022L121.347 20.61L122.195 20.08ZM123.755 44V45H124.755V44H123.755ZM102.643 43.636L102.212 44.5385L102.22 44.5422L102.643 43.636ZM99.0551 40.516L98.2071 41.046L98.2132 41.0557L99.0551 40.516ZM99.3671 30.48L100.142 31.1122L100.15 31.1022L99.3671 30.48ZM103.891 27.516L104.197 28.468L104.205 28.4656L104.212 28.463L103.891 27.516ZM116.683 26.528H117.683V25.528H116.683V26.528ZM116.683 31.156V32.156H117.683V31.156H116.683ZM107.167 32.248L107.84 32.9879L107.841 32.9865L107.167 32.248ZM107.167 37.916L106.477 38.6394L106.493 38.6554L106.511 38.6706L107.167 37.916ZM113.043 38.488L113.437 39.4071L113.447 39.4029L113.457 39.3984L113.043 38.488ZM114.915 36.772L115.769 37.2919L114.915 36.772ZM115.747 33.444L116.472 32.7552L114.862 31.0606L114.748 33.3953L115.747 33.444ZM117.723 35.524L118.719 35.6114L118.759 35.1622L118.448 34.8353L117.723 35.524ZM116.267 40.516L115.406 40.008L115.401 40.0163L115.396 40.0247L116.267 40.516ZM113.043 43.636L112.578 42.7506L112.569 42.7555L113.043 43.636ZM118.151 44V35.576H116.151V44H118.151ZM117.151 34.576H115.747V36.576H117.151V34.576ZM116.747 35.576V26.424H114.747V35.576H116.747ZM116.747 26.424C116.747 24.8257 116.367 23.4413 115.431 22.4583L113.983 23.8377C114.434 24.3107 114.747 25.1103 114.747 26.424H116.747ZM115.431 22.4583C114.47 21.4495 113.038 21.056 111.379 21.056V23.056C112.771 23.056 113.557 23.3905 113.983 23.8377L115.431 22.4583ZM111.379 21.056C110.603 21.056 109.588 21.0736 108.335 21.1084L108.391 23.1076C109.635 23.0731 110.63 23.056 111.379 23.056V21.056ZM108.335 21.1084C107.079 21.1433 105.788 21.1956 104.463 21.2654L104.568 23.2626C105.877 23.1937 107.152 23.142 108.391 23.1076L108.335 21.1084ZM104.463 21.2654C103.142 21.3349 101.942 21.4044 100.863 21.4741L100.992 23.4699C102.061 23.4009 103.253 23.3318 104.568 23.2626L104.463 21.2654ZM101.927 22.472V15.452H99.9271V22.472H101.927ZM101.014 16.4482C101.802 16.3797 102.73 16.3109 103.8 16.2419L103.671 14.2461C102.591 14.3157 101.647 14.3856 100.84 14.4558L101.014 16.4482ZM103.8 16.2419C104.862 16.1734 105.96 16.1219 107.093 16.0875L107.033 14.0885C105.878 14.1234 104.757 14.176 103.671 14.2461L103.8 16.2419ZM107.093 16.0875C108.229 16.0531 109.293 16.036 110.287 16.036V14.036C109.27 14.036 108.186 14.0535 107.033 14.0885L107.093 16.0875ZM110.287 16.036C113.111 16.036 115.413 16.4403 117.231 17.2056L118.007 15.3624C115.873 14.4637 113.288 14.036 110.287 14.036V16.036ZM117.237 17.208C119.071 17.9671 120.423 19.1006 121.342 20.6022L123.048 19.5578C121.887 17.662 120.188 16.2649 118.001 15.36L117.237 17.208ZM121.347 20.61C122.259 22.0694 122.755 24.0184 122.755 26.528H124.755C124.755 23.7683 124.211 21.4186 123.043 19.55L121.347 20.61ZM122.755 26.528V44H124.755V26.528H122.755ZM123.755 43H117.151V45H123.755V43ZM108.051 43.728C106.125 43.728 104.471 43.3855 103.066 42.7298L102.22 44.5422C103.935 45.3425 105.887 45.728 108.051 45.728V43.728ZM103.074 42.7335C101.707 42.0814 100.658 41.1631 99.897 39.9763L98.2132 41.0557C99.1859 42.5729 100.528 43.7346 102.212 44.5385L103.074 42.7335ZM99.9031 39.986C99.1513 38.7831 98.7551 37.3269 98.7551 35.576H96.7551C96.7551 37.6384 97.2256 39.4755 98.2071 41.046L99.9031 39.986ZM98.7551 35.576C98.7551 33.6732 99.2433 32.2137 100.142 31.1121L98.5923 29.8479C97.3416 31.381 96.7551 33.3188 96.7551 35.576H98.7551ZM100.15 31.1022C101.081 29.9311 102.409 29.0427 104.197 28.468L103.585 26.564C101.49 27.2373 99.8027 28.3249 98.5843 29.8578L100.15 31.1022ZM104.212 28.463C106.029 27.8465 108.153 27.528 110.599 27.528V25.528C107.984 25.528 105.636 25.8681 103.57 26.569L104.212 28.463ZM110.599 27.528H116.683V25.528H110.599V27.528ZM115.683 26.528V31.156H117.683V26.528H115.683ZM116.683 30.156H110.547V32.156H116.683V30.156ZM110.547 30.156C108.93 30.156 107.531 30.562 106.493 31.5095L107.841 32.9865C108.398 32.478 109.252 32.156 110.547 32.156V30.156ZM106.494 31.5081C105.486 32.4248 105.023 33.6675 105.023 35.108H107.023C107.023 34.1218 107.323 33.4579 107.84 32.9879L106.494 31.5081ZM105.023 35.108C105.023 36.4995 105.498 37.7055 106.477 38.6394L107.858 37.1926C107.311 36.6705 107.023 36.0045 107.023 35.108H105.023ZM106.511 38.6706C107.549 39.5732 108.941 39.956 110.547 39.956V37.956C109.241 37.956 108.38 37.6455 107.823 37.1614L106.511 38.6706ZM110.547 39.956C111.594 39.956 112.564 39.7813 113.437 39.4071L112.649 37.5689C112.066 37.8187 111.372 37.956 110.547 37.956V39.956ZM113.457 39.3984C114.423 38.9593 115.192 38.2403 115.769 37.2919L114.061 36.2521C113.668 36.8984 113.189 37.3233 112.629 37.5776L113.457 39.3984ZM115.769 37.2919C116.375 36.2965 116.672 35.0007 116.746 33.4927L114.748 33.3953C114.683 34.73 114.426 35.6528 114.061 36.2521L115.769 37.2919ZM115.022 34.1327L116.998 36.2127L118.448 34.8353L116.472 32.7552L115.022 34.1327ZM116.727 35.4366C116.563 37.3021 116.11 38.8137 115.406 40.008L117.128 41.024C118.019 39.5143 118.536 37.6979 118.719 35.6114L116.727 35.4366ZM115.396 40.0247C114.729 41.2074 113.796 42.1113 112.578 42.7506L113.508 44.5214C115.064 43.7047 116.28 42.5286 117.138 41.0073L115.396 40.0247ZM112.569 42.7555C111.399 43.3858 109.908 43.728 108.051 43.728V45.728C110.146 45.728 111.984 45.3422 113.517 44.5165L112.569 42.7555ZM130.294 44H129.294V45H130.294V44ZM130.294 15.504V14.504H129.294V15.504H130.294ZM136.898 15.504H137.898V14.504H136.898V15.504ZM136.898 27.724V28.724H137.898V27.724H136.898ZM136.742 27.724H135.742V28.724H136.742V27.724ZM139.29 18.416L138.507 17.7943L138.501 17.8021L139.29 18.416ZM147.87 15.14H148.87V14.14H147.87V15.14ZM147.87 22.316V23.316H148.87V22.316H147.87ZM140.486 24.188L141.183 24.9051L141.193 24.8951L140.486 24.188ZM138.614 44V45H139.614V44H138.614ZM131.294 44V15.504H129.294V44H131.294ZM130.294 16.504H136.898V14.504H130.294V16.504ZM135.898 15.504V27.724H137.898V15.504H135.898ZM136.898 26.724H136.742V28.724H136.898V26.724ZM137.742 27.724C137.742 23.8276 138.567 20.9745 140.079 19.0299L138.501 17.8021C136.616 20.2255 135.742 23.5777 135.742 27.724H137.742ZM140.073 19.0377C141.584 17.1345 143.767 16.14 146.778 16.14V14.14C143.272 14.14 140.463 15.3295 138.507 17.7943L140.073 19.0377ZM146.778 16.14H147.87V14.14H146.778V16.14ZM146.87 15.14V22.316H148.87V15.14H146.87ZM147.87 21.316H145.79V23.316H147.87V21.316ZM145.79 21.316C143.319 21.316 141.266 21.9944 139.779 23.4809L141.193 24.8951C142.203 23.8856 143.685 23.316 145.79 23.316V21.316ZM139.789 23.471C138.289 24.9292 137.614 26.9929 137.614 29.492H139.614C139.614 27.3457 140.187 25.8735 141.183 24.905L139.789 23.471ZM137.614 29.492V44H139.614V29.492H137.614ZM138.614 43H130.294V45H138.614V43ZM158.112 43.74L157.7 44.651L157.706 44.6538L158.112 43.74ZM153.484 40.412L152.724 41.0613L152.732 41.0712L152.741 41.081L153.484 40.412ZM150.676 35.68L149.734 36.0128L149.737 36.0241L149.742 36.0352L150.676 35.68ZM150.676 23.772L149.739 23.4229L149.736 23.4333L150.676 23.772ZM153.484 19.04L154.237 19.6985L153.484 19.04ZM158.008 15.764L158.413 16.6786L158.421 16.675L158.008 15.764ZM171.944 16.596L171.39 17.428L171.398 17.4334L171.406 17.4385L171.944 16.596ZM176.78 21.952L175.886 22.3992L175.889 22.4049L176.78 21.952ZM178.444 31.936V32.936H179.444V31.936H178.444ZM153.224 31.936H152.224V32.936H153.224V31.936ZM153.224 27.204V26.204H152.224V27.204H153.224ZM173.4 27.204L174.029 27.9819L176.23 26.204H173.4V27.204ZM170.697 29.388H169.697V31.4811L171.325 30.1659L170.697 29.388ZM167.785 22.264L167.209 23.0818L167.226 23.0939L167.244 23.1052L167.785 22.264ZM160.556 22.264L160.008 21.4275L160.556 22.264ZM158.268 25.176L159.192 25.5606L159.195 25.5517L158.268 25.176ZM158.216 34.276L157.281 34.6299L157.284 34.6384L158.216 34.276ZM160.505 37.188L159.95 38.0201L160.505 37.188ZM168.304 37.344L168.823 38.1988L168.304 37.344ZM170.28 35.16V34.16H169.603L169.352 34.7886L170.28 35.16ZM177.924 35.16L178.902 35.3732L179.166 34.16H177.924V35.16ZM175.48 40.256L176.256 40.8873L175.48 40.256ZM170.904 43.74L170.492 42.829L170.904 43.74ZM164.561 43.988C162.248 43.988 160.241 43.5919 158.519 42.8262L157.706 44.6538C159.728 45.5521 162.019 45.988 164.561 45.988V43.988ZM158.525 42.829C156.803 42.0493 155.376 41.019 154.228 39.743L152.741 41.081C154.089 42.5784 155.747 43.7667 157.7 44.651L158.525 42.829ZM154.245 39.7627C153.106 38.428 152.229 36.95 151.611 35.3248L149.742 36.0352C150.441 37.8767 151.437 39.5533 152.724 41.0613L154.245 39.7627ZM151.619 35.3472C151.032 33.6839 150.74 31.9936 150.74 30.272H148.74C148.74 32.225 149.073 34.1401 149.734 36.0128L151.619 35.3472ZM150.74 30.272V29.232H148.74V30.272H150.74ZM150.74 29.232C150.74 27.4367 151.034 25.7316 151.617 24.1107L149.736 23.4333C149.071 25.279 148.74 27.214 148.74 29.232H150.74ZM151.614 24.1211C152.231 22.4638 153.105 20.9919 154.237 19.6985L152.732 18.3815C151.437 19.8615 150.439 21.5442 149.739 23.4229L151.614 24.1211ZM154.237 19.6985C155.348 18.4291 156.734 17.4211 158.413 16.6785L157.604 14.8495C155.678 15.7016 154.048 16.8776 152.732 18.3815L154.237 19.6985ZM158.421 16.675C160.111 15.9099 162.047 15.516 164.248 15.516V13.516C161.805 13.516 159.581 13.9541 157.596 14.853L158.421 16.675ZM164.248 15.516C167.146 15.516 169.507 16.173 171.39 17.428L172.499 15.7639C170.222 14.2457 167.453 13.516 164.248 13.516V15.516ZM171.406 17.4385C173.37 18.6945 174.858 20.344 175.886 22.3992L177.675 21.5048C176.484 19.1226 174.748 17.2015 172.483 15.7535L171.406 17.4385ZM175.889 22.4049C176.923 24.44 177.444 26.6755 177.444 29.128H179.444C179.444 26.3805 178.857 23.832 177.672 21.4991L175.889 22.4049ZM177.444 29.128V31.936H179.444V29.128H177.444ZM178.444 30.936H153.224V32.936H178.444V30.936ZM154.224 31.936V27.204H152.224V31.936H154.224ZM153.224 28.204H173.4V26.204H153.224V28.204ZM172.772 26.4261L170.068 28.6101L171.325 30.1659L174.029 27.9819L172.772 26.4261ZM171.697 29.388C171.697 27.5984 171.441 26.0096 170.897 24.6486L169.04 25.3914C169.466 26.457 169.697 27.7802 169.697 29.388H171.697ZM170.897 24.6486C170.345 23.2688 169.494 22.1739 168.325 21.4228L167.244 23.1052C168.017 23.6021 168.621 24.3445 169.04 25.3914L170.897 24.6486ZM168.36 21.4462C167.219 20.643 165.826 20.276 164.248 20.276V22.276C165.514 22.276 166.478 22.5677 167.209 23.0818L168.36 21.4462ZM164.248 20.276C162.639 20.276 161.208 20.6415 160.008 21.4275L161.105 23.1005C161.915 22.5692 162.946 22.276 164.248 22.276V20.276ZM160.008 21.4275C158.808 22.2139 157.926 23.3586 157.342 24.8003L159.195 25.5517C159.651 24.4281 160.294 23.6314 161.105 23.1005L160.008 21.4275ZM157.345 24.7914C156.76 26.1965 156.488 27.8792 156.488 29.804H158.488C158.488 28.0542 158.737 26.6515 159.192 25.5606L157.345 24.7914ZM156.488 29.804C156.488 31.5957 156.744 33.2108 157.281 34.6299L159.152 33.9221C158.718 32.7759 158.488 31.4096 158.488 29.804H156.488ZM157.284 34.6384C157.839 36.0636 158.726 37.2044 159.95 38.0201L161.059 36.3559C160.203 35.7849 159.565 34.9844 159.148 33.9136L157.284 34.6384ZM159.95 38.0201C161.2 38.8538 162.763 39.228 164.561 39.228V37.228C163.03 37.228 161.889 36.9089 161.059 36.3559L159.95 38.0201ZM164.561 39.228C166.208 39.228 167.651 38.9104 168.823 38.1988L167.786 36.4892C167.016 36.9563 165.964 37.228 164.561 37.228V39.228ZM168.823 38.1988C169.938 37.5219 170.766 36.6398 171.209 35.5314L169.352 34.7886C169.102 35.4135 168.612 35.9874 167.786 36.4892L168.823 38.1988ZM170.28 36.16H177.924V34.16H170.28V36.16ZM176.947 34.9468C176.564 36.7027 175.818 38.2576 174.705 39.6247L176.256 40.8873C177.57 39.273 178.453 37.4306 178.902 35.3732L176.947 34.9468ZM174.705 39.6247C173.594 40.9894 172.195 42.0577 170.492 42.829L171.317 44.651C173.288 43.7583 174.94 42.504 176.256 40.8873L174.705 39.6247ZM170.492 42.829C168.806 43.5925 166.836 43.988 164.561 43.988V45.988C167.069 45.988 169.328 45.5515 171.317 44.651L170.492 42.829ZM24.7 142.5L24.2578 143.397L24.2681 143.402L24.7 142.5ZM13.1 133.4L12.3151 134.02L12.3205 134.026L13.1 133.4ZM6.4 121.2L5.44707 121.503L5.44985 121.512L5.45278 121.521L6.4 121.2ZM6.5 92.8L7.44869 93.1162L7.45009 93.112L6.5 92.8ZM13.2 80.7L12.4387 80.0515L12.4318 80.0598L13.2 80.7ZM24.7 72.1L25.1207 73.0072L25.1264 73.0045L24.7 72.1ZM58.7 72.5L58.2623 73.3991L58.7 72.5ZM70.8 82.8L69.9738 83.3633L69.9787 83.3705L69.9837 83.3777L70.8 82.8ZM76.2 98.1V99.1H77.295L77.1959 98.0095L76.2 98.1ZM59.7 98.1L58.7124 98.2571L58.8465 99.1H59.7V98.1ZM56.5 90.6L55.7216 91.2277L56.5 90.6ZM50 85.8L49.6004 86.7167L49.6089 86.7203L50 85.8ZM32.5 85.8L32.9084 86.7128L32.5 85.8ZM26.1 90.6L25.3338 89.9574L25.3276 89.9648L25.3216 89.9722L26.1 90.6ZM22.2 98L21.2491 97.6904L21.2469 97.6973L21.2447 97.7043L22.2 98ZM22.2 116.8L21.2428 117.089L21.2469 117.103L21.2513 117.116L22.2 116.8ZM26.2 124.2L25.4239 124.831L25.4347 124.844L25.4459 124.857L26.2 124.2ZM32.8 129L32.4004 129.917L32.4104 129.921L32.4204 129.925L32.8 129ZM54.5 126.9L53.9276 126.08L53.9202 126.085L54.5 126.9ZM60.9 116.7V115.7H60.055L59.914 116.533L60.9 116.7ZM77.3 116.7L78.2937 116.812L78.4188 115.7H77.3V116.7ZM71.9 131.4L71.0699 130.842L71.068 130.845L71.9 131.4ZM59.8 142L60.2566 142.89L60.261 142.887L59.8 142ZM41.7 144.9C35.2121 144.9 29.7003 143.786 25.1319 141.598L24.2681 143.402C29.1664 145.748 34.9879 146.9 41.7 146.9V144.9ZM25.1422 141.603C20.5262 139.328 16.7792 136.382 13.8795 132.774L12.3205 134.026C15.4208 137.885 19.4071 141.006 24.2578 143.397L25.1422 141.603ZM13.8849 132.78C10.9515 129.065 8.77516 125.098 7.34722 120.879L5.45278 121.521C6.95817 125.968 9.24848 130.135 12.3151 134.02L13.8849 132.78ZM7.35293 120.897C5.98051 116.583 5.3 112.419 5.3 108.4H3.3C3.3 112.647 4.01949 117.017 5.44707 121.503L7.35293 120.897ZM5.3 108.4V106.2H3.3V108.4H5.3ZM5.3 106.2C5.3 101.777 6.01521 97.4166 7.44868 93.1162L5.55132 92.4838C4.05146 96.9834 3.3 101.557 3.3 106.2H5.3ZM7.45009 93.112C8.87752 88.7648 11.0493 84.8429 13.9682 81.3402L12.4318 80.0598C9.35072 83.7571 7.05581 87.9019 5.54991 92.488L7.45009 93.112ZM13.9612 81.3485C16.9278 77.866 20.642 75.0843 25.1207 73.0072L24.2793 71.1928C19.5581 73.3824 15.6056 76.334 12.4388 80.0515L13.9612 81.3485ZM25.1264 73.0045C29.6329 70.88 34.9813 69.8 41.2 69.8V67.8C34.7521 67.8 29.1004 68.92 24.2736 71.1955L25.1264 73.0045ZM41.2 69.8C47.6742 69.8 53.3535 71.0093 58.2623 73.3991L59.1377 71.6009C53.9132 69.0574 47.9258 67.8 41.2 67.8V69.8ZM58.2623 73.3991C63.1819 75.7942 67.0776 79.1156 69.9738 83.3633L71.6262 82.2367C68.5224 77.6844 64.3515 74.1392 59.1377 71.6009L58.2623 73.3991ZM69.9837 83.3777C72.9378 87.5519 74.6849 92.4795 75.2041 98.1905L77.1959 98.0095C76.6484 91.9871 74.7955 86.7147 71.6163 82.2223L69.9837 83.3777ZM76.2 97.1H59.7V99.1H76.2V97.1ZM60.6876 97.9429C60.1968 94.858 59.0673 92.1904 57.2784 89.9722L55.7216 91.2277C57.2661 93.1429 58.2699 95.4753 58.7124 98.2571L60.6876 97.9429ZM57.2784 89.9722C55.4994 87.7663 53.1948 86.0712 50.3911 84.8797L49.6089 86.7203C52.1385 87.7954 54.1672 89.3004 55.7216 91.2277L57.2784 89.9722ZM50.3996 84.8833C47.6558 83.6873 44.5834 83.1 41.2 83.1V85.1C44.3499 85.1 47.1442 85.646 49.6004 86.7167L50.3996 84.8833ZM41.2 83.1C37.8172 83.1 34.7742 83.6871 32.0916 84.8872L32.9084 86.7128C35.2925 85.6462 38.0494 85.1 41.2 85.1V83.1ZM32.0916 84.8872C29.4242 86.0805 27.1673 87.7713 25.3338 89.9574L26.8662 91.2426C28.4994 89.2953 30.5091 87.7862 32.9084 86.7128L32.0916 84.8872ZM25.3216 89.9722C23.5689 92.1455 22.2151 94.7236 21.2491 97.6904L23.1509 98.3096C24.0516 95.5431 25.2977 93.1878 26.8784 91.2277L25.3216 89.9722ZM21.2447 97.7043C20.3436 100.616 19.9 103.851 19.9 107.4H21.9C21.9 104.016 22.3231 100.984 23.1553 98.2957L21.2447 97.7043ZM19.9 107.4C19.9 110.885 20.3442 114.117 21.2428 117.089L23.1572 116.511C22.3225 113.749 21.9 110.715 21.9 107.4H19.9ZM21.2513 117.116C22.2199 120.022 23.6091 122.597 25.4239 124.831L26.9761 123.569C25.3242 121.536 24.0467 119.178 23.1487 116.484L21.2513 117.116ZM25.4459 124.857C27.3468 127.039 29.6693 128.726 32.4004 129.917L33.1996 128.083C30.7307 127.007 28.6532 125.494 26.9541 123.543L25.4459 124.857ZM32.4204 129.925C35.1611 131.05 38.2603 131.6 41.7 131.6V129.6C38.4731 129.6 35.6389 129.084 33.1796 128.075L32.4204 129.925ZM41.7 131.6C46.9338 131.6 51.4134 130.324 55.0798 127.715L53.9202 126.085C50.6532 128.41 46.5995 129.6 41.7 129.6V131.6ZM55.0724 127.72C58.8305 125.096 61.1089 121.459 61.886 116.867L59.914 116.533C59.2244 120.608 57.2362 123.77 53.9276 126.08L55.0724 127.72ZM60.9 117.7H77.3V115.7H60.9V117.7ZM76.3063 116.588C75.7243 121.762 73.9806 126.509 71.0699 130.842L72.7301 131.958C75.8194 127.358 77.6757 122.305 78.2937 116.812L76.3063 116.588ZM71.068 130.845C68.2369 135.092 64.337 138.516 59.339 141.113L60.261 142.887C65.5297 140.15 69.6965 136.508 72.7321 131.955L71.068 130.845ZM59.3435 141.11C54.4468 143.623 48.577 144.9 41.7 144.9V146.9C48.823 146.9 55.0199 145.577 60.2566 142.89L59.3435 141.11ZM86.2805 144H85.2805V145H86.2805V144ZM86.2805 89.2V88.2H85.2805V89.2H86.2805ZM98.9805 89.2H99.9805V88.2H98.9805V89.2ZM98.9805 112.7V113.7H99.9805V112.7H98.9805ZM98.6805 112.7H97.6805V113.7H98.6805V112.7ZM103.58 94.8L102.797 94.1783L102.791 94.1861L103.58 94.8ZM120.08 88.5H121.08V87.5H120.08V88.5ZM120.08 102.3V103.3H121.08V102.3H120.08ZM105.88 105.9L106.578 106.617L106.588 106.607L105.88 105.9ZM102.28 144V145H103.28V144H102.28ZM87.2805 144V89.2H85.2805V144H87.2805ZM86.2805 90.2H98.9805V88.2H86.2805V90.2ZM97.9805 89.2V112.7H99.9805V89.2H97.9805ZM98.9805 111.7H98.6805V113.7H98.9805V111.7ZM99.6805 112.7C99.6805 105.092 101.289 99.3745 104.37 95.4139L102.791 94.1861C99.3382 98.6255 97.6805 104.842 97.6805 112.7H99.6805ZM104.364 95.4217C107.474 91.5025 111.961 89.5 117.98 89.5V87.5C111.466 87.5 106.353 89.6975 102.797 94.1783L104.364 95.4217ZM117.98 89.5H120.08V87.5H117.98V89.5ZM119.08 88.5V102.3H121.08V88.5H119.08ZM120.08 101.3H116.08V103.3H120.08V101.3ZM116.08 101.3C111.497 101.3 107.812 102.554 105.173 105.193L106.588 106.607C108.749 104.446 111.864 103.3 116.08 103.3V101.3ZM105.183 105.183C102.532 107.761 101.28 111.457 101.28 116.1H103.28C103.28 111.81 104.429 108.705 106.578 106.617L105.183 105.183ZM101.28 116.1V144H103.28V116.1H101.28ZM102.28 143H86.2805V145H102.28V143ZM139.777 143.5L139.365 144.411L139.371 144.414L139.777 143.5ZM130.877 137.1L130.117 137.749L130.125 137.759L130.134 137.769L130.877 137.1ZM125.477 128L124.534 128.333L124.538 128.344L124.543 128.355L125.477 128ZM125.477 105.1L124.54 104.751L124.536 104.761L125.477 105.1ZM130.877 96L131.63 96.6585L130.877 96ZM139.577 89.7L139.982 90.6146L139.99 90.6109L139.577 89.7ZM166.377 91.3L165.823 92.132L165.831 92.1374L165.839 92.1425L166.377 91.3ZM175.677 101.6L174.783 102.047L174.786 102.053L175.677 101.6ZM178.877 120.8V121.8H179.877V120.8H178.877ZM130.377 120.8H129.377V121.8H130.377V120.8ZM130.377 111.7V110.7H129.377V111.7H130.377ZM169.177 111.7L169.806 112.478L172.007 110.7H169.177V111.7ZM163.977 115.9H162.977V117.993L164.606 116.678L163.977 115.9ZM158.377 102.2L157.802 103.018L157.819 103.03L157.837 103.041L158.377 102.2ZM144.477 102.2L143.929 101.364L144.477 102.2ZM140.077 107.8L141 108.185L141.004 108.176L140.077 107.8ZM139.977 125.3L139.042 125.654L139.045 125.662L139.977 125.3ZM144.377 130.9L143.823 131.732L144.377 130.9ZM159.377 131.2L159.896 132.055L159.377 131.2ZM163.177 127V126H162.5L162.249 126.629L163.177 127ZM177.877 127L178.854 127.213L179.119 126H177.877V127ZM173.177 136.8L173.953 137.431L173.177 136.8ZM164.377 143.5L163.965 142.589L164.377 143.5ZM152.177 144.9C147.625 144.9 143.634 144.12 140.183 142.586L139.371 144.414C143.12 146.08 147.396 146.9 152.177 146.9V144.9ZM140.19 142.589C136.772 141.041 133.921 138.987 131.621 136.431L130.134 137.769C132.634 140.546 135.716 142.759 139.365 144.411L140.19 142.589ZM131.638 136.451C129.378 133.804 127.638 130.87 126.412 127.645L124.543 128.355C125.85 131.797 127.71 134.929 130.117 137.749L131.638 136.451ZM126.42 127.667C125.257 124.372 124.677 121.018 124.677 117.6H122.677C122.677 121.249 123.297 124.828 124.534 128.333L126.42 127.667ZM124.677 117.6V115.6H122.677V117.6H124.677ZM124.677 115.6C124.677 112.045 125.259 108.66 126.418 105.439L124.536 104.761C123.296 108.207 122.677 111.822 122.677 115.6H124.677ZM126.414 105.449C127.64 102.16 129.378 99.2319 131.63 96.6585L130.125 95.3415C127.71 98.1015 125.848 101.24 124.54 104.751L126.414 105.449ZM131.63 96.6585C133.861 94.1091 136.639 92.0931 139.982 90.6145L139.173 88.7855C135.582 90.3736 132.561 92.5576 130.125 95.3415L131.63 96.6585ZM139.99 90.6109C143.375 89.0779 147.231 88.3 151.577 88.3V86.3C146.99 86.3 142.846 87.1221 139.165 88.789L139.99 90.6109ZM151.577 88.3C157.29 88.3 162.02 89.5969 165.823 92.132L166.932 90.4679C162.735 87.6697 157.598 86.3 151.577 86.3V88.3ZM165.839 92.1425C169.755 94.6465 172.731 97.944 174.783 102.047L176.572 101.153C174.357 96.7226 171.133 93.1535 166.916 90.4575L165.839 92.1425ZM174.786 102.053C176.843 106.104 177.877 110.547 177.877 115.4H179.877C179.877 110.253 178.778 105.496 176.569 101.147L174.786 102.053ZM177.877 115.4V120.8H179.877V115.4H177.877ZM178.877 119.8H130.377V121.8H178.877V119.8ZM131.377 120.8V111.7H129.377V120.8H131.377ZM130.377 112.7H169.177V110.7H130.377V112.7ZM168.549 110.922L163.349 115.122L164.606 116.678L169.806 112.478L168.549 110.922ZM164.977 115.9C164.977 112.542 164.498 109.61 163.506 107.129L161.649 107.871C162.523 110.057 162.977 112.724 162.977 115.9H164.977ZM163.506 107.129C162.506 104.629 160.982 102.686 158.918 101.359L157.837 103.041C159.506 104.114 160.782 105.705 161.649 107.871L163.506 107.129ZM158.953 101.382C156.947 99.971 154.466 99.3 151.577 99.3V101.3C154.155 101.3 156.207 101.896 157.802 103.018L158.953 101.382ZM151.577 99.3C148.624 99.3 146.057 99.9695 143.929 101.364L145.025 103.036C146.764 101.897 148.93 101.3 151.577 101.3V99.3ZM143.929 101.364C141.801 102.758 140.215 104.799 139.151 107.424L141.004 108.176C141.94 105.868 143.287 104.175 145.025 103.036L143.929 101.364ZM139.154 107.415C138.089 109.973 137.577 113.079 137.577 116.7H139.577C139.577 113.254 140.066 110.427 141 108.185L139.154 107.415ZM137.577 116.7C137.577 120.06 138.057 123.051 139.042 125.654L140.913 124.946C140.031 122.616 139.577 119.874 139.577 116.7H137.577ZM139.045 125.662C140.048 128.24 141.639 130.276 143.823 131.732L144.932 130.068C143.116 128.857 141.774 127.16 140.909 124.938L139.045 125.662ZM143.823 131.732C146.033 133.206 148.844 133.9 152.177 133.9V131.9C149.111 131.9 146.721 131.261 144.932 130.068L143.823 131.732ZM152.177 133.9C155.233 133.9 157.828 133.31 159.896 132.055L158.858 130.345C157.193 131.356 154.989 131.9 152.177 131.9V133.9ZM159.896 132.055C161.907 130.834 163.342 129.28 164.106 127.371L162.249 126.629C161.679 128.054 160.581 129.299 158.858 130.345L159.896 132.055ZM163.177 128H177.877V126H163.177V128ZM176.9 126.787C176.133 130.303 174.635 133.426 172.402 136.169L173.953 137.431C176.387 134.441 178.021 131.031 178.854 127.213L176.9 126.787ZM172.402 136.169C170.171 138.909 167.364 141.05 163.965 142.589L164.79 144.411C168.457 142.75 171.517 140.424 173.953 137.431L172.402 136.169ZM163.965 142.589C160.583 144.12 156.661 144.9 152.177 144.9V146.9C156.894 146.9 161.105 146.08 164.79 144.411L163.965 142.589ZM221.58 144H220.58V145H221.58V144ZM221.58 127.8H222.58V126.8H221.58V127.8ZM218.88 127.8H217.88V128.8H218.88V127.8ZM216.88 103.9L217.604 103.21L216.88 103.9ZM204.68 101.9L204.652 100.9L204.68 101.9ZM197.28 102.2L197.332 103.199L197.28 102.2ZM190.38 102.6H189.38V103.667L190.444 103.598L190.38 102.6ZM190.38 89.1L190.293 88.1038L189.38 88.1832V89.1H190.38ZM195.78 88.7L195.715 87.7021L195.78 88.7ZM202.18 88.4L202.149 87.4005L202.18 88.4ZM222.48 90.7L222.092 91.6217L222.097 91.624L222.48 90.7ZM231.28 98L230.427 98.5222L230.432 98.53L231.28 98ZM234.28 144V145H235.28V144H234.28ZM193.68 143.3L193.249 144.203L193.257 144.206L193.68 143.3ZM186.78 137.3L185.932 137.83L185.938 137.84L186.78 137.3ZM187.38 118L188.155 118.632L188.163 118.622L187.38 118ZM196.08 112.3L196.386 113.252L196.393 113.25L196.401 113.247L196.08 112.3ZM220.68 110.4H221.68V109.4H220.68V110.4ZM220.68 119.3V120.3H221.68V119.3H220.68ZM202.38 121.4L203.052 122.14L203.054 122.138L202.38 121.4ZM202.38 132.3L201.689 133.023L201.706 133.039L201.724 133.055L202.38 132.3ZM213.68 133.4L214.074 134.319L214.084 134.315L214.093 134.31L213.68 133.4ZM217.28 130.1L218.134 130.62L217.28 130.1ZM218.88 123.7L219.605 123.011L217.995 121.317L217.881 123.651L218.88 123.7ZM222.68 127.7L223.676 127.787L223.715 127.338L223.405 127.011L222.68 127.7ZM219.88 137.3L219.018 136.792L219.013 136.8L219.009 136.809L219.88 137.3ZM213.68 143.3L213.215 142.415L213.206 142.42L213.68 143.3ZM222.58 144V127.8H220.58V144H222.58ZM221.58 126.8H218.88V128.8H221.58V126.8ZM219.88 127.8V110.2H217.88V127.8H219.88ZM219.88 110.2C219.88 107.258 219.18 104.865 217.604 103.21L216.156 104.59C217.246 105.735 217.88 107.542 217.88 110.2H219.88ZM217.604 103.21C216.003 101.529 213.546 100.8 210.48 100.8V102.8C213.28 102.8 215.09 103.471 216.156 104.59L217.604 103.21ZM210.48 100.8C209 100.8 207.056 100.834 204.652 100.9L204.707 102.9C207.103 102.833 209.026 102.8 210.48 102.8V100.8ZM204.652 100.9C202.243 100.967 199.768 101.068 197.227 101.201L197.332 103.199C199.858 103.066 202.316 102.966 204.707 102.9L204.652 100.9ZM197.227 101.201C194.691 101.335 192.387 101.468 190.315 101.602L190.444 103.598C192.506 103.465 194.802 103.332 197.332 103.199L197.227 101.201ZM191.38 102.6V89.1H189.38V102.6H191.38ZM190.466 90.0962C191.99 89.9637 193.782 89.8309 195.844 89.6979L195.715 87.7021C193.644 87.8357 191.836 87.9696 190.293 88.1038L190.466 90.0962ZM195.844 89.6979C197.899 89.5654 200.021 89.4659 202.21 89.3995L202.149 87.4005C199.939 87.4674 197.794 87.568 195.715 87.7021L195.844 89.6979ZM202.21 89.3995C204.401 89.3331 206.458 89.3 208.38 89.3V87.3C206.435 87.3 204.358 87.3335 202.149 87.4005L202.21 89.3995ZM208.38 89.3C213.891 89.3 218.45 90.0883 222.092 91.6216L222.868 89.7784C218.909 88.1117 214.068 87.3 208.38 87.3V89.3ZM222.097 91.624C225.788 93.1511 228.548 95.4526 230.427 98.5222L232.133 97.4778C230.012 94.014 226.905 91.4489 222.862 89.776L222.097 91.624ZM230.432 98.53C232.304 101.525 233.28 105.458 233.28 110.4H235.28C235.28 105.208 234.256 100.875 232.128 97.47L230.432 98.53ZM233.28 110.4V144H235.28V110.4H233.28ZM234.28 143H221.58V145H234.28V143ZM204.08 144.4C200.265 144.4 196.948 143.721 194.103 142.394L193.257 144.206C196.412 145.679 200.027 146.4 204.08 146.4V144.4ZM194.11 142.398C191.336 141.073 189.182 139.195 187.622 136.76L185.938 137.84C187.71 140.605 190.157 142.727 193.249 144.202L194.11 142.398ZM187.628 136.77C186.076 134.287 185.28 131.311 185.28 127.8H183.28C183.28 131.622 184.15 134.98 185.932 137.83L187.628 136.77ZM185.28 127.8C185.28 123.977 186.264 120.95 188.155 118.632L186.605 117.368C184.362 120.117 183.28 123.623 183.28 127.8H185.28ZM188.163 118.622C190.085 116.203 192.806 114.403 196.386 113.252L195.774 111.348C191.887 112.597 188.807 114.597 186.597 117.378L188.163 118.622ZM196.401 113.247C200.01 112.023 204.198 111.4 208.98 111.4V109.4C204.028 109.4 199.616 110.044 195.758 111.353L196.401 113.247ZM208.98 111.4H220.68V109.4H208.98V111.4ZM219.68 110.4V119.3H221.68V110.4H219.68ZM220.68 118.3H208.88V120.3H220.68V118.3ZM208.88 118.3C205.918 118.3 203.479 119.042 201.705 120.662L203.054 122.138C204.347 120.958 206.241 120.3 208.88 120.3V118.3ZM201.707 120.66C199.995 122.217 199.18 124.34 199.18 126.9H201.18C201.18 124.794 201.831 123.25 203.052 122.14L201.707 120.66ZM199.18 126.9C199.18 129.347 200.007 131.418 201.689 133.023L203.07 131.577C201.819 130.382 201.18 128.853 201.18 126.9H199.18ZM201.724 133.055C203.497 134.597 205.93 135.3 208.88 135.3V133.3C206.23 133.3 204.329 132.669 203.036 131.545L201.724 133.055ZM208.88 135.3C210.791 135.3 212.529 134.981 214.074 134.319L213.286 132.481C212.031 133.019 210.568 133.3 208.88 133.3V135.3ZM214.093 134.31C215.763 133.551 217.109 132.304 218.134 130.62L216.425 129.58C215.584 130.962 214.529 131.915 213.266 132.49L214.093 134.31ZM218.134 130.62C219.188 128.889 219.741 126.569 219.878 123.749L217.881 123.651C217.752 126.298 217.238 128.245 216.425 129.58L218.134 130.62ZM218.155 124.389L221.955 128.389L223.405 127.011L219.605 123.011L218.155 124.389ZM221.684 127.613C221.36 131.302 220.459 134.35 219.018 136.792L220.741 137.808C222.367 135.05 223.333 131.698 223.676 127.787L221.684 127.613ZM219.009 136.809C217.638 139.239 215.713 141.103 213.215 142.415L214.145 144.185C216.98 142.697 219.188 140.561 220.751 137.791L219.009 136.809ZM213.206 142.42C210.787 143.722 207.76 144.4 204.08 144.4V146.4C207.999 146.4 211.372 145.678 214.154 144.18L213.206 142.42ZM258.355 142.7L257.974 143.625L257.982 143.628L257.99 143.631L258.355 142.7ZM250.855 135.8L249.949 136.225L249.955 136.236L249.96 136.247L250.855 135.8ZM248.555 74.4V73.4H247.555V74.4H248.555ZM263.455 74.4H264.455V73.4H263.455V74.4ZM265.455 129.2L264.731 129.89L264.747 129.907L264.765 129.924L265.455 129.2ZM279.455 131.2H280.455V130.2H279.455V131.2ZM279.455 144.7V145.7H280.455V144.7H279.455ZM240.255 100.9H239.255V101.9H240.255V100.9ZM240.255 89.2V88.2H239.255V89.2H240.255ZM279.455 89.2H280.455V88.2H279.455V89.2ZM279.455 100.9V101.9H280.455V100.9H279.455ZM271.755 143.7C266.288 143.7 261.96 143.04 258.72 141.769L257.99 143.631C261.55 145.027 266.154 145.7 271.755 145.7V143.7ZM258.735 141.775C255.552 140.464 253.238 138.33 251.749 135.353L249.96 136.247C251.671 139.67 254.357 142.136 257.974 143.625L258.735 141.775ZM251.76 135.375C250.313 132.293 249.555 128.057 249.555 122.6H247.555C247.555 128.209 248.329 132.773 249.949 136.225L251.76 135.375ZM249.555 122.6V74.4H247.555V122.6H249.555ZM248.555 75.4H263.455V73.4H248.555V75.4ZM262.455 74.4V123.2H264.455V74.4H262.455ZM262.455 123.2C262.455 125.966 263.166 128.247 264.731 129.89L266.179 128.51C265.076 127.353 264.455 125.634 264.455 123.2H262.455ZM264.765 129.924C266.403 131.484 268.647 132.2 271.355 132.2V130.2C268.996 130.2 267.306 129.583 266.144 128.476L264.765 129.924ZM271.355 132.2H279.455V130.2H271.355V132.2ZM278.455 131.2V144.7H280.455V131.2H278.455ZM279.455 143.7H271.755V145.7H279.455V143.7ZM241.255 100.9V89.2H239.255V100.9H241.255ZM240.255 90.2H279.455V88.2H240.255V90.2ZM278.455 89.2V100.9H280.455V89.2H278.455ZM279.455 99.9H240.255V101.9H279.455V99.9ZM302.919 143.7L302.539 144.625L302.546 144.628L302.553 144.631L302.919 143.7ZM293.419 137.5L292.702 138.198L292.712 138.207L293.419 137.5ZM287.619 128.6L286.688 128.965L286.69 128.971L287.619 128.6ZM287.619 104.8L286.691 104.426L286.688 104.435L287.619 104.8ZM293.619 95.7L292.921 94.9839L292.912 94.9929L293.619 95.7ZM303.219 89.6L303.584 90.5307L303.592 90.5279L303.599 90.525L303.219 89.6ZM328.319 89.6L327.933 90.5226L327.943 90.5268L327.953 90.5307L328.319 89.6ZM337.819 95.7L338.526 94.9929L337.819 95.7ZM343.819 104.8L342.891 105.174L342.894 105.181L343.819 104.8ZM343.919 128.6L344.847 128.971L344.85 128.965L343.919 128.6ZM338.019 137.5L337.312 136.793L337.303 136.802L338.019 137.5ZM328.619 143.7L328.984 144.631L328.992 144.628L328.999 144.625L328.619 143.7ZM323.519 130.4L322.977 129.56L323.519 130.4ZM328.219 124.8L327.315 124.373L327.31 124.383L327.305 124.394L328.219 124.8ZM328.219 108.6L327.314 109.027L327.319 109.037L328.219 108.6ZM323.319 102.9L322.758 103.728L322.764 103.732L322.77 103.736L323.319 102.9ZM308.119 102.9L307.57 102.064L308.119 102.9ZM303.219 108.6L302.314 108.173L302.309 108.184L303.219 108.6ZM303.219 124.8L302.305 125.206L303.219 124.8ZM308.019 130.4L308.549 129.552L308.019 130.4ZM315.719 144.9C311.02 144.9 306.881 144.182 303.284 142.769L302.553 144.631C306.423 146.151 310.818 146.9 315.719 146.9V144.9ZM303.299 142.775C299.676 141.287 296.624 139.291 294.126 136.793L292.712 138.207C295.414 140.909 298.695 143.046 302.539 144.625L303.299 142.775ZM294.135 136.802C291.692 134.295 289.831 131.439 288.547 128.229L286.69 128.971C288.073 132.428 290.079 135.505 292.703 138.198L294.135 136.802ZM288.55 128.235C287.263 124.954 286.619 121.511 286.619 117.9H284.619C284.619 121.755 285.308 125.446 286.688 128.965L288.55 128.235ZM286.619 117.9V115.6H284.619V117.9H286.619ZM286.619 115.6C286.619 111.92 287.264 108.444 288.55 105.165L286.688 104.435C285.307 107.956 284.619 111.68 284.619 115.6H286.619ZM288.546 105.174C289.897 101.83 291.822 98.9105 294.326 96.4071L292.912 94.9929C290.215 97.6895 288.141 100.836 286.691 104.426L288.546 105.174ZM294.317 96.416C296.881 93.916 299.965 91.9525 303.584 90.5307L302.853 88.6692C299.005 90.1808 295.69 92.284 292.921 94.984L294.317 96.416ZM303.599 90.525C307.196 89.0476 311.231 88.3 315.719 88.3V86.3C311.007 86.3 306.708 87.0857 302.839 88.675L303.599 90.525ZM315.719 88.3C320.344 88.3 324.409 89.0491 327.933 90.5226L328.705 88.6774C324.895 87.0842 320.56 86.3 315.719 86.3V88.3ZM327.953 90.5307C331.57 91.9517 334.617 93.9129 337.112 96.4071L338.526 94.9929C335.82 92.2871 332.534 90.1816 328.684 88.6692L327.953 90.5307ZM337.112 96.4071C339.615 98.9105 341.541 101.83 342.892 105.174L344.746 104.426C343.297 100.836 341.222 97.6895 338.526 94.9929L337.112 96.4071ZM342.894 105.181C344.243 108.456 344.919 111.926 344.919 115.6H346.919C346.919 111.674 346.195 107.944 344.743 104.419L342.894 105.181ZM344.919 115.6V117.9H346.919V115.6H344.919ZM344.919 117.9C344.919 121.511 344.274 124.954 342.988 128.235L344.85 128.965C346.23 125.446 346.919 121.755 346.919 117.9H344.919ZM342.99 128.229C341.708 131.433 339.818 134.286 337.312 136.793L338.726 138.207C341.419 135.514 343.462 132.434 344.847 128.971L342.99 128.229ZM337.303 136.802C334.875 139.294 331.86 141.288 328.239 142.775L328.999 144.625C332.844 143.046 336.096 140.906 338.735 138.198L337.303 136.802ZM328.253 142.769C324.658 144.182 320.486 144.9 315.719 144.9V146.9C320.685 146.9 325.113 146.152 328.984 144.631L328.253 142.769ZM315.719 133.4C318.992 133.4 321.794 132.703 324.061 131.24L322.977 129.56C321.111 130.764 318.712 131.4 315.719 131.4V133.4ZM324.061 131.24C326.302 129.794 327.992 127.771 329.133 125.206L327.305 124.394C326.312 126.629 324.869 128.339 322.977 129.56L324.061 131.24ZM329.123 125.227C330.326 122.68 330.919 119.865 330.919 116.8H328.919C328.919 119.601 328.378 122.12 327.315 124.373L329.123 125.227ZM330.919 116.8C330.919 113.546 330.33 110.658 329.118 108.163L327.319 109.037C328.374 111.209 328.919 113.787 328.919 116.8H330.919ZM329.123 108.173C327.914 105.614 326.161 103.569 323.867 102.064L322.77 103.736C324.743 105.031 326.256 106.786 327.315 109.027L329.123 108.173ZM323.88 102.072C321.616 100.539 318.878 99.8 315.719 99.8V101.8C318.56 101.8 320.888 102.461 322.758 103.728L323.88 102.072ZM315.719 99.8C312.62 99.8 309.89 100.542 307.57 102.064L308.667 103.736C310.614 102.458 312.95 101.8 315.719 101.8V99.8ZM307.57 102.064C305.276 103.569 303.523 105.614 302.315 108.173L304.123 109.027C305.181 106.786 306.694 105.031 308.667 103.736L307.57 102.064ZM302.309 108.184C301.171 110.674 300.619 113.554 300.619 116.8H302.619C302.619 113.779 303.133 111.193 304.128 109.016L302.309 108.184ZM300.619 116.8C300.619 119.857 301.175 122.664 302.305 125.206L304.133 124.394C303.129 122.136 302.619 119.61 302.619 116.8H300.619ZM302.305 125.206C303.449 127.78 305.179 129.804 307.489 131.248L308.549 129.552C306.592 128.329 305.122 126.62 304.133 124.394L302.305 125.206ZM307.489 131.248C309.809 132.698 312.568 133.4 315.719 133.4V131.4C312.87 131.4 310.495 130.768 308.549 129.552L307.489 131.248ZM356.085 144H355.085V145H356.085V144ZM356.085 89.2V88.2H355.085V89.2H356.085ZM368.785 89.2H369.785V88.2H368.785V89.2ZM368.785 112.7V113.7H369.785V112.7H368.785ZM368.485 112.7H367.485V113.7H368.485V112.7ZM373.385 94.8L372.602 94.1783L372.596 94.1861L373.385 94.8ZM389.885 88.5H390.885V87.5H389.885V88.5ZM389.885 102.3V103.3H390.885V102.3H389.885ZM375.685 105.9L376.382 106.617L376.392 106.607L375.685 105.9ZM372.085 144V145H373.085V144H372.085ZM357.085 144V89.2H355.085V144H357.085ZM356.085 90.2H368.785V88.2H356.085V90.2ZM367.785 89.2V112.7H369.785V89.2H367.785ZM368.785 111.7H368.485V113.7H368.785V111.7ZM369.485 112.7C369.485 105.092 371.094 99.3745 374.174 95.4139L372.596 94.1861C369.143 98.6255 367.485 104.842 367.485 112.7H369.485ZM374.168 95.4217C377.279 91.5025 381.766 89.5 387.785 89.5V87.5C381.271 87.5 376.158 89.6975 372.602 94.1783L374.168 95.4217ZM387.785 89.5H389.885V87.5H387.785V89.5ZM388.885 88.5V102.3H390.885V88.5H388.885ZM389.885 101.3H385.885V103.3H389.885V101.3ZM385.885 101.3C381.302 101.3 377.617 102.554 374.978 105.193L376.392 106.607C378.554 104.446 381.668 103.3 385.885 103.3V101.3ZM374.988 105.183C372.336 107.761 371.085 111.457 371.085 116.1H373.085C373.085 111.81 374.234 108.705 376.382 106.617L374.988 105.183ZM371.085 116.1V144H373.085V116.1H371.085ZM372.085 143H356.085V145H372.085V143ZM399.675 140.9L400.263 140.091L399.675 140.9ZM392.675 127.4V126.4H391.628L391.676 127.446L392.675 127.4ZM406.875 127.4L407.863 127.248L407.733 126.4H406.875V127.4ZM409.975 132.1L409.361 132.889L409.377 132.902L409.394 132.914L409.975 132.1ZM425.175 132.7L425.635 133.588L425.647 133.581L425.175 132.7ZM425.875 124.7L425.294 125.514L425.307 125.523L425.32 125.532L425.875 124.7ZM418.375 122.6L418.485 121.606L418.477 121.605L418.468 121.604L418.375 122.6ZM414.075 122.2L413.974 123.195L413.982 123.196L414.075 122.2ZM399.175 116.7L398.499 117.437L398.506 117.443L399.175 116.7ZM397.175 95.5L397.977 96.0967L397.175 95.5ZM405.175 89.6L404.816 88.6666L404.81 88.669L405.175 89.6ZM434.075 92.3L433.489 93.1104L433.497 93.1163L434.075 92.3ZM440.875 105.7V106.7H441.91L441.874 105.666L440.875 105.7ZM426.675 105.7L425.686 105.847L425.812 106.7H426.675V105.7ZM423.875 101.2L423.254 101.984L423.265 101.992L423.275 102L423.875 101.2ZM410.575 108L411.109 107.155L410.575 108ZM416.775 109.7L416.66 110.693L416.671 110.695L416.682 110.696L416.775 109.7ZM421.075 110.1L421.183 109.106L421.175 109.105L421.168 109.104L421.075 110.1ZM436.775 115.7L437.401 114.92L436.775 115.7ZM439.375 137.4L440.175 138L440.182 137.991L439.375 137.4ZM430.875 143.6L431.232 144.534L431.239 144.531L431.246 144.528L430.875 143.6ZM417.975 144.7C410.298 144.7 404.432 143.124 400.263 140.091L399.087 141.709C403.717 145.077 410.052 146.7 417.975 146.7V144.7ZM400.263 140.091C396.127 137.083 393.928 132.874 393.674 127.354L391.676 127.446C391.956 133.526 394.423 138.317 399.087 141.709L400.263 140.091ZM392.675 128.4H406.875V126.4H392.675V128.4ZM405.887 127.552C406.203 129.607 407.422 131.381 409.361 132.889L410.589 131.311C408.928 130.019 408.081 128.66 407.863 127.248L405.887 127.552ZM409.394 132.914C411.504 134.421 414.515 135.1 418.275 135.1V133.1C414.702 133.1 412.179 132.445 410.556 131.286L409.394 132.914ZM418.275 135.1C421.177 135.1 423.649 134.617 425.635 133.588L424.715 131.812C423.101 132.649 420.973 133.1 418.275 133.1V135.1ZM425.647 133.581C427.77 132.444 428.975 130.741 428.975 128.5H426.975C426.975 129.859 426.314 130.956 424.703 131.819L425.647 133.581ZM428.975 128.5C428.975 126.546 428.091 124.975 426.43 123.868L425.32 125.532C426.459 126.291 426.975 127.254 426.975 128.5H428.975ZM426.456 123.886C424.832 122.726 422.106 122.008 418.485 121.606L418.265 123.594C421.844 123.992 424.118 124.674 425.294 125.514L426.456 123.886ZM418.468 121.604L414.168 121.204L413.982 123.196L418.282 123.596L418.468 121.604ZM414.176 121.205C407.69 120.55 402.96 118.761 399.844 115.957L398.506 117.443C402.057 120.639 407.26 122.517 413.975 123.195L414.176 121.205ZM399.851 115.963C396.803 113.164 395.275 109.603 395.275 105.2H393.275C393.275 110.13 395.014 114.236 398.499 117.437L399.851 115.963ZM395.275 105.2C395.275 101.506 396.196 98.4928 397.977 96.0967L396.373 94.9033C394.288 97.7072 393.275 101.161 393.275 105.2H395.275ZM397.977 96.0967C399.785 93.6653 402.292 91.8049 405.54 90.531L404.81 88.669C401.258 90.0617 398.431 92.1347 396.373 94.9033L397.977 96.0967ZM405.534 90.5333C408.867 89.2514 412.676 88.6 416.975 88.6V86.6C412.474 86.6 408.416 87.2819 404.816 88.6666L405.534 90.5333ZM416.975 88.6C423.898 88.6 429.374 90.1345 433.489 93.1104L434.661 91.4896C430.11 88.1988 424.185 86.6 416.975 86.6V88.6ZM433.497 93.1163C437.546 95.9816 439.685 100.142 439.876 105.734L441.874 105.666C441.665 99.5249 439.271 94.7518 434.653 91.4837L433.497 93.1163ZM440.875 104.7H426.675V106.7H440.875V104.7ZM427.664 105.553C427.355 103.466 426.263 101.741 424.475 100.4L423.275 102C424.687 103.059 425.462 104.334 425.686 105.847L427.664 105.553ZM424.496 100.416C422.646 98.952 420.019 98.3 416.775 98.3V100.3C419.797 100.3 421.904 100.915 423.254 101.984L424.496 100.416ZM416.775 98.3C414.194 98.3 412.019 98.7866 410.338 99.8563L411.412 101.544C412.664 100.747 414.423 100.3 416.775 100.3V98.3ZM410.338 99.8563C408.613 100.954 407.675 102.524 407.675 104.5H409.675C409.675 103.276 410.204 102.312 411.412 101.544L410.338 99.8563ZM407.675 104.5C407.675 106.367 408.476 107.857 410.041 108.845L411.109 107.155C410.141 106.543 409.675 105.7 409.675 104.5H407.675ZM410.041 108.845C411.504 109.77 413.757 110.356 416.66 110.693L416.891 108.707C414.06 108.378 412.179 107.83 411.109 107.155L410.041 108.845ZM416.682 110.696L420.982 111.096L421.168 109.104L416.868 108.704L416.682 110.696ZM420.967 111.094C427.585 111.815 432.614 113.639 436.149 116.48L437.401 114.92C433.47 111.761 428.031 109.852 421.183 109.106L420.967 111.094ZM436.149 116.48C439.63 119.277 441.375 123.016 441.375 127.8H443.375C443.375 122.451 441.386 118.123 437.401 114.92L436.149 116.48ZM441.375 127.8C441.375 131.273 440.432 134.262 438.568 136.809L440.182 137.991C442.318 135.071 443.375 131.66 443.375 127.8H441.375ZM438.575 136.8C436.704 139.295 434.032 141.26 430.504 142.672L431.246 144.528C435.052 143.006 438.046 140.839 440.175 138L438.575 136.8ZM430.518 142.666C426.991 144.013 422.816 144.7 417.975 144.7V146.7C423 146.7 427.426 145.987 431.232 144.534L430.518 142.666Z" fill="white" mask="url(#path-1-outside-1_298_15922)"/>
</svg>
