<svg width="129" height="92" viewBox="0 0 129 92" fill="none" xmlns="http://www.w3.org/2000/svg">
<path fill-rule="evenodd" clip-rule="evenodd" d="M75.6351 64.4215L78.2188 82.8215H51.1914L49.3154 63.6855L75.6351 64.4215ZM65.6947 73.2535V71.7521H60.3541L60.3135 73.2535H65.691H65.6947Z" fill="#F37BB8"/>
<path fill-rule="evenodd" clip-rule="evenodd" d="M78.9211 81.3203H84.2617V82.8218H78.8843L78.9211 81.3203Z" fill="#F37BB8"/>
<path d="M95.0388 84.5957H15.5085C14.6681 84.5957 13.9863 85.2765 13.9863 86.1155V88.364C13.9863 89.2031 14.6681 89.8839 15.5085 89.8839H113.49C114.33 89.8839 115.012 89.2031 115.012 88.364V86.1155C115.012 85.2765 114.33 84.5957 113.49 84.5957H95.0388Z" fill="#151B28"/>
<path d="M84.5321 41.4338C84.7643 42.4752 85.0887 43.5645 85.5457 44.4072C86.9684 44.4771 89.3899 44.3336 91.981 43.0419C93.0719 42.4973 93.7206 41.7502 94.0781 40.9333C92.18 39.8182 88.7044 37.6286 88.3579 37.349C88.2989 37.3011 88.122 37.1171 87.864 36.8301C87.1932 38.1659 86.1575 40.039 84.5321 41.4338Z" fill="#121314"/>
<path d="M69.5874 38.5707C70.8221 39.8035 73.9292 41.2718 75.3592 41.9084C75.3813 41.7796 75.4034 41.6472 75.4219 41.5147C73.5827 39.8955 71.5703 36.8779 71.5703 31.4462C71.5703 31.0855 71.5777 30.7396 71.585 30.4121C71.0248 30.5556 70.6415 30.6697 70.5383 30.7359C70.3614 30.8537 69.9523 30.9126 69.4731 30.9383C68.8945 32.0423 68.5259 32.2779 67.9583 33.691C67.1438 35.726 67.9583 36.9441 69.5874 38.5707Z" fill="#121314"/>
<path d="M70.0289 29.753C70.2943 29.764 70.5965 29.7714 70.9282 29.7677C70.9393 29.5285 70.9503 29.3003 70.9614 29.0795C71.4147 29.0317 71.8939 28.9655 72.3878 28.8771H72.3915C72.8927 27.0776 74.5476 25.7602 76.5084 25.7602C77.2971 25.7602 78.038 25.9736 78.6719 26.349C80.2752 25.256 81.8121 23.7546 83.1058 21.7085C83.1058 21.7085 85.0556 23.6589 85.5458 24.6304C85.7116 24.9616 85.7079 26.0987 85.7853 27.5229C87.1306 28.2221 88.0484 29.6315 88.0484 31.2507C88.0484 32.1744 87.7498 33.0319 87.2412 33.7274C87.6724 34.4192 88.2327 34.9859 88.9624 35.3503L89.3642 35.641C89.2941 35.7845 89.2131 35.9391 89.1283 36.101L94.3694 39.9245C94.6937 37.9226 93.7096 35.825 93.201 35.3171C92.3865 34.5039 91.981 30.4375 91.981 26.3747C91.981 22.3083 91.1665 21.4951 89.5374 19.4637C87.9083 17.4287 83.8356 18.6504 83.8356 18.6504C82.6156 17.4287 80.9865 16.2106 77.3193 17.8371C73.6557 19.4637 71.6211 25.5615 70.3975 28.8146C70.2648 29.1679 70.1432 29.477 70.0289 29.753Z" fill="#121314"/>
<path d="M72.4782 29.6803C72.7362 29.6545 73.0052 29.6177 73.2817 29.5773C73.2596 29.7281 73.2485 29.879 73.2485 30.0336C73.2485 31.8294 74.7044 33.2867 76.5067 33.2867C78.309 33.2867 79.7612 31.8294 79.7612 30.0336C79.7612 29.0547 79.3299 28.1752 78.6444 27.5827C80.0818 26.6553 81.8288 25.3526 82.9825 23.5273C82.9825 23.5273 84.243 25.1539 84.6484 25.9672C84.7774 26.2285 84.7848 27.0749 84.8401 28.1605C84.5231 28.0574 84.184 28.0022 83.8339 28.0022C82.0352 28.0022 80.5757 29.4558 80.5757 31.2517C80.5757 33.0475 82.0352 34.5048 83.8339 34.5048C84.7111 34.5048 85.5072 34.1589 86.0932 33.5958C86.4434 34.1552 86.5355 35.3512 87.1289 35.6493L87.0994 35.8921C85.979 38.148 83.6201 42.4573 78.5412 41.8243C78.5412 41.8243 72.434 40.1977 72.434 31.2517C72.434 30.6849 72.4487 30.1587 72.4782 29.6803ZM79.8717 36.9115C80.2809 36.9115 80.7305 36.8453 81.2133 36.6797L81.0917 36.3301C78.954 37.0661 77.465 35.6088 77.4502 35.5941L77.1885 35.8553C77.2438 35.9069 78.2685 36.9115 79.8717 36.9115Z" fill="#121314"/>
<path d="M73.5548 46.9831C75.1544 51.2041 76.9493 51.3476 76.9493 51.3476H84.3834C86.1489 51.0605 86.5433 48.0393 86.6133 46.133C86.37 46.0668 86.1194 45.9858 85.8688 45.8865C84.6562 45.4044 84.0259 43.1301 83.7089 41.3711C82.3489 42.3169 80.624 42.8873 78.4347 42.6149C78.4347 42.6149 77.4359 42.35 76.2122 41.4557C75.8289 45.1615 74.6605 46.5452 73.5548 46.9831Z" fill="#121314"/>
<path d="M61.034 60.1158L77.9957 62.0589L81.0732 73.4117L87.7075 71.9397L95.1084 79.5058C93.8885 76.2821 92.3515 61.8785 92.1635 60.0974C92.1525 59.9944 92.2262 59.9061 92.3257 59.895C92.4289 59.884 92.5174 59.9576 92.5284 60.0569C93.2987 67.3986 94.8283 79.2481 95.6687 79.8075C95.7055 79.8296 95.7276 79.8664 95.7424 79.9032C97.6184 80.8306 104.205 83.3035 106.637 73.9379C109.486 62.9605 109.077 52.7963 109.077 52.7963C109.077 52.7963 108.727 52.524 108.137 52.1744C108.056 52.3841 107.997 52.5608 107.968 52.6933C107.809 53.3925 103.011 51.2176 103.011 51.2176C103.011 51.2176 103.036 50.9894 103.07 50.6178C102.635 50.6214 102.192 50.6656 101.75 50.7649L100.327 53.6059C99.4576 56.296 96.8481 66.6957 96.8186 66.8061C96.8002 66.887 96.7265 66.9422 96.6491 66.9459C96.6306 66.9459 96.6122 66.9422 96.5975 66.9385C96.4979 66.9165 96.439 66.8134 96.4611 66.7178C96.5753 66.2688 99.1074 56.1635 99.9809 53.4845C99.4539 51.6187 97.4673 45.4805 94.0138 45.4805C89.9411 45.4805 87.4974 45.8853 87.4974 45.8853C87.4974 45.8853 87.9065 51.983 85.0538 52.3915H76.9121C76.9121 52.3915 74.52 52.2222 72.6624 46.82C72.6624 46.82 66.2898 45.8853 64.0673 49.7493C61.8485 53.6096 61.034 60.1158 61.034 60.1158Z" fill="#121314"/>
<path d="M108.305 38.4777C108.345 38.3563 108.411 38.187 108.489 38.0067C108.64 37.6571 108.839 37.2596 109.042 37.0572C109.447 36.6524 110.671 37.4657 110.671 37.8705V38.6838L110.505 38.6028C110.486 38.636 110.085 39.4529 109.676 41.0795C109.657 41.1604 109.635 41.2377 109.613 41.3076L108.301 38.4888C108.301 38.4888 108.305 38.4814 108.305 38.4777ZM110.033 41.1678C110.431 39.5854 110.829 38.7758 110.837 38.7684L110.781 38.739L110.671 38.6838C110.671 38.6838 110.748 38.7096 110.862 38.7611C111.205 38.9156 111.891 39.2947 111.891 39.9056C111.802 39.8945 111.714 39.9497 111.688 40.0344C111.463 40.7851 111.006 41.9259 110.656 42.6656C110.579 42.8275 110.509 42.971 110.446 43.0851L110.615 43.4494C110.689 43.35 110.767 43.2249 110.848 43.0814C111.201 42.4632 111.618 41.4769 111.961 40.4024C112.079 40.7483 112.3 40.8256 112.3 41.1236V42.3454C112.3 42.3748 112.3 42.4006 112.304 42.4264C112.219 42.3859 112.119 42.419 112.071 42.5C111.872 42.8348 111.522 43.3537 111.194 43.8284C111.113 43.9499 111.032 44.0676 110.955 44.178L111.154 44.6049C111.227 44.5019 111.308 44.3841 111.393 44.2553C111.655 43.8726 111.979 43.3648 112.37 42.7171C112.554 43.1844 113.041 43.3059 112.705 43.9683C112.569 44.248 112.289 44.8073 111.946 45.4403C111.876 45.5691 111.802 45.7016 111.725 45.8377L109.838 41.7897C109.911 41.5984 109.978 41.3923 110.033 41.1678ZM104.564 39.9056C104.962 39.6075 105.308 39.3388 105.61 39.1033L106.303 40.7115C106.027 40.8587 105.584 41.1384 105.478 41.4732C105.356 41.8339 105.651 42.1504 105.964 42.4852C106.13 42.6656 106.303 42.8496 106.443 43.063C106.712 43.4715 106.569 45.0281 106.417 45.915C106.399 46.0144 106.465 46.11 106.569 46.1284C106.576 46.1284 106.587 46.1321 106.598 46.1321C106.686 46.1321 106.764 46.0659 106.779 45.9776C106.823 45.7273 107.188 43.523 106.753 42.8606C106.594 42.6214 106.403 42.4153 106.233 42.235C105.986 41.97 105.776 41.7419 105.828 41.5873C105.887 41.407 106.185 41.1936 106.451 41.05L109.683 48.5499C108.916 49.1129 108.105 50.8388 107.969 51.446C107.818 52.1011 103.34 50.0697 103.34 50.0697C103.34 50.0697 103.749 46.6252 103.34 44.892C102.934 43.1587 102.934 41.1236 104.564 39.9056Z" fill="#121314"/>
<path d="M109.592 41.3785L109.81 41.8606C109.817 41.8385 109.829 41.8164 109.836 41.7907L109.61 41.3086C109.603 41.3344 109.599 41.3564 109.592 41.3785Z" fill="#121314"/>
<path d="M111.891 39.9102C111.891 40.1236 111.921 40.2818 111.962 40.4033C111.987 40.3186 112.017 40.2303 112.043 40.142C112.072 40.0426 112.017 39.9433 111.921 39.9138C111.91 39.9102 111.902 39.9102 111.891 39.9102Z" fill="#121314"/>
<path d="M112.303 42.4258C112.311 42.5362 112.333 42.6319 112.37 42.7165C112.377 42.7091 112.381 42.6981 112.388 42.6871C112.44 42.6024 112.411 42.4883 112.326 42.4368C112.318 42.4368 112.311 42.4295 112.303 42.4258Z" fill="#121314"/>
<path d="M111.891 50.3278L110.365 48.6644L111.891 48.0352V50.3278Z" fill="#121314"/>
<path d="M105.447 37.1423L110.275 48.3442L111.801 47.7186L106.858 36.7927C106.858 36.7927 106.858 35.3832 105.8 35.7365C104.739 36.0861 105.447 37.1423 105.447 37.1423Z" fill="#121314"/>
<path d="M80.6652 74.454L82.2464 78.0052C82.2464 78.0052 85.91 78.41 86.3154 78.41C86.7208 78.41 86.7245 77.1919 87.0194 77.1514C87.3142 77.1146 90.3881 79.2233 90.7051 79.422C90.893 79.5397 91.457 79.5913 92.0135 79.5287V79.4073C92.0983 79.4073 92.2383 79.3741 92.2457 79.2159C92.0983 78.8258 88.9544 75.8303 87.0046 74.0345L87.2552 73.7658C89.6989 76.0143 92.6069 78.7817 92.6069 79.1865C92.6069 79.2785 92.5922 79.3557 92.5627 79.4257C92.7433 79.3741 92.9054 79.3079 93.0344 79.2233C93.6463 78.8185 93.2372 78.8185 93.2372 78.8185C93.2372 78.8185 87.539 72.7207 87.1299 72.7207C86.7208 72.7207 80.6652 74.454 80.6652 74.454Z" fill="#121314"/>
<path d="M74.0949 29.6896C74.2608 28.5083 75.2743 27.5957 76.5091 27.5957C77.1209 27.5957 77.6811 27.8202 78.1087 28.1955C78.6247 28.6408 78.9453 29.2995 78.9453 30.0319C78.9453 31.3751 77.8543 32.468 76.5091 32.468C75.1638 32.468 74.0691 31.3751 74.0691 30.0319C74.0691 29.9178 74.0765 29.8037 74.0949 29.6896ZM75.4181 29.8221C76.0225 29.4615 76.5496 29.3584 76.9882 29.513C77.6148 29.7338 77.8728 30.4256 77.8765 30.4293L78.2229 30.3079C78.2119 30.2711 77.9096 29.4504 77.1172 29.1671C76.568 28.972 75.9304 29.0861 75.2301 29.5056L75.4181 29.8221Z" fill="#121314"/>
<path d="M83.8366 28.6992C84.1131 28.6992 84.3784 28.7434 84.6254 28.8243C85.65 29.1555 86.3945 30.116 86.3945 31.2495C86.3945 31.9707 86.0923 32.6258 85.6095 33.0895C85.1488 33.5311 84.5259 33.8034 83.8366 33.8034C82.425 33.8034 81.2788 32.6589 81.2788 31.2495C81.2788 29.84 82.425 28.6992 83.8366 28.6992ZM82.6462 31.0544C83.4202 30.7453 84.091 30.8373 84.6438 31.3267C85.064 31.6984 85.2556 32.1658 85.2556 32.1695L85.5984 32.0333C85.5874 32.0112 85.3736 31.4813 84.8871 31.0507C84.43 30.6459 83.6487 30.2559 82.5098 30.7122L82.6462 31.0544Z" fill="#121314"/>
<path d="M34.7656 62.3809V56.7873C35.7202 56.7873 36.6416 56.7616 37.5594 56.7947C38.1306 56.8168 38.3665 56.6475 38.3628 56.0366C38.3407 52.9233 38.3444 49.8064 38.3628 46.6894C38.3628 46.1411 38.1822 45.9093 37.6146 45.9203C36.3025 45.9424 34.9904 45.9093 33.6783 45.9424C33.4092 45.9497 33.0886 46.0785 32.8932 46.2589C32.0787 47.0206 31.2863 47.8155 30.5196 48.6251C30.3501 48.8054 30.2248 49.1072 30.2248 49.3537C30.2027 51.6096 30.2211 53.8654 30.2064 56.1213C30.2027 56.6365 30.4128 56.8021 30.903 56.7873C31.8465 56.7653 32.79 56.78 33.7852 56.78V62.3809C31.6917 62.9918 29.5761 63.6101 27.4605 64.2283C26.1631 64.6073 24.8694 65.0085 23.5647 65.3581C23.104 65.4832 22.9418 65.704 22.9529 66.1713C22.9787 67.2017 22.975 68.2321 22.9529 69.2662C22.9455 69.6673 23.0634 69.8918 23.4762 70.0096C26.985 71.0142 30.4865 72.0409 33.9916 73.0493C34.1796 73.1045 34.4154 73.0934 34.6034 73.0382C38.0901 72.0373 41.5694 71.0179 45.0561 70.0206C45.4836 69.8992 45.6274 69.6784 45.6163 69.2405C45.5868 68.2321 45.5832 67.2201 45.6163 66.2118C45.6311 65.715 45.4578 65.4942 44.975 65.3581C41.7979 64.4528 38.6282 63.5144 35.4585 62.587C35.2337 62.5208 35.0088 62.4509 34.773 62.3809H34.7656ZM34.7472 63.3157C37.6589 64.1621 40.5042 64.9937 43.4491 65.8512C43.2685 65.9469 43.2022 66.0021 43.1248 66.0241C40.3015 66.8485 37.4783 67.6765 34.6513 68.4787C34.386 68.556 34.0579 68.5302 33.7852 68.4529C31.7617 67.8825 29.742 67.2864 27.7259 66.6939C26.8708 66.4437 26.0157 66.1861 24.9911 65.8806C28.0318 64.9937 30.8919 64.1621 33.7741 63.3193V65.5641C33.7078 65.6157 33.6378 65.6635 33.5714 65.715C33.3392 65.3544 33.1033 64.9937 32.849 64.6C32.5468 64.9201 32.3625 65.1115 32.1524 65.3323C32.7606 65.9285 33.2876 66.4989 33.881 66.9957C34.0395 67.1281 34.4855 67.1539 34.6366 67.0288C35.2668 66.5209 35.8344 65.9395 36.3873 65.4169C36.1477 65.0931 35.9856 64.876 35.6649 64.4454C35.3221 64.9275 35.0826 65.2697 34.7508 65.7371V63.312L34.7472 63.3157ZM37.4304 55.8784H31.1352V49.5451C31.8096 49.5451 32.451 49.523 33.0886 49.5525C33.6562 49.5782 33.8552 49.3353 33.8331 48.787C33.8036 48.1504 33.8257 47.5137 33.8257 46.8771H37.4304V55.8784ZM33.8257 72.0925C30.5307 71.132 27.3241 70.2009 24.1176 69.2589C23.9996 69.2257 23.8374 69.0785 23.8338 68.9792C23.8116 68.1769 23.819 67.3747 23.819 66.4841C27.1362 67.4483 30.3427 68.3757 33.5456 69.3251C33.6672 69.3619 33.8073 69.5974 33.811 69.7446C33.8368 70.4917 33.822 71.2424 33.822 72.0925H33.8257ZM34.7287 72.0925C34.7287 71.3417 34.7545 70.6573 34.7177 69.9801C34.6956 69.5459 34.8172 69.3509 35.2668 69.2257C38.256 68.3793 41.234 67.4961 44.2194 66.6277C44.3706 66.5835 44.5327 66.5872 44.7428 66.5614C44.7428 67.3085 44.7207 67.9929 44.7502 68.6737C44.7686 69.0785 44.6138 69.2221 44.2342 69.3251C42.6014 69.7741 40.9797 70.2598 39.3543 70.7345C37.8358 71.1798 36.3173 71.6251 34.725 72.0888L34.7287 72.0925ZM32.8969 48.592H31.876C31.9313 48.6251 31.9866 48.6545 32.0418 48.6877C32.3072 48.3197 32.5763 47.9553 32.8932 47.5137V48.592H32.8969Z" fill="#151B28"/>
<path d="M43.3657 56.7876C43.1888 57.7775 42.7428 58.1676 41.8693 58.1824C41.4823 58.1897 41.0953 58.1824 40.7083 58.1824C39.3777 58.2008 38.4342 59.106 38.3678 60.4308C38.3568 60.6222 38.3678 60.8135 38.3678 61.1337C37.9772 60.7694 37.6712 60.486 37.2695 60.1144C37.1147 60.3388 36.971 60.5486 36.7904 60.8172C37.3322 61.3655 37.9145 61.9912 38.5448 62.5579C38.6553 62.6572 39.0534 62.602 39.1971 62.4806C39.7979 61.9617 40.3508 61.3913 41.0068 60.7584C40.7193 60.567 40.4945 60.4124 40.2328 60.2395C39.9896 60.4713 39.68 60.7583 39.3593 61.0601C39.0644 59.8641 39.6431 59.095 40.8188 59.0876C41.1616 59.0876 41.5081 59.0876 41.8508 59.0876C43.1851 59.0729 43.8559 58.4657 44.3424 56.7913C45.2859 56.7913 46.2516 56.7766 47.2136 56.7987C47.7038 56.8097 47.9102 56.6257 47.9102 56.1179C47.8991 52.9568 47.8991 49.7993 47.9102 46.6382C47.9102 46.1009 47.6706 45.9206 47.1583 45.9279C45.824 45.9427 44.4898 45.9169 43.1556 45.9463C42.9086 45.95 42.6101 46.0825 42.4295 46.2518C41.615 47.0209 40.8225 47.8084 40.0559 48.6217C39.8864 48.802 39.7647 49.1038 39.7647 49.3504C39.7426 51.6062 39.7647 53.8657 39.7463 56.1215C39.7426 56.622 39.9195 56.8134 40.4245 56.7987C41.3901 56.7692 42.3558 56.7913 43.3657 56.7913V56.7876ZM46.9703 55.8897H40.6788V49.5454C41.3312 49.5454 41.9319 49.5159 42.529 49.5527C43.1408 49.5932 43.3988 49.3687 43.3657 48.7431C43.3288 48.1286 43.3583 47.5103 43.3583 46.8627H46.9703V55.8897ZM41.5228 48.6291C41.8103 48.3015 42.1125 47.963 42.4369 47.595V48.6291H41.5228Z" fill="#151B28"/>
<path d="M24.2128 56.7881C24.7473 58.6649 25.3149 59.0881 27.2241 59.0881C27.4599 59.0881 27.6995 59.0808 27.9354 59.0881C28.9047 59.1286 29.3692 59.8057 29.2549 61.0974C28.8974 60.7699 28.5767 60.4755 28.2045 60.1332C28.0202 60.343 27.8506 60.5344 27.6111 60.8067C28.2045 61.3808 28.7831 61.9769 29.4097 62.5179C29.5424 62.632 29.9331 62.632 30.0657 62.5179C30.6849 61.9916 31.2562 61.4102 31.8828 60.8104C31.6432 60.5601 31.47 60.3798 31.2452 60.1443C30.9172 60.4534 30.6149 60.7441 30.2353 61.1084C30.2169 60.8251 30.2021 60.6264 30.1911 60.4276C30.121 59.1065 29.1775 58.1976 27.847 58.1792C27.4378 58.1718 27.0287 58.1865 26.6196 58.1792C25.8051 58.1571 25.3591 57.7449 25.1932 56.7844C26.1183 56.7844 27.0287 56.7844 27.9391 56.7844C28.5116 56.7844 28.7991 56.4962 28.8015 55.9196C28.8015 52.8689 28.8015 49.8145 28.8015 46.7638C28.8015 45.9726 28.7573 45.9284 27.9502 45.9284C26.7007 45.9284 25.4512 45.9064 24.2055 45.9432C23.8995 45.9542 23.5347 46.0977 23.3098 46.3038C22.5174 47.0288 21.7545 47.7905 21.0284 48.5817C20.822 48.8062 20.6709 49.1705 20.6672 49.476C20.6377 51.6472 20.6672 53.8184 20.6414 55.9896C20.634 56.6225 20.8736 56.8212 21.478 56.7955C22.381 56.7587 23.284 56.7844 24.2165 56.7844L24.2128 56.7881ZM21.5997 55.8976V49.5496C22.2668 49.5496 22.8897 49.5201 23.5089 49.5569C24.1133 49.5937 24.3124 49.3361 24.2792 48.7584C24.246 48.1254 24.2718 47.4888 24.2718 46.8816H27.8875V55.8976H21.5997ZM23.3467 47.5808V48.6075H22.3184C22.6685 48.2579 22.9818 47.9451 23.3467 47.5808Z" fill="#151B28"/>
<path d="M32.0366 50.5156V51.3068H36.5V50.5156H32.0366Z" fill="#151B28"/>
<path d="M36.5156 53.1245V52.3223H32.0485V53.1245H36.5156Z" fill="#151B28"/>
<path d="M34.7571 48.6992V49.5125H36.5078V48.6992H34.7571Z" fill="#151B28"/>
<path d="M36.4883 54.1445H35.6664V54.9431H36.4883V54.1445Z" fill="#151B28"/>
<path d="M33.8552 54.1445V54.9394H34.6992V54.1445H33.8552Z" fill="#151B28"/>
<path d="M32.0351 54.1562V54.929H32.8828V54.1562H32.0351Z" fill="#151B28"/>
<path d="M46.0703 51.3105V50.5156H41.6032V51.3105H46.0703Z" fill="#151B28"/>
<path d="M41.5911 52.3418V53.122H46.0508V52.3418H41.5911Z" fill="#151B28"/>
<path d="M41.5908 54.1602V54.933H46.0469V54.1602H41.5908Z" fill="#151B28"/>
<path d="M44.3185 48.6914V49.501H46.0508V48.6914H44.3185Z" fill="#151B28"/>
<path d="M22.486 50.5156V51.3105H26.9531V50.5156H22.486Z" fill="#151B28"/>
<path d="M26.9727 53.122V52.3418H22.5129V53.122H26.9727Z" fill="#151B28"/>
<path d="M22.4856 54.1523V54.9399H26.9453V54.1523H22.4856Z" fill="#151B28"/>
<path d="M26.9648 49.5079V48.6836H25.251V49.5079H26.9648Z" fill="#151B28"/>
<path d="M41.0752 28.6552C46.2831 32.5707 52.0587 30.3885 54.4912 27.0581C57.2481 23.2861 56.8464 18.112 53.4813 14.8552C50.1568 11.6389 44.8899 11.4291 41.2337 14.3474C37.865 17.0338 36.258 22.6495 39.9474 27.5071C39.2471 28.1915 38.5431 28.9018 37.806 29.5752C37.677 29.693 37.3932 29.704 37.1905 29.6783C36.4017 29.5826 35.7531 29.8107 35.1891 30.3738C34.0539 31.5109 32.8893 32.6223 31.7467 33.7557C30.7663 34.7272 30.7036 36.0263 31.5771 36.9058C32.4507 37.7853 33.7443 37.7301 34.7395 36.7659C35.8599 35.6767 36.9657 34.5727 38.0972 33.4907C38.7385 32.8762 39.0665 32.1807 38.8859 31.2754C38.8527 31.1098 38.9117 30.8595 39.026 30.7418C39.6968 30.0279 40.3934 29.3434 41.0752 28.6552ZM39.4867 21.5087C39.4977 17.3098 42.8628 13.9426 47.0682 13.9279C51.2294 13.9131 54.6571 17.3245 54.6792 21.5013C54.7013 25.6781 51.2146 29.1557 47.0424 29.1189C42.837 29.0821 39.4793 25.6965 39.4904 21.505L39.4867 21.5087Z" fill="#151B28"/>
<path d="M44.9449 25.5834H44.2299C44.2299 24.8106 44.2299 24.0599 44.2299 23.3092C44.2299 22.1941 44.2152 21.0754 44.2373 19.9604C44.2446 19.5298 44.1083 19.3679 43.6623 19.3752C42.1217 19.4047 42.3981 19.2612 42.387 20.5933C42.3723 22.4223 42.3834 24.2512 42.3834 26.1354H51.8925C51.8925 25.0682 51.9036 24.0047 51.8741 22.9412C51.8741 22.8197 51.6492 22.6247 51.5092 22.6026C50.175 22.3965 50.0644 22.4996 50.0644 23.8354C50.0644 24.2807 50.0939 24.7296 50.0496 25.1749C50.0349 25.3332 49.8396 25.4767 49.729 25.6276C49.6 25.4693 49.4636 25.3184 49.3457 25.1492C49.3125 25.105 49.342 25.0204 49.342 24.9504C49.3272 23.7728 49.5705 23.8391 48.1736 23.817C47.6834 23.8096 47.4696 23.9716 47.5028 24.472C47.5286 24.8253 47.5065 25.1786 47.5065 25.5797H46.8799C46.8468 25.5024 46.7988 25.4472 46.7988 25.3884C46.7915 24.2733 46.762 23.1546 46.7988 22.0396C46.8173 21.4728 46.6735 21.241 46.058 21.2631C44.9449 21.3036 44.9449 21.2668 44.9449 22.4039C44.9449 23.449 44.9449 24.4941 44.9449 25.5834Z" fill="#151B28"/>
<path d="M47.5165 21.6454C47.5313 21.9692 47.7155 22.374 48.2868 22.4476C48.8286 22.5212 49.1788 22.2857 49.3299 21.741C49.4773 21.2111 50.0781 20.9314 50.6162 21.1154C51.1543 21.2994 51.6666 21.1007 51.8435 20.637C52.0315 20.1476 51.7809 19.5846 51.3054 19.4226C50.7821 19.246 50.3213 19.4999 50.1113 20.0814C49.9049 20.6591 49.3741 20.7769 48.7697 20.7585C48.0362 20.7327 47.5681 20.4015 47.1811 19.8863C46.9895 19.6287 46.8457 19.2938 46.7978 18.9774C46.7093 18.3886 46.2781 18.0169 45.6847 18.1089C45.0581 18.2082 44.3173 17.6636 44.2252 17.0417C44.1367 16.4566 43.6944 16.0996 43.16 16.1842C42.6919 16.2578 42.3307 16.7436 42.3971 17.2073C42.4708 17.7335 42.9683 18.0758 43.5286 17.9874C44.1146 17.8954 44.8554 18.429 44.9476 19.0142C45.0397 19.6066 45.353 19.9194 45.9869 19.9084C46.5656 19.8974 47.5349 20.8983 47.5202 21.6417L47.5165 21.6454ZM45.2719 18.9774C45.5447 18.7934 45.7474 18.5615 45.8653 18.5983C46.0385 18.6535 46.1491 18.9001 46.2892 19.0657C46.1344 19.1908 45.9796 19.4079 45.8211 19.4079C45.67 19.4079 45.5189 19.1834 45.2719 18.9737V18.9774ZM50.3987 20.269C50.6641 20.0924 50.8373 19.8863 50.9921 19.901C51.1469 19.9158 51.2833 20.1439 51.4271 20.2801C51.2723 20.431 51.1322 20.6628 50.9553 20.6996C50.83 20.7254 50.6494 20.4788 50.3987 20.2727V20.269ZM48.4085 20.9609C48.6075 21.2074 48.8286 21.362 48.8286 21.5166C48.8286 21.6711 48.6075 21.8257 48.4859 21.9766C48.3237 21.8367 48.0731 21.7226 48.0215 21.5497C47.9846 21.4282 48.2205 21.2295 48.4085 20.9609ZM43.289 17.6746C43.1047 17.4097 42.8799 17.2146 42.9131 17.0969C42.961 16.9276 43.2005 16.8098 43.359 16.67C43.4843 16.8209 43.7018 16.9681 43.7055 17.119C43.7055 17.2698 43.4917 17.4207 43.289 17.671V17.6746Z" fill="#151B28"/>
</svg>
