<svg width="129" height="92" viewBox="0 0 129 92" fill="none" xmlns="http://www.w3.org/2000/svg">
<path d="M55.1645 74.7812H68.4515C68.7611 74.7812 69.0117 75.0315 69.0117 75.3406V78.8918C69.0117 79.2009 68.7611 79.4512 68.4515 79.4512H55.6768C55.3967 79.4512 55.1608 79.2451 55.1203 78.9728L54.6043 75.4216C54.5563 75.083 54.818 74.7812 55.1608 74.7812H55.1645Z" fill="#F37BB8"/>
<path d="M20.8024 52.9766H48.3015C49.1529 52.9766 49.879 53.5838 50.0301 54.4191L54.5156 79.4542H24.2375L19.7188 54.2682C19.6009 53.5948 20.1169 52.9802 20.8024 52.9802V52.9766ZM35.0735 66.0737C35.1951 66.8686 35.8512 67.5236 36.651 67.6487C37.9373 67.8438 39.0246 66.7582 38.8292 65.4775C38.7076 64.6753 38.0515 64.0239 37.2517 63.9025C35.9654 63.7038 34.8781 64.793 35.0735 66.0737Z" fill="#F37BB8"/>
<path d="M47.2305 17.3438C47.1085 17.4946 47.0013 17.6345 46.9052 17.7633C46.9976 17.6124 47.0937 17.4615 47.2305 17.3438Z" fill="#151B28"/>
<path d="M56.2907 36.9653C54.8348 35.762 56.9431 33.3589 56.9431 33.3589C56.9431 33.3589 56.5413 33.7601 56.5413 31.357C56.5413 28.954 58.5464 28.5529 58.9481 29.0165C59.3498 29.4802 58.9481 31.357 58.9481 32.5567C58.9481 33.7564 60.5514 36.9617 60.5514 36.9617L60.9531 37.418L58.9555 38.1834" fill="#151B28"/>
<path d="M59.4791 34.8574C59.984 36.1528 60.6032 37.3966 60.6474 37.4849H60.6511L60.957 37.3635L59.4791 34.8574Z" fill="#151B28"/>
<path d="M50.1249 32.1572C50.1249 32.5583 50.5267 33.758 51.3302 35.3624C52.1337 36.9632 54.1387 40.1685 54.1387 40.1685L60.655 37.4895L60.9609 37.3644L59.483 34.8583L56.9472 30.5564C56.8993 30.5012 56.8809 30.4533 56.8735 30.4202C56.8403 30.262 56.9472 30.078 57.1499 29.9565C56.9988 30.1221 56.8035 30.3944 56.7482 30.7588C56.7187 30.9464 56.7408 31.09 56.7482 31.1599C56.8698 32.1351 56.5971 33.1471 56.7555 33.1876C56.8698 33.217 57.0615 32.7312 57.1499 32.7644C57.2052 32.7864 57.1794 32.9962 57.1499 33.1655C57.0725 33.2685 56.9988 33.3752 56.9214 33.4783C56.9103 33.493 55.5651 35.046 55.6683 36.2972C55.6977 36.6872 55.8599 36.9927 56.1658 37.2466L55.9078 37.5557C55.5245 37.2356 55.3071 36.8234 55.2665 36.3303C55.1744 35.1968 56.0442 33.942 56.4386 33.4378C56.2617 33.2207 56.1179 32.6576 56.1179 31.0936C56.1179 30.4754 56.2285 29.9823 56.3943 29.5922C55.495 28.065 53.7001 25.2461 52.5354 24.9517C50.9321 24.5506 53.3389 29.7578 53.3389 29.7578C52.5354 29.3567 52.1337 30.56 52.1337 30.56C50.5304 30.56 50.9284 31.7634 50.9284 31.7634C50.9284 31.7634 50.1249 31.7634 50.1249 32.1645V32.1572Z" fill="#151B28"/>
<path d="M55.6438 40.8745L61.4451 38.4861C62.654 38.4972 62.9673 38.9682 62.9673 38.9682L66.981 48.5841L75.4066 42.1735C75.4066 42.1735 80.2201 37.7685 85.8371 38.166C85.8371 38.166 87.4404 40.569 91.0524 40.1679C94.6644 39.7668 95.4642 38.5671 95.4642 38.166C95.4642 38.166 101.483 39.3693 103.89 42.9721C106.297 46.5785 110.712 60.1981 110.31 63.8009C109.909 67.4073 110.712 66.605 108.707 69.0081C106.702 71.4111 94.2627 78.2228 94.2627 78.2228C94.2627 78.2228 93.4666 78.0793 92.582 77.4169C91.8043 75.4149 91.0266 73.413 90.2526 71.4111C91.7232 70.3439 93.1938 69.273 94.6644 68.2058C96.6695 66.7375 98.6782 65.2692 100.683 63.8009C101.085 63.5322 101.487 63.2673 101.888 62.9986C101.888 62.9986 101.476 61.6407 100.912 59.7381C101.019 59.705 101.081 59.5946 101.048 59.4916C99.1315 52.978 98.0737 48.9594 98.0737 48.1793C98.0737 48.0689 97.9853 47.9805 97.8747 47.9805C97.7641 47.9805 97.6757 48.0689 97.6757 48.1793C97.6757 49.2281 99.3011 54.9725 100.665 59.6057C100.691 59.6866 100.757 59.7418 100.838 59.7455C100.654 60.9636 100.469 62.1853 100.285 63.4034C96.8095 65.8065 93.3302 68.2095 89.8546 70.6125C86.3789 71.2786 82.8996 71.9484 79.424 72.6145C79.424 72.6145 80.2275 69.4092 80.6292 66.605C81.031 63.8009 79.8257 61.7989 77.8207 58.9948C77.1131 58.0049 77.0062 56.577 77.1831 55.0977H77.2089C77.3084 55.0977 77.3932 55.0241 77.4079 54.921C77.7876 51.9881 79.1881 49.0956 79.2065 49.0698C79.6193 48.2455 80.0137 43.973 80.0285 43.7927C80.0358 43.6823 79.9547 43.5829 79.8479 43.5719C79.7299 43.5645 79.6378 43.6455 79.6267 43.7522C79.5198 44.9703 79.1623 48.2639 78.8453 48.8932C78.8343 48.9226 77.4005 51.874 77.0062 54.8732C77.0025 54.9137 77.0099 54.9541 77.032 54.9836H77.0209C77.0209 54.9836 68.1936 61.3978 65.3851 60.9967C62.5766 60.5956 58.1648 50.1812 58.1648 50.1812L55.3563 43.3695C55.3563 43.3695 54.8182 42.1183 55.6585 40.8708L55.6438 40.8745ZM90.448 41.9711C90.1163 41.6399 89.5781 41.6399 89.2427 41.9711C88.911 42.3023 88.911 42.8396 89.2427 43.1745C89.5745 43.5057 90.1126 43.5057 90.448 43.1745C90.7797 42.8433 90.7797 42.306 90.448 41.9711ZM90.0462 44.3741C89.7145 44.0429 89.1764 44.0429 88.841 44.3741C88.5093 44.7053 88.5093 45.2426 88.841 45.5775C89.1727 45.9087 89.7108 45.9087 90.0462 45.5775C90.3779 45.2463 90.3779 44.709 90.0462 44.3741ZM89.6445 46.7772C89.3128 46.446 88.7747 46.446 88.4393 46.7772C88.1075 47.1084 88.1075 47.6457 88.4393 47.9805C88.771 48.3117 89.3091 48.3117 89.6445 47.9805C89.9762 47.6494 89.9762 47.1121 89.6445 46.7772ZM87.3483 49.2097C87.7463 49.758 88.3471 50.034 89.1469 50.034C89.2501 50.034 89.357 50.0303 89.4639 50.0229C89.5966 50.0119 89.6961 49.8941 89.685 49.7617C89.674 49.6292 89.5597 49.5335 89.4233 49.5409C88.6383 49.6108 88.0817 49.4084 87.7427 48.9263C86.3237 46.9501 88.8373 41.1247 88.8631 41.0621C88.9147 40.9407 88.8594 40.7972 88.7378 40.7457C88.6125 40.6941 88.4724 40.7493 88.4208 40.8708C88.3139 41.1173 85.7782 47.0127 87.3483 49.206V49.2097Z" fill="#151B28"/>
<path d="M100.828 59.7467C100.828 59.7467 100.84 59.7504 100.847 59.7504C100.865 59.7504 100.884 59.7467 100.902 59.743C100.884 59.6801 100.865 59.6136 100.847 59.5508L100.828 59.7467Z" fill="#151B28"/>
<path d="M89.2417 72.0131C89.2417 72.0131 82.4194 71.2108 83.6247 72.8153C84.8299 74.4161 86.0314 74.4161 86.0314 74.4161C86.0314 74.4161 79.0102 75.8182 80.2154 76.2193C81.4206 76.6204 83.4256 76.6204 83.4256 76.6204C83.4256 76.6204 80.584 77.8238 80.8014 78.6223C81.0189 79.4209 83.8274 78.2212 83.8274 78.2212C83.8274 78.2212 81.0189 79.822 81.8224 80.2231C82.6258 80.6243 84.6309 79.4209 84.6309 79.4209C84.6309 79.4209 82.2241 80.6243 82.6258 81.0217C83.0276 81.4191 89.8462 80.6206 91.4531 77.0142L89.2454 72.0057L89.2417 72.0131Z" fill="#151B28"/>
<path d="M80.6159 33.3592C82.2192 30.154 80.2142 25.3479 79.8124 24.1445C79.4107 22.9412 79.0089 21.3404 80.6159 18.5362C82.2192 15.732 82.6209 15.3309 87.0364 14.5287C91.4519 13.7264 95.8637 16.1295 95.8637 17.734C95.8637 19.3384 96.6672 23.3423 99.4757 24.9431C102.284 26.5439 101.882 28.9506 101.882 29.7492C101.882 30.5477 100.677 32.9544 99.8774 34.9564C99.3909 36.1671 99.7853 37.9556 100.176 39.1884C97.9056 38.0512 95.7347 37.606 95.5836 37.5728L95.3956 37.536C94.9165 36.962 94.3673 36.2223 93.9987 35.49C93.5343 34.5552 93.5012 32.1669 93.6191 30.3306L93.6523 30.3196C94.9939 29.8743 95.672 28.958 95.672 27.5927C95.672 27.324 95.672 26.5181 95.0418 26.1317C94.5295 25.8152 93.8144 25.9036 92.7935 26.4114C92.5355 26.5402 92.4286 26.485 92.3844 26.4592C92.0232 26.2716 91.7431 25.4252 91.6546 24.8842C91.6546 23.5447 91.3008 22.5805 90.6115 22.0432C89.9887 21.5538 89.3105 21.5869 89.0193 21.6311C86.0671 21.333 84.2537 20.0597 84.2316 20.0487L83.933 19.8352L83.605 20.0045C81.6221 21.0202 81.2167 28.1852 81.6442 29.8964C81.8801 30.8421 82.5988 33.7052 85.4257 34.6767C85.6616 34.7576 85.9086 34.8128 86.1555 34.8496C86.2219 35.3464 86.2808 36.145 86.0707 36.778C85.9786 37.054 85.8607 37.3189 85.739 37.5581C83.0853 37.4072 80.6343 38.2426 78.7509 39.2068C78.7141 39.1626 78.6477 39.0375 78.6625 38.8314C78.6919 38.5002 78.9315 37.9298 79.9451 37.1202C81.2904 36.0456 82.0275 34.57 82.0275 32.9581H81.6258C81.6258 34.4448 80.9402 35.8138 79.6945 36.8074C78.7767 37.5397 78.2902 38.2205 78.257 38.8277C78.2423 39.0964 78.3197 39.2877 78.3897 39.3981C77.6452 39.7992 76.9965 40.2114 76.4768 40.572C76.3773 40.3476 76.2852 40.0789 76.2078 39.7698C75.806 38.169 79.0163 36.5645 80.6196 33.3592H80.6159ZM97.2864 37.4514L97.6476 37.2748C97.6365 37.249 96.4829 34.9306 96.8515 33.8229C96.9583 33.5101 97.091 33.1789 97.2237 32.8624C97.6144 31.913 97.983 31.0188 97.6402 30.3932L97.2864 30.5845C97.5333 31.0408 97.1869 31.8872 96.8478 32.7079C96.7151 33.0317 96.5787 33.3703 96.4718 33.6941C96.048 34.96 97.2348 37.352 97.2827 37.4514H97.2864ZM98.8012 26.2789C100.559 27.7656 100.095 29.256 98.8823 32.4834C97.6697 35.7144 98.4363 36.6124 98.5285 36.7007L98.8123 36.4247C98.8123 36.4247 98.1341 35.6114 99.2582 32.6269C100.471 29.3885 101.016 27.6258 99.0592 25.9698C97.2901 24.472 95.2592 22.4996 95.2592 20.5381H94.8575C94.8575 22.6652 96.962 24.7186 98.8012 26.2789ZM84.8876 19.0772C85.5142 19.7064 87.1691 20.0744 88.6323 20.402C89.141 20.5197 89.6238 20.6264 89.996 20.7295C91.2971 21.0975 92.06 22.9927 92.0637 23.0111L92.4397 22.8676C92.4028 22.7792 91.5993 20.7663 90.1103 20.3431C89.727 20.2364 89.2368 20.1223 88.7208 20.0119C87.3792 19.7101 85.7169 19.3384 85.1714 18.7938C84.4159 18.0357 84.0952 17.3476 84.368 17.0716L84.0878 16.7919C83.6234 17.2556 83.9183 18.1093 84.8913 19.0735L84.8876 19.0772Z" fill="#151B28"/>
<path d="M83.8761 20.543C83.8761 20.543 85.8185 21.9414 89.0361 22.2431C89.0361 22.2431 91.0485 21.7463 91.0485 24.9516C91.0485 24.9516 91.4503 27.7558 93.0536 26.9535C94.6568 26.1513 95.0586 26.637 95.0586 27.5975C95.0586 28.558 94.6568 29.3566 93.4553 29.7577H93.0536C93.0536 29.7577 92.6518 34.1627 93.4553 35.7671C93.7796 36.4111 94.233 37.0588 94.6605 37.5961V38.0782C94.5389 38.2585 93.8534 39.057 90.9601 39.3772C87.9157 39.7121 86.5556 37.8022 86.493 37.7212L86.3935 37.574C86.4819 37.3826 86.5667 37.1766 86.6331 36.9705C86.9648 35.9695 86.7436 34.6926 86.6625 34.2914C86.3161 34.2878 85.9659 34.2362 85.6158 34.1148C83.4265 33.3641 82.623 31.3622 82.2213 29.7614C81.8195 28.1606 82.3134 21.3489 83.8724 20.5466L83.8761 20.543ZM89.6738 24.8007L90.0202 24.5946C89.7143 24.0794 88.8519 23.1962 87.7793 23.5569L87.9083 23.9322C88.9403 23.59 89.648 24.7455 89.6774 24.797L89.6738 24.8007ZM87.842 26.35C88.1737 26.35 88.4427 26.0814 88.4427 25.7502C88.4427 25.419 88.1737 25.1503 87.842 25.1503C87.5103 25.1503 87.2412 25.419 87.2412 25.7502C87.2412 26.0814 87.5103 26.35 87.842 26.35ZM85.5126 31.3364C86.2387 31.3364 86.9979 31.1818 87.1232 31.1524L87.0385 30.7586C86.5409 30.8654 85.144 31.0788 84.628 30.7844L84.429 31.1303C84.7017 31.2849 85.1035 31.3401 85.5163 31.3401L85.5126 31.3364ZM84.6354 25.1466C84.9671 25.1466 85.2362 24.878 85.2362 24.5468C85.2362 24.2156 84.9671 23.947 84.6354 23.947C84.3037 23.947 84.0346 24.2156 84.0346 24.5468C84.0346 24.878 84.3037 25.1466 84.6354 25.1466ZM84.2005 22.9754C84.2779 22.9166 84.3627 22.8908 84.4622 22.9018C84.9045 22.9497 85.4794 23.5643 85.6711 23.7961L85.9844 23.5422C85.9033 23.4428 85.1882 22.578 84.5064 22.5044C84.2926 22.4786 84.1083 22.5338 83.9498 22.659L84.2042 22.9718L84.2005 22.9754Z" fill="#151B28"/>
<path d="M31.6701 82.0449H111.2C112.041 82.0449 112.723 82.7257 112.723 83.5648V85.8132C112.723 86.6523 112.041 87.3331 111.2 87.3331H13.2157C12.3754 87.3331 11.6935 86.6523 11.6935 85.8132V83.5648C11.6935 82.7257 12.3754 82.0449 13.2157 82.0449H31.6664H31.6701Z" fill="#151B28"/>
<path d="M33.1166 13.4426C33.183 13.553 33.1903 13.5677 33.2014 13.5825C33.9312 14.5613 34.8747 14.9146 36.1094 14.8006C37.2962 14.6902 38.5015 14.7785 39.6993 14.7821C39.7325 14.7821 39.7657 14.8042 39.8504 14.83V26.974H24.4773V14.7858H28.5279C28.0635 14.2964 27.7244 13.9063 27.3485 13.5567C27.249 13.4647 27.0499 13.45 26.8988 13.4463C26.0843 13.4353 25.266 13.4353 24.4478 13.4426C23.5338 13.45 22.992 13.9615 22.9699 14.8852C22.9477 15.7353 22.9625 16.589 22.9625 17.4391C22.9625 20.5193 22.9625 23.5994 22.9625 26.6796C22.9625 27.8314 23.4564 28.3319 24.6137 28.3319C30.6546 28.3319 36.6991 28.3356 42.74 28.3356C43.8163 28.3356 44.3359 27.8057 44.3359 26.7274C44.3359 22.8671 44.3359 19.0105 44.3359 15.1501C44.3359 13.8953 43.8789 13.4389 42.6368 13.4389C39.6625 13.4389 36.6844 13.4389 33.71 13.4389C33.5331 13.4389 33.3599 13.4389 33.1129 13.4389L33.1166 13.4426ZM42.1503 22.1495C41.4353 22.1495 40.8824 21.5975 40.8824 20.8873C40.8824 20.1844 41.45 19.614 42.154 19.614C42.858 19.614 43.4071 20.166 43.4145 20.8873C43.4219 21.6012 42.8727 22.1532 42.154 22.1495H42.1503ZM42.1982 23.9785C42.1982 23.9785 42.1982 23.9785 42.1982 23.9821C41.9071 23.9821 41.6085 24.0263 41.3321 23.9674C41.1662 23.9306 41.0372 23.7393 40.8898 23.6141C41.0225 23.478 41.1441 23.2314 41.2842 23.2204C41.8591 23.1762 42.4415 23.1799 43.0165 23.2241C43.1528 23.2351 43.2745 23.4817 43.4035 23.6215C43.2745 23.7393 43.1565 23.9306 43.0091 23.9601C42.7511 24.0153 42.471 23.9748 42.1982 23.9748V23.9785ZM42.1687 25.5093C41.8628 25.5093 41.5459 25.5498 41.251 25.4909C41.1109 25.4615 40.9156 25.2481 40.9119 25.1156C40.9119 24.9941 41.1257 24.7697 41.2584 24.7623C41.8518 24.7255 42.4525 24.7255 43.0459 24.7623C43.1749 24.7697 43.3887 25.0052 43.3813 25.1229C43.374 25.2591 43.1786 25.4615 43.0349 25.4909C42.7585 25.5498 42.4599 25.5093 42.1724 25.5093H42.1687ZM42.1687 16.9129C42.1687 16.9129 42.1687 16.9092 42.1687 16.9055C41.8591 16.9055 41.5422 16.9497 41.2473 16.8871C41.1073 16.8577 40.9156 16.6332 40.9156 16.497C40.9156 16.3682 41.1294 16.1401 41.2621 16.129C41.8407 16.0886 42.4231 16.0849 42.998 16.129C43.1418 16.1401 43.2708 16.3829 43.4071 16.5191C43.2671 16.6516 43.1418 16.854 42.9796 16.8981C42.7253 16.9607 42.4415 16.9166 42.1687 16.9166V16.9129ZM42.1503 18.4364C41.8591 18.4364 41.5606 18.4842 41.2879 18.418C41.1331 18.3812 40.9598 18.1714 40.9156 18.0058C40.8935 17.9249 41.1404 17.6746 41.2768 17.6673C41.8518 17.6268 42.4341 17.6231 43.0091 17.6636C43.1455 17.6709 43.3961 17.9138 43.374 18.0058C43.3408 18.1677 43.1639 18.3849 43.0128 18.4217C42.74 18.4879 42.4378 18.4401 42.1503 18.4401V18.4364Z" fill="#151B28"/>
<path d="M30.986 16.0342C31.5499 15.4491 32.0769 14.9007 32.6445 14.3119C31.9369 13.6422 31.2071 12.9503 30.4736 12.2585C28.922 10.7939 27.3703 9.32553 25.8149 7.86089C25.708 7.76153 25.6048 7.65849 25.4906 7.57385C25.0851 7.27577 24.676 7.29417 24.2964 7.61065C23.9352 7.91241 23.8725 8.44233 24.1784 8.83241C24.4659 9.20409 24.7976 9.53897 25.1183 9.88121C27.0091 11.8795 28.9035 13.874 30.798 15.8686C30.8459 15.9201 30.9012 15.9643 30.9823 16.0379L30.986 16.0342ZM28.863 12.4903C28.7598 12.4241 28.6566 12.3836 28.5829 12.31C27.7868 11.5188 26.987 10.7276 26.2056 9.91801C26.1282 9.84073 26.1761 9.64569 26.165 9.50585C26.2904 9.52425 26.4599 9.49849 26.5373 9.57209C26.9759 9.97689 27.3961 10.4075 27.8199 10.8307C28.2069 11.2134 28.5939 11.5924 28.9699 11.9899C29.0399 12.0671 29.0731 12.207 29.0694 12.3137C29.0694 12.3689 28.9478 12.4241 28.863 12.4903Z" fill="#151B28"/>
<path d="M33.3474 14.9844C32.7762 15.5953 32.2638 16.1436 31.7073 16.7361C32.5071 17.0157 33.3511 17.3065 34.2578 17.6229C33.9556 16.7471 33.6644 15.9081 33.3438 14.9844H33.3474Z" fill="#151B28"/>
<path d="M17.6584 36.1862C18.3071 36.8265 18.8784 37.3896 19.4534 37.9563C19.8846 38.3832 20.2974 38.8248 20.7471 39.2296C20.8687 39.34 21.1083 39.3952 21.2704 39.3621C21.9081 39.2333 22.483 39.4467 22.7816 39.9766C23.058 40.4661 22.9732 41.099 22.5752 41.5075C22.1624 41.9307 21.5137 42.019 21.0014 41.7246C20.4706 41.4192 20.2679 40.8672 20.408 40.2085C20.4375 40.0686 20.4153 39.8515 20.3269 39.7595C19.3281 38.7365 18.3145 37.7281 17.1904 36.7603C17.2678 37.1835 17.3415 37.6067 17.4225 38.0299C17.7063 39.5387 17.9975 41.0438 18.2739 42.5563C18.3255 42.8397 18.4509 42.9942 18.742 43.0862C19.9767 43.4763 21.2041 43.8811 22.4241 44.308C22.7263 44.4147 22.9253 44.3889 23.1538 44.1534C23.8246 43.4542 24.5102 42.7734 25.2068 42.1C25.4242 41.8902 25.4611 41.7025 25.3616 41.4155C24.9303 40.179 24.536 38.9278 24.1011 37.695C24.0384 37.5221 23.8467 37.3049 23.6772 37.2718C21.8012 36.8928 19.9141 36.5432 18.0344 36.1862C17.957 36.1715 17.8722 36.1862 17.6547 36.1862H17.6584Z" fill="#151B28"/>
<path d="M28.5157 43.3516C27.1299 44.7426 25.7883 46.0858 24.4245 47.4548C25.4234 48.4557 26.4443 49.4788 27.4726 50.4981C27.55 50.5754 27.679 50.6416 27.7859 50.6416C29.0649 50.6527 30.3401 50.649 31.7002 50.649C31.7002 50.2736 31.7038 49.9351 31.7002 49.5965C31.6854 48.5808 31.9397 47.4511 31.5785 46.5789C31.2247 45.7215 30.2443 45.1253 29.5403 44.4114C29.1902 44.0581 28.8511 43.6975 28.5194 43.3516H28.5157Z" fill="#151B28"/>
<path d="M14.8571 31.8652H14.201V33.1569H12.8999V33.7752H14.1789V40.2483H14.8276V35.111H16.1102V33.812H21.2812V33.179H14.8571V31.8652Z" fill="#151B28"/>
<path d="M27.7539 42.9543C27.1826 42.7408 26.5561 42.2845 26.0364 42.3802C25.5241 42.4759 25.1113 43.1309 24.6653 43.5541C24.3631 43.8375 24.1014 44.165 23.7807 44.4226C23.3568 44.7612 23.2463 45.1108 23.6296 45.5855C24.024 45.1328 24.4257 44.6728 24.8606 44.176C25.1223 44.4226 25.266 44.5588 25.4503 44.7317C24.9896 45.1844 24.5658 45.6333 24.1087 46.0455C23.8471 46.281 23.8323 46.4834 24.0203 46.6932C25.2587 45.4567 26.4934 44.2202 27.7539 42.958V42.9543ZM26.2723 42.9506C26.4565 43.153 26.5745 43.2855 26.6814 43.4032C26.4713 43.6388 26.2907 43.8412 26.1285 44.0215C25.9516 43.889 25.7931 43.7639 25.6494 43.6535C25.8742 43.3996 26.0548 43.1972 26.2759 42.9506H26.2723Z" fill="#151B28"/>
<path d="M20.9957 40.6238C21.0104 40.9734 21.3311 41.2715 21.6775 41.2531C22.024 41.231 22.3299 40.8998 22.2893 40.5576C22.2451 40.1822 22.0055 39.9762 21.637 39.9578C21.2868 39.9394 20.9846 40.2742 20.9993 40.6238H20.9957Z" fill="#151B28"/>
<path d="M22.0104 33.7783H22.9023V33.1895H22.0104V33.7783Z" fill="#151B28"/>
<path d="M14.2106 40.9336V41.8683C14.3912 41.8757 14.5718 41.8867 14.793 41.8978V40.963C14.6308 40.9557 14.4502 40.9446 14.2106 40.9336Z" fill="#151B28"/>
</svg>
