<svg width="100" height="94" viewBox="0 0 100 94" fill="none" xmlns="http://www.w3.org/2000/svg">
<path d="M77.3665 92.9054H7.38068C5.62323 92.9034 3.93835 92.2043 2.69565 90.9616C1.45298 89.719 0.753926 88.0342 0.751847 86.2768V7.72134C0.753926 5.96395 1.45298 4.27912 2.69565 3.03645C3.93832 1.79379 5.62313 1.09475 7.38052 1.09267H92.6195C94.3769 1.09475 96.0617 1.79379 97.3044 3.03645C98.5471 4.27916 99.2461 5.96405 99.2482 7.7215V71.0238C99.2416 76.8251 96.9341 82.387 92.8319 86.4892C88.7297 90.5914 83.1679 92.8989 77.3665 92.9054Z" fill="white" stroke="#0F0E2D" stroke-width="0.505647"/>
<path d="M49.9972 64.803C64.4187 64.803 76.1096 53.1121 76.1096 38.6906C76.1096 24.2691 64.4187 12.5781 49.9972 12.5781C35.5757 12.5781 23.8848 24.2691 23.8848 38.6906C23.8848 53.1121 35.5757 64.803 49.9972 64.803Z" fill="#ED459A"/>
<path d="M62.9896 37.2876L52.6966 24.7708C52.4173 24.4313 52.0676 24.1565 51.6717 23.9655C51.2757 23.7745 50.843 23.6718 50.4034 23.6645C49.9639 23.6572 49.528 23.7455 49.1259 23.9233C48.7239 24.1011 48.3653 24.3642 48.0749 24.6943L37.0677 37.211C36.5375 37.8155 36.2688 38.6057 36.3208 39.408C36.3728 40.2104 36.7411 40.9593 37.3449 41.4903C37.9487 42.0212 38.7386 42.2908 39.541 42.2398C40.3434 42.1888 41.0927 41.8214 41.6244 41.2182L47.3195 34.7421V50.981C47.3195 51.7857 47.6391 52.5573 48.208 53.1263C48.777 53.6953 49.5487 54.0149 50.3533 54.0149C51.158 54.0149 51.9296 53.6953 52.4986 53.1263C53.0676 52.5573 53.3872 51.7857 53.3872 50.981V35.1639L58.303 41.1417C58.814 41.7632 59.5511 42.1562 60.3519 42.2342C61.1528 42.3123 61.9518 42.069 62.5733 41.558C63.1948 41.0469 63.5878 40.3098 63.6659 39.509C63.7439 38.7081 63.5007 37.9091 62.9896 37.2876L62.9896 37.2876Z" fill="white"/>
</svg>
