<svg width="398" height="140" viewBox="0 0 398 140" fill="none" xmlns="http://www.w3.org/2000/svg">
<mask id="path-1-outside-1_298_15939" maskUnits="userSpaceOnUse" x="-2" y="-1" width="401" height="142" fill="black">
<rect fill="white" x="-2" y="-1" width="401" height="142"/>
<path d="M9.452 38L0.0920001 0.039999H8.88L16.212 32.28L14.392 31.084H19.124L17.096 32.28L22.764 1.444H29.836L22.4 38H9.452ZM32.072 38L24.064 1.444H31.5L38.052 32.28L36.076 31.084H40.6L38.884 32.28L45.28 0.039999H53.6L45.28 38H32.072ZM69.6639 38.988C67.2373 38.988 65.0879 38.572 63.2159 37.74C61.3786 36.908 59.8359 35.7987 58.5879 34.412C57.3746 32.9907 56.4386 31.4133 55.7799 29.68C55.1559 27.912 54.8439 26.1093 54.8439 24.272V23.232C54.8439 21.3253 55.1559 19.5053 55.7799 17.772C56.4386 16.004 57.3746 14.4267 58.5879 13.04C59.8013 11.6533 61.3093 10.5613 63.1119 9.764C64.9493 8.932 67.0293 8.516 69.3519 8.516C72.4026 8.516 74.9679 9.20933 77.0479 10.596C79.1626 11.948 80.7746 13.7333 81.8839 15.952C82.9933 18.136 83.5479 20.528 83.5479 23.128V25.936H58.3279V21.204H78.5039L75.7999 23.388C75.7999 21.6893 75.5573 20.2333 75.0719 19.02C74.5866 17.8067 73.8586 16.888 72.8879 16.264C71.9519 15.6053 70.7733 15.276 69.3519 15.276C67.8959 15.276 66.6653 15.6053 65.6599 16.264C64.6546 16.9227 63.8919 17.8933 63.3719 19.176C62.8519 20.424 62.5919 21.9667 62.5919 23.804C62.5919 25.5027 62.8346 26.9933 63.3199 28.276C63.8053 29.524 64.5679 30.4947 65.6079 31.188C66.6479 31.8813 67.9999 32.228 69.6639 32.228C71.1893 32.228 72.4373 31.9333 73.4079 31.344C74.3786 30.7547 75.0373 30.0267 75.3839 29.16H83.0279C82.6119 31.0667 81.7973 32.7653 80.5839 34.256C79.3706 35.7467 77.8453 36.908 76.0079 37.74C74.1706 38.572 72.0559 38.988 69.6639 38.988ZM116.151 38V29.576H114.747V20.424C114.747 18.968 114.4 17.876 113.707 17.148C113.014 16.42 111.904 16.056 110.379 16.056C109.616 16.056 108.611 16.0733 107.363 16.108C106.115 16.1427 104.832 16.1947 103.515 16.264C102.198 16.3333 101.002 16.4027 99.9271 16.472V9.452C100.724 9.38267 101.66 9.31333 102.735 9.244C103.81 9.17467 104.919 9.12267 106.063 9.088C107.207 9.05333 108.282 9.036 109.287 9.036C112.199 9.036 114.643 9.452 116.619 10.284C118.63 11.116 120.155 12.3813 121.195 14.08C122.235 15.744 122.755 17.8933 122.755 20.528V38H116.151ZM107.051 38.728C105.006 38.728 103.203 38.364 101.643 37.636C100.118 36.908 98.9218 35.868 98.0551 34.516C97.1885 33.1293 96.7551 31.4827 96.7551 29.576C96.7551 27.496 97.2925 25.7973 98.3671 24.48C99.4418 23.128 100.95 22.14 102.891 21.516C104.832 20.8573 107.068 20.528 109.599 20.528H115.683V25.156H109.547C108.091 25.156 106.964 25.52 106.167 26.248C105.404 26.9413 105.023 27.8947 105.023 29.108C105.023 30.252 105.404 31.188 106.167 31.916C106.964 32.6093 108.091 32.956 109.547 32.956C110.483 32.956 111.315 32.8 112.043 32.488C112.806 32.1413 113.43 31.5693 113.915 30.772C114.4 29.9747 114.678 28.8653 114.747 27.444L116.723 29.524C116.55 31.5 116.064 33.164 115.267 34.516C114.504 35.868 113.43 36.908 112.043 37.636C110.691 38.364 109.027 38.728 107.051 38.728ZM129.294 38V9.504H135.898V21.724H135.742C135.742 17.7027 136.591 14.6 138.29 12.416C140.023 10.232 142.519 9.14 145.778 9.14H146.87V16.316H144.79C142.502 16.316 140.734 16.94 139.486 18.188C138.238 19.4013 137.614 21.1693 137.614 23.492V38H129.294ZM163.56 38.988C161.134 38.988 158.984 38.572 157.112 37.74C155.275 36.908 153.732 35.7987 152.484 34.412C151.271 32.9907 150.335 31.4133 149.676 29.68C149.052 27.912 148.74 26.1093 148.74 24.272V23.232C148.74 21.3253 149.052 19.5053 149.676 17.772C150.335 16.004 151.271 14.4267 152.484 13.04C153.698 11.6533 155.206 10.5613 157.008 9.764C158.846 8.932 160.926 8.516 163.248 8.516C166.299 8.516 168.864 9.20933 170.944 10.596C173.059 11.948 174.671 13.7333 175.78 15.952C176.89 18.136 177.444 20.528 177.444 23.128V25.936H152.224V21.204H172.4L169.696 23.388C169.696 21.6893 169.454 20.2333 168.968 19.02C168.483 17.8067 167.755 16.888 166.784 16.264C165.848 15.6053 164.67 15.276 163.248 15.276C161.792 15.276 160.562 15.6053 159.556 16.264C158.551 16.9227 157.788 17.8933 157.268 19.176C156.748 20.424 156.488 21.9667 156.488 23.804C156.488 25.5027 156.731 26.9933 157.216 28.276C157.702 29.524 158.464 30.4947 159.504 31.188C160.544 31.8813 161.896 32.228 163.56 32.228C165.086 32.228 166.334 31.9333 167.304 31.344C168.275 30.7547 168.934 30.0267 169.28 29.16H176.924C176.508 31.0667 175.694 32.7653 174.48 34.256C173.267 35.7467 171.742 36.908 169.904 37.74C168.067 38.572 165.952 38.988 163.56 38.988Z"/>
<path d="M7.2 138V65H23.6V138H7.2ZM21.6 138V123.6H52.2V138H21.6ZM85.4781 139.9C80.8115 139.9 76.6781 139.1 73.0781 137.5C69.5448 135.9 66.5781 133.767 64.1781 131.1C61.8448 128.367 60.0448 125.333 58.7781 122C57.5781 118.6 56.9781 115.133 56.9781 111.6V109.6C56.9781 105.933 57.5781 102.433 58.7781 99.1C60.0448 95.7 61.8448 92.6667 64.1781 90C66.5115 87.3333 69.4115 85.2333 72.8781 83.7C76.4115 82.1 80.4115 81.3 84.8781 81.3C90.7448 81.3 95.6781 82.6333 99.6781 85.3C103.745 87.9 106.845 91.3333 108.978 95.6C111.111 99.8 112.178 104.4 112.178 109.4V114.8H63.6781V105.7H102.478L97.2781 109.9C97.2781 106.633 96.8115 103.833 95.8781 101.5C94.9448 99.1667 93.5448 97.4 91.6781 96.2C89.8781 94.9333 87.6115 94.3 84.8781 94.3C82.0781 94.3 79.7115 94.9333 77.7781 96.2C75.8448 97.4667 74.3781 99.3333 73.3781 101.8C72.3781 104.2 71.8781 107.167 71.8781 110.7C71.8781 113.967 72.3448 116.833 73.2781 119.3C74.2115 121.7 75.6781 123.567 77.6781 124.9C79.6781 126.233 82.2781 126.9 85.4781 126.9C88.4115 126.9 90.8115 126.333 92.6781 125.2C94.5448 124.067 95.8115 122.667 96.4781 121H111.178C110.378 124.667 108.811 127.933 106.478 130.8C104.145 133.667 101.211 135.9 97.6781 137.5C94.1448 139.1 90.0781 139.9 85.4781 139.9ZM154.88 138V121.8H152.18V104.2C152.18 101.4 151.514 99.3 150.18 97.9C148.847 96.5 146.714 95.8 143.78 95.8C142.314 95.8 140.38 95.8333 137.98 95.9C135.58 95.9667 133.114 96.0667 130.58 96.2C128.047 96.3333 125.747 96.4667 123.68 96.6V83.1C125.214 82.9667 127.014 82.8333 129.08 82.7C131.147 82.5667 133.28 82.4667 135.48 82.4C137.68 82.3333 139.747 82.3 141.68 82.3C147.28 82.3 151.98 83.1 155.78 84.7C159.647 86.3 162.58 88.7333 164.58 92C166.58 95.2 167.58 99.3333 167.58 104.4V138H154.88ZM137.38 139.4C133.447 139.4 129.98 138.7 126.98 137.3C124.047 135.9 121.747 133.9 120.08 131.3C118.414 128.633 117.58 125.467 117.58 121.8C117.58 117.8 118.614 114.533 120.68 112C122.747 109.4 125.647 107.5 129.38 106.3C133.114 105.033 137.414 104.4 142.28 104.4H153.98V113.3H142.18C139.38 113.3 137.214 114 135.68 115.4C134.214 116.733 133.48 118.567 133.48 120.9C133.48 123.1 134.214 124.9 135.68 126.3C137.214 127.633 139.38 128.3 142.18 128.3C143.98 128.3 145.58 128 146.98 127.4C148.447 126.733 149.647 125.633 150.58 124.1C151.514 122.567 152.047 120.433 152.18 117.7L155.98 121.7C155.647 125.5 154.714 128.7 153.18 131.3C151.714 133.9 149.647 135.9 146.98 137.3C144.38 138.7 141.18 139.4 137.38 139.4ZM202.755 139.8C198.889 139.8 195.355 139.1 192.155 137.7C189.022 136.3 186.289 134.367 183.955 131.9C181.622 129.367 179.822 126.4 178.555 123C177.355 119.6 176.755 115.933 176.755 112V109.7C176.755 105.767 177.322 102.1 178.455 98.7C179.655 95.3 181.355 92.3333 183.555 89.8C185.822 87.2 188.522 85.2 191.655 83.8C194.789 82.3333 198.289 81.6 202.155 81.6C206.555 81.6 210.355 82.5667 213.555 84.5C216.755 86.3667 219.255 89.1667 221.055 92.9C222.855 96.5667 223.855 101.1 224.055 106.5L219.855 102.6V65H235.955V138H223.255V115.3H225.455C225.255 120.5 224.155 124.933 222.155 128.6C220.222 132.267 217.589 135.067 214.255 137C210.922 138.867 207.089 139.8 202.755 139.8ZM206.755 126.4C209.222 126.4 211.455 125.867 213.455 124.8C215.522 123.667 217.155 122.033 218.355 119.9C219.622 117.767 220.255 115.2 220.255 112.2V108.5C220.255 105.567 219.622 103.1 218.355 101.1C217.089 99.1 215.422 97.5667 213.355 96.5C211.289 95.4333 209.055 94.9 206.655 94.9C203.989 94.9 201.589 95.6 199.455 97C197.389 98.3333 195.755 100.2 194.555 102.6C193.355 104.933 192.755 107.667 192.755 110.8C192.755 114 193.355 116.767 194.555 119.1C195.755 121.433 197.422 123.233 199.555 124.5C201.689 125.767 204.089 126.4 206.755 126.4ZM274.568 139.9C269.901 139.9 265.768 139.1 262.168 137.5C258.635 135.9 255.668 133.767 253.268 131.1C250.935 128.367 249.135 125.333 247.868 122C246.668 118.6 246.068 115.133 246.068 111.6V109.6C246.068 105.933 246.668 102.433 247.868 99.1C249.135 95.7 250.935 92.6667 253.268 90C255.601 87.3333 258.501 85.2333 261.968 83.7C265.501 82.1 269.501 81.3 273.968 81.3C279.835 81.3 284.768 82.6333 288.768 85.3C292.835 87.9 295.935 91.3333 298.068 95.6C300.201 99.8 301.268 104.4 301.268 109.4V114.8H252.768V105.7H291.568L286.368 109.9C286.368 106.633 285.901 103.833 284.968 101.5C284.035 99.1667 282.635 97.4 280.768 96.2C278.968 94.9333 276.701 94.3 273.968 94.3C271.168 94.3 268.801 94.9333 266.868 96.2C264.935 97.4667 263.468 99.3333 262.468 101.8C261.468 104.2 260.968 107.167 260.968 110.7C260.968 113.967 261.435 116.833 262.368 119.3C263.301 121.7 264.768 123.567 266.768 124.9C268.768 126.233 271.368 126.9 274.568 126.9C277.501 126.9 279.901 126.333 281.768 125.2C283.635 124.067 284.901 122.667 285.568 121H300.268C299.468 124.667 297.901 127.933 295.568 130.8C293.235 133.667 290.301 135.9 286.768 137.5C283.235 139.1 279.168 139.9 274.568 139.9ZM310.87 138V83.2H323.57V106.7H323.27C323.27 98.9667 324.904 93 328.17 88.8C331.504 84.6 336.304 82.5 342.57 82.5H344.67V96.3H340.67C336.27 96.3 332.87 97.5 330.47 99.9C328.07 102.233 326.87 105.633 326.87 110.1V138H310.87ZM372.76 139.7C364.96 139.7 358.86 138.1 354.46 134.9C350.06 131.7 347.727 127.2 347.46 121.4H361.66C361.927 123.133 362.96 124.7 364.76 126.1C366.627 127.433 369.393 128.1 373.06 128.1C375.86 128.1 378.16 127.633 379.96 126.7C381.827 125.7 382.76 124.3 382.76 122.5C382.76 120.9 382.06 119.633 380.66 118.7C379.26 117.7 376.76 117 373.16 116.6L368.86 116.2C362.26 115.533 357.293 113.7 353.96 110.7C350.693 107.7 349.06 103.867 349.06 99.2C349.06 95.3333 350.027 92.1 351.96 89.5C353.893 86.9 356.56 84.9333 359.96 83.6C363.427 82.2667 367.36 81.6 371.76 81.6C378.827 81.6 384.527 83.1667 388.86 86.3C393.193 89.3667 395.46 93.8333 395.66 99.7H381.46C381.193 97.9 380.26 96.4 378.66 95.2C377.06 93.9333 374.693 93.3 371.56 93.3C369.093 93.3 367.127 93.7667 365.66 94.7C364.193 95.6333 363.46 96.9 363.46 98.5C363.46 100.033 364.093 101.2 365.36 102C366.627 102.8 368.693 103.367 371.56 103.7L375.86 104.1C382.593 104.833 387.827 106.7 391.56 109.7C395.293 112.7 397.16 116.733 397.16 121.8C397.16 125.467 396.16 128.667 394.16 131.4C392.16 134.067 389.327 136.133 385.66 137.6C381.993 139 377.693 139.7 372.76 139.7Z"/>
</mask>
<path d="M9.452 38L0.0920001 0.039999H8.88L16.212 32.28L14.392 31.084H19.124L17.096 32.28L22.764 1.444H29.836L22.4 38H9.452ZM32.072 38L24.064 1.444H31.5L38.052 32.28L36.076 31.084H40.6L38.884 32.28L45.28 0.039999H53.6L45.28 38H32.072ZM69.6639 38.988C67.2373 38.988 65.0879 38.572 63.2159 37.74C61.3786 36.908 59.8359 35.7987 58.5879 34.412C57.3746 32.9907 56.4386 31.4133 55.7799 29.68C55.1559 27.912 54.8439 26.1093 54.8439 24.272V23.232C54.8439 21.3253 55.1559 19.5053 55.7799 17.772C56.4386 16.004 57.3746 14.4267 58.5879 13.04C59.8013 11.6533 61.3093 10.5613 63.1119 9.764C64.9493 8.932 67.0293 8.516 69.3519 8.516C72.4026 8.516 74.9679 9.20933 77.0479 10.596C79.1626 11.948 80.7746 13.7333 81.8839 15.952C82.9933 18.136 83.5479 20.528 83.5479 23.128V25.936H58.3279V21.204H78.5039L75.7999 23.388C75.7999 21.6893 75.5573 20.2333 75.0719 19.02C74.5866 17.8067 73.8586 16.888 72.8879 16.264C71.9519 15.6053 70.7733 15.276 69.3519 15.276C67.8959 15.276 66.6653 15.6053 65.6599 16.264C64.6546 16.9227 63.8919 17.8933 63.3719 19.176C62.8519 20.424 62.5919 21.9667 62.5919 23.804C62.5919 25.5027 62.8346 26.9933 63.3199 28.276C63.8053 29.524 64.5679 30.4947 65.6079 31.188C66.6479 31.8813 67.9999 32.228 69.6639 32.228C71.1893 32.228 72.4373 31.9333 73.4079 31.344C74.3786 30.7547 75.0373 30.0267 75.3839 29.16H83.0279C82.6119 31.0667 81.7973 32.7653 80.5839 34.256C79.3706 35.7467 77.8453 36.908 76.0079 37.74C74.1706 38.572 72.0559 38.988 69.6639 38.988ZM116.151 38V29.576H114.747V20.424C114.747 18.968 114.4 17.876 113.707 17.148C113.014 16.42 111.904 16.056 110.379 16.056C109.616 16.056 108.611 16.0733 107.363 16.108C106.115 16.1427 104.832 16.1947 103.515 16.264C102.198 16.3333 101.002 16.4027 99.9271 16.472V9.452C100.724 9.38267 101.66 9.31333 102.735 9.244C103.81 9.17467 104.919 9.12267 106.063 9.088C107.207 9.05333 108.282 9.036 109.287 9.036C112.199 9.036 114.643 9.452 116.619 10.284C118.63 11.116 120.155 12.3813 121.195 14.08C122.235 15.744 122.755 17.8933 122.755 20.528V38H116.151ZM107.051 38.728C105.006 38.728 103.203 38.364 101.643 37.636C100.118 36.908 98.9218 35.868 98.0551 34.516C97.1885 33.1293 96.7551 31.4827 96.7551 29.576C96.7551 27.496 97.2925 25.7973 98.3671 24.48C99.4418 23.128 100.95 22.14 102.891 21.516C104.832 20.8573 107.068 20.528 109.599 20.528H115.683V25.156H109.547C108.091 25.156 106.964 25.52 106.167 26.248C105.404 26.9413 105.023 27.8947 105.023 29.108C105.023 30.252 105.404 31.188 106.167 31.916C106.964 32.6093 108.091 32.956 109.547 32.956C110.483 32.956 111.315 32.8 112.043 32.488C112.806 32.1413 113.43 31.5693 113.915 30.772C114.4 29.9747 114.678 28.8653 114.747 27.444L116.723 29.524C116.55 31.5 116.064 33.164 115.267 34.516C114.504 35.868 113.43 36.908 112.043 37.636C110.691 38.364 109.027 38.728 107.051 38.728ZM129.294 38V9.504H135.898V21.724H135.742C135.742 17.7027 136.591 14.6 138.29 12.416C140.023 10.232 142.519 9.14 145.778 9.14H146.87V16.316H144.79C142.502 16.316 140.734 16.94 139.486 18.188C138.238 19.4013 137.614 21.1693 137.614 23.492V38H129.294ZM163.56 38.988C161.134 38.988 158.984 38.572 157.112 37.74C155.275 36.908 153.732 35.7987 152.484 34.412C151.271 32.9907 150.335 31.4133 149.676 29.68C149.052 27.912 148.74 26.1093 148.74 24.272V23.232C148.74 21.3253 149.052 19.5053 149.676 17.772C150.335 16.004 151.271 14.4267 152.484 13.04C153.698 11.6533 155.206 10.5613 157.008 9.764C158.846 8.932 160.926 8.516 163.248 8.516C166.299 8.516 168.864 9.20933 170.944 10.596C173.059 11.948 174.671 13.7333 175.78 15.952C176.89 18.136 177.444 20.528 177.444 23.128V25.936H152.224V21.204H172.4L169.696 23.388C169.696 21.6893 169.454 20.2333 168.968 19.02C168.483 17.8067 167.755 16.888 166.784 16.264C165.848 15.6053 164.67 15.276 163.248 15.276C161.792 15.276 160.562 15.6053 159.556 16.264C158.551 16.9227 157.788 17.8933 157.268 19.176C156.748 20.424 156.488 21.9667 156.488 23.804C156.488 25.5027 156.731 26.9933 157.216 28.276C157.702 29.524 158.464 30.4947 159.504 31.188C160.544 31.8813 161.896 32.228 163.56 32.228C165.086 32.228 166.334 31.9333 167.304 31.344C168.275 30.7547 168.934 30.0267 169.28 29.16H176.924C176.508 31.0667 175.694 32.7653 174.48 34.256C173.267 35.7467 171.742 36.908 169.904 37.74C168.067 38.572 165.952 38.988 163.56 38.988Z" fill="#F9F9F9"/>
<path d="M9.452 38L8.48108 38.2394L8.66862 39H9.452V38ZM0.0920001 0.039999V-0.960001H-1.18453L-0.87892 0.279404L0.0920001 0.039999ZM8.88 0.039999L9.8551 -0.181758L9.67811 -0.960001H8.88V0.039999ZM16.212 32.28L15.6628 33.1157L17.7377 34.4792L17.1871 32.0582L16.212 32.28ZM14.392 31.084V30.084H11.0494L13.8428 31.9197L14.392 31.084ZM19.124 31.084L19.632 31.9454L22.7882 30.084H19.124V31.084ZM17.096 32.28L16.1125 32.0992L15.7163 34.2546L17.604 33.1414L17.096 32.28ZM22.764 1.444V0.443999H21.9311L21.7805 1.26322L22.764 1.444ZM29.836 1.444L30.8159 1.64333L31.0599 0.443999H29.836V1.444ZM22.4 38V39H23.2171L23.3799 38.1993L22.4 38ZM32.072 38L31.0952 38.214L31.2673 39H32.072V38ZM24.064 1.444V0.443999H22.8212L23.0872 1.65799L24.064 1.444ZM31.5 1.444L32.4782 1.23616L32.3098 0.443999H31.5V1.444ZM38.052 32.28L37.5342 33.1355L39.5102 34.3315L39.0302 32.0722L38.052 32.28ZM36.076 31.084V30.084H32.4926L35.5582 31.9395L36.076 31.084ZM40.6 31.084L41.1718 31.9044L43.7837 30.084H40.6V31.084ZM38.884 32.28L37.9031 32.0854L37.4203 34.5191L39.4558 33.1004L38.884 32.28ZM45.28 0.039999V-0.960001H44.4589L44.2991 -0.154596L45.28 0.039999ZM53.6 0.039999L54.5768 0.254095L54.8429 -0.960001H53.6V0.039999ZM45.28 38V39H46.0846L46.2568 38.2141L45.28 38ZM10.4229 37.7606L1.06292 -0.199406L-0.87892 0.279404L8.48108 38.2394L10.4229 37.7606ZM0.0920001 1.04H8.88V-0.960001H0.0920001V1.04ZM7.9049 0.261756L15.2369 32.5018L17.1871 32.0582L9.8551 -0.181758L7.9049 0.261756ZM16.7612 31.4443L14.9412 30.2483L13.8428 31.9197L15.6628 33.1157L16.7612 31.4443ZM14.392 32.084H19.124V30.084H14.392V32.084ZM18.616 30.2226L16.588 31.4186L17.604 33.1414L19.632 31.9454L18.616 30.2226ZM18.0795 32.4608L23.7475 1.62478L21.7805 1.26322L16.1125 32.0992L18.0795 32.4608ZM22.764 2.444H29.836V0.443999H22.764V2.444ZM28.8561 1.24467L21.4201 37.8007L23.3799 38.1993L30.8159 1.64333L28.8561 1.24467ZM22.4 37H9.452V39H22.4V37ZM33.0488 37.786L25.0408 1.23001L23.0872 1.65799L31.0952 38.214L33.0488 37.786ZM24.064 2.444H31.5V0.443999H24.064V2.444ZM30.5218 1.65184L37.0738 32.4878L39.0302 32.0722L32.4782 1.23616L30.5218 1.65184ZM38.5698 31.4245L36.5938 30.2285L35.5582 31.9395L37.5342 33.1355L38.5698 31.4245ZM36.076 32.084H40.6V30.084H36.076V32.084ZM40.0282 30.2636L38.3122 31.4596L39.4558 33.1004L41.1718 31.9044L40.0282 30.2636ZM39.8649 32.4746L46.2609 0.234594L44.2991 -0.154596L37.9031 32.0854L39.8649 32.4746ZM45.28 1.04H53.6V-0.960001H45.28V1.04ZM52.6232 -0.174097L44.3032 37.7859L46.2568 38.2141L54.5768 0.254095L52.6232 -0.174097ZM45.28 37H32.072V39H45.28V37ZM63.2159 37.74L62.8034 38.651L62.8098 38.6538L63.2159 37.74ZM58.5879 34.412L57.8274 35.0613L57.8359 35.0712L57.8446 35.081L58.5879 34.412ZM55.7799 29.68L54.8369 30.0128L54.8409 30.0241L54.8452 30.0352L55.7799 29.68ZM55.7799 17.772L54.8428 17.4229L54.8391 17.4333L55.7799 17.772ZM58.5879 13.04L59.3405 13.6985L58.5879 13.04ZM63.1119 9.764L63.5165 10.6786L63.5244 10.675L63.1119 9.764ZM77.0479 10.596L76.4932 11.428L76.5012 11.4334L76.5093 11.4385L77.0479 10.596ZM81.8839 15.952L80.9895 16.3992L80.9924 16.4049L81.8839 15.952ZM83.5479 25.936V26.936H84.5479V25.936H83.5479ZM58.3279 25.936H57.3279V26.936H58.3279V25.936ZM58.3279 21.204V20.204H57.3279V21.204H58.3279ZM78.5039 21.204L79.1323 21.9819L81.3335 20.204H78.5039V21.204ZM75.7999 23.388H74.7999V25.4811L76.4283 24.1659L75.7999 23.388ZM72.8879 16.264L72.3124 17.0818L72.3296 17.0939L72.3472 17.1052L72.8879 16.264ZM65.6599 16.264L65.1119 15.4275L65.6599 16.264ZM63.3719 19.176L64.2951 19.5606L64.2987 19.5517L63.3719 19.176ZM63.3199 28.276L62.3846 28.6299L62.3879 28.6384L63.3199 28.276ZM65.6079 31.188L65.0532 32.0201L65.6079 31.188ZM73.4079 31.344L73.9269 32.1988L73.4079 31.344ZM75.3839 29.16V28.16H74.7069L74.4555 28.7886L75.3839 29.16ZM83.0279 29.16L84.005 29.3732L84.2696 28.16H83.0279V29.16ZM80.5839 34.256L81.3595 34.8873H81.3595L80.5839 34.256ZM76.0079 37.74L75.5954 36.829L76.0079 37.74ZM69.6639 37.988C67.3517 37.988 65.3448 37.5919 63.6221 36.8262L62.8098 38.6538C64.831 39.5521 67.1228 39.988 69.6639 39.988V37.988ZM63.6284 36.829C61.9066 36.0493 60.4796 35.019 59.3312 33.743L57.8446 35.081C59.1923 36.5784 60.8506 37.7667 62.8034 38.651L63.6284 36.829ZM59.3485 33.7627C58.2091 32.428 57.3323 30.95 56.7147 29.3248L54.8452 30.0352C55.5449 31.8767 56.5401 33.5533 57.8274 35.0613L59.3485 33.7627ZM56.7229 29.3472C56.1359 27.6839 55.8439 25.9936 55.8439 24.272H53.8439C53.8439 26.225 54.176 28.1401 54.8369 30.0128L56.7229 29.3472ZM55.8439 24.272V23.232H53.8439V24.272H55.8439ZM55.8439 23.232C55.8439 21.4367 56.1373 19.7316 56.7208 18.1107L54.8391 17.4333C54.1746 19.279 53.8439 21.214 53.8439 23.232H55.8439ZM56.717 18.1211C57.3345 16.4638 58.2088 14.9919 59.3405 13.6985L57.8354 12.3815C56.5404 13.8615 55.5428 15.5442 54.8429 17.4229L56.717 18.1211ZM59.3405 13.6985C60.4513 12.4291 61.8376 11.4211 63.5164 10.6785L62.7074 8.84946C60.7809 9.70156 59.1513 10.8776 57.8354 12.3815L59.3405 13.6985ZM63.5244 10.675C65.2139 9.90989 67.1501 9.516 69.3519 9.516V7.516C66.9085 7.516 64.6846 7.9541 62.6994 8.85304L63.5244 10.675ZM69.3519 9.516C72.2491 9.516 74.6106 10.173 76.4932 11.428L77.6026 9.76395C75.3253 8.24571 72.5561 7.516 69.3519 7.516V9.516ZM76.5093 11.4385C78.4737 12.6945 79.9619 14.344 80.9895 16.3992L82.7784 15.5048C81.5873 13.1226 79.8515 11.2015 77.5866 9.75348L76.5093 11.4385ZM80.9924 16.4049C82.0261 18.44 82.5479 20.6755 82.5479 23.128H84.5479C84.5479 20.3805 83.9605 17.832 82.7755 15.4991L80.9924 16.4049ZM82.5479 23.128V25.936H84.5479V23.128H82.5479ZM83.5479 24.936H58.3279V26.936H83.5479V24.936ZM59.3279 25.936V21.204H57.3279V25.936H59.3279ZM58.3279 22.204H78.5039V20.204H58.3279V22.204ZM77.8756 20.4261L75.1716 22.6101L76.4283 24.1659L79.1323 21.9819L77.8756 20.4261ZM76.7999 23.388C76.7999 21.5984 76.5448 20.0096 76.0004 18.6486L74.1435 19.3914C74.5697 20.457 74.7999 21.7802 74.7999 23.388H76.7999ZM76.0004 18.6486C75.4485 17.2688 74.597 16.1739 73.4287 15.4228L72.3472 17.1052C73.1202 17.6021 73.7247 18.3445 74.1435 19.3914L76.0004 18.6486ZM73.4634 15.4462C72.322 14.643 70.929 14.276 69.3519 14.276V16.276C70.6176 16.276 71.5819 16.5677 72.3124 17.0818L73.4634 15.4462ZM69.3519 14.276C67.7428 14.276 66.3117 14.6415 65.1119 15.4275L66.208 17.1005C67.0188 16.5692 68.0491 16.276 69.3519 16.276V14.276ZM65.1119 15.4275C63.9116 16.2139 63.0297 17.3586 62.4452 18.8003L64.2987 19.5517C64.7542 18.4281 65.3976 17.6314 66.208 17.1005L65.1119 15.4275ZM62.4489 18.7914C61.8634 20.1965 61.5919 21.8792 61.5919 23.804H63.5919C63.5919 22.0542 63.8405 20.6515 64.295 19.5606L62.4489 18.7914ZM61.5919 23.804C61.5919 25.5957 61.8477 27.2108 62.3847 28.6299L64.2552 27.9221C63.8215 26.7759 63.5919 25.4096 63.5919 23.804H61.5919ZM62.3879 28.6384C62.9422 30.0636 63.8298 31.2044 65.0532 32.0201L66.1626 30.3559C65.3061 29.7849 64.6684 28.9844 64.2519 27.9136L62.3879 28.6384ZM65.0532 32.0201C66.3038 32.8538 67.8666 33.228 69.6639 33.228V31.228C68.1332 31.228 66.9921 30.9089 66.1626 30.3559L65.0532 32.0201ZM69.6639 33.228C71.3114 33.228 72.7549 32.9104 73.9269 32.1988L72.889 30.4892C72.1197 30.9563 71.0671 31.228 69.6639 31.228V33.228ZM73.9269 32.1988C75.0418 31.5219 75.8691 30.6398 76.3124 29.5314L74.4555 28.7886C74.2055 29.4135 73.7154 29.9874 72.889 30.4892L73.9269 32.1988ZM75.3839 30.16H83.0279V28.16H75.3839V30.16ZM82.0509 28.9468C81.6678 30.7027 80.9211 32.2576 79.8084 33.6247L81.3595 34.8873C82.6734 33.273 83.5561 31.4306 84.005 29.3732L82.0509 28.9468ZM79.8084 33.6247C78.6976 34.9894 77.2989 36.0577 75.5954 36.829L76.4204 38.651C78.3917 37.7583 80.0436 36.504 81.3595 34.8873L79.8084 33.6247ZM75.5954 36.829C73.9095 37.5925 71.9398 37.988 69.6639 37.988V39.988C72.1721 39.988 74.4317 39.5515 76.4204 38.651L75.5954 36.829ZM116.151 38H115.151V39H116.151V38ZM116.151 29.576H117.151V28.576H116.151V29.576ZM114.747 29.576H113.747V30.576H114.747V29.576ZM113.707 17.148L114.431 16.4583L113.707 17.148ZM107.363 16.108L107.335 15.1084H107.335L107.363 16.108ZM103.515 16.264L103.568 17.2626L103.515 16.264ZM99.9271 16.472H98.9271V17.5386L99.9915 17.4699L99.9271 16.472ZM99.9271 9.452L99.8405 8.45576L98.9271 8.53518V9.452H99.9271ZM102.735 9.244L102.671 8.24607L102.735 9.244ZM106.063 9.088L106.033 8.08846L106.063 9.088ZM116.619 10.284L116.231 11.2057L116.237 11.208L116.619 10.284ZM121.195 14.08L120.342 14.6022L120.347 14.61L121.195 14.08ZM122.755 38V39H123.755V38H122.755ZM101.643 37.636L101.212 38.5385L101.22 38.5422L101.643 37.636ZM98.0551 34.516L97.2071 35.046L97.2132 35.0557L98.0551 34.516ZM98.3671 24.48L99.1421 25.1122L99.1499 25.1022L98.3671 24.48ZM102.891 21.516L103.197 22.468L103.205 22.4656L103.212 22.463L102.891 21.516ZM115.683 20.528H116.683V19.528H115.683V20.528ZM115.683 25.156V26.156H116.683V25.156H115.683ZM106.167 26.248L106.84 26.9879L106.841 26.9865L106.167 26.248ZM106.167 31.916L105.477 32.6394L105.493 32.6554L105.511 32.6706L106.167 31.916ZM112.043 32.488L112.437 33.4071L112.447 33.4029L112.457 33.3984L112.043 32.488ZM113.915 30.772L114.769 31.2919L113.915 30.772ZM114.747 27.444L115.472 26.7552L113.862 25.0606L113.748 27.3953L114.747 27.444ZM116.723 29.524L117.719 29.6114L117.759 29.1622L117.448 28.8353L116.723 29.524ZM115.267 34.516L114.406 34.008L114.401 34.0163L114.396 34.0247L115.267 34.516ZM112.043 37.636L111.578 36.7506L111.569 36.7555L112.043 37.636ZM117.151 38V29.576H115.151V38H117.151ZM116.151 28.576H114.747V30.576H116.151V28.576ZM115.747 29.576V20.424H113.747V29.576H115.747ZM115.747 20.424C115.747 18.8257 115.367 17.4413 114.431 16.4583L112.983 17.8377C113.434 18.3107 113.747 19.1103 113.747 20.424H115.747ZM114.431 16.4583C113.47 15.4495 112.038 15.056 110.379 15.056V17.056C111.771 17.056 112.557 17.3905 112.983 17.8377L114.431 16.4583ZM110.379 15.056C109.603 15.056 108.588 15.0736 107.335 15.1084L107.391 17.1076C108.635 17.0731 109.63 17.056 110.379 17.056V15.056ZM107.335 15.1084C106.079 15.1433 104.788 15.1956 103.463 15.2654L103.568 17.2626C104.877 17.1937 106.152 17.142 107.391 17.1076L107.335 15.1084ZM103.463 15.2654C102.142 15.3349 100.942 15.4044 99.8627 15.4741L99.9915 17.4699C101.061 17.4009 102.253 17.3318 103.568 17.2626L103.463 15.2654ZM100.927 16.472V9.452H98.9271V16.472H100.927ZM100.014 10.4482C100.802 10.3797 101.73 10.3109 102.8 10.2419L102.671 8.24607C101.591 8.31573 100.647 8.38561 99.8405 8.45576L100.014 10.4482ZM102.8 10.2419C103.862 10.1734 104.96 10.1219 106.093 10.0875L106.033 8.08846C104.878 8.12345 103.757 8.17596 102.671 8.24607L102.8 10.2419ZM106.093 10.0875C107.229 10.0531 108.293 10.036 109.287 10.036V8.036C108.27 8.036 107.186 8.05352 106.033 8.08846L106.093 10.0875ZM109.287 10.036C112.111 10.036 114.413 10.4403 116.231 11.2056L117.007 9.36236C114.873 8.46369 112.288 8.036 109.287 8.036V10.036ZM116.237 11.208C118.071 11.9671 119.423 13.1006 120.342 14.6022L122.048 13.5578C120.887 11.662 119.188 10.2649 117.001 9.35998L116.237 11.208ZM120.347 14.61C121.259 16.0694 121.755 18.0184 121.755 20.528H123.755C123.755 17.7683 123.211 15.4186 122.043 13.55L120.347 14.61ZM121.755 20.528V38H123.755V20.528H121.755ZM122.755 37H116.151V39H122.755V37ZM107.051 37.728C105.125 37.728 103.471 37.3855 102.066 36.7298L101.22 38.5422C102.935 39.3425 104.887 39.728 107.051 39.728V37.728ZM102.074 36.7335C100.707 36.0814 99.6577 35.1631 98.897 33.9763L97.2132 35.0557C98.1859 36.5729 99.5281 37.7346 101.212 38.5385L102.074 36.7335ZM98.9031 33.986C98.1513 32.7831 97.7551 31.3269 97.7551 29.576H95.7551C95.7551 31.6384 96.2256 33.4755 97.2071 35.046L98.9031 33.986ZM97.7551 29.576C97.7551 27.6732 98.2433 26.2137 99.142 25.1121L97.5923 23.8479C96.3416 25.381 95.7551 27.3188 95.7551 29.576H97.7551ZM99.1499 25.1022C100.081 23.9311 101.409 23.0427 103.197 22.468L102.585 20.564C100.49 21.2373 98.8027 22.3249 97.5843 23.8578L99.1499 25.1022ZM103.212 22.463C105.029 21.8465 107.153 21.528 109.599 21.528V19.528C106.984 19.528 104.636 19.8681 102.57 20.569L103.212 22.463ZM109.599 21.528H115.683V19.528H109.599V21.528ZM114.683 20.528V25.156H116.683V20.528H114.683ZM115.683 24.156H109.547V26.156H115.683V24.156ZM109.547 24.156C107.93 24.156 106.531 24.562 105.493 25.5095L106.841 26.9865C107.398 26.478 108.252 26.156 109.547 26.156V24.156ZM105.494 25.5081C104.486 26.4248 104.023 27.6675 104.023 29.108H106.023C106.023 28.1218 106.323 27.4579 106.84 26.9879L105.494 25.5081ZM104.023 29.108C104.023 30.4995 104.498 31.7055 105.477 32.6394L106.858 31.1926C106.311 30.6705 106.023 30.0045 106.023 29.108H104.023ZM105.511 32.6706C106.549 33.5732 107.941 33.956 109.547 33.956V31.956C108.241 31.956 107.38 31.6455 106.823 31.1614L105.511 32.6706ZM109.547 33.956C110.594 33.956 111.564 33.7813 112.437 33.4071L111.649 31.5689C111.066 31.8187 110.372 31.956 109.547 31.956V33.956ZM112.457 33.3984C113.423 32.9593 114.192 32.2403 114.769 31.2919L113.061 30.2521C112.668 30.8984 112.189 31.3233 111.629 31.5776L112.457 33.3984ZM114.769 31.2919C115.375 30.2965 115.672 29.0007 115.746 27.4927L113.748 27.3953C113.683 28.73 113.426 29.6528 113.061 30.2521L114.769 31.2919ZM114.022 28.1327L115.998 30.2127L117.448 28.8353L115.472 26.7552L114.022 28.1327ZM115.727 29.4366C115.563 31.3021 115.11 32.8137 114.406 34.008L116.128 35.024C117.019 33.5143 117.536 31.6979 117.719 29.6114L115.727 29.4366ZM114.396 34.0247C113.729 35.2074 112.796 36.1113 111.578 36.7506L112.508 38.5214C114.064 37.7047 115.28 36.5286 116.138 35.0073L114.396 34.0247ZM111.569 36.7555C110.399 37.3858 108.908 37.728 107.051 37.728V39.728C109.146 39.728 110.984 39.3422 112.517 38.5165L111.569 36.7555ZM129.294 38H128.294V39H129.294V38ZM129.294 9.504V8.504H128.294V9.504H129.294ZM135.898 9.504H136.898V8.504H135.898V9.504ZM135.898 21.724V22.724H136.898V21.724H135.898ZM135.742 21.724H134.742V22.724H135.742V21.724ZM138.29 12.416L137.507 11.7943L137.501 11.8021L138.29 12.416ZM146.87 9.14H147.87V8.14H146.87V9.14ZM146.87 16.316V17.316H147.87V16.316H146.87ZM139.486 18.188L140.183 18.9051L140.193 18.8951L139.486 18.188ZM137.614 38V39H138.614V38H137.614ZM130.294 38V9.504H128.294V38H130.294ZM129.294 10.504H135.898V8.504H129.294V10.504ZM134.898 9.504V21.724H136.898V9.504H134.898ZM135.898 20.724H135.742V22.724H135.898V20.724ZM136.742 21.724C136.742 17.8276 137.567 14.9745 139.079 13.0299L137.501 11.8021C135.616 14.2255 134.742 17.5777 134.742 21.724H136.742ZM139.073 13.0377C140.584 11.1345 142.767 10.14 145.778 10.14V8.14C142.272 8.14 139.463 9.32947 137.507 11.7943L139.073 13.0377ZM145.778 10.14H146.87V8.14H145.778V10.14ZM145.87 9.14V16.316H147.87V9.14H145.87ZM146.87 15.316H144.79V17.316H146.87V15.316ZM144.79 15.316C142.319 15.316 140.266 15.9944 138.779 17.4809L140.193 18.8951C141.203 17.8856 142.685 17.316 144.79 17.316V15.316ZM138.789 17.471C137.289 18.9292 136.614 20.9929 136.614 23.492H138.614C138.614 21.3457 139.187 19.8735 140.183 18.905L138.789 17.471ZM136.614 23.492V38H138.614V23.492H136.614ZM137.614 37H129.294V39H137.614V37ZM157.112 37.74L156.7 38.651L156.706 38.6538L157.112 37.74ZM152.484 34.412L151.724 35.0613L151.732 35.0712L151.741 35.081L152.484 34.412ZM149.676 29.68L148.734 30.0128L148.737 30.0241L148.742 30.0352L149.676 29.68ZM149.676 17.772L148.739 17.4229L148.736 17.4333L149.676 17.772ZM152.484 13.04L153.237 13.6985L152.484 13.04ZM157.008 9.764L157.413 10.6786L157.421 10.675L157.008 9.764ZM170.944 10.596L170.39 11.428L170.398 11.4334L170.406 11.4385L170.944 10.596ZM175.78 15.952L174.886 16.3992L174.889 16.4049L175.78 15.952ZM177.444 25.936V26.936H178.444V25.936H177.444ZM152.224 25.936H151.224V26.936H152.224V25.936ZM152.224 21.204V20.204H151.224V21.204H152.224ZM172.4 21.204L173.029 21.9819L175.23 20.204H172.4V21.204ZM169.697 23.388H168.697V25.4811L170.325 24.1659L169.697 23.388ZM166.785 16.264L166.209 17.0818L166.226 17.0939L166.244 17.1052L166.785 16.264ZM159.556 16.264L159.008 15.4275L159.556 16.264ZM157.268 19.176L158.192 19.5606L158.195 19.5517L157.268 19.176ZM157.216 28.276L156.281 28.6299L156.284 28.6384L157.216 28.276ZM159.505 31.188L158.95 32.0201L159.505 31.188ZM167.304 31.344L167.823 32.1988L167.304 31.344ZM169.28 29.16V28.16H168.603L168.352 28.7886L169.28 29.16ZM176.924 29.16L177.902 29.3732L178.166 28.16H176.924V29.16ZM174.48 34.256L175.256 34.8873L174.48 34.256ZM169.904 37.74L169.492 36.829L169.904 37.74ZM163.561 37.988C161.248 37.988 159.241 37.5919 157.519 36.8262L156.706 38.6538C158.728 39.5521 161.019 39.988 163.561 39.988V37.988ZM157.525 36.829C155.803 36.0493 154.376 35.019 153.228 33.743L151.741 35.081C153.089 36.5784 154.747 37.7667 156.7 38.651L157.525 36.829ZM153.245 33.7627C152.106 32.428 151.229 30.95 150.611 29.3248L148.742 30.0352C149.441 31.8767 150.437 33.5533 151.724 35.0613L153.245 33.7627ZM150.619 29.3472C150.032 27.6839 149.74 25.9936 149.74 24.272H147.74C147.74 26.225 148.073 28.1401 148.734 30.0128L150.619 29.3472ZM149.74 24.272V23.232H147.74V24.272H149.74ZM149.74 23.232C149.74 21.4367 150.034 19.7316 150.617 18.1107L148.736 17.4333C148.071 19.279 147.74 21.214 147.74 23.232H149.74ZM150.614 18.1211C151.231 16.4638 152.105 14.9919 153.237 13.6985L151.732 12.3815C150.437 13.8615 149.439 15.5442 148.739 17.4229L150.614 18.1211ZM153.237 13.6985C154.348 12.4291 155.734 11.4211 157.413 10.6785L156.604 8.84946C154.678 9.70156 153.048 10.8776 151.732 12.3815L153.237 13.6985ZM157.421 10.675C159.111 9.90989 161.047 9.516 163.248 9.516V7.516C160.805 7.516 158.581 7.9541 156.596 8.85304L157.421 10.675ZM163.248 9.516C166.146 9.516 168.507 10.173 170.39 11.428L171.499 9.76395C169.222 8.24571 166.453 7.516 163.248 7.516V9.516ZM170.406 11.4385C172.37 12.6945 173.858 14.344 174.886 16.3992L176.675 15.5048C175.484 13.1226 173.748 11.2015 171.483 9.75348L170.406 11.4385ZM174.889 16.4049C175.923 18.44 176.444 20.6755 176.444 23.128H178.444C178.444 20.3805 177.857 17.832 176.672 15.4991L174.889 16.4049ZM176.444 23.128V25.936H178.444V23.128H176.444ZM177.444 24.936H152.224V26.936H177.444V24.936ZM153.224 25.936V21.204H151.224V25.936H153.224ZM152.224 22.204H172.4V20.204H152.224V22.204ZM171.772 20.4261L169.068 22.6101L170.325 24.1659L173.029 21.9819L171.772 20.4261ZM170.697 23.388C170.697 21.5984 170.441 20.0096 169.897 18.6486L168.04 19.3914C168.466 20.457 168.697 21.7802 168.697 23.388H170.697ZM169.897 18.6486C169.345 17.2688 168.494 16.1739 167.325 15.4228L166.244 17.1052C167.017 17.6021 167.621 18.3445 168.04 19.3914L169.897 18.6486ZM167.36 15.4462C166.219 14.643 164.826 14.276 163.248 14.276V16.276C164.514 16.276 165.478 16.5677 166.209 17.0818L167.36 15.4462ZM163.248 14.276C161.639 14.276 160.208 14.6415 159.008 15.4275L160.105 17.1005C160.915 16.5692 161.946 16.276 163.248 16.276V14.276ZM159.008 15.4275C157.808 16.2139 156.926 17.3586 156.342 18.8003L158.195 19.5517C158.651 18.4281 159.294 17.6314 160.105 17.1005L159.008 15.4275ZM156.345 18.7914C155.76 20.1965 155.488 21.8792 155.488 23.804H157.488C157.488 22.0542 157.737 20.6515 158.192 19.5606L156.345 18.7914ZM155.488 23.804C155.488 25.5957 155.744 27.2108 156.281 28.6299L158.152 27.9221C157.718 26.7759 157.488 25.4096 157.488 23.804H155.488ZM156.284 28.6384C156.839 30.0636 157.726 31.2044 158.95 32.0201L160.059 30.3559C159.203 29.7849 158.565 28.9844 158.148 27.9136L156.284 28.6384ZM158.95 32.0201C160.2 32.8538 161.763 33.228 163.561 33.228V31.228C162.03 31.228 160.889 30.9089 160.059 30.3559L158.95 32.0201ZM163.561 33.228C165.208 33.228 166.651 32.9104 167.823 32.1988L166.786 30.4892C166.016 30.9563 164.964 31.228 163.561 31.228V33.228ZM167.823 32.1988C168.938 31.5219 169.766 30.6398 170.209 29.5314L168.352 28.7886C168.102 29.4135 167.612 29.9874 166.786 30.4892L167.823 32.1988ZM169.28 30.16H176.924V28.16H169.28V30.16ZM175.947 28.9468C175.564 30.7027 174.818 32.2576 173.705 33.6247L175.256 34.8873C176.57 33.273 177.453 31.4306 177.902 29.3732L175.947 28.9468ZM173.705 33.6247C172.594 34.9894 171.195 36.0577 169.492 36.829L170.317 38.651C172.288 37.7583 173.94 36.504 175.256 34.8873L173.705 33.6247ZM169.492 36.829C167.806 37.5925 165.836 37.988 163.561 37.988V39.988C166.069 39.988 168.328 39.5515 170.317 38.651L169.492 36.829ZM7.2 138H6.2V139H7.2V138ZM7.2 65V64H6.2V65H7.2ZM23.6 65H24.6V64H23.6V65ZM23.6 138V139H24.6V138H23.6ZM21.6 138H20.6V139H21.6V138ZM21.6 123.6V122.6H20.6V123.6H21.6ZM52.2 123.6H53.2V122.6H52.2V123.6ZM52.2 138V139H53.2V138H52.2ZM8.2 138V65H6.2V138H8.2ZM7.2 66H23.6V64H7.2V66ZM22.6 65V138H24.6V65H22.6ZM23.6 137H7.2V139H23.6V137ZM22.6 138V123.6H20.6V138H22.6ZM21.6 124.6H52.2V122.6H21.6V124.6ZM51.2 123.6V138H53.2V123.6H51.2ZM52.2 137H21.6V139H52.2V137ZM73.0781 137.5L72.6656 138.411L72.672 138.414L73.0781 137.5ZM64.1781 131.1L63.4176 131.749L63.4261 131.759L63.4348 131.769L64.1781 131.1ZM58.7781 122L57.8351 122.333L57.8391 122.344L57.8433 122.355L58.7781 122ZM58.7781 99.1L57.841 98.7509L57.8372 98.7613L58.7781 99.1ZM64.1781 90L64.9307 90.6585L64.1781 90ZM72.8781 83.7L73.2826 84.6146L73.2906 84.6109L72.8781 83.7ZM99.6781 85.3L99.1234 86.132L99.1314 86.1374L99.1395 86.1425L99.6781 85.3ZM108.978 95.6L108.084 96.0472L108.087 96.0529L108.978 95.6ZM112.178 114.8V115.8H113.178V114.8H112.178ZM63.6781 114.8H62.6781V115.8H63.6781V114.8ZM63.6781 105.7V104.7H62.6781V105.7H63.6781ZM102.478 105.7L103.106 106.478L105.308 104.7H102.478V105.7ZM97.2781 109.9H96.2781V111.993L97.9065 110.678L97.2781 109.9ZM91.6781 96.2L91.1026 97.0178L91.1198 97.0299L91.1374 97.0412L91.6781 96.2ZM77.7781 96.2L77.2301 95.3635L77.7781 96.2ZM73.3781 101.8L74.3012 102.185L74.3049 102.176L73.3781 101.8ZM73.2781 119.3L72.3428 119.654L72.3461 119.662L73.2781 119.3ZM77.6781 124.9L77.1234 125.732L77.6781 124.9ZM92.6781 125.2L93.1971 126.055L92.6781 125.2ZM96.4781 121V120H95.8011L95.5497 120.629L96.4781 121ZM111.178 121L112.155 121.213L112.42 120H111.178V121ZM106.478 130.8L107.254 131.431L106.478 130.8ZM97.6781 137.5L97.2656 136.589L97.6781 137.5ZM85.4781 138.9C80.9259 138.9 76.935 138.12 73.4843 136.586L72.672 138.414C76.4212 140.08 80.697 140.9 85.4781 140.9V138.9ZM73.4906 136.589C70.0728 135.041 67.2218 132.987 64.9214 130.431L63.4348 131.769C65.9345 134.546 69.0168 136.759 72.6656 138.411L73.4906 136.589ZM64.9387 130.451C62.6793 127.804 60.9385 124.87 59.7129 121.645L57.8433 122.355C59.1511 125.797 61.0103 128.929 63.4176 131.749L64.9387 130.451ZM59.7211 121.667C58.5581 118.372 57.9781 115.018 57.9781 111.6H55.9781C55.9781 115.249 56.5982 118.828 57.8351 122.333L59.7211 121.667ZM57.9781 111.6V109.6H55.9781V111.6H57.9781ZM57.9781 109.6C57.9781 106.045 58.5595 102.66 59.719 99.4387L57.8372 98.7613C56.5968 102.207 55.9781 105.822 55.9781 109.6H57.9781ZM59.7152 99.4491C60.9406 96.1598 62.679 93.2319 64.9307 90.6585L63.4256 89.3415C61.0106 92.1015 59.1489 95.2402 57.841 98.7509L59.7152 99.4491ZM64.9307 90.6585C67.1615 88.1091 69.9398 86.0931 73.2826 84.6145L72.4736 82.7855C68.8831 84.3736 65.8615 86.5576 63.4256 89.3415L64.9307 90.6585ZM73.2906 84.6109C76.6761 83.0779 80.5323 82.3 84.8781 82.3V80.3C80.2907 80.3 76.1468 81.1221 72.4656 82.789L73.2906 84.6109ZM84.8781 82.3C90.5913 82.3 95.3208 83.5969 99.1234 86.132L100.233 84.4679C96.0355 81.6697 90.8983 80.3 84.8781 80.3V82.3ZM99.1395 86.1425C103.056 88.6465 106.032 91.944 108.084 96.0472L109.873 95.1528C107.657 90.7226 104.434 87.1535 100.217 84.4575L99.1395 86.1425ZM108.087 96.0529C110.144 100.104 111.178 104.547 111.178 109.4H113.178C113.178 104.253 112.079 99.496 109.87 95.1471L108.087 96.0529ZM111.178 109.4V114.8H113.178V109.4H111.178ZM112.178 113.8H63.6781V115.8H112.178V113.8ZM64.6781 114.8V105.7H62.6781V114.8H64.6781ZM63.6781 106.7H102.478V104.7H63.6781V106.7ZM101.85 104.922L96.6498 109.122L97.9065 110.678L103.106 106.478L101.85 104.922ZM98.2781 109.9C98.2781 106.542 97.799 103.61 96.8066 101.129L94.9497 101.871C95.8239 104.057 96.2781 106.724 96.2781 109.9H98.2781ZM96.8066 101.129C95.8067 98.6288 94.2832 96.6859 92.2189 95.3588L91.1374 97.0412C92.8064 98.1141 94.0829 99.7046 94.9497 101.871L96.8066 101.129ZM92.2536 95.3822C90.2482 93.971 87.7672 93.3 84.8781 93.3V95.3C87.4558 95.3 89.508 95.8957 91.1026 97.0178L92.2536 95.3822ZM84.8781 93.3C81.925 93.3 79.3579 93.9695 77.2301 95.3635L78.3261 97.0365C80.065 95.8972 82.2312 95.3 84.8781 95.3V93.3ZM77.2301 95.3635C75.1018 96.7579 73.5159 98.7986 72.4514 101.424L74.3049 102.176C75.2404 99.8681 76.5878 98.1754 78.3261 97.0365L77.2301 95.3635ZM72.455 101.415C71.3896 103.973 70.8781 107.079 70.8781 110.7H72.8781C72.8781 107.254 73.3667 104.427 74.3012 102.185L72.455 101.415ZM70.8781 110.7C70.8781 114.06 71.3579 117.051 72.3428 119.654L74.2134 118.946C73.3317 116.616 72.8781 113.874 72.8781 110.7H70.8781ZM72.3461 119.662C73.3484 122.24 74.9399 124.276 77.1234 125.732L78.2328 124.068C76.4163 122.857 75.0746 121.16 74.2101 118.938L72.3461 119.662ZM77.1234 125.732C79.334 127.206 82.1448 127.9 85.4781 127.9V125.9C82.4114 125.9 80.0223 125.261 78.2328 124.068L77.1234 125.732ZM85.4781 127.9C88.5336 127.9 91.1291 127.31 93.1971 126.055L92.1591 124.345C90.4938 125.356 88.2893 125.9 85.4781 125.9V127.9ZM93.1971 126.055C95.208 124.834 96.6432 123.28 97.4066 121.371L95.5497 120.629C94.9797 122.054 93.8816 123.299 92.1591 124.345L93.1971 126.055ZM96.4781 122H111.178V120H96.4781V122ZM110.201 120.787C109.434 124.303 107.935 127.426 105.703 130.169L107.254 131.431C109.688 128.441 111.322 125.031 112.155 121.213L110.201 120.787ZM105.703 130.169C103.472 132.909 100.665 135.05 97.2656 136.589L98.0906 138.411C101.758 136.75 104.818 134.424 107.254 131.431L105.703 130.169ZM97.2656 136.589C93.8837 138.12 89.962 138.9 85.4781 138.9V140.9C90.1943 140.9 94.4059 140.08 98.0906 138.411L97.2656 136.589ZM154.88 138H153.88V139H154.88V138ZM154.88 121.8H155.88V120.8H154.88V121.8ZM152.18 121.8H151.18V122.8H152.18V121.8ZM150.18 97.9L150.905 97.2103L150.18 97.9ZM137.98 95.9L137.953 94.9004L137.98 95.9ZM130.58 96.2L130.633 97.1986L130.58 96.2ZM123.68 96.6H122.68V97.6666L123.745 97.5979L123.68 96.6ZM123.68 83.1L123.594 82.1038L122.68 82.1832V83.1H123.68ZM129.08 82.7L129.016 81.7021L129.08 82.7ZM135.48 82.4L135.45 81.4005L135.48 82.4ZM155.78 84.7L155.392 85.6217L155.398 85.624L155.78 84.7ZM164.58 92L163.728 92.5222L163.732 92.53L164.58 92ZM167.58 138V139H168.58V138H167.58ZM126.98 137.3L126.55 138.203L126.558 138.206L126.98 137.3ZM120.08 131.3L119.232 131.83L119.239 131.84L120.08 131.3ZM120.68 112L121.455 112.632L121.463 112.622L120.68 112ZM129.38 106.3L129.686 107.252L129.694 107.25L129.702 107.247L129.38 106.3ZM153.98 104.4H154.98V103.4H153.98V104.4ZM153.98 113.3V114.3H154.98V113.3H153.98ZM135.68 115.4L136.353 116.14L136.355 116.138L135.68 115.4ZM135.68 126.3L134.99 127.023L135.007 127.039L135.024 127.055L135.68 126.3ZM146.98 127.4L147.374 128.319L147.384 128.315L147.394 128.31L146.98 127.4ZM150.58 124.1L151.435 124.62L150.58 124.1ZM152.18 117.7L152.905 117.011L151.296 115.317L151.182 117.651L152.18 117.7ZM155.98 121.7L156.977 121.787L157.016 121.338L156.705 121.011L155.98 121.7ZM153.18 131.3L152.319 130.792L152.314 130.8L152.309 130.809L153.18 131.3ZM146.98 137.3L146.516 136.415L146.506 136.42L146.98 137.3ZM155.88 138V121.8H153.88V138H155.88ZM154.88 120.8H152.18V122.8H154.88V120.8ZM153.18 121.8V104.2H151.18V121.8H153.18ZM153.18 104.2C153.18 101.258 152.481 98.8653 150.905 97.2103L149.456 98.5897C150.547 99.7347 151.18 101.542 151.18 104.2H153.18ZM150.905 97.2103C149.304 95.5295 146.847 94.8 143.78 94.8V96.8C146.58 96.8 148.391 97.4705 149.456 98.5897L150.905 97.2103ZM143.78 94.8C142.301 94.8 140.357 94.8336 137.953 94.9004L138.008 96.8996C140.404 96.8331 142.327 96.8 143.78 96.8V94.8ZM137.953 94.9004C135.544 94.9673 133.069 95.0676 130.528 95.2014L130.633 97.1986C133.159 97.0657 135.617 96.966 138.008 96.8996L137.953 94.9004ZM130.528 95.2014C127.991 95.3349 125.687 95.4684 123.616 95.6021L123.745 97.5979C125.807 97.4649 128.103 97.3318 130.633 97.1986L130.528 95.2014ZM124.68 96.6V83.1H122.68V96.6H124.68ZM123.767 84.0962C125.291 83.9637 127.083 83.8309 129.145 83.6979L129.016 81.7021C126.944 81.8357 125.137 81.9696 123.594 82.1038L123.767 84.0962ZM129.145 83.6979C131.199 83.5654 133.321 83.4659 135.511 83.3995L135.45 81.4005C133.24 81.4674 131.095 81.568 129.016 81.7021L129.145 83.6979ZM135.511 83.3995C137.702 83.3331 139.758 83.3 141.68 83.3V81.3C139.736 81.3 137.659 81.3335 135.45 81.4005L135.511 83.3995ZM141.68 83.3C147.192 83.3 151.751 84.0883 155.392 85.6216L156.169 83.7784C152.21 82.1117 147.369 81.3 141.68 81.3V83.3ZM155.398 85.624C159.088 87.1511 161.848 89.4526 163.728 92.5222L165.433 91.4778C163.313 88.014 160.206 85.4489 156.163 83.776L155.398 85.624ZM163.732 92.53C165.605 95.5254 166.58 99.4584 166.58 104.4H168.58C168.58 99.2083 167.556 94.8746 165.428 91.47L163.732 92.53ZM166.58 104.4V138H168.58V104.4H166.58ZM167.58 137H154.88V139H167.58V137ZM137.38 138.4C133.566 138.4 130.248 137.721 127.403 136.394L126.558 138.206C129.713 139.679 133.328 140.4 137.38 140.4V138.4ZM127.411 136.398C124.637 135.073 122.483 133.195 120.922 130.76L119.239 131.84C121.011 134.605 123.457 136.727 126.55 138.202L127.411 136.398ZM120.928 130.77C119.377 128.287 118.58 125.311 118.58 121.8H116.58C116.58 125.622 117.451 128.98 119.232 131.83L120.928 130.77ZM118.58 121.8C118.58 117.977 119.565 114.95 121.455 112.632L119.906 111.368C117.663 114.117 116.58 117.623 116.58 121.8H118.58ZM121.463 112.622C123.386 110.203 126.107 108.403 129.686 107.252L129.074 105.348C125.188 106.597 122.108 108.597 119.898 111.378L121.463 112.622ZM129.702 107.247C133.311 106.023 137.498 105.4 142.28 105.4V103.4C137.329 103.4 132.917 104.044 129.059 105.353L129.702 107.247ZM142.28 105.4H153.98V103.4H142.28V105.4ZM152.98 104.4V113.3H154.98V104.4H152.98ZM153.98 112.3H142.18V114.3H153.98V112.3ZM142.18 112.3C139.219 112.3 136.78 113.042 135.006 114.662L136.355 116.138C137.648 114.958 139.542 114.3 142.18 114.3V112.3ZM135.008 114.66C133.295 116.217 132.48 118.34 132.48 120.9H134.48C134.48 118.794 135.132 117.25 136.353 116.14L135.008 114.66ZM132.48 120.9C132.48 123.347 133.308 125.418 134.99 127.023L136.371 125.577C135.12 124.382 134.48 122.853 134.48 120.9H132.48ZM135.024 127.055C136.798 128.597 139.23 129.3 142.18 129.3V127.3C139.53 127.3 137.629 126.669 136.337 125.545L135.024 127.055ZM142.18 129.3C144.092 129.3 145.829 128.981 147.374 128.319L146.587 126.481C145.332 127.019 143.869 127.3 142.18 127.3V129.3ZM147.394 128.31C149.064 127.551 150.409 126.304 151.435 124.62L149.726 123.58C148.885 124.962 147.83 125.915 146.567 126.49L147.394 128.31ZM151.435 124.62C152.489 122.889 153.042 120.569 153.179 117.749L151.182 117.651C151.053 120.298 150.539 122.245 149.726 123.58L151.435 124.62ZM151.455 118.389L155.255 122.389L156.705 121.011L152.905 117.011L151.455 118.389ZM154.984 121.613C154.661 125.302 153.759 128.35 152.319 130.792L154.042 131.808C155.668 129.05 156.634 125.698 156.977 121.787L154.984 121.613ZM152.309 130.809C150.938 133.239 149.013 135.103 146.516 136.415L147.445 138.185C150.281 136.697 152.489 134.561 154.051 131.791L152.309 130.809ZM146.506 136.42C144.088 137.722 141.061 138.4 137.38 138.4V140.4C141.3 140.4 144.673 139.678 147.455 138.18L146.506 136.42ZM192.155 137.7L191.748 138.613L191.755 138.616L192.155 137.7ZM183.955 131.9L183.22 132.578L183.229 132.587L183.955 131.9ZM178.555 123L177.612 123.333L177.615 123.341L177.618 123.349L178.555 123ZM178.455 98.7L177.512 98.3672L177.51 98.3755L177.507 98.3838L178.455 98.7ZM183.555 89.8L182.802 89.1429L182.8 89.1443L183.555 89.8ZM191.655 83.8L192.063 84.713L192.071 84.7094L192.079 84.7057L191.655 83.8ZM213.555 84.5L213.038 85.3559L213.045 85.3599L213.052 85.3638L213.555 84.5ZM221.055 92.9L220.155 93.3343L220.158 93.3407L221.055 92.9ZM224.055 106.5L223.375 107.233L225.144 108.876L225.055 106.463L224.055 106.5ZM219.855 102.6H218.855V103.036L219.175 103.333L219.855 102.6ZM219.855 65V64H218.855V65H219.855ZM235.955 65H236.955V64H235.955V65ZM235.955 138V139H236.955V138H235.955ZM223.255 138H222.255V139H223.255V138ZM223.255 115.3V114.3H222.255V115.3H223.255ZM225.455 115.3L226.455 115.338L226.495 114.3H225.455V115.3ZM222.155 128.6L221.277 128.121L221.271 128.134L222.155 128.6ZM214.255 137L214.744 137.873L214.751 137.869L214.757 137.865L214.255 137ZM213.455 124.8L213.926 125.682L213.936 125.677L213.455 124.8ZM218.355 119.9L217.496 119.389L217.49 119.4L217.484 119.41L218.355 119.9ZM218.355 101.1L217.511 101.635L218.355 101.1ZM213.355 96.5L213.814 95.6114L213.355 96.5ZM199.455 97L199.998 97.8403L200.004 97.836L199.455 97ZM194.555 102.6L195.445 103.057L195.45 103.047L194.555 102.6ZM194.555 119.1L193.666 119.557L194.555 119.1ZM199.555 124.5L199.045 125.36L199.555 124.5ZM202.755 138.8C199.012 138.8 195.617 138.123 192.556 136.784L191.755 138.616C195.094 140.077 198.766 140.8 202.755 140.8V138.8ZM192.563 136.787C189.549 135.44 186.924 133.583 184.682 131.213L183.229 132.587C185.654 135.15 188.496 137.16 191.748 138.613L192.563 136.787ZM184.691 131.223C182.45 128.79 180.716 125.936 179.493 122.651L177.618 123.349C178.928 126.864 180.794 129.944 183.22 132.577L184.691 131.223ZM179.498 122.667C178.339 119.383 177.755 115.83 177.755 112H175.755C175.755 116.036 176.371 119.817 177.612 123.333L179.498 122.667ZM177.755 112V109.7H175.755V112H177.755ZM177.755 109.7C177.755 105.864 178.308 102.305 179.404 99.0162L177.507 98.3838C176.336 101.895 175.755 105.67 175.755 109.7H177.755ZM179.398 99.0328C180.56 95.7424 182.199 92.8873 184.311 90.4557L182.8 89.1443C180.512 91.7794 178.751 94.8576 177.512 98.3672L179.398 99.0328ZM184.309 90.4571C186.481 87.9659 189.063 86.0535 192.063 84.713L191.248 82.887C187.981 84.3465 185.163 86.4341 182.802 89.1429L184.309 90.4571ZM192.079 84.7057C195.065 83.3081 198.418 82.6 202.155 82.6V80.6C198.16 80.6 194.512 81.3586 191.232 82.8943L192.079 84.7057ZM202.155 82.6C206.406 82.6 210.02 83.5324 213.038 85.3559L214.073 83.6441C210.691 81.6009 206.705 80.6 202.155 80.6V82.6ZM213.052 85.3638C216.059 87.1183 218.431 89.7583 220.155 93.3343L221.956 92.4657C220.08 88.575 217.452 85.615 214.059 83.6362L213.052 85.3638ZM220.158 93.3407C221.879 96.8477 222.86 101.234 223.056 106.537L225.055 106.463C224.851 100.966 223.831 96.2856 221.953 92.4593L220.158 93.3407ZM224.736 105.767L220.536 101.867L219.175 103.333L223.375 107.233L224.736 105.767ZM220.855 102.6V65H218.855V102.6H220.855ZM219.855 66H235.955V64H219.855V66ZM234.955 65V138H236.955V65H234.955ZM235.955 137H223.255V139H235.955V137ZM224.255 138V115.3H222.255V138H224.255ZM223.255 116.3H225.455V114.3H223.255V116.3ZM224.456 115.262C224.261 120.344 223.188 124.619 221.278 128.121L223.033 129.079C225.123 125.248 226.25 120.656 226.455 115.338L224.456 115.262ZM221.271 128.134C219.418 131.647 216.912 134.303 213.754 136.135L214.757 137.865C218.265 135.83 221.026 132.886 223.04 129.066L221.271 128.134ZM213.767 136.127C210.602 137.9 206.941 138.8 202.755 138.8V140.8C207.237 140.8 211.242 139.833 214.744 137.873L213.767 136.127ZM206.755 127.4C209.371 127.4 211.769 126.833 213.926 125.682L212.985 123.918C211.142 124.9 209.073 125.4 206.755 125.4V127.4ZM213.936 125.677C216.173 124.45 217.939 122.68 219.227 120.39L217.484 119.41C216.372 121.387 214.871 122.883 212.975 123.923L213.936 125.677ZM219.215 120.411C220.591 118.093 221.255 115.342 221.255 112.2H219.255C219.255 115.058 218.653 117.44 217.496 119.389L219.215 120.411ZM221.255 112.2V108.5H219.255V112.2H221.255ZM221.255 108.5C221.255 105.422 220.59 102.759 219.2 100.565L217.511 101.635C218.654 103.441 219.255 105.711 219.255 108.5H221.255ZM219.2 100.565C217.84 98.4177 216.042 96.761 213.814 95.6114L212.897 97.3886C214.803 98.3723 216.337 99.7823 217.511 101.635L219.2 100.565ZM213.814 95.6114C211.601 94.4691 209.21 93.9 206.655 93.9V95.9C208.901 95.9 210.977 96.3975 212.897 97.3886L213.814 95.6114ZM206.655 93.9C203.803 93.9 201.211 94.652 198.907 96.1639L200.004 97.836C201.967 96.548 204.174 95.9 206.655 95.9V93.9ZM198.913 96.1597C196.683 97.5989 194.934 99.6076 193.661 102.153L195.45 103.047C196.577 100.792 198.095 99.0678 199.998 97.8403L198.913 96.1597ZM193.666 102.143C192.381 104.642 191.755 107.538 191.755 110.8H193.755C193.755 107.795 194.33 105.224 195.445 103.057L193.666 102.143ZM191.755 110.8C191.755 114.125 192.379 117.055 193.666 119.557L195.445 118.643C194.332 116.479 193.755 113.875 193.755 110.8H191.755ZM193.666 119.557C194.947 122.048 196.741 123.992 199.045 125.36L200.066 123.64C198.104 122.475 196.564 120.819 195.445 118.643L193.666 119.557ZM199.045 125.36C201.344 126.725 203.923 127.4 206.755 127.4V125.4C204.255 125.4 202.033 124.808 200.066 123.64L199.045 125.36ZM262.168 137.5L261.755 138.411L261.762 138.414L262.168 137.5ZM253.268 131.1L252.507 131.749L252.516 131.759L252.525 131.769L253.268 131.1ZM247.868 122L246.925 122.333L246.929 122.344L246.933 122.355L247.868 122ZM247.868 99.1L246.931 98.7509L246.927 98.7613L247.868 99.1ZM253.268 90L254.021 90.6585L253.268 90ZM261.968 83.7L262.372 84.6146L262.38 84.6109L261.968 83.7ZM288.768 85.3L288.213 86.132L288.221 86.1374L288.229 86.1425L288.768 85.3ZM298.068 95.6L297.174 96.0472L297.176 96.0529L298.068 95.6ZM301.268 114.8V115.8H302.268V114.8H301.268ZM252.768 114.8H251.768V115.8H252.768V114.8ZM252.768 105.7V104.7H251.768V105.7H252.768ZM291.568 105.7L292.196 106.478L294.398 104.7H291.568V105.7ZM286.368 109.9H285.368V111.993L286.996 110.678L286.368 109.9ZM280.768 96.2L280.192 97.0178L280.21 97.0299L280.227 97.0412L280.768 96.2ZM266.868 96.2L266.32 95.3635L266.868 96.2ZM262.468 101.8L263.391 102.185L263.395 102.176L262.468 101.8ZM262.368 119.3L261.433 119.654L261.436 119.662L262.368 119.3ZM266.768 124.9L266.213 125.732L266.768 124.9ZM281.768 125.2L282.287 126.055L281.768 125.2ZM285.568 121V120H284.891L284.639 120.629L285.568 121ZM300.268 121L301.245 121.213L301.51 120H300.268V121ZM295.568 130.8L296.344 131.431L295.568 130.8ZM286.768 137.5L286.355 136.589L286.768 137.5ZM274.568 138.9C270.016 138.9 266.025 138.12 262.574 136.586L261.762 138.414C265.511 140.08 269.787 140.9 274.568 140.9V138.9ZM262.58 136.589C259.163 135.041 256.312 132.987 254.011 130.431L252.525 131.769C255.024 134.546 258.107 136.759 261.755 138.411L262.58 136.589ZM254.029 130.451C251.769 127.804 250.028 124.87 248.803 121.645L246.933 122.355C248.241 125.797 250.1 128.929 252.507 131.749L254.029 130.451ZM248.811 121.667C247.648 118.372 247.068 115.018 247.068 111.6H245.068C245.068 115.249 245.688 118.828 246.925 122.333L248.811 121.667ZM247.068 111.6V109.6H245.068V111.6H247.068ZM247.068 109.6C247.068 106.045 247.649 102.66 248.809 99.4387L246.927 98.7613C245.687 102.207 245.068 105.822 245.068 109.6H247.068ZM248.805 99.4491C250.03 96.1598 251.769 93.2319 254.021 90.6585L252.515 89.3415C250.1 92.1015 248.239 95.2402 246.931 98.7509L248.805 99.4491ZM254.021 90.6585C256.251 88.1091 259.03 86.0931 262.372 84.6145L261.563 82.7855C257.973 84.3736 254.951 86.5576 252.515 89.3415L254.021 90.6585ZM262.38 84.6109C265.766 83.0779 269.622 82.3 273.968 82.3V80.3C269.38 80.3 265.237 81.1221 261.555 82.789L262.38 84.6109ZM273.968 82.3C279.681 82.3 284.411 83.5969 288.213 86.132L289.323 84.4679C285.125 81.6697 279.988 80.3 273.968 80.3V82.3ZM288.229 86.1425C292.146 88.6465 295.122 91.944 297.174 96.0472L298.962 95.1528C296.747 90.7226 293.523 87.1535 289.307 84.4575L288.229 86.1425ZM297.176 96.0529C299.234 100.104 300.268 104.547 300.268 109.4H302.268C302.268 104.253 301.169 99.496 298.96 95.1471L297.176 96.0529ZM300.268 109.4V114.8H302.268V109.4H300.268ZM301.268 113.8H252.768V115.8H301.268V113.8ZM253.768 114.8V105.7H251.768V114.8H253.768ZM252.768 106.7H291.568V104.7H252.768V106.7ZM290.94 104.922L285.74 109.122L286.996 110.678L292.196 106.478L290.94 104.922ZM287.368 109.9C287.368 106.542 286.889 103.61 285.896 101.129L284.039 101.871C284.914 104.057 285.368 106.724 285.368 109.9H287.368ZM285.896 101.129C284.897 98.6288 283.373 96.6859 281.309 95.3588L280.227 97.0412C281.896 98.1141 283.173 99.7046 284.039 101.871L285.896 101.129ZM281.343 95.3822C279.338 93.971 276.857 93.3 273.968 93.3V95.3C276.546 95.3 278.598 95.8957 280.192 97.0178L281.343 95.3822ZM273.968 93.3C271.015 93.3 268.448 93.9695 266.32 95.3635L267.416 97.0365C269.155 95.8972 271.321 95.3 273.968 95.3V93.3ZM266.32 95.3635C264.192 96.7579 262.606 98.7986 261.541 101.424L263.395 102.176C264.33 99.8681 265.678 98.1754 267.416 97.0365L266.32 95.3635ZM261.545 101.415C260.479 103.973 259.968 107.079 259.968 110.7H261.968C261.968 107.254 262.457 104.427 263.391 102.185L261.545 101.415ZM259.968 110.7C259.968 114.06 260.448 117.051 261.433 119.654L263.303 118.946C262.422 116.616 261.968 113.874 261.968 110.7H259.968ZM261.436 119.662C262.438 122.24 264.03 124.276 266.213 125.732L267.323 124.068C265.506 122.857 264.164 121.16 263.3 118.938L261.436 119.662ZM266.213 125.732C268.424 127.206 271.235 127.9 274.568 127.9V125.9C271.501 125.9 269.112 125.261 267.323 124.068L266.213 125.732ZM274.568 127.9C277.623 127.9 280.219 127.31 282.287 126.055L281.249 124.345C279.584 125.356 277.379 125.9 274.568 125.9V127.9ZM282.287 126.055C284.298 124.834 285.733 123.28 286.496 121.371L284.639 120.629C284.07 122.054 282.971 123.299 281.249 124.345L282.287 126.055ZM285.568 122H300.268V120H285.568V122ZM299.291 120.787C298.524 124.303 297.025 127.426 294.792 130.169L296.344 131.431C298.777 128.441 300.412 125.031 301.245 121.213L299.291 120.787ZM294.792 130.169C292.562 132.909 289.755 135.05 286.355 136.589L287.18 138.411C290.848 136.75 293.908 134.424 296.344 131.431L294.792 130.169ZM286.355 136.589C282.974 138.12 279.052 138.9 274.568 138.9V140.9C279.284 140.9 283.496 140.08 287.18 138.411L286.355 136.589ZM310.87 138H309.87V139H310.87V138ZM310.87 83.2V82.2H309.87V83.2H310.87ZM323.57 83.2H324.57V82.2H323.57V83.2ZM323.57 106.7V107.7H324.57V106.7H323.57ZM323.27 106.7H322.27V107.7H323.27V106.7ZM328.17 88.8L327.387 88.1783L327.381 88.1861L328.17 88.8ZM344.67 82.5H345.67V81.5H344.67V82.5ZM344.67 96.3V97.3H345.67V96.3H344.67ZM330.47 99.9L331.167 100.617L331.177 100.607L330.47 99.9ZM326.87 138V139H327.87V138H326.87ZM311.87 138V83.2H309.87V138H311.87ZM310.87 84.2H323.57V82.2H310.87V84.2ZM322.57 83.2V106.7H324.57V83.2H322.57ZM323.57 105.7H323.27V107.7H323.57V105.7ZM324.27 106.7C324.27 99.0916 325.879 93.3745 328.96 89.4139L327.381 88.1861C323.928 92.6255 322.27 98.8417 322.27 106.7H324.27ZM328.954 89.4217C332.064 85.5025 336.551 83.5 342.57 83.5V81.5C336.056 81.5 330.943 83.6975 327.387 88.1783L328.954 89.4217ZM342.57 83.5H344.67V81.5H342.57V83.5ZM343.67 82.5V96.3H345.67V82.5H343.67ZM344.67 95.3H340.67V97.3H344.67V95.3ZM340.67 95.3C336.087 95.3 332.402 96.5544 329.763 99.1929L331.177 100.607C333.339 98.4456 336.454 97.3 340.67 97.3V95.3ZM329.773 99.183C327.121 101.761 325.87 105.457 325.87 110.1H327.87C327.87 105.81 329.019 102.705 331.167 100.617L329.773 99.183ZM325.87 110.1V138H327.87V110.1H325.87ZM326.87 137H310.87V139H326.87V137ZM354.46 134.9L355.048 134.091L354.46 134.9ZM347.46 121.4V120.4H346.413L346.461 121.446L347.46 121.4ZM361.66 121.4L362.649 121.248L362.518 120.4H361.66V121.4ZM364.76 126.1L364.146 126.889L364.162 126.902L364.179 126.914L364.76 126.1ZM379.96 126.7L380.421 127.588L380.432 127.581L379.96 126.7ZM380.66 118.7L380.079 119.514L380.092 119.523L380.105 119.532L380.66 118.7ZM373.16 116.6L373.271 115.606L373.262 115.605L373.253 115.604L373.16 116.6ZM368.86 116.2L368.76 117.195L368.768 117.196L368.86 116.2ZM353.96 110.7L353.284 111.437L353.291 111.443L353.96 110.7ZM351.96 89.5L352.763 90.0967L351.96 89.5ZM359.96 83.6L359.601 82.6666L359.595 82.669L359.96 83.6ZM388.86 86.3L388.274 87.1104L388.283 87.1163L388.86 86.3ZM395.66 99.7V100.7H396.695L396.66 99.6659L395.66 99.7ZM381.46 99.7L380.471 99.8465L380.597 100.7H381.46V99.7ZM378.66 95.2L378.039 95.984L378.05 95.9922L378.06 96L378.66 95.2ZM365.36 102L365.894 101.155L365.36 102ZM371.56 103.7L371.445 104.693L371.456 104.695L371.468 104.696L371.56 103.7ZM375.86 104.1L375.968 103.106L375.961 103.105L375.953 103.104L375.86 104.1ZM391.56 109.7L392.187 108.92L391.56 109.7ZM394.16 131.4L394.96 132L394.967 131.991L394.16 131.4ZM385.66 137.6L386.017 138.534L386.024 138.531L386.032 138.528L385.66 137.6ZM372.76 138.7C365.083 138.7 359.218 137.124 355.048 134.091L353.872 135.709C358.503 139.077 364.837 140.7 372.76 140.7V138.7ZM355.048 134.091C350.912 131.083 348.713 126.874 348.459 121.354L346.461 121.446C346.741 127.526 349.208 132.317 353.872 135.709L355.048 134.091ZM347.46 122.4H361.66V120.4H347.46V122.4ZM360.672 121.552C360.988 123.607 362.207 125.381 364.146 126.889L365.374 125.311C363.713 124.019 362.866 122.66 362.649 121.248L360.672 121.552ZM364.179 126.914C366.289 128.421 369.3 129.1 373.06 129.1V127.1C369.487 127.1 366.964 126.445 365.341 125.286L364.179 126.914ZM373.06 129.1C375.963 129.1 378.435 128.617 380.42 127.588L379.5 125.812C377.886 126.649 375.758 127.1 373.06 127.1V129.1ZM380.432 127.581C382.555 126.444 383.76 124.741 383.76 122.5H381.76C381.76 123.859 381.099 124.956 379.488 125.819L380.432 127.581ZM383.76 122.5C383.76 120.546 382.876 118.975 381.215 117.868L380.105 119.532C381.244 120.291 381.76 121.254 381.76 122.5H383.76ZM381.241 117.886C379.617 116.726 376.891 116.008 373.271 115.606L373.05 117.594C376.629 117.992 378.903 118.674 380.079 119.514L381.241 117.886ZM373.253 115.604L368.953 115.204L368.768 117.196L373.068 117.596L373.253 115.604ZM368.961 115.205C362.476 114.55 357.745 112.761 354.629 109.957L353.291 111.443C356.842 114.639 362.045 116.517 368.76 117.195L368.961 115.205ZM354.637 109.963C351.588 107.164 350.06 103.603 350.06 99.2H348.06C348.06 104.13 349.799 108.236 353.284 111.437L354.637 109.963ZM350.06 99.2C350.06 95.5055 350.981 92.4928 352.763 90.0967L351.158 88.9033C349.073 91.7072 348.06 95.1612 348.06 99.2H350.06ZM352.763 90.0967C354.571 87.6653 357.077 85.8049 360.325 84.531L359.595 82.669C356.044 84.0617 353.216 86.1347 351.158 88.9033L352.763 90.0967ZM360.319 84.5333C363.652 83.2514 367.461 82.6 371.76 82.6V80.6C367.26 80.6 363.201 81.2819 359.601 82.6666L360.319 84.5333ZM371.76 82.6C378.684 82.6 384.159 84.1345 388.274 87.1104L389.446 85.4896C384.895 82.1988 378.97 80.6 371.76 80.6V82.6ZM388.283 87.1163C392.331 89.9816 394.47 94.1417 394.661 99.7341L396.66 99.6659C396.45 93.5249 394.056 88.7518 389.438 85.4837L388.283 87.1163ZM395.66 98.7H381.46V100.7H395.66V98.7ZM382.449 99.5535C382.14 97.4658 381.048 95.7409 379.26 94.4L378.06 96C379.472 97.0591 380.247 98.3342 380.471 99.8465L382.449 99.5535ZM379.281 94.416C377.432 92.952 374.804 92.3 371.56 92.3V94.3C374.583 94.3 376.689 94.9147 378.039 95.984L379.281 94.416ZM371.56 92.3C368.979 92.3 366.804 92.7866 365.123 93.8563L366.197 95.5437C367.449 94.7467 369.208 94.3 371.56 94.3V92.3ZM365.123 93.8563C363.398 94.9543 362.46 96.5242 362.46 98.5H364.46C364.46 97.2758 364.989 96.3124 366.197 95.5437L365.123 93.8563ZM362.46 98.5C362.46 100.367 363.261 101.857 364.826 102.845L365.894 101.155C364.926 100.543 364.46 99.7 364.46 98.5H362.46ZM364.826 102.845C366.289 103.77 368.542 104.356 371.445 104.693L371.676 102.707C368.845 102.378 366.964 101.83 365.894 101.155L364.826 102.845ZM371.468 104.696L375.768 105.096L375.953 103.104L371.653 102.704L371.468 104.696ZM375.752 105.094C382.371 105.815 387.399 107.639 390.934 110.48L392.187 108.92C388.255 105.761 382.816 103.852 375.968 103.106L375.752 105.094ZM390.934 110.48C394.416 113.277 396.16 117.016 396.16 121.8H398.16C398.16 116.451 396.171 112.123 392.187 108.92L390.934 110.48ZM396.16 121.8C396.16 125.273 395.217 128.262 393.353 130.809L394.967 131.991C397.103 129.071 398.16 125.66 398.16 121.8H396.16ZM393.36 130.8C391.489 133.295 388.817 135.26 385.289 136.672L386.032 138.528C389.837 137.006 392.831 134.839 394.96 132L393.36 130.8ZM385.303 136.666C381.776 138.013 377.602 138.7 372.76 138.7V140.7C377.785 140.7 382.211 139.987 386.017 138.534L385.303 136.666Z" fill="white" mask="url(#path-1-outside-1_298_15939)"/>
</svg>
