<svg width="129" height="92" viewBox="0 0 129 92" fill="none" xmlns="http://www.w3.org/2000/svg">
<path d="M65.6136 44.2783C65.6136 48.7422 69.2403 52.3633 73.7111 52.3633C78.1819 52.3633 81.8086 48.7458 81.8086 44.2783C81.8086 43.1706 81.5838 42.1145 81.182 41.154L73.7111 44.2783L74.0944 36.2044C73.9691 36.197 73.8401 36.1934 73.7111 36.1934C69.2403 36.1934 65.6136 39.8145 65.6136 44.2783Z" fill="#9510C9"/>
<path d="M65.6136 44.2783C65.6136 48.7422 69.2403 52.3633 73.7111 52.3633C78.1819 52.3633 81.8086 48.7458 81.8086 44.2783C81.8086 43.1706 81.5838 42.1145 81.182 41.154L73.7111 44.2783L74.0944 36.2044C73.9691 36.197 73.8401 36.1934 73.7111 36.1934C69.2403 36.1934 65.6136 39.8145 65.6136 44.2783Z" fill="black" fill-opacity="0.2"/>
<path d="M74.8262 34.9277C77.244 35.0381 79.3854 36.2121 80.7934 37.9895C81.2467 38.5599 81.6227 39.1965 81.9102 39.8773L74.4392 43.0017L74.8225 34.9277H74.8262Z" fill="#F37BB8"/>
<path d="M75.5916 70.9668H79.7344V80.9617H75.5916V70.9668Z" fill="#151B28"/>
<path d="M79.7344 74.7745C78.8166 74.2188 77.4935 73.7331 75.5916 73.5527V80.9606H79.7344V74.7745Z" fill="#151B28"/>
<path d="M69.4823 63.8672H73.625V80.9608H69.4823V63.8672Z" fill="#151B28"/>
<path d="M73.625 73.4805C72.4271 73.4952 71.0561 73.6166 69.4823 73.8705V80.9656H73.625V73.4841V73.4805Z" fill="#151B28"/>
<path d="M62.7127 58.6309H66.8555V80.9611H62.7127V58.6309Z" fill="#151B28"/>
<path d="M66.8555 74.375C65.3296 74.6841 63.9548 74.8792 62.7127 74.9822V80.9622H66.8555V74.375Z" fill="#151B28"/>
<path d="M56.0877 52.4863H60.2305V80.9622H56.0877V52.4863Z" fill="#151B28"/>
<path d="M56.0877 74.5V80.9621H60.2305V75.0704C58.5461 75.041 57.1861 74.8202 56.0877 74.5Z" fill="#151B28"/>
<path d="M63.7227 48.1064L60.8478 49.1589L61.1795 45.8027L63.7227 48.1064Z" fill="#151B28"/>
<path d="M80.8732 66.1167C80.9985 66.1167 81.1165 66.0395 81.1644 65.9143C81.2234 65.7524 81.1423 65.5758 80.9801 65.5169C80.8548 65.4691 68.3897 60.6998 62.3083 47.8823C62.2346 47.7278 62.0503 47.6615 61.8955 47.7351C61.7407 47.8087 61.6743 47.9927 61.748 48.1473C67.94 61.2003 80.6373 66.0505 80.7626 66.0983C80.7995 66.1131 80.8364 66.1167 80.8695 66.1167H80.8732Z" fill="#151B28"/>
<path d="M98.2853 62.2402C100.88 62.2402 102.988 64.3415 102.988 66.9359C102.988 69.5303 100.88 71.6316 98.2853 71.6316C95.6906 71.6316 93.5823 69.5303 93.5823 66.9359C93.5823 64.3415 95.6869 62.2402 98.2853 62.2402ZM98.2853 69.0814C99.4721 69.0814 100.434 68.1246 100.434 66.9359C100.434 65.7473 99.4684 64.7905 98.2853 64.7905C97.1022 64.7905 96.1329 65.7473 96.1329 66.9359C96.1329 68.1246 97.0985 69.0814 98.2853 69.0814Z" fill="#151B28"/>
<path d="M89.5719 62.0634L91.8828 63.528C91.3374 64.54 91.0278 65.7029 91.0278 66.9357C91.0278 70.9359 94.2786 74.1816 98.2849 74.1816C102.291 74.1816 105.538 70.9359 105.538 66.9357C105.538 62.9355 102.291 59.6898 98.2849 59.6898C95.9076 59.6898 93.7957 60.8306 92.4762 62.5933L90.1653 61.1287C91.975 58.6042 94.9383 56.9629 98.2812 56.9629C103.795 56.9629 108.27 61.4267 108.27 66.9394C108.27 72.452 103.799 76.9159 98.2812 76.9159C92.7637 76.9159 88.2893 72.452 88.2893 66.9394C88.2893 65.1693 88.7537 63.5059 89.5645 62.0634H89.5719Z" fill="#F37BB8"/>
<path d="M98.2853 62.2402C100.88 62.2402 102.988 64.3415 102.988 66.9359C102.988 69.5303 100.88 71.6316 98.2853 71.6316C95.6906 71.6316 93.5823 69.5303 93.5823 66.9359C93.5823 64.3415 95.6869 62.2402 98.2853 62.2402ZM98.2853 69.0814C99.4721 69.0814 100.434 68.1246 100.434 66.9359C100.434 65.7473 99.4684 64.7905 98.2853 64.7905C97.1022 64.7905 96.1329 65.7473 96.1329 66.9359C96.1329 68.1246 97.0985 69.0814 98.2853 69.0814Z" fill="#151B28"/>
<path d="M93.5823 66.9359C93.5823 69.5303 95.6869 71.6316 98.2853 71.6316C100.884 71.6316 102.988 69.5303 102.988 66.9359C102.988 64.3415 100.88 62.2402 98.2853 62.2402C96.8184 62.2402 95.5063 62.91 94.6438 63.9662L96.8295 65.3535C97.2091 65.0039 97.7177 64.7868 98.2853 64.7868C99.4721 64.7868 100.434 65.7436 100.434 66.9322C100.434 67.1567 100.397 67.3738 100.331 67.5799C100.217 67.9406 100.01 68.2607 99.7338 68.5146C99.3542 68.8642 98.8455 69.0814 98.2816 69.0814C97.0911 69.0814 96.1292 68.1246 96.1292 66.9359C96.1292 66.7114 96.166 66.4943 96.2324 66.2882L94.0467 64.9009C93.7519 65.5154 93.5823 66.2073 93.5823 66.9359Z" fill="#F37BB8"/>
<path d="M88.4566 60.6797V60.6918L88.4688 60.6878L88.4566 60.6797Z" fill="#151B28"/>
<path d="M85.9459 59.5618L85.393 59.2122C85.2087 59.0982 85.1571 58.859 85.2714 58.675C85.3893 58.4946 85.6289 58.4394 85.8095 58.5572L86.4287 58.951L86.3587 57.1367L88.2937 58.6455L88.419 60.2206L98.4921 66.6164C98.6763 66.7305 98.7316 66.9697 98.6137 67.1537C98.54 67.2714 98.4147 67.334 98.2857 67.334C98.2119 67.334 98.1419 67.3156 98.0756 67.2714L87.9841 60.8609L86.167 61.4975L84.2505 60.0844L85.9496 59.5692L85.9459 59.5618ZM88.4595 60.6916H88.4706L88.4595 60.6806V60.6916Z" fill="#151B28"/>
<path d="M88.4566 60.6797V60.6918L88.4688 60.6878L88.4566 60.6797Z" fill="#151B28"/>
<path d="M93.0545 30.8734C93.1688 30.6858 93.2867 30.5054 93.4083 30.3288C93.53 30.1558 93.6553 29.9902 93.788 29.8246C93.928 29.6517 94.0718 29.4861 94.2229 29.3242C94.3298 29.2101 94.4403 29.096 94.5509 28.9893C94.5546 28.9819 94.562 28.9782 94.5693 28.9709C94.6762 28.8678 94.7868 28.7648 94.8974 28.6654C94.9047 28.6618 94.9084 28.6581 94.9121 28.6544C94.9785 28.5955 95.0485 28.5403 95.1148 28.4888C95.1222 28.4814 95.1259 28.4741 95.1296 28.4704C95.1333 28.4667 95.1406 28.463 95.1443 28.4594C95.1627 28.441 95.1812 28.4262 95.2033 28.4115C95.2328 28.3821 95.2659 28.3563 95.3028 28.3306C95.4171 28.2422 95.535 28.1539 95.6529 28.0656C95.6714 28.0546 95.6861 28.0435 95.7009 28.0325C95.8225 27.9478 95.9441 27.8669 96.0694 27.7859C96.1874 27.7123 96.3053 27.6387 96.4269 27.5688C96.4564 27.5504 96.4896 27.532 96.5228 27.5136C96.7881 27.3627 97.0609 27.2266 97.341 27.1014C97.3447 27.0978 97.3484 27.0978 97.3521 27.0978C97.4921 27.0352 97.6359 26.9763 97.7796 26.9211C97.798 26.9101 97.8201 26.9027 97.8423 26.8954C97.9528 26.8549 98.0634 26.8144 98.174 26.7776C98.2293 26.7592 98.2845 26.7408 98.3398 26.7224C98.4651 26.6819 98.5941 26.6451 98.7195 26.612C99.0585 26.52 99.4087 26.4427 99.7625 26.3912C99.9173 26.3654 100.072 26.3434 100.231 26.3286C100.374 26.3139 100.522 26.2992 100.673 26.2955C100.721 26.2882 100.769 26.2845 100.817 26.2845C100.964 26.2771 101.111 26.2734 101.263 26.2734C101.447 26.2734 101.631 26.2808 101.815 26.2918V30.579C101.635 30.5606 101.447 30.5496 101.263 30.5496C101.156 30.5496 101.045 30.5533 100.942 30.5606C100.879 30.5643 100.817 30.568 100.758 30.5754C100.684 30.579 100.614 30.5901 100.544 30.6011C100.529 30.6011 100.514 30.6011 100.5 30.6011C100.393 30.6158 100.29 30.6342 100.186 30.66C100.179 30.6563 100.172 30.66 100.168 30.6637C100.054 30.6821 99.9431 30.7115 99.8325 30.7446C99.8289 30.741 99.8289 30.7446 99.8252 30.7446C99.7367 30.7704 99.6483 30.7962 99.5635 30.8293C99.4271 30.8698 99.2944 30.9213 99.1654 30.9802C99.0696 31.0206 98.9738 31.0648 98.8779 31.1126C98.7784 31.1642 98.6826 31.2157 98.5905 31.2746C98.4873 31.3334 98.3841 31.3997 98.2845 31.4696C98.2403 31.499 98.1961 31.5322 98.1519 31.5616C98.1482 31.5653 98.1482 31.569 98.1445 31.569C98.0708 31.6205 98.0007 31.6757 97.9307 31.7346C97.9012 31.7603 97.8717 31.7861 97.8423 31.8118C97.8165 31.8339 97.7907 31.856 97.7685 31.8781C97.7243 31.9149 97.6801 31.9517 97.6359 31.9958C97.6174 32.0142 97.599 32.0326 97.5806 32.051C97.5105 32.121 97.4405 32.1909 97.3779 32.2645C97.3521 32.2902 97.3299 32.316 97.3115 32.3418C97.3115 32.3418 97.3091 32.3442 97.3041 32.3491C97.2452 32.4117 97.1973 32.4706 97.1493 32.5368C97.1493 32.5405 97.1457 32.5405 97.1457 32.5442C97.1199 32.5736 97.0977 32.603 97.0756 32.6325C97.0203 32.7024 96.9687 32.776 96.9208 32.8533C96.9171 32.8533 96.9135 32.8643 96.9098 32.868C96.884 32.9085 96.8582 32.949 96.8324 32.9894C96.7771 33.0778 96.7218 33.1698 96.6739 33.2618L92.7339 31.4365C92.8334 31.2451 92.9403 31.0538 93.0508 30.8698L93.0545 30.8734ZM91.7313 35.3115C91.7313 35.2784 91.7313 35.249 91.7313 35.2158C91.7313 35.1717 91.735 35.1275 91.7387 35.0834C91.7461 34.9546 91.7535 34.8331 91.7682 34.7117C91.7682 34.6896 91.7719 34.6675 91.7756 34.6491C91.7829 34.5645 91.794 34.4798 91.8051 34.3989C91.8087 34.3805 91.8087 34.3621 91.8124 34.3437C91.8161 34.3142 91.8198 34.2848 91.8235 34.2554H91.8272C91.8272 34.2554 91.8309 34.2296 91.8309 34.2149C91.8345 34.2002 91.8382 34.1854 91.8382 34.1707C91.8456 34.1413 91.8493 34.1118 91.8567 34.0824C91.8567 34.0677 91.8603 34.053 91.864 34.0346C91.864 34.0198 91.864 34.0014 91.8714 33.983C91.8751 33.9499 91.8825 33.9205 91.8898 33.8874C91.8898 33.8616 91.9009 33.8322 91.9046 33.8027L96.1726 34.6454C96.1653 34.6859 96.1579 34.7301 96.1505 34.7706C96.1358 34.8331 96.1284 34.8994 96.121 34.9656C96.1137 35.0061 96.11 35.0429 96.1063 35.0834C96.0989 35.1238 96.0952 35.1643 96.0952 35.2048C96.0879 35.2563 96.0842 35.3042 96.0842 35.3557C96.0842 35.3667 96.0842 35.3778 96.0842 35.3925V35.3998C96.0805 35.4808 96.0768 35.5618 96.0768 35.6464C96.0768 35.7163 96.0768 35.7826 96.0805 35.8525C96.0879 35.996 96.0989 36.1358 96.1137 36.2757C96.1247 36.3603 96.1395 36.445 96.1542 36.5296C96.1653 36.5958 96.18 36.6658 96.1947 36.732C96.25 36.9896 96.3274 37.2398 96.4233 37.479C97.1715 39.389 99.0585 40.7432 101.266 40.7432C101.639 40.7432 102 40.7064 102.346 40.6328L102.763 44.9016C102.763 44.9016 102.744 44.9053 102.733 44.9053C102.637 44.92 102.538 44.9347 102.438 44.9458C102.298 44.9642 102.158 44.9789 102.018 44.9899C101.956 44.9973 101.897 45.001 101.834 45.001C101.756 45.0083 101.683 45.012 101.602 45.012C101.491 45.0157 101.381 45.0194 101.266 45.0194C97.2046 45.0194 93.7364 42.528 92.3579 39.0173C92.3211 38.9216 92.2842 38.8259 92.251 38.7302C92.2437 38.7155 92.24 38.7045 92.2363 38.6898C92.2289 38.6677 92.2215 38.6493 92.2142 38.6272C92.2031 38.5941 92.1921 38.5646 92.1847 38.5315C92.1626 38.4763 92.1441 38.4174 92.1294 38.3586C92.111 38.2997 92.0925 38.2445 92.0778 38.1856C92.0299 38.02 91.9857 37.8544 91.9525 37.6851C91.9377 37.6446 91.9304 37.6042 91.923 37.5637C91.9083 37.4974 91.8935 37.4312 91.8825 37.3613C91.8788 37.3502 91.8751 37.3392 91.8751 37.3245C91.864 37.2582 91.853 37.1957 91.8419 37.1294C91.8198 36.997 91.8014 36.8645 91.7866 36.7283C91.7719 36.5995 91.7571 36.4707 91.7498 36.3419C91.7424 36.2352 91.735 36.1322 91.7313 36.0254C91.724 35.9003 91.724 35.7715 91.724 35.6464C91.724 35.536 91.7277 35.4219 91.7313 35.3115ZM106.456 35.6464C106.456 34.8442 106.268 34.0898 105.932 33.4126L109.883 31.6205C110.477 32.8386 110.809 34.2038 110.809 35.6464C110.809 39.0467 108.966 42.0238 106.205 43.6651C105.571 42.5906 104.782 41.2584 104.016 39.9704C105.479 39.0688 106.456 37.4717 106.456 35.6464Z" fill="#121314"/>
<path d="M104.016 39.971C104.782 41.259 105.571 42.5912 106.205 43.6657C108.966 42.0245 110.809 39.0473 110.809 35.647C110.809 34.2045 110.477 32.8392 109.883 31.6211L105.932 33.4133C106.268 34.0904 106.456 34.8448 106.456 35.647C106.456 37.4723 105.479 39.0694 104.016 39.971Z" fill="#121314"/>
<path d="M92.0768 38.1841C92.0916 38.243 92.11 38.2982 92.1284 38.357C92.1432 38.4159 92.1616 38.4748 92.1837 38.53C92.1911 38.5631 92.2021 38.5925 92.2132 38.6257C92.2206 38.6477 92.2279 38.6661 92.2353 38.6882C92.239 38.7029 92.2427 38.714 92.2501 38.7287C92.2832 38.8244 92.3201 38.9201 92.3569 39.0157C93.7354 42.5265 97.2037 45.0178 101.265 45.0178C101.38 45.0178 101.49 45.0141 101.601 45.0105C101.682 45.0105 101.756 45.0105 101.833 44.9994C101.896 44.9994 101.955 44.9957 102.017 44.9884C102.157 44.9773 102.297 44.9626 102.437 44.9442C102.537 44.9332 102.636 44.9185 102.732 44.9037C102.743 44.9037 102.754 44.9037 102.762 44.9001L102.345 40.6313C101.999 40.7049 101.638 40.7417 101.265 40.7417C99.0576 40.7417 97.1705 39.3874 96.4223 37.4775C96.3265 37.2383 96.2491 36.9881 96.1938 36.7305L92.0768 38.1841Z" fill="#121314"/>
<path d="M91.7226 35.6464C91.7226 35.7715 91.7226 35.9003 91.73 36.0255C91.73 36.1322 91.741 36.2352 91.7484 36.3419C91.7558 36.4707 91.7705 36.5995 91.7852 36.7283C91.8 36.8645 91.8184 36.997 91.8405 37.1295C91.8516 37.1957 91.8626 37.2583 91.8737 37.3245C91.8737 37.3392 91.8774 37.3503 91.8811 37.3613C91.8921 37.4312 91.9069 37.4975 91.9216 37.5637C91.929 37.6042 91.9364 37.6447 91.9511 37.6851C91.9843 37.8544 92.0285 38.02 92.0764 38.1856C92.0912 38.2445 92.1096 38.2997 92.128 38.3586C92.1428 38.4175 92.1612 38.4763 92.1833 38.5315C92.1907 38.5647 92.2017 38.5941 92.2128 38.6272C92.2202 38.6493 92.2275 38.6677 92.2349 38.6898C92.2349 38.7045 92.2423 38.7155 92.2496 38.7303C92.2828 38.8259 92.3197 38.9216 92.3565 39.0173L96.4219 37.4791C96.326 37.2399 96.2486 36.9896 96.1934 36.732C96.1786 36.6658 96.1639 36.5959 96.1528 36.5296C96.1381 36.445 96.1233 36.3603 96.1123 36.2757C96.0975 36.1359 96.0865 35.996 96.0791 35.8525C96.0754 35.7826 96.0754 35.7163 96.0754 35.6464C96.0754 35.5618 96.0791 35.4808 96.0828 35.3999V35.3925C96.0828 35.3925 96.0828 35.3667 96.0828 35.3557C96.0828 35.3042 96.0865 35.2563 96.0938 35.2048C96.0938 35.1643 96.0975 35.1239 96.1049 35.0834C96.1086 35.0429 96.1123 35.0061 96.1196 34.9656C96.127 34.8994 96.1344 34.8331 96.1491 34.7706C96.1565 34.7301 96.1639 34.6859 96.1712 34.6455L91.9032 33.8027C91.8995 33.8322 91.8921 33.8616 91.8884 33.8874C91.8811 33.9205 91.8737 33.9499 91.87 33.9831C91.8663 34.0015 91.8626 34.0199 91.8626 34.0346C91.8479 34.0935 91.8405 34.1523 91.8295 34.2149C91.8258 34.2259 91.8258 34.2407 91.8221 34.2554C91.8221 34.2848 91.8147 34.3143 91.811 34.3437C91.8074 34.3621 91.8074 34.3805 91.8037 34.3989C91.7926 34.4799 91.7816 34.5645 91.7742 34.6491C91.7742 34.6675 91.7668 34.6896 91.7668 34.7117C91.7521 34.8331 91.7447 34.9583 91.7373 35.0797C91.7336 35.1275 91.73 35.1717 91.73 35.2159C91.73 35.249 91.73 35.2784 91.73 35.3115C91.7263 35.4219 91.7226 35.536 91.7226 35.6464Z" fill="#121314"/>
<path d="M92.7387 31.4383L96.6788 33.2635C96.7267 33.1715 96.782 33.0795 96.8372 32.9912C96.863 32.9507 96.8888 32.9103 96.9146 32.8698C96.9146 32.8661 96.922 32.8587 96.9257 32.8551C96.9736 32.7778 97.0252 32.7042 97.0805 32.6343C97.1026 32.6048 97.1247 32.5754 97.1505 32.5459C97.1505 32.5423 97.1542 32.5423 97.1542 32.5386C97.2021 32.476 97.2537 32.4135 97.309 32.3509C97.309 32.3509 97.3115 32.3485 97.3164 32.3435C97.3348 32.3178 97.3569 32.292 97.3827 32.2663C97.4454 32.1927 97.5154 32.1227 97.5854 32.0528C97.6039 32.0344 97.6223 32.016 97.6407 31.9976C97.685 31.9571 97.7292 31.9167 97.7734 31.8799C97.7955 31.8578 97.8213 31.8357 97.8471 31.8136C97.8766 31.7879 97.9061 31.7621 97.9356 31.7363C98.0056 31.6775 98.0756 31.6223 98.1494 31.5707C98.153 31.5707 98.153 31.5707 98.1567 31.5634C98.201 31.5303 98.2452 31.4971 98.2894 31.4714C98.3889 31.4015 98.4921 31.3352 98.5953 31.2763C98.6875 31.2175 98.7833 31.1659 98.8828 31.1144L98.2194 29.8485L95.8937 29.5431L95.7426 29.521L94.2241 29.3223C94.073 29.4842 93.9292 29.6498 93.7892 29.8227C93.6565 29.9883 93.5312 30.1539 93.4095 30.3269C93.2842 30.5035 93.1663 30.6839 93.0557 30.8715C92.9414 31.0555 92.8382 31.2469 92.7387 31.4383Z" fill="#121314"/>
<path d="M91.7232 35.6445C91.7232 35.7696 91.7232 35.8984 91.7306 36.0235L96.0797 35.8505C96.076 35.7806 96.076 35.7144 96.076 35.6445C96.076 35.5598 96.0797 35.4789 96.0834 35.3979V35.3905C96.0834 35.3905 96.0834 35.3648 96.0834 35.3537C96.0834 35.3022 96.0871 35.2544 96.0945 35.2029C96.0945 35.1624 96.0982 35.1219 96.1055 35.0814C96.1092 35.0409 96.1129 35.0041 96.1203 34.9637C96.1276 34.8974 96.1387 34.8349 96.1498 34.7686C96.1571 34.7281 96.1645 34.684 96.1719 34.6435L91.9038 33.8008C91.9001 33.8302 91.8928 33.8597 91.8891 33.8854C91.8817 33.9185 91.8743 33.948 91.8706 33.9811C91.867 33.9995 91.8633 34.0179 91.8633 34.0326C91.8596 34.051 91.8559 34.0657 91.8559 34.0805C91.8412 34.1393 91.8338 34.1982 91.8264 34.2534C91.819 34.2829 91.8154 34.3123 91.8117 34.3417C91.808 34.3601 91.808 34.3785 91.8043 34.3969C91.7932 34.4779 91.7822 34.5625 91.7748 34.6472C91.7748 34.6656 91.7674 34.6877 91.7674 34.7097C91.7527 34.8312 91.7453 34.9526 91.738 35.0777C91.7343 35.1256 91.7306 35.1697 91.7306 35.2139C91.7306 35.247 91.7306 35.2765 91.7306 35.3096C91.7269 35.42 91.7232 35.5341 91.7232 35.6445Z" fill="#121314"/>
<path d="M92.7387 31.4384L96.6787 33.2637C96.7267 33.1717 96.7819 33.0797 96.8372 32.9914C96.863 32.9509 96.8888 32.9104 96.9146 32.8699C96.9146 32.8663 96.922 32.8589 96.9257 32.8552C96.9736 32.7779 97.0252 32.7043 97.0805 32.6344C97.1026 32.605 97.1247 32.5756 97.1505 32.5461C97.1505 32.5424 97.1542 32.5424 97.1542 32.5387C97.2021 32.4725 97.25 32.4136 97.309 32.3511C97.309 32.3511 97.3115 32.3486 97.3164 32.3437C97.3348 32.3179 97.3569 32.2922 97.3827 32.2664C97.4454 32.1928 97.5154 32.1229 97.5854 32.053C97.6039 32.0346 97.6223 32.0162 97.6407 31.9978C97.6849 31.9573 97.7292 31.9168 97.7734 31.88C97.7955 31.8579 97.8213 31.8359 97.8471 31.8138C97.8766 31.788 97.9061 31.7623 97.9356 31.7365C98.0056 31.6776 98.0756 31.6224 98.1493 31.5709C98.153 31.5709 98.153 31.5709 98.1567 31.5635C98.2009 31.5341 98.2452 31.501 98.2894 31.4715C98.3889 31.4016 98.4921 31.3354 98.5953 31.2765C98.6875 31.2176 98.7833 31.1661 98.8828 31.1146C98.9786 31.0668 99.0745 31.0226 99.1703 30.9821C99.2993 30.9232 99.432 30.8717 99.5683 30.8312C99.6531 30.7981 99.7416 30.7724 99.83 30.7466C99.8337 30.7466 99.8337 30.7429 99.8374 30.7466C99.948 30.7135 100.059 30.684 100.173 30.6656C100.176 30.662 100.184 30.6583 100.191 30.6619C100.294 30.6362 100.398 30.6178 100.505 30.6031C100.519 30.6031 100.534 30.6031 100.549 30.6031C100.619 30.592 100.689 30.581 100.763 30.5773C100.821 30.5699 100.884 30.5663 100.947 30.5626C101.05 30.5552 101.161 30.5515 101.267 30.5515C101.452 30.5515 101.64 30.5626 101.82 30.581V26.2938C101.636 26.2827 101.452 26.2754 101.267 26.2754C101.116 26.2754 100.969 26.2791 100.821 26.2864C100.774 26.2864 100.726 26.2901 100.678 26.2975C100.527 26.3011 100.379 26.3159 100.235 26.3306C100.077 26.3453 99.9222 26.3674 99.7674 26.3932C99.4135 26.4447 99.0634 26.5219 98.7243 26.6139C98.599 26.6471 98.47 26.6839 98.3447 26.7244C98.2894 26.7428 98.2341 26.7611 98.1788 26.7795C98.0683 26.8163 97.9577 26.8568 97.8471 26.8973C97.825 26.9047 97.8029 26.912 97.7845 26.9231C97.6407 26.9783 97.497 27.0371 97.3569 27.0997C97.3532 27.0997 97.3495 27.0997 97.3459 27.1034C97.0657 27.2285 96.793 27.3647 96.5276 27.5155C96.4945 27.5339 96.4613 27.5523 96.4318 27.5707C96.3102 27.6407 96.1922 27.7143 96.0743 27.7879C95.949 27.8688 95.8273 27.9498 95.7057 28.0344C95.691 28.0455 95.6762 28.0565 95.6578 28.0675C95.5399 28.1559 95.4219 28.2442 95.3077 28.3325C95.2708 28.3583 95.2376 28.384 95.2081 28.4135C95.186 28.4282 95.1676 28.4429 95.1492 28.4613C95.1492 28.465 95.1381 28.4687 95.1344 28.4724C95.1271 28.476 95.1234 28.4834 95.116 28.4871C95.0497 28.5423 94.9833 28.5975 94.917 28.6564C94.917 28.66 94.9096 28.6637 94.9022 28.6674C94.7917 28.7668 94.6811 28.8698 94.5742 28.9728C94.5668 28.9802 94.5595 28.9839 94.5558 28.9912C94.4452 29.0979 94.3346 29.212 94.2277 29.3261C94.0766 29.488 93.9329 29.6536 93.7928 29.8266C93.6601 29.9922 93.5348 30.1578 93.4132 30.3307C93.2916 30.5074 93.1736 30.6877 93.0594 30.8754C92.9488 31.0594 92.8419 31.2508 92.7424 31.4421L92.7387 31.4384Z" fill="#121314"/>
<path d="M97.1211 30.716C97.1211 30.3921 96.8594 30.1309 96.5351 30.1309C96.2107 30.1309 95.949 30.3921 95.949 30.716C95.949 31.0398 96.2107 31.3011 96.5351 31.3011C96.8594 31.3011 97.1211 31.0398 97.1211 30.716Z" fill="#121314"/>
<path d="M82.9844 25.6886C82.9844 25.3648 82.7227 25.1035 82.3983 25.1035C82.074 25.1035 81.8123 25.3648 81.8123 25.6886C81.8123 26.0125 82.074 26.2738 82.3983 26.2738C82.7227 26.2738 82.9844 26.0125 82.9844 25.6886Z" fill="#121314"/>
<path d="M96.4825 30.7443L96.582 30.6855L93.5155 25.6328H82.3957V25.7469H93.4492L96.4825 30.7443Z" fill="#121314"/>
<path d="M83.61 21.9414H93.543V22.5008H83.61V21.9414Z" fill="#121314"/>
<path d="M87.6127 23.2266H93.543V23.7859H87.6127V23.2266Z" fill="#121314"/>
<path d="M55.2549 29.9712C54.879 30.5858 54.3151 31.1525 53.648 31.4727C53.8064 30.5895 53.8212 30.0412 53.8212 30.0412V25.9453C53.8728 25.96 53.9133 25.9711 53.9318 25.9784C54.75 26.236 55.406 26.777 55.6419 27.6271C55.8594 28.4109 55.6788 29.2757 55.2512 29.9749L55.2549 29.9712Z" fill="#151B28"/>
<path d="M25.2812 32.3369C24.3672 32.1235 23.5711 31.4169 23.0882 30.6257C22.6644 29.9302 22.4801 29.0654 22.7013 28.2779C22.9371 27.4278 23.5895 26.8869 24.4077 26.6293C24.4593 26.6145 24.6362 26.563 24.8648 26.5078C24.7321 28.7195 24.8942 30.6515 25.2776 32.3369H25.2812Z" fill="#151B28"/>
<path d="M34.0744 43.4366V44.2425C33.9086 44.1726 33.7059 44.1726 33.529 44.2757L31.2143 45.56L31.0374 45.4606C28.3763 45.7734 26.2312 46.5057 24.5026 47.4736C23.1279 45.8691 21.3145 43.2195 21.7642 40.7539C22.2064 38.3214 24.0309 35.0683 25.3356 32.9707C26.574 39.0574 30.6283 42.0088 34.0781 43.4366H34.0744Z" fill="#151B28"/>
<path d="M52.8683 48.9678L52.6766 48.931V46.9733C51.8142 45.8251 48.427 45.5454 46.8348 45.4829L44.6565 44.2721C44.5533 44.2133 44.4391 44.1875 44.3322 44.1912C44.3322 43.9998 44.3322 43.8011 44.3322 43.6097C50.878 41.0705 52.7688 35.4733 53.3106 32.6875C54.6227 34.7704 56.5982 38.2149 57.059 40.7541C57.7666 44.6365 52.872 48.9715 52.872 48.9715L52.8683 48.9678Z" fill="#151B28"/>
<path d="M52.5312 24.7677V31.1635C52.5312 31.1635 52.1774 42.52 39.4433 43.9331C39.4433 43.9331 24.9437 43.2265 26.0052 27.6896V27.0235L27.4168 27.3363L29.8936 21.6875C36.9222 26.1771 48.2005 25.3123 52.5276 24.7713L52.5312 24.7677ZM35.3779 32.2785C35.3779 31.5977 34.8251 31.0421 34.1432 31.0421C33.4614 31.0421 32.9048 31.5977 32.9048 32.2785C32.9048 32.963 33.4577 33.515 34.1432 33.515C34.8288 33.515 35.3779 32.963 35.3779 32.2785ZM36.1409 29.1027C36.1409 28.8782 35.9566 28.6942 35.7318 28.6942H32.1972C31.9723 28.6942 31.788 28.8782 31.788 29.1027C31.788 29.3272 31.9723 29.5112 32.1972 29.5112H35.7318C35.9566 29.5112 36.1409 29.3272 36.1409 29.1027ZM41.6363 38.2659C41.4483 38.1371 41.1977 38.1849 41.065 38.3689C40.6043 39.035 40.0772 39.392 39.5022 39.4288C39.4654 39.4288 39.4285 39.4288 39.3954 39.4288C38.8425 39.4288 38.3154 39.1565 37.9248 38.8841C37.5341 38.6081 37.2798 38.3321 37.2761 38.3248C37.1213 38.1592 36.867 38.1445 36.6974 38.2953C36.5316 38.4462 36.5168 38.7038 36.6679 38.8731C36.7195 38.9283 37.9211 40.2457 39.4027 40.2457C39.4507 40.2457 39.5059 40.2457 39.5575 40.2457C40.4016 40.1905 41.1387 39.7158 41.7469 38.8326C41.8759 38.6449 41.8279 38.391 41.6437 38.2622L41.6363 38.2659ZM45.9854 32.2822C45.9854 31.6014 45.4326 31.0457 44.7507 31.0457C44.0688 31.0457 43.5123 31.6014 43.5123 32.2822C43.5123 32.9667 44.0652 33.5187 44.7507 33.5187C45.4362 33.5187 45.9854 32.9667 45.9854 32.2822ZM46.7484 29.283C46.7484 29.0585 46.5641 28.8745 46.3392 28.8745H42.8047C42.5798 28.8745 42.3955 29.0585 42.3955 29.283C42.3955 29.5075 42.5798 29.6915 42.8047 29.6915H46.3392C46.5641 29.6915 46.7484 29.5075 46.7484 29.283Z" fill="#151B28"/>
<path d="M52.2031 18.2574V23.4572C47.8798 24.0019 36.6015 24.8667 29.5692 20.3734L27.0924 26.0222L25.677 25.7094V18.986C25.677 17.032 26.6501 14.8276 27.6268 13.1974C28.644 11.5009 30.0372 10.051 31.7069 8.98379C33.9404 7.54859 36.9074 6.56235 39.5722 6.64331C43.4385 6.76475 47.5333 9.22667 49.7742 12.2995C51.0532 14.0548 51.8419 16.1156 52.1994 18.2537L52.2031 18.2574Z" fill="#151B28"/>
<path d="M51.4692 48.1682V82.0647H26.9002V65.593C26.9002 65.3207 26.6791 65.1035 26.41 65.1035C26.141 65.1035 25.9198 65.3243 25.9198 65.593V82.0647H18.5852V58.7592C18.5852 58.7592 19.256 48.6687 30.4717 46.8691C30.4827 46.8949 30.4938 46.9243 30.5122 46.9501L34.3417 53.552C34.5112 53.8464 34.8872 53.9458 35.182 53.7765L38.606 51.7967C38.9451 51.6016 39.0152 51.1379 38.7498 50.8509L39.2474 51.1269L39.3137 51.0791C39.2289 51.344 39.3284 51.6495 39.5901 51.8003L43.0178 53.7802C43.309 53.9458 43.685 53.8501 43.8545 53.5557L47.684 46.9538C47.684 46.9538 47.7024 46.917 47.7098 46.9023C49.1988 47.0679 50.9126 47.4175 51.4766 48.1682H51.4692Z" fill="#151B28"/>
<path d="M34.9328 53.0007L31.5824 47.2268C31.4313 46.9692 31.5235 46.638 31.7852 46.4908L34.402 45.0372C34.7595 44.8385 35.1981 45.0961 35.1981 45.5046V46.546C35.1981 46.6822 35.2497 46.811 35.3382 46.9103L38.7806 50.6419C39.0128 50.8921 38.9502 51.2969 38.6553 51.4662L35.6588 53.1958C35.4045 53.343 35.0765 53.2547 34.9254 53.0007H34.9328Z" fill="#151B28"/>
<path d="M43.2488 53.0007L46.5991 47.2268C46.7502 46.9692 46.6581 46.638 46.3964 46.4908L43.7795 45.0372C43.422 44.8385 42.9834 45.0961 42.9834 45.5046V46.546C42.9834 46.6822 42.9318 46.811 42.8433 46.9103L39.4009 50.6419C39.1687 50.8921 39.2313 51.2969 39.5262 51.4662L42.5227 53.1958C42.777 53.343 43.105 53.2547 43.2561 53.0007H43.2488Z" fill="#151B28"/>
<path d="M43.1994 44.0031V44.1393C42.7977 44.0068 42.3554 44.3012 42.3554 44.7538V46.0087C42.3554 46.1706 42.2928 46.3252 42.1859 46.4466L39.0788 49.8138L35.9718 46.4466C35.8649 46.3252 35.8022 46.1706 35.8022 46.0087V44.7538C35.8022 44.4042 35.5332 44.1466 35.2236 44.1098V43.8633C37.6082 44.6692 39.4658 44.7612 39.4658 44.7612C40.8406 44.6066 42.0827 44.349 43.2031 44.0031H43.1994Z" fill="#151B28"/>
<path d="M31.2016 83.4004H110.736C111.576 83.4004 112.258 84.0812 112.258 84.9202V87.1687C112.258 88.0077 111.576 88.6885 110.736 88.6885H12.7509C11.9106 88.6885 11.2287 88.0077 11.2287 87.1687V84.9202C11.2287 84.0812 11.9106 83.4004 12.7509 83.4004H31.2016Z" fill="#151B28"/>
</svg>
