<svg width="129" height="92" viewBox="0 0 129 92" fill="none" xmlns="http://www.w3.org/2000/svg">
<path fill-rule="evenodd" clip-rule="evenodd" d="M76.5938 62.3496L74.7177 81.4856H47.6904L50.2741 63.0856L76.5938 62.3496ZM65.5919 71.9176L65.5514 70.4162H60.2108V71.9176H65.5882H65.5919Z" fill="#F37BB8"/>
<path fill-rule="evenodd" clip-rule="evenodd" d="M46.9905 79.9844H41.6462V81.4858H47.0273L46.9905 79.9844Z" fill="#F37BB8"/>
<path d="M80.472 30.8235C80.472 30.9303 80.472 31.0259 80.472 31.1179C80.472 32.233 80.472 33.3517 80.472 34.4667C80.472 35.2947 79.9708 35.7952 79.1488 35.7952C78.1684 35.7952 77.188 35.7952 76.2076 35.7952H75.9423C75.6953 36.6821 76.1708 37.385 76.473 38.1504C76.3551 38.213 76.2445 38.2682 76.1081 38.3418C76.731 39.8285 77.3502 41.3079 78.0026 42.8645C78.0136 42.6842 78.021 42.5811 78.0284 42.4634H86.7451V43.2693H78.15C78.1942 43.3871 78.22 43.468 78.2532 43.5416C78.666 44.5315 79.0825 45.5178 79.4916 46.5077C79.5838 46.7285 79.6685 46.9603 79.7091 47.1959C79.7422 47.3983 79.827 47.4387 80.015 47.4387C82.1232 47.4314 84.2278 47.4351 86.336 47.4351C86.7451 47.4351 87.1505 47.4387 87.5596 47.4351C88.072 47.4277 88.4258 47.0781 88.4258 46.5666C88.4258 41.6059 88.4258 36.6453 88.4258 31.6847C88.4258 31.1695 88.072 30.8125 87.5633 30.8125C85.2671 30.8125 82.9672 30.8125 80.671 30.8125C80.6121 30.8125 80.5531 30.8199 80.472 30.8272V30.8235ZM86.7488 38.2755H77.623V37.4733H86.7488V38.2755ZM77.6156 39.972H86.7414V40.7743H77.6156V39.972ZM86.7525 33.2855H81.375V32.4869H86.7525V33.2855ZM86.7525 35.7805H81.3713V34.9819H86.7525V35.7805ZM86.7525 45.757H81.364V44.9584H86.7525V45.757Z" fill="#151B28"/>
<path d="M89.2659 32.3984C89.2659 32.9909 89.2586 33.5503 89.2733 34.1096C89.2733 34.1722 89.3691 34.2605 89.4429 34.2936C90.3753 34.7316 91.3115 35.1621 92.244 35.5927C92.3767 35.6552 92.5094 35.7178 92.6752 35.7951C92.5536 36.0416 92.4393 36.2772 92.3067 36.5421C91.2968 36.0711 90.2979 35.6111 89.2659 35.1327C89.2659 35.7325 89.2586 36.2956 89.2733 36.8549C89.2733 36.9175 89.3728 37.0021 89.4465 37.0389C90.0805 37.3407 90.7181 37.6314 91.3521 37.9295C91.4295 37.9663 91.5032 38.0068 91.5916 38.0509C91.4811 38.2975 91.3779 38.533 91.2636 38.7869C90.6002 38.4852 89.9552 38.1908 89.2659 37.878C89.2659 38.349 89.2991 38.7832 89.2586 39.2175C89.2217 39.6223 89.347 39.8541 89.7377 39.9829C90.0141 40.0749 90.2648 40.2332 90.5559 40.373C90.4454 40.6232 90.3422 40.8551 90.2279 41.1127C89.9109 40.9655 89.6087 40.8256 89.2696 40.6711C89.2696 41.2672 89.2623 41.834 89.277 42.397C89.277 42.478 89.4023 42.5552 89.4945 42.6656C89.1627 43.0704 89.2733 43.582 89.2696 44.0751C89.2623 45.0172 89.2696 45.9592 89.2696 46.9786C89.3433 46.8388 89.3876 46.7725 89.4207 46.6989C91.1088 43.1072 92.7932 39.5156 94.4775 35.9239C94.7724 35.2946 94.5992 34.8456 93.9689 34.5549C92.4983 33.8815 91.0277 33.2007 89.5608 32.5236C89.476 32.4831 89.3913 32.45 89.2733 32.3984H89.2659Z" fill="#151B28"/>
<path d="M70.9461 35.5882C71.2004 35.4741 71.4363 35.3711 71.6943 35.257C72.1661 36.4088 72.6341 37.5386 73.1096 38.7015C73.8725 38.3813 74.6244 38.0685 75.3984 37.7483C75.181 37.2258 74.9709 36.7253 74.7608 36.2248C74.2927 35.0987 73.8246 33.9763 73.3529 32.8539C73.0506 32.1363 72.3245 31.8235 71.6574 32.1179C71.0272 32.3976 70.7766 33.1373 71.0788 33.8365C71.1672 34.0426 71.2594 34.245 71.3552 34.4695C71.1009 34.5688 70.8613 34.6608 70.6144 34.7565C70.548 34.613 70.4927 34.4879 70.4264 34.3664C70.3048 34.1493 70.0689 34.0867 69.8441 34.2045C69.6561 34.3039 69.6082 34.4805 69.7077 34.716C70.5333 36.7106 71.3626 38.7088 72.1882 40.7034C72.354 41.1008 72.542 41.2296 72.8037 41.1229C73.0617 41.0162 73.1059 40.7843 72.9438 40.3906C72.2803 38.8045 71.6206 37.2184 70.9424 35.5955L70.9461 35.5882Z" fill="#151B28"/>
<path d="M78.7109 46.6996C77.5942 44.0058 76.4848 41.3378 75.3643 38.6367C74.852 38.8465 74.3544 39.0526 73.8274 39.2734C74.9441 41.9634 76.0499 44.6314 77.1703 47.3326C77.6789 47.1228 78.1765 46.9204 78.7109 46.6996Z" fill="#151B28"/>
<path d="M76.647 34.9631C77.5684 34.9631 78.4272 34.9667 79.2823 34.9631C79.5292 34.9631 79.6766 34.8159 79.6803 34.573C79.6877 33.5131 79.6803 32.4496 79.6803 31.3125C78.652 32.549 77.6679 33.7339 76.6433 34.9667L76.647 34.9631Z" fill="#151B28"/>
<path d="M88.6758 48.2734H84.0097C84.1055 48.3323 84.1534 48.3691 84.2087 48.3949C85.1191 48.8181 86.0258 49.245 86.9398 49.6645C87.489 49.9184 87.9644 49.7454 88.2298 49.1971C88.3736 48.9027 88.5136 48.6083 88.6758 48.2734Z" fill="#151B28"/>
<path d="M77.5226 48.101C77.9243 48.7413 78.304 49.3595 78.6947 49.9631C78.8126 50.1434 79.0006 50.1802 79.1996 50.0882C79.4023 49.9925 79.4687 49.8232 79.4244 49.6171C79.2696 48.929 79.1075 48.2408 78.9379 47.5195C78.4625 47.7146 78.0054 47.9023 77.5226 48.101Z" fill="#151B28"/>
<path d="M91.1686 58.422H92.4549V56.1146H96.8777V58.422H98.1641V55.9858C98.1641 55.3492 97.6923 54.834 97.1136 54.834H92.2227C91.644 54.834 91.1723 55.3492 91.1723 55.9858V58.422H91.1686Z" fill="#151B28"/>
<path d="M93.1959 65.1387V66.2095H94.3348V65.1681L103.833 62.1763C103.833 62.1763 103.844 62.1763 103.848 62.1689V70.3275C103.848 70.7323 103.52 71.0635 103.114 71.0635H85.5333C85.1279 71.0635 84.7999 70.7323 84.7999 70.3275V62.1284C84.7999 62.1284 84.822 62.1468 84.8331 62.1505L93.1959 65.1387ZM85.5333 58.5625H103.114C103.52 58.5625 103.848 58.89 103.848 59.2948V61.9812C103.826 61.9665 103.796 61.9628 103.767 61.9702L94.3348 64.9473V64.1487H93.1959V64.9105L84.9068 61.9481C84.8699 61.9371 84.8294 61.9444 84.7999 61.9665V59.2948C84.7999 58.89 85.1279 58.5625 85.5333 58.5625Z" fill="#151B28"/>
<path d="M103.848 61.9785V62.167C103.893 62.1448 103.919 62.0931 103.9 62.0414C103.893 62.0118 103.874 61.9896 103.848 61.9785Z" fill="#151B28"/>
<path d="M84.8008 62.1275V61.9648C84.8008 61.9648 84.7786 61.9944 84.7712 62.0129C84.7527 62.0572 84.7675 62.1016 84.8008 62.1275Z" fill="#151B28"/>
<path d="M40.7656 40.4609C40.5261 41.5392 40.1907 42.6689 39.7152 43.5411C38.2409 43.6147 35.7346 43.4638 33.0514 42.128C31.9236 41.5649 31.2491 40.7921 30.8805 39.9457C32.845 38.7902 36.446 36.5233 36.8035 36.2326C36.8661 36.1848 37.0467 35.9934 37.3158 35.6953C38.0087 37.079 39.0813 39.0184 40.7656 40.4609Z" fill="#121314"/>
<path d="M56.2425 37.4962C54.9636 38.7731 51.746 40.293 50.268 40.9517C50.2459 40.8192 50.2238 40.6794 50.2017 40.5432C52.1072 38.8651 54.1896 35.7408 54.1896 30.1178C54.1896 29.7461 54.1822 29.3854 54.1749 29.0469C54.7535 29.1941 55.1516 29.3118 55.2585 29.3818C55.4427 29.5032 55.8666 29.5658 56.3605 29.5915C56.9613 30.736 57.3409 30.9789 57.9306 32.4435C58.7746 34.5522 57.9306 35.8107 56.2425 37.4962Z" fill="#121314"/>
<path d="M55.7852 28.365C55.5087 28.3761 55.1991 28.3834 54.8527 28.3798C54.8416 28.1332 54.8306 27.8977 54.8195 27.6658C54.3514 27.618 53.8538 27.5481 53.3415 27.4561H53.3378C52.8182 25.594 51.1043 24.2287 49.0735 24.2287C48.2552 24.2287 47.4886 24.4495 46.8326 24.8396C45.174 23.7062 43.5818 22.1532 42.2402 20.0335C42.2402 20.0335 40.2204 22.0538 39.7154 23.0585C39.5422 23.4007 39.5459 24.5783 39.4685 26.054C38.0753 26.779 37.1244 28.2362 37.1244 29.9143C37.1244 30.8711 37.434 31.758 37.961 32.4793C37.5151 33.1969 36.9327 33.782 36.1772 34.161L35.7607 34.4628C35.8344 34.61 35.9155 34.7719 36.0039 34.9375L30.5786 38.8972C30.2432 36.8253 31.2604 34.6541 31.7875 34.1279C32.6315 33.2852 33.0517 29.0753 33.0517 24.869C33.0517 20.6628 33.8957 19.8164 35.5801 17.7114C37.2681 15.6028 41.4846 16.8687 41.4846 16.8687C42.7488 15.6028 44.4332 14.3442 48.2331 16.026C52.0257 17.7114 54.134 24.0226 55.4018 27.3935C55.5382 27.7578 55.6635 28.078 55.7852 28.365Z" fill="#121314"/>
<path d="M53.2891 29.917C53.2891 39.1796 46.9644 40.865 46.9644 40.865C41.7049 41.5201 39.2649 37.0599 38.1039 34.7231L38.0744 34.4729C38.6899 34.1637 38.7858 32.9273 39.147 32.3458C39.7551 32.9273 40.577 33.2879 41.4874 33.2879C43.3487 33.2879 44.8598 31.7791 44.8598 29.9207C44.8598 28.0623 43.3487 26.5572 41.4874 26.5572C41.1262 26.5572 40.7724 26.6161 40.4443 26.7228C40.5033 25.6004 40.5107 24.7209 40.6434 24.4522C41.0635 23.6095 42.3683 21.9277 42.3683 21.9277C43.5625 23.8193 45.3721 25.1661 46.8612 26.1266C46.1498 26.7412 45.7039 27.6501 45.7039 28.6658C45.7039 30.5242 47.2113 32.033 49.0726 32.033C50.9339 32.033 52.445 30.5242 52.445 28.6658C52.445 28.5076 52.434 28.3493 52.4119 28.1948C52.6993 28.2353 52.9758 28.2757 53.2448 28.3015C53.2743 28.7983 53.2891 29.3429 53.2891 29.9281V29.917ZM48.3649 34.6826L48.0922 34.4103C48.0922 34.4103 46.5368 35.9338 44.3217 35.1721L44.1964 35.5327C44.6977 35.7057 45.1621 35.7719 45.5859 35.7719C47.2445 35.7719 48.306 34.7305 48.3649 34.6789V34.6826Z" fill="#121314"/>
<path d="M52.133 46.2055C50.4781 50.5773 48.6169 50.7245 48.6169 50.7245H40.9211C39.093 50.4264 38.6839 47.2984 38.6138 45.326C38.8645 45.256 39.1262 45.1751 39.3842 45.072C40.641 44.5716 41.2933 42.2164 41.6214 40.3984C43.0293 41.3773 44.8169 41.9698 47.0836 41.6864C47.0836 41.6864 48.1193 41.4104 49.3835 40.4868C49.7815 44.325 50.9905 45.7565 52.1367 46.2092L52.133 46.2055Z" fill="#121314"/>
<path d="M65.6094 61.0872L47.5494 61.8232L44.3465 73.5735L37.4763 72.0499L29.8137 79.8847C31.0779 76.5469 32.6701 61.6319 32.8618 59.7882C32.8729 59.6815 32.7955 59.5895 32.6923 59.5784C32.5854 59.5674 32.4932 59.6447 32.4822 59.7477C31.6861 67.3506 30.1012 79.6197 29.2314 80.1975C29.1945 80.2195 29.1687 80.26 29.154 80.2968C27.2116 81.2573 20.393 83.8186 17.872 74.1218C14.9234 62.7543 15.3473 52.2295 15.3473 52.2295C15.3473 52.2295 15.7085 51.9461 16.3203 51.5855C16.4051 51.8026 16.4641 51.9866 16.4972 52.1227C16.6631 52.8477 21.6314 50.5955 21.6314 50.5955C21.6314 50.5955 21.6056 50.36 21.5688 49.9736C22.0184 49.9773 22.4755 50.0215 22.9362 50.1245L24.4105 53.0648C25.3098 55.8506 28.0114 66.6183 28.0446 66.7323C28.063 66.817 28.1404 66.8722 28.2215 66.8759C28.2399 66.8759 28.2584 66.8722 28.2731 66.8685C28.3763 66.8464 28.4389 66.7397 28.4131 66.6403C28.2952 66.1767 25.6747 55.7107 24.768 52.9397C25.3135 51.0077 27.3701 44.6523 30.9452 44.6523C35.1617 44.6523 37.6938 45.0719 37.6938 45.0719C37.6938 45.0719 37.2699 51.3867 40.2222 51.8099H48.6514C48.6514 51.8099 51.1282 51.6333 53.0521 46.0397C53.0521 46.0397 59.6496 45.0719 61.9531 49.072C64.2493 53.0685 65.6057 61.0872 65.6057 61.0872H65.6094Z" fill="#121314"/>
<path d="M16.1563 37.4115L14.7963 40.3297C14.7742 40.2561 14.752 40.1788 14.7299 40.0942C14.3061 38.4088 13.8896 37.5624 13.8712 37.5292L13.6979 37.6139V36.7712C13.6979 36.3516 14.9658 35.5089 15.386 35.9284C15.5961 36.1382 15.8025 36.5504 15.9573 36.911C16.0384 37.0987 16.1047 37.2716 16.1489 37.4004C16.1489 37.4041 16.1526 37.4078 16.1526 37.4115H16.1563ZM14.5641 40.8302L12.6106 45.0217C12.5296 44.8819 12.4558 44.742 12.3821 44.6096C12.0283 43.9545 11.7371 43.3768 11.5971 43.086C11.2506 42.4016 11.7519 42.2728 11.9435 41.7907C12.349 42.4604 12.6844 42.9867 12.9534 43.3841C13.0419 43.5166 13.1266 43.638 13.2004 43.7448L13.4068 43.3032C13.3257 43.1891 13.2409 43.0676 13.1598 42.9425C12.8207 42.4494 12.4558 41.9121 12.2531 41.5662C12.2052 41.4816 12.102 41.4484 12.0136 41.4889C12.0172 41.4632 12.0173 41.4374 12.0173 41.4043V40.1384C12.0173 39.8292 12.2458 39.7483 12.3674 39.3913C12.7212 40.5027 13.1524 41.5257 13.521 42.166C13.6058 42.3132 13.6869 42.4457 13.7606 42.5488L13.9375 42.1697C13.8712 42.052 13.8011 41.9048 13.72 41.7355C13.3588 40.97 12.8834 39.7888 12.6512 39.0123C12.6254 38.924 12.5332 38.8688 12.4411 38.8835C12.4411 38.2468 13.1525 37.8531 13.5063 37.6948C13.6242 37.6433 13.7053 37.6139 13.7053 37.6139L13.591 37.6728L13.5358 37.7022C13.5358 37.7022 13.9559 38.5486 14.3687 40.1862C14.4277 40.418 14.494 40.6315 14.5714 40.8302H14.5641ZM21.2905 44.0428C20.8667 45.8387 21.2905 49.4046 21.2905 49.4046C21.2905 49.4046 16.6539 51.5096 16.4954 50.8288C16.3553 50.1995 15.515 48.4147 14.7226 47.8296L18.0692 40.0648C18.3456 40.212 18.6515 40.4328 18.7142 40.6204C18.7658 40.7787 18.5483 41.0179 18.294 41.2902C18.1171 41.4779 17.9218 41.6913 17.7559 41.9379C17.3063 42.6224 17.6822 44.9076 17.7301 45.1652C17.7449 45.2572 17.8259 45.3235 17.9181 45.3235C17.9291 45.3235 17.9402 45.3198 17.9476 45.3198C18.0545 45.3014 18.1245 45.202 18.1024 45.099C17.9476 44.179 17.7965 42.5672 18.0766 42.1476C18.2203 41.9268 18.4009 41.7355 18.5741 41.5478C18.8985 41.2019 19.2044 40.8744 19.0791 40.499C18.9685 40.1531 18.5115 39.8624 18.224 39.7115L18.9427 38.0481C19.256 38.291 19.6135 38.5707 20.0263 38.8798C21.7144 40.142 21.7144 42.247 21.2942 44.0428H21.2905Z" fill="#121314"/>
<path d="M14.8164 40.4017L14.5909 40.9022C14.5836 40.8801 14.5725 40.858 14.5651 40.8286L14.7979 40.3281C14.8053 40.3539 14.809 40.376 14.8164 40.4017Z" fill="#121314"/>
<path d="M12.4375 38.8828C12.4375 39.1036 12.4079 39.2692 12.3636 39.3943C12.3377 39.306 12.3044 39.214 12.2786 39.122C12.249 39.019 12.3044 38.9159 12.4042 38.8865C12.4153 38.8828 12.4227 38.8828 12.4338 38.8828H12.4375Z" fill="#121314"/>
<path d="M12.0117 41.4883C12.0043 41.6024 11.9822 41.7017 11.9415 41.79C11.9341 41.7827 11.9304 41.7716 11.923 41.7606C11.8713 41.6723 11.9008 41.5545 11.9895 41.503C11.9969 41.4993 12.0043 41.4956 12.0117 41.492V41.4883Z" fill="#121314"/>
<path d="M12.4384 49.6687L14.0195 47.9465L12.4384 47.2988V49.6687Z" fill="#121314"/>
<path d="M19.1103 36.0187L14.1125 47.6144L12.5313 46.9667L17.6507 35.6544C17.6507 35.6544 17.6507 34.1934 18.7454 34.5614C19.8437 34.9257 19.114 36.0187 19.114 36.0187H19.1103Z" fill="#121314"/>
<path d="M44.7695 74.6511L43.1331 78.3274C43.1331 78.3274 39.3405 78.7469 38.9203 78.7469C38.5001 78.7469 38.4964 77.4847 38.1905 77.4442C37.8846 77.4074 34.7038 79.5896 34.3758 79.7957C34.1805 79.9172 33.5981 79.9724 33.0195 79.9061V79.781C32.931 79.781 32.7873 79.7479 32.7799 79.5823C32.931 79.1775 36.1892 76.0752 38.2053 74.2168L37.9473 73.9372C35.4189 76.2666 32.4076 79.1296 32.4076 79.5492C32.4076 79.6448 32.4224 79.7258 32.4519 79.7957C32.2639 79.7442 32.098 79.6743 31.9617 79.586C31.3277 79.1664 31.7516 79.1664 31.7516 79.1664C31.7516 79.1664 37.6524 72.8516 38.0763 72.8516C38.5001 72.8516 44.7695 74.6474 44.7695 74.6474V74.6511Z" fill="#121314"/>
<path d="M51.6016 28.6553C51.6016 30.0464 50.4737 31.1761 49.0768 31.1761C47.68 31.1761 46.5558 30.0427 46.5558 28.6553C46.5558 27.8973 46.8875 27.2165 47.422 26.7528C47.8642 26.3627 48.4429 26.1309 49.0768 26.1309C50.3558 26.1309 51.4062 27.0766 51.5758 28.2984C51.5942 28.4161 51.6016 28.5339 51.6016 28.6517V28.6553ZM50.4 28.1107C49.6739 27.6765 49.0142 27.5587 48.4466 27.7611C47.6247 28.0555 47.3114 28.9056 47.3003 28.9424L47.6578 29.0675C47.6578 29.0675 47.9306 28.3462 48.5793 28.1181C49.0326 27.9598 49.5781 28.0665 50.2047 28.4382L50.4 28.1107Z" fill="#121314"/>
<path d="M44.1328 29.9179C44.1328 31.3788 42.946 32.5638 41.4828 32.5638C40.7678 32.5638 40.1228 32.2804 39.6473 31.8241C39.146 31.3457 38.8328 30.6649 38.8328 29.9179C38.8328 28.7439 39.6031 27.7503 40.6646 27.4081C40.9189 27.3235 41.1953 27.2793 41.4828 27.2793C42.946 27.2793 44.1328 28.4606 44.1328 29.9215V29.9179ZM42.8576 29.3622C41.6781 28.8911 40.871 29.2923 40.3955 29.7118C39.8906 30.1571 39.6694 30.7054 39.6584 30.7275L40.0122 30.8673C40.0122 30.8673 40.2112 30.3779 40.6461 29.9951C41.2174 29.4873 41.914 29.3916 42.7138 29.7118L42.8539 29.3585L42.8576 29.3622Z" fill="#121314"/>
<path d="M29.7678 82.8887H109.298C110.138 82.8887 110.82 83.5695 110.82 84.4085V86.657C110.82 87.496 110.138 88.1768 109.298 88.1768H11.3134C10.4731 88.1768 9.7912 87.496 9.7912 86.657V84.4085C9.7912 83.5695 10.4731 82.8887 11.3134 82.8887H29.7641H29.7678Z" fill="#151B28"/>
</svg>
