<svg width="129" height="92" viewBox="0 0 129 92" fill="none" xmlns="http://www.w3.org/2000/svg">
<path d="M67.5584 71.8808C69.4233 68.0205 70.7097 64.7085 72.3203 60.885C69.8067 59.1149 68.653 56.1451 67.7169 54.916C66.0435 58.228 62.3247 65.2311 60.7029 69.349C58.7127 74.3832 64.8346 77.5039 67.5584 71.8808Z" fill="#151B28"/>
<path d="M90.8201 38.5693C90.9085 38.5988 90.9564 38.6098 90.9564 38.6098C90.9564 38.6098 92.0032 39.0698 93.4332 39.7911H93.4369C93.7539 39.9493 94.0893 40.1223 94.4394 40.3063C95.2835 40.7552 96.2012 41.2631 97.0895 41.804C97.3364 41.9586 97.5797 42.1132 97.8192 42.2677C98.1989 42.5143 98.5674 42.7682 98.9102 43.0221C99.6879 43.5888 100.255 44.2255 100.65 44.9247C101.24 45.8741 102.006 47.6405 102.769 49.6461C103.038 50.36 103.307 51.0997 103.565 51.8468C103.643 52.0749 103.72 52.2994 103.801 52.5276C107.417 50.2864 105.725 43.9973 102.53 40.7884C99.312 37.561 95.571 38.9815 97.3069 34.1128C97.6718 33.0861 97.9151 32.1808 98.0367 31.3418C97.4691 31.8423 96.485 32.6261 95.5673 32.961C95.383 33.0272 95.1766 33.0604 94.9481 33.0604C93.7613 33.0604 92.1285 32.144 91.1555 31.4927C90.8053 32.1551 90.4183 32.858 89.9724 33.5498L90.8164 38.5693H90.8201Z" fill="#151B28"/>
<path d="M67.9221 53.8871C67.9221 53.8871 68.6888 54.8181 70.1557 56.073C70.5501 56.4079 70.9923 56.7722 71.4862 57.1439C71.6447 57.2617 71.8069 57.3831 71.9764 57.5045C71.888 56.4852 71.9396 55.2303 72.3081 53.7951C73.1043 50.7333 72.7467 48.1169 72.7431 48.0911C72.7283 47.9733 72.8094 47.8703 72.9237 47.8519C73.0379 47.8372 73.1448 47.9181 73.1595 48.0285C73.1743 48.1389 73.5318 50.7554 72.7173 53.9018C72.3155 55.4511 72.3081 56.7943 72.4408 57.8321C72.474 57.8578 72.5072 57.8799 72.5403 57.902C73.3512 58.4613 74.2689 59.0281 75.2825 59.5653C75.3489 59.6021 75.4152 59.6353 75.4815 59.6721L75.5073 59.4881L75.8354 57.1513L76.1597 54.8255L76.5283 52.2017L76.7531 50.5714L77.0664 48.334C77.0664 48.334 77.0001 47.9181 76.7163 47.322C76.4619 46.7921 76.0344 46.1223 75.3304 45.4673C74.8771 45.0477 74.3095 44.6319 73.5981 44.2676C73.5945 44.2713 73.5945 44.2749 73.5908 44.2786C73.5834 44.286 73.5797 44.297 73.576 44.3044C73.5687 44.3154 73.5576 44.3301 73.5539 44.3412C73.4949 44.4369 73.3844 44.6172 73.2296 44.8748C73.2296 44.8748 73.2296 44.8785 73.2259 44.8821C73.0342 45.2023 72.7725 45.6329 72.4629 46.1481C72.1755 46.6228 71.8511 47.1674 71.501 47.7562C70.3916 49.6146 69.0352 51.9183 67.9221 53.8871Z" fill="#151B28"/>
<path d="M72.4786 55.572C72.5265 55.1193 72.6113 54.6446 72.7439 54.1368C74.5684 46.9976 72.04 47.1485 73.2268 44.8816C73.2305 44.8779 73.2305 44.8742 73.2305 44.8742C73.3079 44.7197 73.4037 44.5577 73.529 44.3811C73.5364 44.3701 73.5438 44.3553 73.5548 44.3406C73.5585 44.3296 73.5695 44.3149 73.5769 44.3038C73.5806 44.2965 73.5843 44.2854 73.5917 44.2781C73.5953 44.2744 73.5954 44.2707 73.599 44.267C73.9934 43.6819 74.4504 43.1741 74.948 42.7325C75.5451 42.1952 76.1975 41.7499 76.8646 41.3672C78.5084 40.4214 80.2444 39.851 81.4754 39.207L81.4902 39.5861L81.5233 40.4251C81.5233 40.4251 81.7555 42.4197 84.6672 42.5154C88.1355 42.6331 91.2204 39.9798 91.2204 39.9798C91.1651 39.8326 91.1099 39.6818 91.0583 39.5235C91.143 39.5493 91.1909 39.5603 91.1909 39.5603C91.1909 39.5603 92.1861 39.9982 93.5498 40.6864H93.5535C93.8557 40.8373 94.1727 41.0029 94.5081 41.1758C95.3116 41.6027 96.1851 42.0885 97.0291 42.6037C97.265 42.7509 97.4972 42.8981 97.7257 43.0453C98.0869 43.2808 98.4371 43.52 98.7651 43.7629C99.5059 44.3038 100.048 44.911 100.424 45.5771C101.658 47.7409 101.139 50.5304 99.9519 53.7909C99.705 54.4717 99.4359 55.2666 99.1595 56.1497H99.1558C99.1263 56.2565 99.0894 56.3632 99.0563 56.4699V56.4773C98.7688 57.4009 98.4739 58.413 98.1864 59.4728C98.1643 59.5574 98.1385 59.6421 98.1164 59.7267C98.0685 59.907 98.0206 60.0837 97.9727 60.2677C97.9579 60.3266 97.9432 60.3891 97.9248 60.448C97.7147 60.4811 97.5119 60.5032 97.324 60.5179C96.2809 60.6173 95.5548 60.5069 95.1273 60.4333L93.8594 55.2113V55.204L93.0412 51.8331C93.0154 51.7227 92.9011 51.6528 92.7869 51.6785C92.6763 51.708 92.6063 51.8221 92.6321 51.9325L93.2181 54.3429L91.8101 52.4882C91.7438 52.3925 91.6111 52.3777 91.519 52.444C91.4268 52.5139 91.4084 52.6464 91.4784 52.7384L93.465 55.3622L94.755 60.6614C94.7735 60.7424 94.8361 60.805 94.9172 60.8197C95.1052 60.8528 95.3669 60.9043 95.7096 60.9374C96.1446 60.9816 96.7085 61 97.4051 60.9338C97.5341 60.919 97.6704 60.9043 97.8105 60.8859C97.7368 61.1803 97.6594 61.4784 97.5894 61.7802C97.5894 61.7949 97.582 61.8133 97.5783 61.828C97.3314 62.8289 97.0955 63.8446 96.8817 64.8603C96.8485 65.0259 96.8153 65.1842 96.7822 65.3461V65.3534C96.2993 67.7454 95.9455 70.0749 95.8497 71.9995C94.6776 72.5478 93.5277 73.2176 92.3741 73.9352C88.3972 76.4045 81.3317 77.9022 81.3317 77.9022C81.3317 77.9022 76.8609 76.467 73.8644 77.2472C73.5548 77.3281 73.2636 77.4422 72.9946 77.5784C73.5732 75.7789 74.3399 73.2066 74.8595 70.7962C74.9959 70.1779 75.1102 69.5707 75.206 68.9893C75.3571 68.0729 75.4456 67.2155 75.4529 66.4905C75.4566 66.1189 75.4345 65.7803 75.3903 65.4822C75.3276 65.0885 75.2392 64.7094 75.1249 64.3451C74.6458 62.7885 73.0867 61.092 72.5412 57.9014C72.4638 57.4525 72.4196 56.9814 72.4233 56.4773C72.427 56.1829 72.4417 55.8848 72.4786 55.572ZM77.9555 73.1661C77.9777 73.2728 78.0846 73.3427 78.1951 73.3317C78.7443 73.2802 79.2861 73.1992 79.8132 73.0888C82.8539 72.4485 85.5113 70.8771 87.59 69.2432C87.6342 69.2064 87.66 69.1549 87.6674 69.0997C87.6858 68.9157 87.4757 68.8016 87.332 68.9157C84.94 70.7925 81.774 72.5883 78.1435 72.9158C78.0219 72.9269 77.9334 73.041 77.9555 73.1661ZM87.9586 46.2432C88.0728 46.2248 88.1466 46.1144 88.1281 46.0003C88.106 45.8862 87.9991 45.8126 87.8849 45.831C87.8517 45.8384 84.6267 46.3867 82.5369 45.3011C82.4337 45.2459 82.3084 45.2864 82.2531 45.3894C82.2015 45.4925 82.242 45.6176 82.3416 45.6728C83.1008 46.0666 83.9817 46.2616 84.8183 46.3426C86.4253 46.5045 87.8664 46.2616 87.9586 46.2432ZM90.9293 41.9707C90.874 41.8677 90.7487 41.8272 90.6455 41.8824C90.5976 41.9081 85.714 44.429 81.7481 42.9901C81.6413 42.9533 81.5196 43.0085 81.4828 43.1152C81.4422 43.2256 81.4975 43.347 81.6081 43.3838C82.2347 43.612 82.8834 43.7481 83.5247 43.8144C87.1219 44.175 90.6676 42.3461 90.8408 42.2541C90.944 42.1989 90.9809 42.0738 90.9293 41.9707ZM76.1385 74.3253C76.6803 74.443 77.2258 74.5313 77.7676 74.5829C85.268 75.3373 92.293 70.1779 92.3667 70.1227C92.4588 70.0528 92.4773 69.9203 92.4109 69.8283C92.3409 69.7363 92.2082 69.7179 92.1161 69.7878C92.0387 69.8467 84.1181 75.6574 76.2306 73.9168C76.1164 73.891 76.0021 73.9609 75.98 74.075C75.9542 74.1891 76.0242 74.2995 76.1385 74.3253Z" fill="#151B28"/>
<path d="M93.5704 53.849L93.7916 54.7874L94.2892 56.885L95.1295 60.4289C95.7192 60.451 96.2794 60.4399 96.8065 60.4031C97.2119 60.3737 97.5989 60.3258 97.9712 60.267C98.3361 60.2081 98.6788 60.1382 99.0106 60.0535C102.877 59.0894 104.605 56.6642 104.605 56.6642C104.241 55.3247 103.743 53.735 103.198 52.1673C102.951 51.457 102.696 50.7505 102.438 50.0734C101.712 48.1598 100.979 46.4743 100.422 45.5801C99.9541 45.6206 99.4971 45.7898 99.0474 46.0511C98.4356 46.4081 97.8459 46.9417 97.2967 47.5599C96.2647 48.7228 95.3728 50.2058 94.7167 51.435C94.5877 51.6778 94.4661 51.9134 94.3592 52.1305C93.8542 53.1388 93.5668 53.8527 93.5668 53.8527L93.5704 53.849Z" fill="#151B28"/>
<path d="M96.8545 60.4951C97.282 60.4656 97.6874 60.4178 98.0781 60.3516C98.0634 60.4141 98.0486 60.4804 98.0302 60.5429C97.8091 60.576 97.5953 60.5981 97.4 60.6165C96.3016 60.7196 95.5424 60.6055 95.0927 60.5282C95.7119 60.5503 96.2979 60.5392 96.8545 60.4951Z" fill="#151B28"/>
<path d="M89.567 33.6752C89.6223 35.3201 90.002 37.9329 90.6875 39.7398C90.6875 39.7398 87.9416 42.106 84.8493 41.9993C82.2583 41.9147 82.0519 40.1372 82.0519 40.1372L82.0224 39.3902L81.9855 38.3892C86.1651 37.7084 88.6898 35.3864 89.5523 33.6016L89.567 33.6752Z" fill="#151B28"/>
<path d="M83.796 24.3883C84.1903 24.3883 84.57 24.4767 84.9091 24.6349C84.9717 24.7122 85.0565 24.7527 85.1486 24.7563C85.5504 24.9955 85.8858 25.3341 86.118 25.7389C86.1253 25.7536 86.1327 25.772 86.1438 25.7831C86.3465 26.1621 86.4644 26.5927 86.4644 27.0527C86.4644 28.521 85.2666 29.7133 83.796 29.7133C82.3254 29.7133 81.1312 28.521 81.1312 27.0527C81.1312 25.5843 82.3254 24.3883 83.796 24.3883ZM83.0551 26.3314C83.1104 26.8539 83.3832 27.2587 83.6707 27.2293C83.9581 27.1999 84.1498 26.7509 84.0945 26.2247C84.0429 25.6984 83.7665 25.2973 83.479 25.3267C83.1952 25.3562 83.0035 25.8051 83.0551 26.3314ZM83.796 24.3883C84.1903 24.3883 84.57 24.4767 84.9091 24.6349C84.9717 24.7122 85.0565 24.7527 85.1486 24.7563C85.5504 24.9955 85.8858 25.3341 86.118 25.7389C86.1253 25.7536 86.1327 25.772 86.1438 25.7831C86.3465 26.1621 86.4644 26.5927 86.4644 27.0527C86.4644 28.521 85.2666 29.7133 83.796 29.7133C82.3254 29.7133 81.1312 28.521 81.1312 27.0527C81.1312 25.5843 82.3254 24.3883 83.796 24.3883ZM83.0551 26.3314C83.1104 26.8539 83.3832 27.2587 83.6707 27.2293C83.9581 27.1999 84.1498 26.7509 84.0945 26.2247C84.0429 25.6984 83.7665 25.2973 83.479 25.3267C83.1952 25.3562 83.0035 25.8051 83.0551 26.3314ZM83.796 24.3883C84.1903 24.3883 84.57 24.4767 84.9091 24.6349C84.9717 24.7122 85.0565 24.7527 85.1486 24.7563C85.5504 24.9955 85.8858 25.3341 86.118 25.7389C86.1253 25.7536 86.1327 25.772 86.1438 25.7831C86.3465 26.1621 86.4644 26.5927 86.4644 27.0527C86.4644 28.521 85.2666 29.7133 83.796 29.7133C82.3254 29.7133 81.1312 28.521 81.1312 27.0527C81.1312 25.5843 82.3254 24.3883 83.796 24.3883ZM83.0551 26.3314C83.1104 26.8539 83.3832 27.2587 83.6707 27.2293C83.9581 27.1999 84.1498 26.7509 84.0945 26.2247C84.0429 25.6984 83.7665 25.2973 83.479 25.3267C83.1952 25.3562 83.0035 25.8051 83.0551 26.3314ZM83.796 24.3883C84.1903 24.3883 84.57 24.4767 84.9091 24.6349C84.9717 24.7122 85.0565 24.7527 85.1486 24.7563C85.5504 24.9955 85.8858 25.3341 86.118 25.7389C86.1253 25.7536 86.1327 25.772 86.1438 25.7831C86.3465 26.1621 86.4644 26.5927 86.4644 27.0527C86.4644 28.521 85.2666 29.7133 83.796 29.7133C82.3254 29.7133 81.1312 28.521 81.1312 27.0527C81.1312 25.5843 82.3254 24.3883 83.796 24.3883ZM83.0551 26.3314C83.1104 26.8539 83.3832 27.2587 83.6707 27.2293C83.9581 27.1999 84.1498 26.7509 84.0945 26.2247C84.0429 25.6984 83.7665 25.2973 83.479 25.3267C83.1952 25.3562 83.0035 25.8051 83.0551 26.3314ZM75.7279 24.9587C75.4773 25.301 75.3225 25.6727 75.2562 25.956C75.2083 26.1437 75.3262 26.3314 75.5179 26.3792C75.6137 26.4013 75.7132 26.3829 75.7906 26.3314C75.8643 26.2835 75.9196 26.2099 75.9417 26.1179C75.9565 26.0701 76.1997 25.1096 77.0364 24.7895C78.3522 24.944 79.3805 26.0701 79.3805 27.428C79.3805 28.8963 78.1826 30.0923 76.7157 30.0923C76.0965 30.0923 75.5289 29.8826 75.0756 29.5256C75.0092 29.2312 74.9539 28.9479 74.9023 28.6682C74.895 28.6351 74.8913 28.6019 74.8839 28.5688C74.7107 27.6157 74.5927 26.7104 74.5153 25.9303C74.8102 25.496 75.2341 25.1538 75.7279 24.9587ZM76.7157 27.0159C76.771 27.5384 77.0474 27.9432 77.3312 27.9138C77.6187 27.8843 77.8104 27.4354 77.7551 26.9091C77.7035 26.3866 77.4271 25.9818 77.1396 26.0112C76.8558 26.0407 76.6641 26.4896 76.7157 27.0159ZM74.7844 23.3027L75.7427 22.9936C77.4049 22.5815 77.991 21.2125 78.1052 19.9355C80.6005 21.8013 86.1696 23.1519 88.1599 23.4867C88.2041 23.7443 88.2336 24.0424 88.2557 24.3552C87.2827 24.6754 86.6377 25.1317 86.3428 25.3709C86.1217 25.036 85.8379 24.749 85.5061 24.5282C85.5504 24.4178 85.5356 24.2927 85.4582 24.1933C84.452 22.8722 82.9188 23.2218 82.248 23.5898C82.0747 23.6818 82.0158 23.8989 82.1079 24.0682C82.1558 24.1565 82.2369 24.2154 82.3254 24.2411C82.4101 24.2632 82.506 24.2522 82.5871 24.208C82.6276 24.1859 83.3021 23.8327 84.0024 24.0093C83.9323 24.0093 83.866 24.0019 83.796 24.0019C82.3659 24.0019 81.1607 24.9919 80.8327 26.3203C80.6815 26.221 80.4751 26.14 80.2171 26.1621C79.9444 26.1805 79.7417 26.2983 79.5979 26.4197C79.3178 25.6359 78.7318 24.9955 77.9799 24.6533C78.0905 24.6055 78.1679 24.4987 78.1826 24.3699C78.1974 24.1749 78.0536 24.0019 77.862 23.9872C77.1875 23.9283 76.6604 24.1197 76.2587 24.4178C75.5547 24.5208 74.9281 24.8667 74.4674 25.3709C74.4379 25.0323 74.4195 24.7269 74.4085 24.4583C74.7955 24.2117 74.8028 23.5935 74.7844 23.3027ZM76.7157 30.4787C78.4001 30.4787 79.7675 29.1098 79.7675 27.428C79.7675 27.233 79.7491 27.0416 79.7122 26.8539C79.7822 26.7583 79.9591 26.5706 80.2503 26.5448C80.512 26.5227 80.6889 26.681 80.7589 26.7619C80.7479 26.8576 80.7442 26.9533 80.7442 27.0527C80.7442 28.7344 82.1116 30.0997 83.796 30.0997C85.4803 30.0997 86.8514 28.7344 86.8514 27.0527C86.8514 26.5743 86.7409 26.1179 86.5418 25.7131C86.7703 25.5255 87.3601 25.0875 88.2741 24.7711C88.2852 24.9882 88.2925 25.209 88.2999 25.4261C88.3478 27.0122 88.3957 28.5099 89.5088 28.5099C89.542 28.5099 89.5752 28.5063 89.612 28.5026C89.6857 28.4952 89.7558 28.4805 89.8258 28.4547L89.6526 29.6802C89.87 29.728 90.0838 29.7538 90.2828 29.7611C90.2791 30.2911 90.3049 30.648 90.3787 30.7216C90.4192 30.7621 90.4819 30.8173 90.5703 30.8835C89.3209 33.4117 87.2347 35.6896 83.7591 36.5103C80.1766 37.353 77.1764 35.9251 75.6948 31.8808C75.5695 31.5386 75.481 31.1853 75.3889 30.8394C75.3225 30.5855 75.2599 30.3315 75.2009 30.0776C75.6505 30.3315 76.1665 30.4787 76.7157 30.4787ZM81.6177 33.592C83.9434 33.1909 84.0724 30.8762 84.0724 30.8762C84.0724 30.8762 80.2171 31.5791 78.0241 31.4024C78.0241 31.4024 78.5512 34.1146 81.6177 33.592ZM83.796 24.3883C84.1903 24.3883 84.57 24.4767 84.9091 24.6349C84.9717 24.7122 85.0565 24.7527 85.1486 24.7563C85.5504 24.9955 85.8858 25.3341 86.118 25.7389C86.1253 25.7536 86.1327 25.772 86.1438 25.7831C86.3465 26.1621 86.4644 26.5927 86.4644 27.0527C86.4644 28.521 85.2666 29.7133 83.796 29.7133C82.3254 29.7133 81.1312 28.521 81.1312 27.0527C81.1312 25.5843 82.3254 24.3883 83.796 24.3883ZM83.0551 26.3314C83.1104 26.8539 83.3832 27.2587 83.6707 27.2293C83.9581 27.1999 84.1498 26.7509 84.0945 26.2247C84.0429 25.6984 83.7665 25.2973 83.479 25.3267C83.1952 25.3562 83.0035 25.8051 83.0551 26.3314ZM83.796 24.3883C84.1903 24.3883 84.57 24.4767 84.9091 24.6349C84.9717 24.7122 85.0565 24.7527 85.1486 24.7563C85.5504 24.9955 85.8858 25.3341 86.118 25.7389C86.1253 25.7536 86.1327 25.772 86.1438 25.7831C86.3465 26.1621 86.4644 26.5927 86.4644 27.0527C86.4644 28.521 85.2666 29.7133 83.796 29.7133C82.3254 29.7133 81.1312 28.521 81.1312 27.0527C81.1312 25.5843 82.3254 24.3883 83.796 24.3883ZM83.0551 26.3314C83.1104 26.8539 83.3832 27.2587 83.6707 27.2293C83.9581 27.1999 84.1498 26.7509 84.0945 26.2247C84.0429 25.6984 83.7665 25.2973 83.479 25.3267C83.1952 25.3562 83.0035 25.8051 83.0551 26.3314ZM83.796 24.3883C84.1903 24.3883 84.57 24.4767 84.9091 24.6349C84.9717 24.7122 85.0565 24.7527 85.1486 24.7563C85.5504 24.9955 85.8858 25.3341 86.118 25.7389C86.1253 25.7536 86.1327 25.772 86.1438 25.7831C86.3465 26.1621 86.4644 26.5927 86.4644 27.0527C86.4644 28.521 85.2666 29.7133 83.796 29.7133C82.3254 29.7133 81.1312 28.521 81.1312 27.0527C81.1312 25.5843 82.3254 24.3883 83.796 24.3883ZM83.0551 26.3314C83.1104 26.8539 83.3832 27.2587 83.6707 27.2293C83.9581 27.1999 84.1498 26.7509 84.0945 26.2247C84.0429 25.6984 83.7665 25.2973 83.479 25.3267C83.1952 25.3562 83.0035 25.8051 83.0551 26.3314Z" fill="#151B28"/>
<path d="M73.7112 25.6758C73.7149 25.742 73.726 25.8083 73.7297 25.8745C73.7445 26.0769 73.7667 26.2683 73.7852 26.4559C73.7519 26.1873 73.726 25.9334 73.7002 25.6905C73.7038 25.6905 73.7075 25.6795 73.7112 25.6758Z" fill="#151B28"/>
<path d="M88.8242 24.6041C88.9016 26.2233 88.8131 28.0301 89.554 27.9529C90.3906 27.8645 90.7481 25.3143 90.8477 24.4164C90.081 24.3759 89.4029 24.4605 88.8242 24.6041Z" fill="#151B28"/>
<path d="M72.668 24.5786C72.7159 25.0681 72.7896 25.5796 72.8891 26.1095H72.8928C72.8928 26.1095 73.5526 24.4977 74.0464 24.1922C74.5403 23.8868 74.3929 22.9374 74.3929 22.9374L74.4482 22.827L75.5908 22.459C78.2482 21.8186 77.452 18.33 77.452 18.33C78.0897 20.5748 86.2093 22.6908 88.6161 22.9962C88.7119 23.3385 88.7672 23.7543 88.7967 24.2033C89.3753 24.0671 90.0461 23.9898 90.8017 24.0266C90.9418 24.0303 91.0892 24.0414 91.2366 24.0561C91.1703 24.1334 91.1076 24.2106 91.056 24.2806C90.916 25.7084 90.7317 27.7177 90.6801 29.0682C90.6506 29.8558 90.6653 30.4188 90.7575 30.5108C90.8201 30.5734 90.9528 30.6801 91.1408 30.8126C91.2329 30.8383 91.3288 30.8494 91.4246 30.8494C92.147 30.8494 92.733 30.2642 92.733 29.5466C92.733 29.1308 92.5377 28.7554 92.2281 28.5199C92.0438 28.369 91.8153 28.2734 91.5647 28.2476C91.561 28.1225 91.5573 27.9974 91.5757 27.8759C91.9258 27.9054 92.2465 28.0452 92.5045 28.2586C92.8731 28.5678 93.109 29.0314 93.109 29.5466C93.109 30.371 92.5082 31.0628 91.7158 31.199C92.803 31.8871 94.5059 32.7593 95.3831 32.4428C96.6546 31.9828 98.1289 30.5108 98.1289 30.5108V29.6497C98.0478 27.9642 97.4323 26.3561 96.3266 24.218C94.3363 20.3798 95.313 18.2454 91.3619 14.5654C87.6615 11.1209 81.8565 12.3095 81.8565 12.3095C73.6926 13.6674 72.2994 20.7662 72.668 24.5786Z" fill="#151B28"/>
<path d="M90.8449 24.4165C90.8818 24.4165 90.9225 24.4165 90.9594 24.4202C90.989 24.3761 91.0186 24.3282 91.0555 24.2804C91.0592 24.2289 91.0666 24.181 91.0703 24.1295L90.8781 24.1074C90.8781 24.1074 90.867 24.2252 90.8449 24.4165Z" fill="#151B28"/>
<path d="M74.4658 25.3691C74.4768 25.5458 74.4952 25.7335 74.5137 25.9285C74.2151 26.3554 74.0456 26.8706 74.0456 27.4263C74.0456 28.2763 74.4473 29.0381 75.0739 29.5239C75.0776 29.5423 75.0813 29.5643 75.085 29.5827C75.0886 29.5975 75.0923 29.6159 75.096 29.6343C75.1292 29.7815 75.1624 29.9287 75.1992 30.0759C74.2815 29.5496 73.6586 28.5597 73.6586 27.4263C73.6586 26.6351 73.9645 25.9064 74.4658 25.3691Z" fill="#151B28"/>
<path d="M71.2826 81.9053C71.8576 80.6651 72.204 79.9512 72.204 79.9512C73.7705 80.7387 75.3037 81.379 76.7891 81.9053H71.2789H71.2826Z" fill="#151B28"/>
<path d="M96.5801 61.6231C96.8602 63.1356 97.1883 64.7805 97.5458 66.4034C97.8996 68.0263 98.2866 69.6234 98.6883 71.0328C98.6883 71.0402 98.692 71.0439 98.692 71.0512C98.7584 71.272 98.821 71.4892 98.8837 71.6989C98.8837 71.6989 98.8849 71.7014 98.8874 71.7063C98.8874 71.7063 98.8947 71.7284 98.8947 71.7394C99.4365 73.5316 100.004 74.9447 100.561 75.5997C102.105 77.4176 104.792 77.7415 106.148 75.2648C106.152 75.2612 106.152 75.2575 106.152 75.2575C106.156 75.2538 106.156 75.2501 106.159 75.2464C106.941 73.8039 107.272 71.4119 106.672 67.8239C106.115 64.5008 105.282 61.0784 104.427 58.002C103.255 59.1023 99.0827 61.6047 96.5801 61.6231Z" fill="#151B28"/>
<path d="M82.907 82.0727C82.907 82.0727 94.9003 81.3403 99.9608 79.953C105.018 78.5693 106.16 75.2499 106.16 75.2499C106.16 75.1874 106.134 73.0935 103.798 72.2139C103.33 72.0373 102.872 71.9011 102.419 71.8018C101.199 71.5331 100.027 71.5258 98.8882 71.7098C98.8182 71.7208 98.7445 71.7355 98.6708 71.7466C96.4041 72.1624 94.2664 73.3253 92.125 74.6538C88.454 76.9354 81.9266 78.3191 81.9266 78.3191C80.4597 80.0303 82.907 82.0653 82.907 82.0653V82.0727Z" fill="#151B28"/>
<path d="M98.6894 71.0332C98.6894 71.0332 98.6931 71.0479 98.6968 71.0516C98.7595 71.2724 98.8221 71.4895 98.8885 71.6993C98.8885 71.6993 98.8885 71.7029 98.8885 71.7066C99.8246 71.6956 101.841 71.7618 103.227 72.3285C103.204 72.3138 102.876 72.082 102.305 71.817C101.509 71.449 100.245 71.0185 98.6894 71.0295V71.0332Z" fill="#151B28"/>
<path d="M81.9306 78.3223C81.9306 78.3223 77.8026 76.9975 75.0309 77.7151C72.2593 78.4327 71.2862 81.9066 71.2862 81.9066L81.9306 81.8992C81.9306 81.8992 83.4491 78.716 81.9306 78.3223Z" fill="#151B28"/>
<path d="M99.4776 70.0061C99.4776 70.0061 99.4813 70.0208 99.4813 70.0282C99.5181 70.1496 99.5513 70.2674 99.5881 70.3851C99.6213 70.4992 99.6545 70.6133 99.6877 70.7274C99.6877 70.731 99.6913 70.731 99.6913 70.731H99.695V70.7384C99.695 70.7384 99.7135 70.7384 99.7208 70.7384C100.749 70.7237 102.902 70.8046 104.391 71.4118C104.365 71.3934 104.007 71.1432 103.392 70.8598C103.337 70.8341 103.278 70.8083 103.215 70.7826C102.349 70.4035 101.051 69.995 99.4776 70.0061Z" fill="#151B28"/>
<path d="M97.8125 60.8828C97.6724 60.9012 97.5361 60.9159 97.4071 60.9307C97.4624 61.2251 97.5213 61.5231 97.5803 61.8249C97.584 61.8102 97.5877 61.7918 97.5914 61.7771C97.6614 61.4753 97.7388 61.1772 97.8125 60.8828Z" fill="#151B28"/>
<path d="M97.1958 59.8203C97.2363 60.0484 97.2805 60.2803 97.3248 60.5158C97.5127 60.5011 97.7154 60.479 97.9255 60.4459C97.944 60.387 97.9587 60.3244 97.9734 60.2656C98.0214 60.0816 98.0693 59.9049 98.1172 59.7246C97.7928 59.7835 97.4832 59.8166 97.1958 59.8203Z" fill="#151B28"/>
<path d="M99.7208 70.7402C100.749 70.7255 102.902 70.8064 104.391 71.4136C104.365 71.3952 104.007 71.145 103.392 70.8616C103.337 70.8359 103.278 70.8101 103.215 70.7844C102.013 70.5525 100.852 70.5599 99.7208 70.7402Z" fill="#151B28"/>
<path d="M99.4776 70.008C99.4776 70.008 99.4813 70.0228 99.4849 70.0301C99.5181 70.1516 99.5513 70.2693 99.5881 70.3871C99.6213 70.5048 99.6545 70.6189 99.6913 70.733V70.7403H99.7208C100.749 70.7256 102.902 70.8066 104.391 71.4138C104.365 71.3954 104.007 71.1451 103.392 70.8618C103.337 70.836 103.278 70.8103 103.215 70.7845C102.349 70.4055 101.051 69.997 99.4776 70.008Z" fill="#151B28"/>
<path d="M90.0608 28.9989C90.2783 29.0467 90.4847 29.0688 90.68 29.0688C91.2992 29.0762 91.8115 28.8664 92.228 28.5205C92.0437 28.3696 91.8152 28.2739 91.5646 28.2482C91.5609 28.1231 91.5572 27.9979 91.5756 27.8765C91.9258 27.9059 92.2464 28.0458 92.5044 28.2592C93.9566 26.6915 93.9603 23.3795 92.8877 23.0594C91.6162 22.6803 90.9675 23.7071 90.8016 24.0272C90.7721 24.0861 90.7574 24.1192 90.7574 24.1192L90.7169 24.4136L90.3667 26.8608L90.0608 28.9989Z" fill="#151B28"/>
<path d="M74.5986 26.6914C74.654 27.214 74.7279 27.6924 74.8203 28.2149C74.7316 27.6813 74.6577 27.1698 74.5986 26.6914Z" fill="#151B28"/>
<path d="M55.5903 76.1133H68.8773C69.1869 76.1133 69.4375 76.3635 69.4375 76.6726V80.2238C69.4375 80.533 69.1869 80.7832 68.8773 80.7832H56.1026C55.8225 80.7832 55.5866 80.5771 55.546 80.3048L55.03 76.7536C54.9821 76.415 55.2438 76.1133 55.5866 76.1133H55.5903Z" fill="#F37BB8"/>
<path d="M21.2282 54.3086H48.7273C49.5787 54.3086 50.3048 54.9158 50.4559 55.7512L54.9414 80.7862H24.6633L20.1446 55.6003C20.0266 54.9268 20.5426 54.3123 21.2282 54.3123V54.3086ZM35.4993 67.4057C35.6209 68.2006 36.2769 68.8556 37.0767 68.9808C38.3631 69.1758 39.4503 68.0902 39.255 66.8096C39.1334 66.0073 38.4773 65.356 37.6775 65.2345C36.3912 65.0358 35.3039 66.1251 35.4993 67.4057Z" fill="#F37BB8"/>
<path d="M32.8029 83.959H112.333C113.174 83.959 113.855 84.6398 113.855 85.4788V87.7273C113.855 88.5663 113.174 89.2471 112.333 89.2471H14.3522C13.5119 89.2471 12.83 88.5663 12.83 87.7273V85.4788C12.83 84.6398 13.5119 83.959 14.3522 83.959H32.8029Z" fill="#151B28"/>
<path fill-rule="evenodd" clip-rule="evenodd" d="M48.0742 34.7094H20.6414V50.2905H48.0742V34.7094ZM36.7222 46.018L43.0248 43.2948V41.797L36.7222 39.0738V40.8476L41.123 42.522L36.7222 44.27V46.018ZM36.1473 47.2434L33.8695 37.7822H32.5426L34.8425 47.2434H36.1436H36.1473ZM31.9713 46.0438V44.27L27.5964 42.5478L31.9713 40.8513V39.0775L25.6946 41.8007V43.2985L31.9713 46.0438ZM48.0742 30.0137H20.6414V33.9586H48.0742V30.0137ZM28.4699 31.6623H26.9698V33.0607H28.4699V31.6623ZM26.0189 31.6623H24.5188V33.0607H26.0189V31.6623ZM23.5679 31.6623H22.0678V33.0607H23.5679V31.6623Z" fill="#212121"/>
<path fill-rule="evenodd" clip-rule="evenodd" d="M41.6703 10.1532V21.6495H46.0379V21.6311L46.3585 21.6495L46.7345 21.6311V21.6495H55.3738V21.6311L55.6944 21.6495L56.0741 21.6311V21.6495H60.4416V10.1532H41.6666H41.6703ZM60.4453 23.2172V22.253C60.4453 22.2407 60.4392 22.2346 60.4269 22.2346H60.3347V22.724H60.2205V22.2346H59.9551V22.4812H59.863V22.2346H59.5976V22.724H59.5018V22.2346H59.2364V22.4812H59.1406V22.2346L58.8752 22.2162V22.7277H58.7609V22.2162H58.4956V22.4628H58.3997V22.2162H58.1344V22.7277H58.0385V22.2162H57.7732V22.4628H57.6773V22.2162H57.412V22.7056H57.2977V22.2162H57.0545L57.036 22.4628H56.9402V22.2162H56.6748V22.7056H56.579V22.2162H56.3136V22.4628H56.2178V22.2162H55.9524V22.7056H55.8382V22.2162H55.5912V22.7056H55.477V22.2162H55.2116V22.4628H55.1158V22.2162H54.8504V22.7056H54.7546V22.2162H54.4892V22.4628H54.3934V22.2162H54.128V22.7056H54.0137V22.2162H53.7668V22.4628H53.6525V22.2162H53.3872V22.7277H53.295V22.2162H53.0297V22.4628H52.9375V22.2162H52.6721V22.7277H52.5763L52.5579 22.2162L52.3146 22.2346V22.4812H52.2004V22.2346H51.935V22.724H51.8392V22.2346H51.5738V22.4812H51.478V22.2346H51.2716V22.724H51.1757V22.2346H50.9657V22.724H50.8514V22.2346H50.586V22.4812H50.4939V22.2346H50.2285V22.724H50.1364V22.2346H49.871V22.4812H49.7752V22.2346L49.5098 22.2162V22.7277H49.3955V22.2162H49.1302V22.4628H49.0343V22.2162H48.769V22.7277H48.6731V22.2162H48.4078V22.4628H48.3119V22.2162H48.0466V22.7056H47.9323V22.2162H47.6669V22.4628H47.5711V22.2162H47.3057V22.7056H47.2136V22.2162H46.9482V22.4628H46.8524V22.2162H46.587V22.7056H46.4728V22.2162H46.2258V22.7056H46.1116V22.2162H45.8462V22.4628H45.7504V22.2162H45.485V22.7056H45.3892V22.2162H45.1238V22.4628H45.028V22.2162H44.7626V22.7056H44.6483V22.2162H44.383V22.4628H44.2908V22.2162H44.0255V22.7277H43.9333V22.2162H43.6679V22.4628H43.5721V22.2162H43.3067V22.7277H43.1925V22.2162L42.9271 22.2346L42.9455 22.4812H42.8313V22.2346H42.5659V22.724H42.4701V22.2346H42.2047V22.4812H42.1089V22.2346H41.8435V22.724H41.7477L41.7293 22.2346H41.6334C41.6211 22.2346 41.615 22.2407 41.615 22.253V23.2172H60.39H60.4453ZM60.4085 21.2741H59.4612C59.4428 21.2741 59.4244 21.2557 59.4244 21.2557V21.1416H59.9146V21.046H59.4244V20.781H59.6713V20.6853H59.4244V20.4204H59.9146V20.3247H59.4244V20.0597H59.6713V19.9456H59.4244V19.6807H59.9146V19.585H59.4244V19.32H59.6713V19.2244H59.4244V18.9594H59.9146V18.8637H59.4244V18.5988H59.6713V18.4847H59.4244L59.4059 18.2381L59.9146 18.2197V18.124H59.4059V17.8591H59.6713L59.6529 17.7634H59.4059V17.4984H59.9146V17.4028H59.4059V17.1378H59.6529V17.0237L59.4059 17.0421V16.7772H59.8998V16.6631H59.4059V16.6042V16.4717V16.3981L59.8998 16.4165V16.3024H59.4059V16.0375H59.6529V15.9418H59.4059V15.6768H59.9146V15.5812H59.4059V15.3162H59.6529L59.6713 15.2021H59.4059V14.9556H59.9146V14.8415H59.4059L59.4244 14.5765H59.6713V14.4808H59.4244V14.2159H59.9146V14.1202H59.4244V13.8552H59.6713V13.7596H59.4244V13.4946H59.9146V13.3805H59.4244V13.1156H59.6713V13.0199H59.4244V12.7549H59.9146V12.6592H59.4244V12.3943H59.6713V12.2986H59.4244V12.0925H59.9146V11.9968H59.4244V11.7687H59.9146V11.673H59.4244V11.408H59.6713V11.3124H59.4244V11.0474H59.9146V10.9517H59.4244V10.6868H59.6713V10.5727H59.4244V10.3077H59.9146V10.212H59.4244V10.098H60.4085V21.2152V21.2741ZM60.4453 7.625H41.6703V9.56804H60.4453V7.625ZM45.4334 8.47508H44.6225V9.28836H45.4334V8.47508ZM44.4309 8.47508H43.6163V9.28836H44.4309V8.47508ZM43.4284 8.47508H42.6138V9.28836H43.4284V8.47508ZM57.9095 11.7208H53.7705V15.8719H57.9095V11.7208ZM52.7864 14.0981H48.6473V18.2528H52.7864V14.0981ZM47.6633 16.4938H43.5242V20.6485H47.6633V16.4938Z" fill="#212121"/>
</svg>
