<svg width="42" height="42" viewBox="0 0 42 42" fill="none" xmlns="http://www.w3.org/2000/svg">
<path d="M9.87115 32.9243C9.52111 32.8529 9.24108 32.7816 8.89104 32.6389C8.54099 32.4962 8.26096 32.4249 7.98093 32.2822C7.35086 31.9968 6.79079 31.6401 6.23073 31.2121C5.11059 30.4273 4.20049 29.3572 3.50041 28.073C2.80033 26.8602 2.38028 25.4334 2.31027 24.0779C2.24026 23.3645 2.31027 22.7224 2.38028 22.009C2.45029 21.6523 2.52029 21.3669 2.5903 21.0102C2.66031 20.6535 2.80033 20.3681 2.87033 20.0114L2.94034 21.0102C2.94034 21.3669 3.01035 21.6523 3.08036 22.009C3.15037 22.6511 3.29038 23.2931 3.4304 23.8639C3.71043 25.0767 4.13048 26.2181 4.76055 27.2883C5.39063 28.3584 6.09071 29.3572 7.00082 30.2846C7.42086 30.7127 7.91092 31.1407 8.40098 31.5688C8.611 31.7828 8.89104 31.9968 9.17107 32.2108L9.87115 32.9243ZM9.66113 35.4926C9.4511 35.6352 9.17107 35.7066 8.89104 35.7779C8.611 35.8493 8.40098 35.9206 8.12095 35.9206C7.63089 35.992 7.07082 36.0633 6.51076 35.992C5.46064 35.9206 4.34051 35.6352 3.4304 35.1359C2.45029 34.6365 1.61019 33.8517 1.05012 32.9243C0.77009 32.4962 0.490057 31.9968 0.280033 31.4974C0.210025 31.2834 0.140016 30.998 0.0700081 30.7127C0.0700081 30.4986 0 30.2846 0 29.9993C0.210024 30.2133 0.350041 30.4273 0.490057 30.57C0.700082 30.784 0.840098 30.998 0.980114 31.1407C1.33016 31.4974 1.61019 31.8541 1.96023 32.1395C2.66031 32.7816 3.36039 33.3523 4.20049 33.7804C4.97058 34.2084 5.88068 34.5651 6.72078 34.8505C7.14083 34.9932 7.63089 35.0645 8.12095 35.2072C8.33097 35.2785 8.611 35.2785 8.82103 35.3499C9.17107 35.4212 9.38109 35.4212 9.66113 35.4926ZM25.483 0.820523C25.833 0.891865 26.113 1.03455 26.4631 1.17723C26.8131 1.31991 27.0932 1.4626 27.3732 1.60528C28.0033 1.96199 28.5633 2.3187 29.1234 2.74675C30.2435 3.60285 31.1536 4.74431 31.7837 6.02846C32.4138 7.31261 32.7638 8.73945 32.7638 10.0949C32.7638 10.8084 32.6938 11.4504 32.5538 12.1638C32.4838 12.5206 32.4138 12.8059 32.2738 13.1626C32.1337 13.5193 32.0637 13.8047 31.9237 14.0901L31.8537 13.0913C31.8537 12.7346 31.8537 12.4492 31.7837 12.0925L31.5737 10.1663C31.3637 8.95347 30.9436 7.74066 30.3835 6.5992C29.8235 5.45773 29.1234 4.45895 28.2833 3.53151C27.8632 3.03211 27.3732 2.60406 26.9531 2.10467C26.7431 1.89065 26.4631 1.67662 26.1831 1.4626L25.483 0.820523ZM31.5737 0.535156C31.8537 0.606498 32.0637 0.67784 32.2738 0.820523C32.4838 0.891865 32.7638 1.03455 32.9738 1.17723C33.3939 1.4626 33.8139 1.74796 34.234 2.10467C35.0041 2.81809 35.6342 3.67419 35.9842 4.67297C36.4042 5.67175 36.5443 6.74188 36.4042 7.812C36.3342 8.3114 36.1942 8.81079 36.0542 9.31018C35.9842 9.5242 35.8442 9.80957 35.7742 10.0236C35.6341 10.2376 35.5641 10.4516 35.3541 10.6657V9.95225V9.23884C35.3541 8.73945 35.2841 8.3114 35.2841 7.88335C35.1441 6.9559 35.0041 6.0998 34.654 5.31505C34.304 4.45895 33.8839 3.74553 33.3939 2.96077C33.1139 2.60406 32.8338 2.17601 32.5538 1.81931C32.4138 1.60528 32.2738 1.4626 32.0637 1.24857C31.9237 0.891864 31.7137 0.67784 31.5737 0.535156Z" fill="#42ADE2"/>
<path d="M5.60114 11.1649C4.20098 11.8069 3.71092 13.5191 4.34099 14.946L13.162 33.7088L18.0626 31.3545L9.24156 12.5204C8.61149 11.0935 7.0013 10.4515 5.60114 11.1649ZM28.7738 26.0753L33.9544 23.5783L23.8733 2.17582C23.1732 0.74899 21.493 0.106915 20.0228 0.820331C18.6227 1.53375 17.9926 3.24595 18.6927 4.74412L28.7738 26.0753Z" fill="#FFDD67"/>
<path d="M20.0919 0.748478C19.9519 0.81982 19.8119 0.891162 19.6719 1.03384C21.002 0.677137 22.4022 1.31921 23.0323 2.60336L33.1134 24.0059L34.0235 23.5778L23.9424 2.17531C23.2423 0.677137 21.5621 0.0350617 20.0919 0.748478Z" fill="#EBA352"/>
<path d="M18.0616 31.282L23.4522 28.6424L13.161 6.81185C12.4609 5.31368 10.6407 4.60026 9.17054 5.31368C7.70037 6.02709 7.07029 7.88198 7.77037 9.38015L18.0616 31.282Z" fill="#FFDD67"/>
<path d="M9.17005 5.38565C9.03003 5.45699 8.89002 5.52833 8.75 5.67101C10.0802 5.31431 11.6203 5.95638 12.2504 7.31187L18.6211 20.9381L20.1613 21.8656L13.1605 6.88382C12.4604 5.31431 10.7102 4.67223 9.17005 5.38565Z" fill="#EBA352"/>
<path d="M22.6124 26.9324L28.003 24.2928L17.7118 2.46221C17.0117 0.964038 15.1915 0.250621 13.7213 1.03538C12.2511 1.7488 11.6211 3.60368 12.3212 5.10185L22.6124 26.9324Z" fill="#FFDD67"/>
<path d="M13.7207 0.963772C13.5807 1.03511 13.4406 1.1778 13.3006 1.24914C14.6308 0.89243 16.171 1.5345 16.801 2.89L24.0119 18.2998L25.5521 19.2272L17.7111 2.46195C17.0111 0.89243 15.1909 0.250355 13.7207 0.963772ZM5.59974 11.1656C5.45972 11.237 5.3197 11.3083 5.17969 11.451C6.43983 11.0943 7.76999 11.7364 8.33005 13.0205L13.5807 24.2211L15.1208 25.1486L9.24016 12.5925C8.61009 11.0943 6.9999 10.4522 5.59974 11.1656Z" fill="#EBA352"/>
<path d="M41.1635 9.02371C39.2732 7.52554 36.1929 9.1664 34.6527 14.303C33.6026 17.8701 33.4626 18.9402 31.2223 20.0103L29.9622 17.3707C29.9622 17.3707 10.0798 27.1445 10.8499 28.714C10.8499 28.714 13.2302 36.2762 17.2907 39.772C23.3114 45.0512 37.383 39.4153 38.0131 25.789C38.3631 17.8701 43.1937 10.6646 41.1635 9.02371Z" fill="#FFDD67"/>
<path d="M41.1662 9.02478C40.8161 8.73942 40.3961 8.59673 39.976 8.52539C40.046 8.59673 40.186 8.59673 40.256 8.66807C42.3563 10.3089 40.186 14.09 38.9959 17.5144C38.0158 20.2254 37.1757 23.0077 37.3157 25.7187C37.8758 37.5614 26.1844 43.1974 19.1836 41.0572C26.0444 43.9822 38.7859 38.4175 38.2258 26.0754C38.0858 23.3645 38.8559 20.7248 39.906 17.8711C41.0261 14.4467 43.1964 10.6656 41.1662 9.02478Z" fill="#EBA352"/>
<path d="M31.8534 19.7266C27.5129 20.226 21.1422 26.5754 25.6227 33.4955C22.3323 26.504 27.723 21.7955 31.1534 20.1546C31.5034 19.8692 31.8534 19.7266 31.8534 19.7266Z" fill="#EBA352"/>
</svg>
